<?xml version="1.0" standalone="no"?>
<!DOCTYPE svg PUBLIC "-//W3C//DTD SVG 1.1//EN" "http://www.w3.org/Graphics/SVG/1.1/DTD/svg11.dtd" >
<svg xmlns="http://www.w3.org/2000/svg" xmlns:xlink="http://www.w3.org/1999/xlink" version="1.1">
<metadata>
Created by FontForge 20170731 at Sun May  3 19:32:31 2015
 By ,,,
Generated in 2015 by FontLab Studio. Copyright info pending.
</metadata>
<defs>
<font id="Tele2TextSans-Regular" horiz-adv-x="510" >
  <font-face 
    font-family="Tele2 TextSans"
    font-weight="400"
    font-stretch="normal"
    units-per-em="1000"
    panose-1="2 0 0 0 0 0 0 0 0 0"
    ascent="745"
    descent="-255"
    x-height="503"
    cap-height="750"
    bbox="-85 -260 1231 1068"
    underline-thickness="50"
    underline-position="-200"
    unicode-range="U+0020-2265"
  />
<missing-glyph horiz-adv-x="500" 
 />
    <glyph glyph-name="IJ" unicode="IJ" horiz-adv-x="612" 
d="M79 0v750h101v-750h-101zM443 233v517h101v-513q0 -119 -41.5 -183t-137.5 -64q-82 0 -120 23v96q40 -29 100 -29q55 0 76.5 35.5t21.5 117.5z" />
    <glyph glyph-name="ij" unicode="ij" horiz-adv-x="491" 
d="M119 605q-29 0 -48 18.5t-19 46.5t19 47t48 19q27 0 47 -19t20 -47q0 -27 -20 -46t-47 -19zM71 0v503h96v-503h-96zM328 -23v526h96v-545q0 -118 -35 -168t-110 -50q-55 0 -85 16v87q25 -19 61 -19q41 0 57 30t16 123zM376 605q-29 0 -48 18.5t-19 46.5t19 47t48 19
q27 0 47 -19t20 -47q0 -27 -20 -46t-47 -19z" />
    <glyph glyph-name="fi" unicode="fi" horiz-adv-x="518" 
d="M185 0h-96v420h-70v83h70v38q0 109 58.5 164t163.5 55q90 0 138 -27v-93q-44 36 -129 36q-135 0 -135 -136v-37h264v-503h-96v420h-168v-420z" />
    <glyph glyph-name="fl" unicode="fl" horiz-adv-x="518" 
d="M185 420v-420h-96v420h-70v83h70v41q0 107 58.5 161.5t163.5 54.5q89 0 138 -26v-734h-96v677q-20 3 -40 3q-63 0 -95.5 -32t-32.5 -103v-42h114v-83h-114z" />
    <glyph glyph-name=".notdef" horiz-adv-x="500" 
 />
    <glyph glyph-name=".null" horiz-adv-x="0" 
 />
    <glyph glyph-name="nonmarkingreturn" horiz-adv-x="333" 
 />
    <glyph glyph-name="space" unicode=" " horiz-adv-x="234" 
 />
    <glyph glyph-name="exclam" unicode="!" horiz-adv-x="265" 
d="M71 750h121l-24 -530h-74zM133 -12q-29 0 -48.5 20t-19.5 48t20 47.5t48 19.5q27 0 47 -19.5t20 -47.5t-20 -48t-47 -20z" />
    <glyph glyph-name="quotedbl" unicode="&#x22;" horiz-adv-x="407" 
d="M228 750h109l-10 -236h-90zM70 750h109l-10 -236h-90z" />
    <glyph glyph-name="numbersign" unicode="#" horiz-adv-x="722" 
d="M414 293l38 141h-148l-38 -141h148zM336 0l56 209h-148l-56 -209h-95l56 209h-116l21 84h117l38 141h-117l21 84h118l62 232h95l-62 -232h148l62 232h94l-62 -232h118l-21 -84h-119l-38 -141h120l-21 -84h-121l-56 -209h-94z" />
    <glyph glyph-name="dollar" unicode="$" 
d="M149 561q0 -66 74 -109v211q-74 -23 -74 -102zM367 194q0 64 -68 104v-212q68 22 68 108zM299 -88h-76v78q-115 4 -186 45v104q83 -55 186 -61v257l-6 3q-87 40 -130.5 88t-43.5 135q0 88 50 135.5t130 59.5v77h76v-73q99 -3 142 -27v-96q-51 32 -142 35v-259
q86 -42 130 -88t44 -129q0 -79 -42.5 -133.5t-131.5 -68.5v-82z" />
    <glyph glyph-name="percent" unicode="%" horiz-adv-x="859" 
d="M221 402q-79 0 -129.5 47t-50.5 129t51 130.5t129 48.5t129.5 -48t51.5 -130t-51 -129.5t-130 -47.5zM221 478q38 0 63 25.5t25 75.5q0 49 -25.5 75t-62.5 26q-38 0 -62.5 -26t-24.5 -76q0 -49 24.5 -74.5t62.5 -25.5zM136 0l475 750h105l-476 -750h-104zM638 -9
q-79 0 -129.5 47.5t-50.5 129.5t51 130.5t129 48.5t129 -48t51 -130q0 -83 -50.5 -130.5t-129.5 -47.5zM638 68q38 0 62.5 25.5t24.5 75.5q0 49 -25 75t-62 26q-38 0 -62.5 -26t-24.5 -76q0 -49 24.5 -74.5t62.5 -25.5z" />
    <glyph glyph-name="ampersand" unicode="&#x26;" horiz-adv-x="685" 
d="M609 -10q-53 40 -100 80q-83 -80 -219 -80q-114 0 -179.5 50.5t-65.5 142.5q0 66 36.5 113t101.5 88q-80 99 -80 191q0 82 49 133.5t144 51.5t142 -45.5t47 -117.5q0 -67 -40 -115.5t-126 -105.5l13 -14q78 -83 167 -161q34 71 38 161h88q-9 -131 -59 -218q28 -25 96 -78
zM204 580q0 -66 63 -144q62 43 89.5 78t27.5 79q0 40 -25.5 63t-63.5 23q-40 0 -65.5 -25t-25.5 -74zM296 72q87 0 147 54q-119 104 -203 194l-4 4q-88 -58 -88 -133q0 -56 39.5 -87.5t108.5 -31.5z" />
    <glyph glyph-name="quotesingle" unicode="'" horiz-adv-x="249" 
d="M70 750h109l-10 -236h-90z" />
    <glyph glyph-name="parenleft" unicode="(" horiz-adv-x="352" 
d="M141 303q0 -197 59.5 -315t141.5 -150v-77q-41 11 -81 36t-80.5 70.5t-71.5 105t-50 145t-19 185.5q0 124 28.5 225.5t74.5 165.5t96.5 102t102.5 52v-77q-82 -32 -141.5 -151t-59.5 -317z" />
    <glyph glyph-name="parenright" unicode=")" horiz-adv-x="352" 
d="M211 305q0 197 -59.5 315.5t-141.5 150.5v77q52 -14 102.5 -52t96.5 -101.5t74.5 -165t28.5 -224.5q0 -100 -19 -186.5t-50 -146t-71.5 -105t-80.5 -70.5t-81 -36v77q82 32 141.5 150.5t59.5 316.5z" />
    <glyph glyph-name="asterisk" unicode="*" horiz-adv-x="431" 
d="M388 535l-40 -74l-99 71l16 -129h-96l18 129l-104 -71l-40 74l121 48l-119 46l41 72l101 -70l-17 129h95l-16 -130l99 71l39 -72l-118 -47z" />
    <glyph glyph-name="plus" unicode="+" horiz-adv-x="536" 
d="M476 315h-167v-184h-81v184h-168v79h168v176h81v-176h167v-79z" />
    <glyph glyph-name="comma" unicode="," horiz-adv-x="255" 
d="M135 -134h-60l39 124q-25 4 -39.5 22t-14.5 44q0 28 20 47.5t48 19.5q42 0 58.5 -33t0.5 -78z" />
    <glyph glyph-name="hyphen" unicode="-" horiz-adv-x="380" 
d="M43 252v73h294v-73h-294z" />
    <glyph glyph-name="period" unicode="." horiz-adv-x="255" 
d="M128 -12q-28 0 -48 20t-20 48t20 47.5t48 19.5q27 0 47 -19.5t20 -47.5t-20 -48t-47 -20z" />
    <glyph glyph-name="slash" unicode="/" horiz-adv-x="471" 
d="M20 -240l340 1065h91l-340 -1065h-91z" />
    <glyph glyph-name="zero" unicode="0" horiz-adv-x="583" 
d="M291 -10q-249 0 -249 383q0 387 249 387q250 0 250 -386q0 -384 -250 -384zM291 81q144 0 144 293q0 295 -144 295q-143 0 -143 -296q0 -140 33 -216t110 -76z" />
    <glyph glyph-name="one" unicode="1" horiz-adv-x="350" 
d="M163 0v644l-146 -61v92l196 82h51v-757h-101z" />
    <glyph glyph-name="two" unicode="2" horiz-adv-x="501" 
d="M476 0h-444v81l215 270q95 122 95 208q0 113 -113 113q-98 0 -168 -60v96q30 25 82 38.5t104 13.5q100 0 150.5 -50.5t50.5 -143.5q0 -66 -30 -124t-96 -140l-170 -211h324v-91z" />
    <glyph glyph-name="three" unicode="3" horiz-adv-x="497" 
d="M209 -10q-103 0 -174 37v96q78 -45 169 -45q69 0 108 38t39 106q0 64 -37 100.5t-105 36.5q-47 0 -80 -9v87q196 21 196 135q0 47 -28.5 73.5t-78.5 26.5q-108 0 -167 -63v96q61 55 177 55q102 0 152 -46.5t50 -119.5q0 -71 -42 -115t-105 -60v-5q83 -10 128.5 -61
t45.5 -130q0 -103 -59 -168t-189 -65z" />
    <glyph glyph-name="four" unicode="4" horiz-adv-x="544" 
d="M520 184h-94v-194h-101v194h-318v67l324 506h95v-492h94v-81zM319 592l-211 -327h217v327h-6z" />
    <glyph glyph-name="five" unicode="5" horiz-adv-x="504" 
d="M205 -10q-110 0 -178 37v96q80 -45 170 -45q84 0 125 41t41 116q0 71 -48 108t-133 37q-26 0 -55.5 -3t-46.5 -6l-16 -3l27 382h346v-91h-260l-15 -195q34 2 51 2q122 0 189 -62t67 -169q0 -106 -67 -175.5t-197 -69.5z" />
    <glyph glyph-name="six" unicode="6" horiz-adv-x="583" 
d="M291 -10q-246 0 -246 324q0 237 84.5 341.5t241.5 104.5q73 0 124 -20v-91q-47 23 -112 23q-232 0 -241 -266h10q48 87 164 87q103 0 162.5 -68.5t59.5 -181.5q0 -116 -66 -184.5t-181 -68.5zM292 75q62 0 101 44.5t39 123.5q0 77 -39.5 121.5t-100.5 44.5
q-65 0 -103 -44t-38 -123q-1 -79 37 -123t104 -44z" />
    <glyph glyph-name="seven" unicode="7" horiz-adv-x="472" 
d="M209 0h-101q6 116 93 309l158 350h-332v91h440v-71l-173 -383q-79 -173 -85 -296z" />
    <glyph glyph-name="eight" unicode="8" horiz-adv-x="579" 
d="M290 -10q-117 0 -184 58.5t-67 160.5q0 68 36.5 118.5t105.5 73.5v8q-56 17 -84 61t-28 99q0 83 58.5 137t162.5 54t162 -53.5t58 -136.5q0 -56 -28 -100t-84 -61v-8q69 -23 105.5 -73t36.5 -118q0 -103 -66 -161.5t-184 -58.5zM290 442q53 0 83.5 29.5t30.5 86.5t-31 89
t-83 32q-53 0 -84 -32t-31 -89t30.5 -86.5t84.5 -29.5zM290 71q67 0 105.5 39t38.5 104q0 68 -38 106.5t-106 38.5t-106.5 -38.5t-38.5 -106.5q0 -65 38.5 -104t106.5 -39z" />
    <glyph glyph-name="nine" unicode="9" horiz-adv-x="583" 
d="M292 675q-65 0 -103 -44t-38 -124q0 -78 38.5 -122t102.5 -44q67 0 103.5 43.5t37.5 123.5q0 81 -36 124t-105 43zM255 78q100 0 141 69.5t47 200.5h-10q-48 -91 -160 -91q-107 0 -167.5 67t-60.5 183q0 115 66.5 184t180.5 69q125 0 185.5 -81t60.5 -262
q0 -127 -19.5 -212t-59 -131.5t-89.5 -65t-121 -18.5q-97 0 -163 32v99q73 -43 169 -43z" />
    <glyph glyph-name="colon" unicode=":" horiz-adv-x="255" 
d="M128 324q-28 0 -48 20t-20 48t20 47.5t48 19.5q27 0 47 -19.5t20 -47.5t-20 -48t-47 -20zM128 -12q-28 0 -48 20t-20 48t20 47.5t48 19.5q27 0 47 -19.5t20 -47.5t-20 -48t-47 -20z" />
    <glyph glyph-name="semicolon" unicode=";" horiz-adv-x="257" 
d="M128 324q-28 0 -48 20t-20 48t20 47.5t48 19.5q27 0 47 -19.5t20 -47.5t-20 -48t-47 -20zM135 -134h-60l39 124q-25 4 -39.5 22t-14.5 44q0 28 20 47.5t48 19.5q42 0 58.5 -33t0.5 -78z" />
    <glyph glyph-name="less" unicode="&#x3c;" horiz-adv-x="466" 
d="M406 105l-376 215v54l375 215v-92l-258 -148l259 -149v-95z" />
    <glyph glyph-name="equal" unicode="=" horiz-adv-x="516" 
d="M60 409v80h396v-80h-396zM60 220v80h396v-80h-396z" />
    <glyph glyph-name="greater" unicode="&#x3e;" horiz-adv-x="466" 
d="M60 105v94l258 148l-257 148v94l375 -215v-54z" />
    <glyph glyph-name="question" unicode="?" horiz-adv-x="481" 
d="M225 671q-98 0 -169 -60v97q62 52 183 52q100 0 151.5 -43t51.5 -125q0 -42 -15.5 -77.5t-39 -58t-51 -43.5t-51 -35.5t-39 -32t-15.5 -35.5q0 -50 74 -48v-72q-175 0 -175 111q0 37 21 67.5t51.5 51.5l61 42t51.5 49.5t21 62.5q0 97 -111 97zM228 -12q-28 0 -48 20
t-20 48t20 47.5t48 19.5q27 0 47 -19.5t20 -47.5t-20 -48t-47 -20z" />
    <glyph glyph-name="at" unicode="@" horiz-adv-x="990" 
d="M692 -93v-92q-31 -18 -82.5 -29t-101.5 -11q-42 0 -81 3.5t-87 16t-88 32t-79.5 54.5t-66.5 81.5t-44 115.5t-17 153q0 102 26 184t70 135.5t104 90t125.5 52t137.5 15.5q198 0 317.5 -108.5t119.5 -330.5q0 -131 -51 -205t-145 -74q-47 0 -78.5 14.5t-43.5 30t-23 41.5
h-7q-26 -43 -58.5 -64.5t-87.5 -21.5q-189 0 -189 241q0 117 51.5 179.5t143.5 62.5q105 0 137 -81h7v71h91v-290q0 -57 18 -78t48 -21q86 0 86 185q0 102 -28 174.5t-78 111t-106 55.5t-124 17q-53 0 -101 -10t-96.5 -37.5t-84 -69.5t-58 -111t-22.5 -158q0 -72 15.5 -130
t39 -95t58 -65t66 -41.5t70 -22t62.5 -10t51 -1.5q47 0 99.5 10.5t84.5 30.5zM487 76q109 0 109 137v51q0 57 -27.5 90t-80.5 33q-125 0 -125 -156q0 -155 124 -155z" />
    <glyph glyph-name="A" unicode="A" horiz-adv-x="604" 
d="M287 603l-103 -329h218l-106 329h-9zM491 0l-60 187h-274l-58 -187h-89l240 750h94l250 -750h-103z" />
    <glyph glyph-name="B" unicode="B" horiz-adv-x="589" 
d="M298 0h-219v750h205q124 0 184 -49.5t60 -137.5q0 -122 -124 -164v-8q77 -17 114.5 -64.5t37.5 -116.5q0 -95 -61.5 -152.5t-196.5 -57.5zM180 426h97q68 0 106.5 34.5t38.5 95.5q0 109 -145 109h-97v-239zM180 85h109q161 0 161 126q0 133 -168 133h-102v-259z" />
    <glyph glyph-name="C" unicode="C" horiz-adv-x="570" 
d="M366 -10q-163 0 -243.5 101t-80.5 284q0 178 86.5 281.5t239.5 103.5q92 0 145 -24v-92q-50 28 -138 28q-99 0 -163 -77t-64 -220q0 -150 59 -223.5t169 -73.5q97 0 154 43v-94q-63 -37 -164 -37z" />
    <glyph glyph-name="D" unicode="D" horiz-adv-x="647" 
d="M234 0h-155v750h155q178 0 274.5 -96.5t96.5 -277.5q0 -182 -96.5 -279t-274.5 -97zM234 89q125 0 195 73t70 214q0 142 -69.5 213.5t-195.5 71.5h-54v-572h54z" />
    <glyph glyph-name="E" unicode="E" horiz-adv-x="532" 
d="M79 0v750h406v-89h-305v-231h249v-89h-249v-252h318v-89h-419z" />
    <glyph glyph-name="F" unicode="F" horiz-adv-x="485" 
d="M79 0v750h386v-89h-285v-236h232v-89h-232v-336h-101z" />
    <glyph glyph-name="G" unicode="G" horiz-adv-x="617" 
d="M562 17q-59 -27 -183 -27q-165 0 -251 100.5t-86 284.5q0 182 93.5 283.5t250.5 101.5q107 0 157 -24v-91q-56 27 -150 27q-109 0 -177 -80.5t-68 -216.5q0 -140 60 -218.5t176 -78.5q42 0 79 6v208h-138v85h237v-360z" />
    <glyph glyph-name="H" unicode="H" horiz-adv-x="676" 
d="M79 0v750h101v-322h316v322h101v-750h-101v339h-316v-339h-101z" />
    <glyph glyph-name="I" unicode="I" horiz-adv-x="259" 
d="M79 0v750h101v-750h-101z" />
    <glyph glyph-name="J" unicode="J" horiz-adv-x="376" 
d="M206 233v517h101v-513q0 -119 -41.5 -183t-137.5 -64q-82 0 -120 23v96q40 -29 100 -29q55 0 76.5 35.5t21.5 117.5z" />
    <glyph glyph-name="K" unicode="K" horiz-adv-x="625" 
d="M486 0l-231 309l-75 -105v-204h-101v750h101v-408l286 408h109l-246 -357l289 -393h-132z" />
    <glyph glyph-name="L" unicode="L" horiz-adv-x="487" 
d="M79 0v750h101v-661h296v-89h-397z" />
    <glyph glyph-name="M" unicode="M" horiz-adv-x="816" 
d="M79 0v750h133l196 -597h5l195 597h129v-750h-101v599h-6l-192 -599h-75l-192 599h-6v-599h-86z" />
    <glyph glyph-name="N" unicode="N" horiz-adv-x="682" 
d="M79 0v750h104l324 -566h5v566h91v-750h-102l-326 567h-7v-567h-89z" />
    <glyph glyph-name="O" unicode="O" horiz-adv-x="688" 
d="M344 -10q-142 0 -222 103t-80 282q0 180 80 282.5t222 102.5q143 0 223 -102t80 -282t-80 -283t-223 -103zM344 78q93 0 145 77t52 221q0 142 -52 219t-145 77q-92 0 -144 -76.5t-52 -220.5q0 -143 52 -220t144 -77z" />
    <glyph glyph-name="P" unicode="P" horiz-adv-x="548" 
d="M79 0v750h193q130 0 192 -64.5t62 -157.5q0 -97 -62.5 -164t-191.5 -67h-92v-297h-101zM180 387h87q71 0 112 36t41 106q0 63 -41.5 97.5t-111.5 34.5h-87v-274z" />
    <glyph glyph-name="Q" unicode="Q" horiz-adv-x="688" 
d="M260 -48l330 -20v-85l-330 20v85zM344 -10q-142 0 -222 103t-80 282q0 180 80 282.5t222 102.5q143 0 223 -102t80 -282t-80 -283t-223 -103zM344 78q93 0 145 77t52 221q0 142 -52 219t-145 77q-92 0 -144 -76.5t-52 -220.5q0 -143 52 -220t144 -77z" />
    <glyph glyph-name="R" unicode="R" horiz-adv-x="612" 
d="M180 386h87q72 0 113.5 35t41.5 104q0 67 -41.5 101.5t-113.5 34.5h-87v-275zM180 296v-296h-101v750h186q136 0 199.5 -63t63.5 -159q0 -68 -37.5 -125.5t-110.5 -81.5l213 -321h-126l-191 297q-10 -1 -28 -1h-68z" />
    <glyph glyph-name="S" unicode="S" 
d="M237 78q130 0 130 116q0 28 -8.5 48t-35 39t-39 25.5t-57.5 26.5l-3 1.5l-3 1.5l-4 2q-87 40 -130.5 88t-43.5 135q0 104 69.5 151.5t170.5 47.5q110 0 158 -27v-96q-57 35 -154 35q-57 0 -97.5 -25.5t-40.5 -85.5q0 -27 9.5 -48t32 -38.5t39.5 -27t51 -25.5
q38 -18 60 -30t51 -33t44 -42t26 -52t11 -69q0 -92 -56.5 -149t-174.5 -57q-127 0 -205 45v104q92 -61 200 -61z" />
    <glyph glyph-name="T" unicode="T" horiz-adv-x="556" 
d="M228 0v661h-208v89h516v-89h-207v-661h-101z" />
    <glyph glyph-name="U" unicode="U" horiz-adv-x="657" 
d="M580 273q0 -283 -248 -283q-255 0 -255 282v478h101v-473q0 -97 36 -147.5t119 -50.5q85 0 118 49.5t33 149.5v472h96v-477z" />
    <glyph glyph-name="V" unicode="V" horiz-adv-x="594" 
d="M115 750l193 -590h9l176 590h91l-231 -750h-90l-253 750h105z" />
    <glyph glyph-name="W" unicode="W" horiz-adv-x="868" 
d="M289 0h-81l-195 750h102l141 -550h7l138 550h77l140 -550h9l137 550h91l-194 -750h-85l-142 547h-9z" />
    <glyph glyph-name="X" unicode="X" horiz-adv-x="625" 
d="M489 0l-187 307l-180 -307h-100l229 390l-218 360h114l163 -267l156 267h101l-205 -351l241 -399h-114z" />
    <glyph glyph-name="Y" unicode="Y" horiz-adv-x="577" 
d="M348 0h-101v304l-240 446h114l181 -339h5l168 339h95l-222 -446v-304z" />
    <glyph glyph-name="Z" unicode="Z" horiz-adv-x="517" 
d="M490 0h-463v68l339 593h-327v89h444v-68l-340 -593h347v-89z" />
    <glyph glyph-name="bracketleft" unicode="[" horiz-adv-x="321" 
d="M311 -230h-231v1075h231v-77h-130v-921h130v-77z" />
    <glyph glyph-name="backslash" unicode="\" horiz-adv-x="473" 
d="M453 -240h-93l-340 1065h93z" />
    <glyph glyph-name="bracketright" unicode="]" horiz-adv-x="321" 
d="M10 -230v77h130v921h-130v77h231v-1075h-231z" />
    <glyph glyph-name="asciicircum" unicode="^" horiz-adv-x="493" 
d="M470 376h-91l-133 250l-132 -249h-91l198 374h53z" />
    <glyph glyph-name="underscore" unicode="_" 
d="M0 -114v74h510v-74h-510z" />
    <glyph glyph-name="grave" unicode="`" horiz-adv-x="334" 
d="M253 577h-83l-122 146h145z" />
    <glyph glyph-name="a" unicode="a" horiz-adv-x="519" 
d="M235 69q50 0 86.5 37t36.5 104v27q-116 0 -163 -21t-47 -73q0 -74 87 -74zM199 -10q-73 0 -112.5 39t-39.5 103q0 88 72.5 127.5t238.5 39.5v23q0 109 -122 109q-90 0 -158 -45v90q62 37 171 37q103 0 154 -50t51 -142v-321h-91v79h-7q-26 -45 -61.5 -67t-95.5 -22z" />
    <glyph glyph-name="b" unicode="b" horiz-adv-x="575" 
d="M71 0v750h96v-240l-5 -78h7q52 81 159 81q93 0 151.5 -71t58.5 -189q0 -122 -58 -192.5t-153 -70.5q-108 0 -158 80h-7v-70h-91zM300 74q59 0 98 44.5t39 134.5q0 87 -39 131.5t-98 44.5q-61 0 -97 -35t-36 -102v-70q0 -71 37.5 -109.5t95.5 -38.5z" />
    <glyph glyph-name="c" unicode="c" horiz-adv-x="447" 
d="M282 -10q-116 0 -180.5 68t-64.5 192q0 121 67.5 192t174.5 71q79 0 126 -25v-93q-45 32 -117 32q-67 0 -108.5 -45t-41.5 -132q0 -88 41.5 -131t113.5 -43q77 0 119 36v-95q-47 -27 -130 -27z" />
    <glyph glyph-name="d" unicode="d" horiz-adv-x="575" 
d="M278 74q56 0 93 37t37 110v69q0 65 -36 102t-93 37q-63 0 -102 -44.5t-39 -135.5q0 -88 39 -131.5t101 -43.5zM504 0h-91v70h-7q-44 -80 -159 -80q-97 0 -153.5 68.5t-56.5 190.5q0 121 59.5 192.5t157.5 71.5q109 0 152 -80h7l-5 77v240h96v-750z" />
    <glyph glyph-name="e" unicode="e" 
d="M287 -10q-119 0 -184.5 65t-65.5 195q0 122 63 192.5t166 70.5q93 0 150 -52.5t57 -153.5q0 -42 -6 -62h-326q-1 -84 40.5 -127.5t117.5 -43.5q99 0 157 48v-89q-55 -43 -169 -43zM140 311h237q-4 66 -35.5 95.5t-80.5 29.5t-80.5 -31t-40.5 -94z" />
    <glyph glyph-name="f" unicode="f" horiz-adv-x="319" 
d="M185 566v-63h121v-83h-121v-420h-96v420h-70v83h70v65q0 91 44.5 141.5t125.5 50.5q57 0 97 -15v-89q-28 20 -75 20q-96 0 -96 -110z" />
    <glyph glyph-name="g" unicode="g" horiz-adv-x="515" 
d="M249 220q44 0 72.5 29t28.5 80q0 53 -28.5 82t-72.5 29t-72 -29.5t-28 -82.5q0 -52 28 -80t72 -28zM500 -87q0 -81 -64.5 -127t-173.5 -46q-108 0 -171 37.5t-63 106.5q0 91 98 128q-41 22 -41 70q0 61 68 86q-49 20 -76.5 61.5t-27.5 99.5q0 85 55.5 134.5t144.5 49.5
q66 0 116 -28l142 18v-83l-79 1q22 -39 22 -91q0 -84 -55.5 -132t-145.5 -48h-1q-70 0 -70 -39q0 -14 8 -23t25.5 -13.5t35.5 -6.5t48 -3q101 -5 153 -40t52 -112zM270 -189q63 0 102.5 23.5t39.5 70.5q0 43 -35.5 59.5t-104.5 19.5q-51 1 -94 10q-55 -28 -55 -86
q0 -47 40 -72t107 -25z" />
    <glyph glyph-name="h" unicode="h" horiz-adv-x="560" 
d="M71 0v750h96v-240l-5 -77h7q50 80 155 80q170 0 170 -188v-325h-96v289q0 71 -27 104.5t-85 33.5q-54 0 -86.5 -32t-32.5 -99v-296h-96z" />
    <glyph glyph-name="i" unicode="i" horiz-adv-x="237" 
d="M71 0v503h96v-503h-96zM119 605q-29 0 -48 18.5t-19 46.5t19 47t48 19q27 0 47 -19t20 -47q0 -27 -20 -46t-47 -19z" />
    <glyph glyph-name="j" unicode="j" horiz-adv-x="254" 
d="M91 -23v526h96v-545q0 -118 -35 -168t-110 -50q-55 0 -85 16v87q25 -19 61 -19q41 0 57 30t16 123zM139 605q-29 0 -48 18.5t-19 46.5t19 47t48 19q27 0 47 -19t20 -47q0 -27 -20 -46t-47 -19z" />
    <glyph glyph-name="k" unicode="k" horiz-adv-x="502" 
d="M375 0l-156 191l-52 -67v-124h-96v750h96v-509l200 262h103l-185 -238l210 -265h-120z" />
    <glyph glyph-name="l" unicode="l" horiz-adv-x="271" 
d="M65 115v635h96v-621q0 -53 48 -53q26 -1 52 13v-83q-27 -16 -72 -16q-61 0 -92.5 29t-31.5 96z" />
    <glyph glyph-name="m" unicode="m" horiz-adv-x="826" 
d="M167 302v-302h-96v503h91v-71h7q48 81 148 81q102 0 135 -81h7q45 81 146 81q84 0 120 -47.5t36 -141.5v-324h-96v292q0 70 -23 102.5t-73 32.5q-48 0 -76.5 -31t-28.5 -94v-302h-96v292q0 70 -23.5 102.5t-73.5 32.5q-47 0 -75.5 -31t-28.5 -94z" />
    <glyph glyph-name="n" unicode="n" horiz-adv-x="560" 
d="M71 0v503h91v-71h7q47 81 155 81q170 0 170 -188v-325h-96v289q0 71 -27 104.5t-85 33.5q-54 0 -86.5 -35t-32.5 -96v-296h-96z" />
    <glyph glyph-name="o" unicode="o" horiz-adv-x="544" 
d="M272 -10q-104 0 -169.5 69t-65.5 191q0 121 65.5 192t169.5 71q102 0 168.5 -70.5t66.5 -191.5t-66 -191t-169 -70zM272 74q59 0 96.5 44.5t37.5 132.5t-38 133t-96 45q-60 0 -97 -45t-37 -134t37 -132.5t97 -43.5z" />
    <glyph glyph-name="p" unicode="p" horiz-adv-x="575" 
d="M300 74q59 0 98 44.5t39 134.5q0 87 -39 131.5t-99 44.5t-96 -35t-36 -102v-70q0 -71 37.5 -109.5t95.5 -38.5zM71 -250v753h91v-71h7q49 81 159 81q93 0 151.5 -71t58.5 -189q0 -122 -58 -192.5t-153 -70.5q-106 0 -158 80h-7l5 -80v-240h-96z" />
    <glyph glyph-name="q" unicode="q" horiz-adv-x="575" 
d="M408 -250v250l5 70h-7q-48 -80 -159 -80q-97 0 -153.5 68.5t-56.5 190.5q0 121 59.5 192.5t157.5 71.5q108 0 152 -80h7v70h91v-753h-96zM278 74q56 0 93 37t37 110v69q0 65 -36 102t-93 37q-63 0 -102 -44.5t-39 -135.5q0 -88 39 -131.5t101 -43.5z" />
    <glyph glyph-name="r" unicode="r" horiz-adv-x="376" 
d="M71 0v503h91v-79h7q15 39 49.5 64t85.5 25q43 0 62 -8v-97q-34 12 -77 12q-21 0 -40.5 -6t-39 -20t-31 -42.5t-11.5 -67.5v-284h-96z" />
    <glyph glyph-name="s" unicode="s" horiz-adv-x="434" 
d="M213 -10q-113 0 -174 37v92q69 -49 172 -49q87 0 87 68q0 28 -20.5 43.5t-59.5 29.5q-7 3 -32.5 11t-35.5 12t-31 13.5t-31 19t-22 23t-17 32t-5 40.5q0 71 50.5 111t150.5 40q85 0 127 -19v-88q-50 27 -123 27q-47 0 -74 -18t-27 -52q0 -25 19 -39t56 -26q5 -2 27.5 -9
t30.5 -10t27.5 -11.5t28.5 -15t22.5 -19t20 -25.5t11.5 -31t5 -40q0 -65 -45 -106t-138 -41z" />
    <glyph glyph-name="t" unicode="t" horiz-adv-x="383" 
d="M248 -10q-87 0 -123 48.5t-36 142.5v239h-70v83h70v144h96v-144h157v-83h-157v-235q0 -56 17.5 -84t59.5 -28q48 -1 87 14v-81q-39 -16 -101 -16z" />
    <glyph glyph-name="u" unicode="u" horiz-adv-x="557" 
d="M233 -10q-82 0 -124.5 49t-42.5 139v325h96v-289q0 -72 27.5 -105t82.5 -33q47 0 82.5 33.5t35.5 108.5v285h96v-503h-91v70h-7q-49 -80 -155 -80z" />
    <glyph glyph-name="v" unicode="v" horiz-adv-x="471" 
d="M195 0l-190 503h100l138 -376h9l125 376h89l-175 -503h-96z" />
    <glyph glyph-name="w" unicode="w" horiz-adv-x="686" 
d="M451 0l-105 378h-7l-90 -378h-100l-144 503h94l106 -385h9l91 385h87l107 -385h8l92 385h82l-130 -503h-100z" />
    <glyph glyph-name="x" unicode="x" horiz-adv-x="502" 
d="M369 0l-122 187l-121 -187h-95l167 251l-171 252h113l118 -181l117 181h95l-163 -245l176 -258h-114z" />
    <glyph glyph-name="y" unicode="y" horiz-adv-x="478" 
d="M205 -250h-91l88 244l-200 509h102l141 -370h9l131 370h91z" />
    <glyph glyph-name="z" unicode="z" horiz-adv-x="468" 
d="M435 0h-391v63l258 357h-253v83h364v-63l-258 -357h280v-83z" />
    <glyph glyph-name="braceleft" unicode="{" horiz-adv-x="381" 
d="M371 -240q-71 0 -114.5 10.5t-73 40.5t-41 79.5t-11.5 129.5v141q0 40 -19.5 73t-71.5 38v76q55 11 72.5 39t17.5 85v164q0 124 51 166.5t190 42.5v-77q-27 0 -46 -1t-34 -6t-25 -9t-17 -16t-10.5 -21.5t-5 -30.5t-2 -37.5t-0.5 -48.5v-141q0 -32 -2 -50.5t-9 -40
t-24 -34.5t-44 -19v-5q35 -8 53.5 -30.5t22.5 -44.5t4 -55v-110q0 -143 21 -187t118 -44v-77z" />
    <glyph glyph-name="bar" unicode="|" horiz-adv-x="291" 
d="M100 -240v1062h91v-1062h-91z" />
    <glyph glyph-name="braceright" unicode="}" horiz-adv-x="381" 
d="M10 -240v77q21 0 37.5 1.5t30 6.5t23.5 9t17.5 15t12.5 19t8.5 25.5t5.5 29t3 36t1 41v48.5v110q0 32 4.5 54.5t23 45.5t52.5 30v5q-50 12 -64.5 46.5t-14.5 97.5v141q0 32 -0.5 48.5t-2 37.5t-5 30.5t-10.5 21.5t-17 16t-25 9t-34 6t-46 1v77q139 0 190 -42.5t51 -166.5
v-164q0 -57 17.5 -85t72.5 -39v-76q-52 -5 -71.5 -38t-19.5 -73v-141q0 -80 -11.5 -129.5t-41 -79.5t-73 -40.5t-114.5 -10.5z" />
    <glyph glyph-name="asciitilde" unicode="~" horiz-adv-x="563" 
d="M451 447h77q-4 -85 -39 -126.5t-94 -41.5q-36 0 -67.5 15t-50 33.5t-44 33.5t-52.5 15q-58 0 -69 -81h-77q4 81 43 124t103 43q36 0 67.5 -15.5t50 -33.5t43 -33.5t47.5 -15.5q58 0 62 83z" />
    <glyph glyph-name="uni00A0" unicode="&#xa0;" horiz-adv-x="234" 
 />
    <glyph glyph-name="exclamdown" unicode="&#xa1;" horiz-adv-x="265" 
d="M194 0h-121l24 530h74zM132 762q28 0 48 -20t20 -48t-20 -47.5t-48 -19.5q-27 0 -47 19.5t-20 47.5t20 48t47 20z" />
    <glyph glyph-name="cent" unicode="&#xa2;" horiz-adv-x="447" 
d="M412 17q-42 -25 -116 -27v-78h-70v83q-90 15 -139.5 81t-49.5 174q0 105 52 173t137 85v105h70v-100q66 -3 109 -25v-93q-42 30 -109 32v-351q77 2 116 36v-95zM138 250q0 -128 88 -162v327q-88 -37 -88 -165z" />
    <glyph glyph-name="sterling" unicode="&#xa3;" horiz-adv-x="509" 
d="M486 91v-91h-464v71q52 41 70.5 91t19.5 144h-82v82h82v137q0 235 222 235q81 0 132 -23v-99q-48 31 -127 31q-121 0 -121 -155v-126h205v-82h-205q-1 -148 -58 -215h326z" />
    <glyph glyph-name="yen" unicode="&#xa5;" horiz-adv-x="577" 
d="M513 136h-165v-136h-101v136h-165v76h165v91h-165v76h125l-200 371h114l181 -339h5l168 339h95l-185 -371h128v-76h-165v-91h165v-76z" />
    <glyph glyph-name="brokenbar" unicode="&#xa6;" horiz-adv-x="288" 
d="M100 367v455h88v-455h-88zM100 -240v461h88v-461h-88z" />
    <glyph glyph-name="section" unicode="&#xa7;" horiz-adv-x="515" 
d="M146 337q0 -35 21 -63t47.5 -43t69.5 -38t67 -40q26 27 26 69q0 30 -12 53t-35.5 39.5t-46.5 29t-56.5 28.5t-54.5 30q-26 -28 -26 -65zM245 -204q-119 0 -199 43v105q88 -57 191 -57q49 0 74.5 21t25.5 70q0 43 -30 73t-72.5 50.5t-84.5 43.5t-72 66t-30 104
q0 86 67 137q-40 52 -40 125q0 88 58.5 135.5t154.5 47.5q94 0 145 -24v-99q-62 32 -145 32q-45 0 -76.5 -22t-31.5 -68q0 -41 30 -70.5t73 -50.5t86 -45t73 -68t30 -106q0 -96 -65 -141q35 -50 35 -119q0 -79 -45.5 -131t-151.5 -52z" />
    <glyph glyph-name="dieresis" unicode="&#xa8;" horiz-adv-x="505" 
d="M145 605q-28 0 -47 18.5t-19 46.5q0 27 19 46.5t47 19.5q26 0 46 -19.5t20 -46.5t-19.5 -46t-46.5 -19zM353 605q-27 0 -46.5 19t-19.5 46t19.5 46.5t46.5 19.5t46.5 -19.5t19.5 -46.5t-19.5 -46t-46.5 -19z" />
    <glyph glyph-name="copyright" unicode="&#xa9;" horiz-adv-x="871" 
d="M436 -10q-164 0 -274.5 102.5t-110.5 282.5t110.5 282.5t274.5 102.5q105 0 191 -43t140 -132t54 -210t-54 -210t-140 -132t-191 -43zM435 63q135 0 217.5 81.5t82.5 230.5q0 141 -84 226.5t-216 85.5q-130 0 -215 -82t-85 -230q0 -147 86 -229.5t214 -82.5zM454 159
q-98 0 -153.5 57t-55.5 159q0 101 58.5 160.5t147.5 59.5q69 0 105 -21v-84q-35 26 -97 26q-56 0 -89.5 -34.5t-33.5 -106.5q0 -138 127 -138q66 0 99 30v-85q-36 -23 -108 -23z" />
    <glyph glyph-name="ordfeminine" unicode="&#xaa;" horiz-adv-x="469" 
d="M217 379q43 0 72.5 30t29.5 87v21q-91 0 -130.5 -18.5t-39.5 -62.5q0 -57 68 -57zM188 308q-60 0 -93.5 33t-33.5 86q0 76 62 111t196 35v22q0 90 -100 90q-79 0 -132 -39v83q51 31 142 31q87 0 130.5 -43t43.5 -123v-277h-79v68h-6q-21 -38 -50.5 -57.5t-79.5 -19.5z
" />
    <glyph glyph-name="guillemotleft" unicode="&#xab;" horiz-adv-x="442" 
d="M215 40l-192 203v50l191 203v-105l-111 -120l112 -117v-114zM399 42l-190 201v50l189 201v-105l-111 -120l112 -119v-108z" />
    <glyph glyph-name="uni00AD" unicode="&#xad;" horiz-adv-x="380" 
d="M43 252v73h294v-73h-294z" />
    <glyph glyph-name="registered" unicode="&#xae;" horiz-adv-x="647" 
d="M323 227q-113 0 -189.5 70.5t-76.5 195.5t76.5 196t189.5 71t190 -71t77 -196t-77 -195.5t-190 -70.5zM323 288q89 0 143.5 53.5t54.5 151.5q0 93 -55.5 149t-142.5 56q-86 0 -142 -53.5t-56 -151.5q0 -97 56.5 -151t141.5 -54zM290 506h28q53 0 53 45q0 44 -53 44h-28
v-89zM290 357h-60v282h96q108 0 108 -85q0 -60 -52 -80l76 -117h-71l-67 104h-30v-104z" />
    <glyph glyph-name="macron" unicode="&#xaf;" horiz-adv-x="333" 
d="M40 627v73h253v-73h-253z" />
    <glyph glyph-name="degree" unicode="&#xb0;" horiz-adv-x="315" 
d="M157 524q-53 0 -87.5 32t-34.5 88t34.5 87.5t87.5 31.5q51 0 86.5 -31.5t35.5 -87.5q0 -55 -35.5 -87.5t-86.5 -32.5zM158 585q25 0 40.5 15.5t15.5 43.5q0 27 -15.5 42t-40.5 15q-24 0 -39.5 -14.5t-15.5 -42.5t16 -43.5t39 -15.5z" />
    <glyph glyph-name="plusminus" unicode="&#xb1;" horiz-adv-x="550" 
d="M486 411h-170v-175h-82v175h-174v80h174v171h82v-171h170v-80zM60 105v80h430v-80h-430z" />
    <glyph glyph-name="acute" unicode="&#xb4;" horiz-adv-x="341" 
d="M70 577l73 146h139l-127 -146h-85z" />
    <glyph glyph-name="paragraph" unicode="&#xb6;" horiz-adv-x="626" 
d="M455 -240v990h91v-990h-91zM366 -240h-91v497q-125 3 -185 75t-60 176q0 47 14 89t43 77t79.5 55.5t116.5 20.5h83v-990z" />
    <glyph glyph-name="periodcentered" unicode="&#xb7;" horiz-adv-x="262" 
d="M131 223q-29 0 -48.5 19.5t-19.5 48.5q0 28 20 47.5t48 19.5q27 0 47 -19.5t20 -47.5t-20 -48t-47 -20z" />
    <glyph glyph-name="cedilla" unicode="&#xb8;" horiz-adv-x="334" 
d="M189 -36q80 -7 80 -81q0 -79 -103 -79q-55 0 -84 18v68q30 -27 70 -27q36 0 36 27q0 18 -14.5 24.5t-49.5 6.5v79h65v-36z" />
    <glyph glyph-name="ordmasculine" unicode="&#xba;" horiz-adv-x="487" 
d="M244 308q-90 0 -148.5 60t-58.5 164q0 105 58.5 166.5t148.5 61.5q89 0 148 -61t59 -166t-58.5 -165t-148.5 -60zM244 384q51 0 83.5 37.5t32.5 111.5q0 75 -33 113t-83 38q-52 0 -84 -38.5t-32 -113.5q0 -73 32 -110.5t84 -37.5z" />
    <glyph glyph-name="guillemotright" unicode="&#xbb;" horiz-adv-x="442" 
d="M228 40v104l112 121l-113 117v114l192 -203v-50zM44 41v106l111 120l-112 119v108l190 -201v-50z" />
    <glyph glyph-name="questiondown" unicode="&#xbf;" horiz-adv-x="481" 
d="M256 82q98 0 169 60v-97q-62 -52 -183 -52q-100 0 -151.5 43t-51.5 125q0 42 15.5 77.5t39 58t51 43.5t51 35.5t39 32t15.5 35.5q0 50 -74 48v72q175 0 175 -111q0 -37 -21 -67.5t-51.5 -51.5l-61 -42t-51.5 -49.5t-21 -62.5q0 -97 111 -97zM253 765q29 0 48.5 -19.5
t19.5 -48.5q0 -28 -20 -47.5t-48 -19.5q-27 0 -47 19.5t-20 47.5t20 48t47 20z" />
    <glyph glyph-name="Agrave" unicode="&#xc0;" horiz-adv-x="604" 
d="M287 603l-103 -329h218l-106 329h-9zM491 0l-60 187h-274l-58 -187h-89l240 750h94l250 -750h-103zM335 797h-93l-164 109h169z" />
    <glyph glyph-name="Aacute" unicode="&#xc1;" horiz-adv-x="604" 
d="M287 603l-103 -329h218l-106 329h-9zM491 0l-60 187h-274l-58 -187h-89l240 750h94l250 -750h-103zM251 797l86 109h159l-156 -109h-89z" />
    <glyph glyph-name="Acircumflex" unicode="&#xc2;" horiz-adv-x="604" 
d="M287 603l-103 -329h218l-106 329h-9zM491 0l-60 187h-274l-58 -187h-89l240 750h94l250 -750h-103zM265 906h70l125 -116h-106l-55 47h-5l-54 -47h-101z" />
    <glyph glyph-name="Atilde" unicode="&#xc3;" horiz-adv-x="604" 
d="M287 603l-103 -329h218l-106 329h-9zM491 0l-60 187h-274l-58 -187h-89l240 750h94l250 -750h-103zM168 798v82q18 33 66 33q24 0 64 -17t59 -17q43 0 61 38v-83q-16 -32 -63 -32q-25 0 -65.5 16.5t-60.5 16.5q-40 0 -61 -37z" />
    <glyph glyph-name="Adieresis" unicode="&#xc4;" horiz-adv-x="604" 
d="M287 603l-103 -329h218l-106 329h-9zM491 0l-60 187h-274l-58 -187h-89l240 750h94l250 -750h-103zM197 793q-27 0 -45 17.5t-18 43.5t18 44t45 18t45 -18t18 -44t-18 -43.5t-45 -17.5zM392 793q-27 0 -45 17.5t-18 43.5t18 44t45 18t45 -18t18 -44t-18 -43.5t-45 -17.5z
" />
    <glyph glyph-name="Aring" unicode="&#xc5;" horiz-adv-x="604" 
d="M287 603l-103 -329h218l-106 329h-9zM491 0l-60 187h-274l-58 -187h-89l240 750h94l250 -750h-103zM297 773q-50 0 -79 24.5t-29 60.5q0 37 28.5 60.5t79.5 23.5q48 0 77.5 -24t29.5 -60t-29.5 -60.5t-77.5 -24.5zM297 827q44 0 44 31t-44 31q-45 0 -45 -31t45 -31z" />
    <glyph glyph-name="AE" unicode="&#xc6;" horiz-adv-x="896" 
d="M250 275h194v316h-10zM90 0h-94l432 750h422v-89h-305v-231h249v-89h-249v-252h318v-89h-419v190h-243z" />
    <glyph glyph-name="Ccedilla" unicode="&#xc7;" horiz-adv-x="570" 
d="M367 -196q-55 0 -84 18v68q30 -27 70 -27q36 0 36 27q0 18 -14.5 24.5t-49.5 6.5v71q-142 12 -212.5 112.5t-70.5 270.5q0 178 86.5 281.5t239.5 103.5q92 0 145 -24v-92q-50 28 -138 28q-99 0 -163 -77t-64 -220q0 -150 59 -223.5t169 -73.5q97 0 154 43v-94
q-55 -32 -140 -36v-27q80 -7 80 -81q0 -79 -103 -79z" />
    <glyph glyph-name="Egrave" unicode="&#xc8;" horiz-adv-x="532" 
d="M79 0v750h406v-89h-305v-231h249v-89h-249v-252h318v-89h-419zM340 797h-93l-164 109h169z" />
    <glyph glyph-name="Eacute" unicode="&#xc9;" horiz-adv-x="532" 
d="M79 0v750h406v-89h-305v-231h249v-89h-249v-252h318v-89h-419zM231 797l86 109h159l-156 -109h-89z" />
    <glyph glyph-name="Ecircumflex" unicode="&#xca;" horiz-adv-x="532" 
d="M79 0v750h406v-89h-305v-231h249v-89h-249v-252h318v-89h-419zM248 906h70l125 -116h-106l-55 47h-5l-54 -47h-101z" />
    <glyph glyph-name="Edieresis" unicode="&#xcb;" horiz-adv-x="532" 
d="M79 0v750h406v-89h-305v-231h249v-89h-249v-252h318v-89h-419zM190 793q-27 0 -45 17.5t-18 43.5t18 44t45 18t45 -18t18 -44t-18 -43.5t-45 -17.5zM385 793q-27 0 -45 17.5t-18 43.5t18 44t45 18t45 -18t18 -44t-18 -43.5t-45 -17.5z" />
    <glyph glyph-name="Igrave" unicode="&#xcc;" horiz-adv-x="259" 
d="M79 0v750h101v-750h-101zM172 797h-93l-164 109h169z" />
    <glyph glyph-name="Iacute" unicode="&#xcd;" horiz-adv-x="259" 
d="M79 0v750h101v-750h-101zM87 797l86 109h159l-156 -109h-89z" />
    <glyph glyph-name="Icircumflex" unicode="&#xce;" horiz-adv-x="259" 
d="M79 0v750h101v-750h-101zM95 906h70l125 -116h-106l-55 47h-5l-54 -47h-101z" />
    <glyph glyph-name="Idieresis" unicode="&#xcf;" horiz-adv-x="259" 
d="M205 794q-26 0 -41.5 17.5t-15.5 43.5t15.5 43.5t41.5 17.5t42 -17.5t16 -43.5t-16 -43.5t-42 -17.5zM55 794q-26 0 -41.5 17.5t-15.5 43.5t15.5 43.5t41.5 17.5t42 -18t16 -43q0 -26 -16 -43.5t-42 -17.5zM79 0v750h101v-750h-101z" />
    <glyph glyph-name="Eth" unicode="&#xd0;" horiz-adv-x="683" 
d="M270 0h-155v352h-110v76h110v322h155q178 0 274.5 -96.5t96.5 -277.5q0 -182 -96.5 -279t-274.5 -97zM216 89h54q125 0 195 73t70 214q0 142 -69.5 213.5t-195.5 71.5h-54v-233h123v-76h-123v-263z" />
    <glyph glyph-name="Ntilde" unicode="&#xd1;" horiz-adv-x="682" 
d="M79 0v750h104l324 -566h5v566h91v-750h-102l-326 567h-7v-567h-89zM234 798v82q18 33 66 33q24 0 64 -17t59 -17q43 0 61 38v-83q-16 -32 -63 -32q-25 0 -65.5 16.5t-60.5 16.5q-40 0 -61 -37z" />
    <glyph glyph-name="Ograve" unicode="&#xd2;" horiz-adv-x="688" 
d="M344 -10q-142 0 -222 103t-80 282q0 180 80 282.5t222 102.5q143 0 223 -102t80 -282t-80 -283t-223 -103zM344 78q93 0 145 77t52 221q0 142 -52 219t-145 77q-92 0 -144 -76.5t-52 -220.5q0 -143 52 -220t144 -77zM389 797h-93l-164 109h169z" />
    <glyph glyph-name="Oacute" unicode="&#xd3;" horiz-adv-x="688" 
d="M344 -10q-142 0 -222 103t-80 282q0 180 80 282.5t222 102.5q143 0 223 -102t80 -282t-80 -283t-223 -103zM344 78q93 0 145 77t52 221q0 142 -52 219t-145 77q-92 0 -144 -76.5t-52 -220.5q0 -143 52 -220t144 -77zM287 797l86 109h159l-156 -109h-89z" />
    <glyph glyph-name="Ocircumflex" unicode="&#xd4;" horiz-adv-x="688" 
d="M344 -10q-142 0 -222 103t-80 282q0 180 80 282.5t222 102.5q143 0 223 -102t80 -282t-80 -283t-223 -103zM344 78q93 0 145 77t52 221q0 142 -52 219t-145 77q-92 0 -144 -76.5t-52 -220.5q0 -143 52 -220t144 -77zM311 906h70l125 -116h-106l-55 47h-5l-54 -47h-101z
" />
    <glyph glyph-name="Otilde" unicode="&#xd5;" horiz-adv-x="688" 
d="M344 -10q-142 0 -222 103t-80 282q0 180 80 282.5t222 102.5q143 0 223 -102t80 -282t-80 -283t-223 -103zM344 78q93 0 145 77t52 221q0 142 -52 219t-145 77q-92 0 -144 -76.5t-52 -220.5q0 -143 52 -220t144 -77zM217 798v82q18 33 66 33q24 0 64 -17t59 -17
q43 0 61 38v-83q-16 -32 -63 -32q-25 0 -65.5 16.5t-60.5 16.5q-40 0 -61 -37z" />
    <glyph glyph-name="Odieresis" unicode="&#xd6;" horiz-adv-x="688" 
d="M344 -10q-142 0 -222 103t-80 282q0 180 80 282.5t222 102.5q143 0 223 -102t80 -282t-80 -283t-223 -103zM344 78q93 0 145 77t52 221q0 142 -52 219t-145 77q-92 0 -144 -76.5t-52 -220.5q0 -143 52 -220t144 -77zM247 793q-27 0 -45 17.5t-18 43.5t18 44t45 18t45 -18
t18 -44t-18 -43.5t-45 -17.5zM442 793q-27 0 -45 17.5t-18 43.5t18 44t45 18t45 -18t18 -44t-18 -43.5t-45 -17.5z" />
    <glyph glyph-name="multiply" unicode="&#xd7;" horiz-adv-x="517" 
d="M399 153l-142 142l-140 -140l-57 56l140 141l-140 140l58 59l141 -141l138 139l57 -57l-138 -138l141 -142z" />
    <glyph glyph-name="Oslash" unicode="&#xd8;" horiz-adv-x="688" 
d="M148 375q0 -119 37 -195l281 443q-49 49 -122 49q-92 0 -144 -76.5t-52 -220.5zM344 78q93 0 145 77t52 221q0 110 -32 182l-279 -438q46 -42 114 -42zM344 -10q-96 0 -165 49l-57 -89h-83l87 138q-84 103 -84 287q0 180 80 282.5t222 102.5q102 0 175 -54l47 74h84
l-80 -126q77 -102 77 -278q0 -180 -80 -283t-223 -103z" />
    <glyph glyph-name="Ugrave" unicode="&#xd9;" horiz-adv-x="657" 
d="M580 273q0 -283 -248 -283q-255 0 -255 282v478h101v-473q0 -97 36 -147.5t119 -50.5q85 0 118 49.5t33 149.5v472h96v-477zM396 797h-93l-164 109h169z" />
    <glyph glyph-name="Uacute" unicode="&#xda;" horiz-adv-x="657" 
d="M580 273q0 -283 -248 -283q-255 0 -255 282v478h101v-473q0 -97 36 -147.5t119 -50.5q85 0 118 49.5t33 149.5v472h96v-477zM273 797l86 109h159l-156 -109h-89z" />
    <glyph glyph-name="Ucircumflex" unicode="&#xdb;" horiz-adv-x="657" 
d="M580 273q0 -283 -248 -283q-255 0 -255 282v478h101v-473q0 -97 36 -147.5t119 -50.5q85 0 118 49.5t33 149.5v472h96v-477zM299 906h70l125 -116h-106l-55 47h-5l-54 -47h-101z" />
    <glyph glyph-name="Udieresis" unicode="&#xdc;" horiz-adv-x="657" 
d="M580 273q0 -283 -248 -283q-255 0 -255 282v478h101v-473q0 -97 36 -147.5t119 -50.5q85 0 118 49.5t33 149.5v472h96v-477zM234 793q-27 0 -45 17.5t-18 43.5t18 44t45 18t45 -18t18 -44t-18 -43.5t-45 -17.5zM429 793q-27 0 -45 17.5t-18 43.5t18 44t45 18t45 -18
t18 -44t-18 -43.5t-45 -17.5z" />
    <glyph glyph-name="Yacute" unicode="&#xdd;" horiz-adv-x="577" 
d="M348 0h-101v304l-240 446h114l181 -339h5l168 339h95l-222 -446v-304zM241 797l86 109h159l-156 -109h-89z" />
    <glyph glyph-name="Thorn" unicode="&#xde;" horiz-adv-x="543" 
d="M79 0v750h101v-103q155 -2 242.5 -73t87.5 -200q0 -128 -87.5 -198t-242.5 -71v-105h-101zM180 192q109 0 166.5 48t57.5 134q0 87 -57.5 136t-166.5 49v-367z" />
    <glyph glyph-name="germandbls" unicode="&#xdf;" horiz-adv-x="537" 
d="M71 560q0 106 57.5 153t135.5 47q96 0 143.5 -47t47.5 -120q0 -44 -16.5 -80.5t-36.5 -55.5t-36.5 -40t-16.5 -38t16.5 -32t40.5 -30.5t47.5 -35t40 -52.5t16.5 -75q0 -72 -41 -118t-125 -46q-90 0 -133 35v93q51 -42 118 -42q80 0 80 84q0 31 -16.5 55t-40.5 39
t-48 29.5t-40.5 35.5t-16.5 48q0 23 11 42.5t26.5 35t31.5 33t27 44.5t11 61q0 91 -91 91q-41 0 -68.5 -28t-27.5 -94v-552h-96v560z" />
    <glyph glyph-name="agrave" unicode="&#xe0;" horiz-adv-x="519" 
d="M235 69q50 0 86.5 37t36.5 104v27q-116 0 -163 -21t-47 -73q0 -74 87 -74zM199 -10q-73 0 -112.5 39t-39.5 103q0 88 72.5 127.5t238.5 39.5v23q0 109 -122 109q-90 0 -158 -45v90q62 37 171 37q103 0 154 -50t51 -142v-321h-91v79h-7q-26 -45 -61.5 -67t-95.5 -22z
M320 577h-83l-122 146h145z" />
    <glyph glyph-name="aacute" unicode="&#xe1;" horiz-adv-x="519" 
d="M235 69q50 0 86.5 37t36.5 104v27q-116 0 -163 -21t-47 -73q0 -74 87 -74zM199 -10q-73 0 -112.5 39t-39.5 103q0 88 72.5 127.5t238.5 39.5v23q0 109 -122 109q-90 0 -158 -45v90q62 37 171 37q103 0 154 -50t51 -142v-321h-91v79h-7q-26 -45 -61.5 -67t-95.5 -22z
M227 577l73 146h139l-127 -146h-85z" />
    <glyph glyph-name="acircumflex" unicode="&#xe2;" horiz-adv-x="519" 
d="M235 69q50 0 86.5 37t36.5 104v27q-116 0 -163 -21t-47 -73q0 -74 87 -74zM199 -10q-73 0 -112.5 39t-39.5 103q0 88 72.5 127.5t238.5 39.5v23q0 109 -122 109q-90 0 -158 -45v90q62 37 171 37q103 0 154 -50t51 -142v-321h-91v79h-7q-26 -45 -61.5 -67t-95.5 -22z
M231 723h77l118 -153h-95l-59 74h-5l-59 -74h-95z" />
    <glyph glyph-name="atilde" unicode="&#xe3;" horiz-adv-x="519" 
d="M235 69q50 0 86.5 37t36.5 104v27q-116 0 -163 -21t-47 -73q0 -74 87 -74zM199 -10q-73 0 -112.5 39t-39.5 103q0 88 72.5 127.5t238.5 39.5v23q0 109 -122 109q-90 0 -158 -45v90q62 37 171 37q103 0 154 -50t51 -142v-321h-91v79h-7q-26 -45 -61.5 -67t-95.5 -22z
M137 601v89q18 32 64 32q25 0 66 -16.5t61 -16.5q41 0 59 38v-89q-14 -33 -61 -33q-26 0 -67 17t-62 17q-37 0 -60 -38z" />
    <glyph glyph-name="adieresis" unicode="&#xe4;" horiz-adv-x="519" 
d="M235 69q50 0 86.5 37t36.5 104v27q-116 0 -163 -21t-47 -73q0 -74 87 -74zM199 -10q-73 0 -112.5 39t-39.5 103q0 88 72.5 127.5t238.5 39.5v23q0 109 -122 109q-90 0 -158 -45v90q62 37 171 37q103 0 154 -50t51 -142v-321h-91v79h-7q-26 -45 -61.5 -67t-95.5 -22z
M153 605q-28 0 -47 18.5t-19 46.5q0 27 19 46.5t47 19.5q26 0 46 -19.5t20 -46.5t-19.5 -46t-46.5 -19zM361 605q-27 0 -46.5 19t-19.5 46t19.5 46.5t46.5 19.5t46.5 -19.5t19.5 -46.5t-19.5 -46t-46.5 -19z" />
    <glyph glyph-name="aring" unicode="&#xe5;" horiz-adv-x="519" 
d="M235 69q50 0 86.5 37t36.5 104v27q-116 0 -163 -21t-47 -73q0 -74 87 -74zM199 -10q-73 0 -112.5 39t-39.5 103q0 88 72.5 127.5t238.5 39.5v23q0 109 -122 109q-90 0 -158 -45v90q62 37 171 37q103 0 154 -50t51 -142v-321h-91v79h-7q-26 -45 -61.5 -67t-95.5 -22z
M268 563q-42 0 -71 27t-29 67t29 66t71 26q39 0 68.5 -26.5t29.5 -65.5t-29.5 -66.5t-68.5 -27.5zM268 624q14 0 25 9.5t11 23.5q0 13 -11 22.5t-25 9.5q-16 0 -26 -9t-10 -23q0 -15 10 -24t26 -9z" />
    <glyph glyph-name="ae" unicode="&#xe6;" horiz-adv-x="829" 
d="M605 -10q-73 0 -125.5 30t-75.5 84h-7q-34 -64 -79.5 -89t-115.5 -25q-73 0 -114 41.5t-41 103.5q0 87 71.5 128t240.5 41v18q0 111 -123 111q-90 0 -158 -45v88q62 37 171 37q64 0 103.5 -22.5t60.5 -70.5h7q52 93 170 93q90 0 146 -52.5t56 -153.5q0 -50 -6 -70h-326
q-1 -80 40.5 -121.5t117.5 -41.5q99 0 157 48v-89q-55 -43 -170 -43zM459 304h238q-7 131 -117 131q-104 0 -121 -131zM235 70q51 0 87.5 37t36.5 103v30q-120 0 -165.5 -21.5t-45.5 -73.5q0 -31 21.5 -53t65.5 -22z" />
    <glyph glyph-name="ccedilla" unicode="&#xe7;" horiz-adv-x="447" 
d="M283 -196q-55 0 -84 18v68q30 -27 70 -27q36 0 36 27q0 18 -14.5 24.5t-49.5 6.5v71q-98 12 -151 79t-53 179q0 121 67.5 192t174.5 71q79 0 126 -25v-93q-45 32 -117 32q-67 0 -108.5 -45t-41.5 -132q0 -88 41.5 -131t113.5 -43q77 0 119 36v-95q-40 -22 -106 -26v-27
q80 -7 80 -81q0 -79 -103 -79z" />
    <glyph glyph-name="egrave" unicode="&#xe8;" 
d="M287 -10q-119 0 -184.5 65t-65.5 195q0 122 63 192.5t166 70.5q93 0 150 -52.5t57 -153.5q0 -42 -6 -62h-326q-1 -84 40.5 -127.5t117.5 -43.5q99 0 157 48v-89q-55 -43 -169 -43zM140 311h237q-4 66 -35.5 95.5t-80.5 29.5t-80.5 -31t-40.5 -94zM306 577h-83l-122 146
h145z" />
    <glyph glyph-name="eacute" unicode="&#xe9;" 
d="M287 -10q-119 0 -184.5 65t-65.5 195q0 122 63 192.5t166 70.5q93 0 150 -52.5t57 -153.5q0 -42 -6 -62h-326q-1 -84 40.5 -127.5t117.5 -43.5q99 0 157 48v-89q-55 -43 -169 -43zM140 311h237q-4 66 -35.5 95.5t-80.5 29.5t-80.5 -31t-40.5 -94zM218 577l73 146h139
l-127 -146h-85z" />
    <glyph glyph-name="ecircumflex" unicode="&#xea;" 
d="M287 -10q-119 0 -184.5 65t-65.5 195q0 122 63 192.5t166 70.5q93 0 150 -52.5t57 -153.5q0 -42 -6 -62h-326q-1 -84 40.5 -127.5t117.5 -43.5q99 0 157 48v-89q-55 -43 -169 -43zM140 311h237q-4 66 -35.5 95.5t-80.5 29.5t-80.5 -31t-40.5 -94zM230 723h77l118 -153
h-95l-59 74h-5l-59 -74h-95z" />
    <glyph glyph-name="edieresis" unicode="&#xeb;" 
d="M287 -10q-119 0 -184.5 65t-65.5 195q0 122 63 192.5t166 70.5q93 0 150 -52.5t57 -153.5q0 -42 -6 -62h-326q-1 -84 40.5 -127.5t117.5 -43.5q99 0 157 48v-89q-55 -43 -169 -43zM140 311h237q-4 66 -35.5 95.5t-80.5 29.5t-80.5 -31t-40.5 -94zM153 605q-28 0 -47 18.5
t-19 46.5q0 27 19 46.5t47 19.5q26 0 46 -19.5t20 -46.5t-19.5 -46t-46.5 -19zM361 605q-27 0 -46.5 19t-19.5 46t19.5 46.5t46.5 19.5t46.5 -19.5t19.5 -46.5t-19.5 -46t-46.5 -19z" />
    <glyph glyph-name="igrave" unicode="&#xec;" horiz-adv-x="237" 
d="M71 0v503h96v-503h-96zM153 577h-83l-122 146h145z" />
    <glyph glyph-name="iacute" unicode="&#xed;" horiz-adv-x="237" 
d="M71 0v503h96v-503h-96zM81 577l73 146h139l-127 -146h-85z" />
    <glyph glyph-name="icircumflex" unicode="&#xee;" horiz-adv-x="237" 
d="M71 0v503h96v-503h-96zM78 723h77l118 -153h-95l-59 74h-5l-59 -74h-95z" />
    <glyph glyph-name="idieresis" unicode="&#xef;" horiz-adv-x="237" 
d="M196 605q-28 0 -45.5 18.5t-17.5 46.5t17.5 47t45.5 19q26 0 44.5 -19.5t18.5 -46.5q0 -28 -18.5 -46.5t-44.5 -18.5zM41 605q-27 0 -44.5 18.5t-17.5 46.5q0 27 17.5 46.5t44.5 19.5t45 -19.5t18 -46.5q0 -28 -18 -46.5t-45 -18.5zM71 0v503h96v-503h-96z" />
    <glyph glyph-name="eth" unicode="&#xf0;" horiz-adv-x="566" 
d="M284 -10q-112 0 -179.5 74t-67.5 190q0 114 61 187t166 73q108 0 156 -93h8q-24 116 -120 191l-152 -71v61l98 46q-48 25 -102 35v77q108 -18 189 -71l152 71v-61l-103 -48q139 -125 139 -349q0 -157 -66 -234.5t-179 -77.5zM283 74q68 0 106 52t38 130q0 81 -39.5 128
t-103.5 47q-65 0 -105.5 -47.5t-40.5 -131.5q0 -81 40.5 -129.5t104.5 -48.5z" />
    <glyph glyph-name="ntilde" unicode="&#xf1;" horiz-adv-x="560" 
d="M71 0v503h91v-71h7q47 81 155 81q170 0 170 -188v-325h-96v289q0 71 -27 104.5t-85 33.5q-54 0 -86.5 -35t-32.5 -96v-296h-96zM160 601v89q18 32 64 32q26 0 67 -16.5t60 -16.5q41 0 59 38v-89q-14 -33 -61 -33q-26 0 -67 17t-62 17q-37 0 -60 -38z" />
    <glyph glyph-name="ograve" unicode="&#xf2;" horiz-adv-x="544" 
d="M272 -10q-104 0 -169.5 69t-65.5 191q0 121 65.5 192t169.5 71q102 0 168.5 -70.5t66.5 -191.5t-66 -191t-169 -70zM272 74q59 0 96.5 44.5t37.5 132.5t-38 133t-96 45q-60 0 -97 -45t-37 -134t37 -132.5t97 -43.5zM309 577h-83l-122 146h145z" />
    <glyph glyph-name="oacute" unicode="&#xf3;" horiz-adv-x="544" 
d="M272 -10q-104 0 -169.5 69t-65.5 191q0 121 65.5 192t169.5 71q102 0 168.5 -70.5t66.5 -191.5t-66 -191t-169 -70zM272 74q59 0 96.5 44.5t37.5 132.5t-38 133t-96 45q-60 0 -97 -45t-37 -134t37 -132.5t97 -43.5zM233 577l73 146h139l-127 -146h-85z" />
    <glyph glyph-name="ocircumflex" unicode="&#xf4;" horiz-adv-x="544" 
d="M272 -10q-104 0 -169.5 69t-65.5 191q0 121 65.5 192t169.5 71q102 0 168.5 -70.5t66.5 -191.5t-66 -191t-169 -70zM272 74q59 0 96.5 44.5t37.5 132.5t-38 133t-96 45q-60 0 -97 -45t-37 -134t37 -132.5t97 -43.5zM234 723h77l118 -153h-95l-59 74h-5l-59 -74h-95z" />
    <glyph glyph-name="otilde" unicode="&#xf5;" horiz-adv-x="544" 
d="M272 -10q-104 0 -169.5 69t-65.5 191q0 121 65.5 192t169.5 71q102 0 168.5 -70.5t66.5 -191.5t-66 -191t-169 -70zM272 74q59 0 96.5 44.5t37.5 132.5t-38 133t-96 45q-60 0 -97 -45t-37 -134t37 -132.5t97 -43.5zM144 601v89q18 32 64 32q26 0 67 -16.5t60 -16.5
q41 0 59 38v-89q-14 -33 -61 -33q-26 0 -67 17t-62 17q-37 0 -60 -38z" />
    <glyph glyph-name="odieresis" unicode="&#xf6;" horiz-adv-x="544" 
d="M272 -10q-104 0 -169.5 69t-65.5 191q0 121 65.5 192t169.5 71q102 0 168.5 -70.5t66.5 -191.5t-66 -191t-169 -70zM272 74q59 0 96.5 44.5t37.5 132.5t-38 133t-96 45q-60 0 -97 -45t-37 -134t37 -132.5t97 -43.5zM164 605q-28 0 -47 18.5t-19 46.5q0 27 19 46.5
t47 19.5q26 0 46 -19.5t20 -46.5t-19.5 -46t-46.5 -19zM372 605q-27 0 -46.5 19t-19.5 46t19.5 46.5t46.5 19.5t46.5 -19.5t19.5 -46.5t-19.5 -46t-46.5 -19z" />
    <glyph glyph-name="divide" unicode="&#xf7;" horiz-adv-x="561" 
d="M279 475q-28 0 -47.5 19.5t-19.5 47.5t19 47.5t48 19.5q28 0 47.5 -19.5t19.5 -47.5t-19.5 -47.5t-47.5 -19.5zM60 315v79h441v-79h-441zM279 96q-28 0 -47.5 19.5t-19.5 47.5q0 29 19 48t48 19q28 0 47.5 -19.5t19.5 -47.5t-19.5 -47.5t-47.5 -19.5z" />
    <glyph glyph-name="oslash" unicode="&#xf8;" horiz-adv-x="544" 
d="M138 250q0 -67 24 -112l172 275q-28 16 -62 16q-60 0 -97 -45t-37 -134zM272 74q59 0 96.5 44.5t37.5 132.5q0 69 -26 114l-173 -275q28 -16 65 -16zM272 -10q-60 0 -112 25l-47 -75h-76l71 113q-71 73 -71 197q0 121 65.5 192t169.5 71q59 0 109 -25l50 79h76l-74 -117
q74 -72 74 -199q0 -121 -66 -191t-169 -70z" />
    <glyph glyph-name="ugrave" unicode="&#xf9;" horiz-adv-x="557" 
d="M233 -10q-82 0 -124.5 49t-42.5 139v325h96v-289q0 -72 27.5 -105t82.5 -33q47 0 82.5 33.5t35.5 108.5v285h96v-503h-91v70h-7q-49 -80 -155 -80zM319 577h-83l-122 146h145z" />
    <glyph glyph-name="uacute" unicode="&#xfa;" horiz-adv-x="557" 
d="M233 -10q-82 0 -124.5 49t-42.5 139v325h96v-289q0 -72 27.5 -105t82.5 -33q47 0 82.5 33.5t35.5 108.5v285h96v-503h-91v70h-7q-49 -80 -155 -80zM233 577l73 146h139l-127 -146h-85z" />
    <glyph glyph-name="ucircumflex" unicode="&#xfb;" horiz-adv-x="557" 
d="M233 -10q-82 0 -124.5 49t-42.5 139v325h96v-289q0 -72 27.5 -105t82.5 -33q47 0 82.5 33.5t35.5 108.5v285h96v-503h-91v70h-7q-49 -80 -155 -80zM245 723h77l118 -153h-95l-59 74h-5l-59 -74h-95z" />
    <glyph glyph-name="udieresis" unicode="&#xfc;" horiz-adv-x="557" 
d="M233 -10q-82 0 -124.5 49t-42.5 139v325h96v-289q0 -72 27.5 -105t82.5 -33q47 0 82.5 33.5t35.5 108.5v285h96v-503h-91v70h-7q-49 -80 -155 -80zM171 605q-28 0 -47 18.5t-19 46.5q0 27 19 46.5t47 19.5q26 0 46 -19.5t20 -46.5t-19.5 -46t-46.5 -19zM379 605
q-27 0 -46.5 19t-19.5 46t19.5 46.5t46.5 19.5t46.5 -19.5t19.5 -46.5t-19.5 -46t-46.5 -19z" />
    <glyph glyph-name="yacute" unicode="&#xfd;" horiz-adv-x="478" 
d="M205 -250h-91l88 244l-200 509h102l141 -370h9l131 370h91zM214 577l73 146h139l-127 -146h-85z" />
    <glyph glyph-name="thorn" unicode="&#xfe;" horiz-adv-x="575" 
d="M300 74q59 0 98 44.5t39 134.5q0 87 -39 131.5t-99 44.5t-96 -35t-36 -102v-70q0 -71 37.5 -109.5t95.5 -38.5zM167 -10v-240h-96v1000h94v-318h6q49 81 157 81q93 0 151.5 -71t58.5 -189q0 -122 -58 -192.5t-153 -70.5q-106 0 -158 80h-7z" />
    <glyph glyph-name="ydieresis" unicode="&#xff;" horiz-adv-x="478" 
d="M205 -250h-91l88 244l-200 509h102l141 -370h9l131 370h91zM136 605q-28 0 -47 18.5t-19 46.5q0 27 19 46.5t47 19.5q26 0 46 -19.5t20 -46.5t-19.5 -46t-46.5 -19zM344 605q-27 0 -46.5 19t-19.5 46t19.5 46.5t46.5 19.5t46.5 -19.5t19.5 -46.5t-19.5 -46t-46.5 -19z
" />
    <glyph glyph-name="Amacron" unicode="&#x100;" horiz-adv-x="604" 
d="M287 603l-103 -329h218l-106 329h-9zM491 0l-60 187h-274l-58 -187h-89l240 750h94l250 -750h-103zM171 816v73h247v-73h-247z" />
    <glyph glyph-name="amacron" unicode="&#x101;" horiz-adv-x="519" 
d="M235 69q50 0 86.5 37t36.5 104v27q-116 0 -163 -21t-47 -73q0 -74 87 -74zM199 -10q-73 0 -112.5 39t-39.5 103q0 88 72.5 127.5t238.5 39.5v23q0 109 -122 109q-90 0 -158 -45v90q62 37 171 37q103 0 154 -50t51 -142v-321h-91v79h-7q-26 -45 -61.5 -67t-95.5 -22z
M141 627v73h253v-73h-253z" />
    <glyph glyph-name="Abreve" unicode="&#x102;" horiz-adv-x="604" 
d="M287 603l-103 -329h218l-106 329h-9zM491 0l-60 187h-274l-58 -187h-89l240 750h94l250 -750h-103zM295 788q-66 0 -105 31.5t-39 93.5h81q0 -59 63 -59t63 59h82q0 -62 -39 -93.5t-106 -31.5z" />
    <glyph glyph-name="abreve" unicode="&#x103;" horiz-adv-x="519" 
d="M235 69q50 0 86.5 37t36.5 104v27q-116 0 -163 -21t-47 -73q0 -74 87 -74zM199 -10q-73 0 -112.5 39t-39.5 103q0 88 72.5 127.5t238.5 39.5v23q0 109 -122 109q-90 0 -158 -45v90q62 37 171 37q103 0 154 -50t51 -142v-321h-91v79h-7q-26 -45 -61.5 -67t-95.5 -22z
M264 581q-68 0 -107 36t-39 106h83q0 -71 63 -71q33 0 46.5 18t13.5 53h81q0 -71 -36.5 -106.5t-104.5 -35.5z" />
    <glyph glyph-name="Aogonek" unicode="&#x104;" horiz-adv-x="604" 
d="M287 603l-103 -329h218l-106 329h-9zM516 0h-25l-60 187h-274l-58 -187h-89l240 750h94l250 -750h-2q-19 0 -31 -10t-12 -28q0 -35 42 -35q25 0 38 15v-69q-16 -16 -63 -16q-91 0 -91 71q0 52 41 72z" />
    <glyph glyph-name="aogonek" unicode="&#x105;" horiz-adv-x="519" 
d="M235 69q50 0 86.5 37t36.5 104v27q-116 0 -163 -21t-47 -73q0 -74 87 -74zM378 0h-15v79h-7q-26 -45 -61.5 -67t-95.5 -22q-73 0 -112.5 39t-39.5 103q0 88 72.5 127.5t238.5 39.5v23q0 109 -122 109q-90 0 -158 -45v90q62 37 171 37q103 0 154 -50t51 -142v-321
q-19 0 -31 -10t-12 -28q0 -35 42 -35q25 0 38 15v-69q-16 -16 -63 -16q-91 0 -91 71q0 52 41 72z" />
    <glyph glyph-name="Cacute" unicode="&#x106;" horiz-adv-x="570" 
d="M366 -10q-163 0 -243.5 101t-80.5 284q0 178 86.5 281.5t239.5 103.5q92 0 145 -24v-92q-50 28 -138 28q-99 0 -163 -77t-64 -220q0 -150 59 -223.5t169 -73.5q97 0 154 43v-94q-63 -37 -164 -37zM305 797l86 109h159l-156 -109h-89z" />
    <glyph glyph-name="cacute" unicode="&#x107;" horiz-adv-x="447" 
d="M282 -10q-116 0 -180.5 68t-64.5 192q0 121 67.5 192t174.5 71q79 0 126 -25v-93q-45 32 -117 32q-67 0 -108.5 -45t-41.5 -132q0 -88 41.5 -131t113.5 -43q77 0 119 36v-95q-47 -27 -130 -27zM225 577l73 146h139l-127 -146h-85z" />
    <glyph glyph-name="Ccircumflex" unicode="&#x108;" horiz-adv-x="570" 
d="M366 -10q-163 0 -243.5 101t-80.5 284q0 178 86.5 281.5t239.5 103.5q92 0 145 -24v-92q-50 28 -138 28q-99 0 -163 -77t-64 -220q0 -150 59 -223.5t169 -73.5q97 0 154 43v-94q-63 -37 -164 -37zM322 906h70l125 -116h-106l-55 47h-5l-54 -47h-101z" />
    <glyph glyph-name="ccircumflex" unicode="&#x109;" horiz-adv-x="447" 
d="M282 -10q-116 0 -180.5 68t-64.5 192q0 121 67.5 192t174.5 71q79 0 126 -25v-93q-45 32 -117 32q-67 0 -108.5 -45t-41.5 -132q0 -88 41.5 -131t113.5 -43q77 0 119 36v-95q-47 -27 -130 -27zM227 723h77l118 -153h-95l-59 74h-5l-59 -74h-95z" />
    <glyph glyph-name="Cdotaccent" unicode="&#x10a;" horiz-adv-x="570" 
d="M366 -10q-163 0 -243.5 101t-80.5 284q0 178 86.5 281.5t239.5 103.5q92 0 145 -24v-92q-50 28 -138 28q-99 0 -163 -77t-64 -220q0 -150 59 -223.5t169 -73.5q97 0 154 43v-94q-63 -37 -164 -37zM352 794q-29 0 -46.5 17t-17.5 44t17.5 44t46.5 17q28 0 46.5 -17.5
t18.5 -43.5t-18.5 -43.5t-46.5 -17.5z" />
    <glyph glyph-name="cdotaccent" unicode="&#x10b;" horiz-adv-x="447" 
d="M282 -10q-116 0 -180.5 68t-64.5 192q0 121 67.5 192t174.5 71q79 0 126 -25v-93q-45 32 -117 32q-67 0 -108.5 -45t-41.5 -132q0 -88 41.5 -131t113.5 -43q77 0 119 36v-95q-47 -27 -130 -27zM281 605q-29 0 -48 18.5t-19 46.5t19 47t48 19q27 0 47 -19t20 -47
q0 -27 -20 -46t-47 -19z" />
    <glyph glyph-name="Ccaron" unicode="&#x10c;" horiz-adv-x="570" 
d="M366 -10q-163 0 -243.5 101t-80.5 284q0 178 86.5 281.5t239.5 103.5q92 0 145 -24v-92q-50 28 -138 28q-99 0 -163 -77t-64 -220q0 -150 59 -223.5t169 -73.5q97 0 154 43v-94q-63 -37 -164 -37zM326 797l-125 116h103l55 -47h5l53 47h105l-125 -116h-71z" />
    <glyph glyph-name="ccaron" unicode="&#x10d;" horiz-adv-x="447" 
d="M282 -10q-116 0 -180.5 68t-64.5 192q0 121 67.5 192t174.5 71q79 0 126 -25v-93q-45 32 -117 32q-67 0 -108.5 -45t-41.5 -132q0 -88 41.5 -131t113.5 -43q77 0 119 36v-95q-47 -27 -130 -27zM316 570h-84l-122 153h101l61 -74h4l59 74h101z" />
    <glyph glyph-name="Dcaron" unicode="&#x10e;" horiz-adv-x="647" 
d="M234 0h-155v750h155q178 0 274.5 -96.5t96.5 -277.5q0 -182 -96.5 -279t-274.5 -97zM234 89q125 0 195 73t70 214q0 142 -69.5 213.5t-195.5 71.5h-54v-572h54zM248 797l-125 116h103l55 -47h5l53 47h105l-125 -116h-71z" />
    <glyph glyph-name="dcaron" unicode="&#x10f;" horiz-adv-x="630" 
d="M278 74q56 0 93 37t37 110v69q0 65 -36 102t-93 37q-63 0 -102 -44.5t-39 -135.5q0 -88 39 -131.5t101 -43.5zM504 0h-91v70h-7q-44 -80 -159 -80q-97 0 -153.5 68.5t-56.5 190.5q0 121 59.5 192.5t157.5 71.5q109 0 152 -80h7l-5 77v240h96v-750zM632 568h-54l25 77
q-23 2 -35.5 18.5t-12.5 39.5q0 25 17.5 42.5t42.5 17.5q37 0 52.5 -30t0.5 -70z" />
    <glyph glyph-name="Dcroat" unicode="&#x110;" horiz-adv-x="683" 
d="M270 0h-155v352h-110v76h110v322h155q178 0 274.5 -96.5t96.5 -277.5q0 -182 -96.5 -279t-274.5 -97zM216 89h54q125 0 195 73t70 214q0 142 -69.5 213.5t-195.5 71.5h-54v-233h123v-76h-123v-263z" />
    <glyph glyph-name="dcroat" unicode="&#x111;" horiz-adv-x="593" 
d="M278 74q56 0 93 37t37 110v69q0 65 -36 102t-93 37q-63 0 -102 -44.5t-39 -135.5q0 -88 39 -131.5t101 -43.5zM406 70q-44 -80 -159 -80q-97 0 -153.5 68.5t-56.5 190.5q0 121 59.5 192.5t157.5 71.5q109 0 152 -80h7l-5 77v76h-147v71h147v93h96v-93h70v-71h-70v-586
h-91v70h-7z" />
    <glyph glyph-name="Emacron" unicode="&#x112;" horiz-adv-x="532" 
d="M79 0v750h406v-89h-305v-231h249v-89h-249v-252h318v-89h-419zM160 816v73h247v-73h-247z" />
    <glyph glyph-name="emacron" unicode="&#x113;" 
d="M287 -10q-119 0 -184.5 65t-65.5 195q0 122 63 192.5t166 70.5q93 0 150 -52.5t57 -153.5q0 -42 -6 -62h-326q-1 -84 40.5 -127.5t117.5 -43.5q99 0 157 48v-89q-55 -43 -169 -43zM140 311h237q-4 66 -35.5 95.5t-80.5 29.5t-80.5 -31t-40.5 -94zM134 627v73h253v-73
h-253z" />
    <glyph glyph-name="Ebreve" unicode="&#x114;" horiz-adv-x="532" 
d="M79 0v750h406v-89h-305v-231h249v-89h-249v-252h318v-89h-419zM291 788q-66 0 -105 31.5t-39 93.5h81q0 -59 63 -59t63 59h82q0 -62 -39 -93.5t-106 -31.5z" />
    <glyph glyph-name="ebreve" unicode="&#x115;" 
d="M287 -10q-119 0 -184.5 65t-65.5 195q0 122 63 192.5t166 70.5q93 0 150 -52.5t57 -153.5q0 -42 -6 -62h-326q-1 -84 40.5 -127.5t117.5 -43.5q99 0 157 48v-89q-55 -43 -169 -43zM140 311h237q-4 66 -35.5 95.5t-80.5 29.5t-80.5 -31t-40.5 -94zM262 581q-68 0 -107 36
t-39 106h83q0 -71 63 -71q33 0 46.5 18t13.5 53h81q0 -71 -36.5 -106.5t-104.5 -35.5z" />
    <glyph glyph-name="Edotaccent" unicode="&#x116;" horiz-adv-x="532" 
d="M79 0v750h406v-89h-305v-231h249v-89h-249v-252h318v-89h-419zM288 794q-29 0 -46.5 17t-17.5 44t17.5 44t46.5 17q28 0 46.5 -17.5t18.5 -43.5t-18.5 -43.5t-46.5 -17.5z" />
    <glyph glyph-name="edotaccent" unicode="&#x117;" 
d="M287 -10q-119 0 -184.5 65t-65.5 195q0 122 63 192.5t166 70.5q93 0 150 -52.5t57 -153.5q0 -42 -6 -62h-326q-1 -84 40.5 -127.5t117.5 -43.5q99 0 157 48v-89q-55 -43 -169 -43zM140 311h237q-4 66 -35.5 95.5t-80.5 29.5t-80.5 -31t-40.5 -94zM265 605q-29 0 -48 18.5
t-19 46.5t19 47t48 19q27 0 47 -19t20 -47q0 -27 -20 -46t-47 -19z" />
    <glyph glyph-name="Eogonek" unicode="&#x118;" horiz-adv-x="532" 
d="M422 0h-343v750h406v-89h-305v-231h249v-89h-249v-252h318v-89q-19 0 -31 -10t-12 -28q0 -35 42 -35q25 0 38 15v-69q-16 -16 -63 -16q-91 0 -91 71q0 52 41 72z" />
    <glyph glyph-name="eogonek" unicode="&#x119;" 
d="M403 -143q-92 0 -92 71q0 41 29 65q-26 -3 -53 -3q-119 0 -184.5 65t-65.5 195q0 122 63 192.5t166 70.5q93 0 150 -52.5t57 -153.5q0 -42 -6 -62h-326q-1 -84 40.5 -127.5t117.5 -43.5q99 0 157 48v-89q-10 -8 -38 -21q-32 -15 -32 -50t42 -35q25 0 38 15v-69
q-16 -16 -63 -16zM140 311h237q-4 66 -35.5 95.5t-80.5 29.5t-80.5 -31t-40.5 -94z" />
    <glyph glyph-name="Ecaron" unicode="&#x11a;" horiz-adv-x="532" 
d="M79 0v750h406v-89h-305v-231h249v-89h-249v-252h318v-89h-419zM253 797l-125 116h103l55 -47h5l53 47h105l-125 -116h-71z" />
    <glyph glyph-name="ecaron" unicode="&#x11b;" 
d="M287 -10q-119 0 -184.5 65t-65.5 195q0 122 63 192.5t166 70.5q93 0 150 -52.5t57 -153.5q0 -42 -6 -62h-326q-1 -84 40.5 -127.5t117.5 -43.5q99 0 157 48v-89q-55 -43 -169 -43zM140 311h237q-4 66 -35.5 95.5t-80.5 29.5t-80.5 -31t-40.5 -94zM308 570h-84l-122 153
h101l61 -74h4l59 74h101z" />
    <glyph glyph-name="Gcircumflex" unicode="&#x11c;" horiz-adv-x="617" 
d="M562 17q-59 -27 -183 -27q-165 0 -251 100.5t-86 284.5q0 182 93.5 283.5t250.5 101.5q107 0 157 -24v-91q-56 27 -150 27q-109 0 -177 -80.5t-68 -216.5q0 -140 60 -218.5t176 -78.5q42 0 79 6v208h-138v85h237v-360zM337 906h70l125 -116h-106l-55 47h-5l-54 -47h-101z
" />
    <glyph glyph-name="gcircumflex" unicode="&#x11d;" horiz-adv-x="515" 
d="M249 220q44 0 72.5 29t28.5 80q0 53 -28.5 82t-72.5 29t-72 -29.5t-28 -82.5q0 -52 28 -80t72 -28zM500 -87q0 -81 -64.5 -127t-173.5 -46q-108 0 -171 37.5t-63 106.5q0 91 98 128q-41 22 -41 70q0 61 68 86q-49 20 -76.5 61.5t-27.5 99.5q0 85 55.5 134.5t144.5 49.5
q66 0 116 -28l142 18v-83l-79 1q22 -39 22 -91q0 -84 -55.5 -132t-145.5 -48h-1q-70 0 -70 -39q0 -14 8 -23t25.5 -13.5t35.5 -6.5t48 -3q101 -5 153 -40t52 -112zM270 -189q63 0 102.5 23.5t39.5 70.5q0 43 -35.5 59.5t-104.5 19.5q-51 1 -94 10q-55 -28 -55 -86
q0 -47 40 -72t107 -25zM223 723h77l118 -153h-95l-59 74h-5l-59 -74h-95z" />
    <glyph glyph-name="Gbreve" unicode="&#x11e;" horiz-adv-x="617" 
d="M562 17q-59 -27 -183 -27q-165 0 -251 100.5t-86 284.5q0 182 93.5 283.5t250.5 101.5q107 0 157 -24v-91q-56 27 -150 27q-109 0 -177 -80.5t-68 -216.5q0 -140 60 -218.5t176 -78.5q42 0 79 6v208h-138v85h237v-360zM376 788q-66 0 -105 31.5t-39 93.5h81q0 -59 63 -59
t63 59h82q0 -62 -39 -93.5t-106 -31.5z" />
    <glyph glyph-name="gbreve" unicode="&#x11f;" horiz-adv-x="515" 
d="M249 220q44 0 72.5 29t28.5 80q0 53 -28.5 82t-72.5 29t-72 -29.5t-28 -82.5q0 -52 28 -80t72 -28zM500 -87q0 -81 -64.5 -127t-173.5 -46q-108 0 -171 37.5t-63 106.5q0 91 98 128q-41 22 -41 70q0 61 68 86q-49 20 -76.5 61.5t-27.5 99.5q0 85 55.5 134.5t144.5 49.5
q66 0 116 -28l142 18v-83l-79 1q22 -39 22 -91q0 -84 -55.5 -132t-145.5 -48h-1q-70 0 -70 -39q0 -14 8 -23t25.5 -13.5t35.5 -6.5t48 -3q101 -5 153 -40t52 -112zM270 -189q63 0 102.5 23.5t39.5 70.5q0 43 -35.5 59.5t-104.5 19.5q-51 1 -94 10q-55 -28 -55 -86
q0 -47 40 -72t107 -25zM255 581q-68 0 -107 36t-39 106h83q0 -71 63 -71q33 0 46.5 18t13.5 53h81q0 -71 -36.5 -106.5t-104.5 -35.5z" />
    <glyph glyph-name="Gdotaccent" unicode="&#x120;" horiz-adv-x="617" 
d="M562 17q-59 -27 -183 -27q-165 0 -251 100.5t-86 284.5q0 182 93.5 283.5t250.5 101.5q107 0 157 -24v-91q-56 27 -150 27q-109 0 -177 -80.5t-68 -216.5q0 -140 60 -218.5t176 -78.5q42 0 79 6v208h-138v85h237v-360zM377 794q-29 0 -46.5 17t-17.5 44t17.5 44t46.5 17
q28 0 46.5 -17.5t18.5 -43.5t-18.5 -43.5t-46.5 -17.5z" />
    <glyph glyph-name="gdotaccent" unicode="&#x121;" horiz-adv-x="515" 
d="M249 220q44 0 72.5 29t28.5 80q0 53 -28.5 82t-72.5 29t-72 -29.5t-28 -82.5q0 -52 28 -80t72 -28zM500 -87q0 -81 -64.5 -127t-173.5 -46q-108 0 -171 37.5t-63 106.5q0 91 98 128q-41 22 -41 70q0 61 68 86q-49 20 -76.5 61.5t-27.5 99.5q0 85 55.5 134.5t144.5 49.5
q66 0 116 -28l142 18v-83l-79 1q22 -39 22 -91q0 -84 -55.5 -132t-145.5 -48h-1q-70 0 -70 -39q0 -14 8 -23t25.5 -13.5t35.5 -6.5t48 -3q101 -5 153 -40t52 -112zM270 -189q63 0 102.5 23.5t39.5 70.5q0 43 -35.5 59.5t-104.5 19.5q-51 1 -94 10q-55 -28 -55 -86
q0 -47 40 -72t107 -25zM251 605q-29 0 -48 18.5t-19 46.5t19 47t48 19q27 0 47 -19t20 -47q0 -27 -20 -46t-47 -19z" />
    <glyph glyph-name="Gcommaaccent" unicode="&#x122;" horiz-adv-x="617" 
d="M562 17q-59 -27 -183 -27q-165 0 -251 100.5t-86 284.5q0 182 93.5 283.5t250.5 101.5q107 0 157 -24v-91q-56 27 -150 27q-109 0 -177 -80.5t-68 -216.5q0 -140 60 -218.5t176 -78.5q42 0 79 6v208h-138v85h237v-360zM401 -237h-54l25 77q-23 2 -35.5 18.5t-12.5 39.5
q0 26 17 43t43 17q38 0 53 -30t0 -70z" />
    <glyph glyph-name="gcommaaccent" unicode="&#x123;" horiz-adv-x="515" 
d="M249 220q44 0 72.5 29t28.5 80q0 53 -28.5 82t-72.5 29t-72 -29.5t-28 -82.5q0 -52 28 -80t72 -28zM500 -87q0 -81 -64.5 -127t-173.5 -46q-108 0 -171 37.5t-63 106.5q0 91 98 128q-41 22 -41 70q0 61 68 86q-49 20 -76.5 61.5t-27.5 99.5q0 85 55.5 134.5t144.5 49.5
q66 0 116 -28l142 18v-83l-79 1q22 -39 22 -91q0 -84 -55.5 -132t-145.5 -48h-1q-70 0 -70 -39q0 -14 8 -23t25.5 -13.5t35.5 -6.5t48 -3q101 -5 153 -40t52 -112zM270 -189q63 0 102.5 23.5t39.5 70.5q0 43 -35.5 59.5t-104.5 19.5q-51 1 -94 10q-55 -28 -55 -86
q0 -47 40 -72t107 -25zM238 776h54l-25 -77q23 -2 35.5 -18.5t12.5 -39.5q0 -25 -17.5 -42.5t-42.5 -17.5q-37 0 -52.5 30t-0.5 70z" />
    <glyph glyph-name="Hcircumflex" unicode="&#x124;" horiz-adv-x="676" 
d="M79 0v750h101v-322h316v322h101v-750h-101v339h-316v-339h-101zM307 906h70l125 -116h-106l-55 47h-5l-54 -47h-101z" />
    <glyph glyph-name="hcircumflex" unicode="&#x125;" horiz-adv-x="560" 
d="M71 0v750h96v-240l-5 -77h7q50 80 155 80q170 0 170 -188v-325h-96v289q0 71 -27 104.5t-85 33.5q-54 0 -86.5 -32t-32.5 -99v-296h-96zM268 906h70l125 -116h-106l-55 47h-5l-54 -47h-101z" />
    <glyph glyph-name="Hbar" unicode="&#x126;" horiz-adv-x="690" 
d="M187 428h316v115h-316v-115zM187 339v-339h-101v543h-67v75h67v132h101v-132h316v132h101v-132h67v-75h-67v-543h-101v339h-316z" />
    <glyph glyph-name="hbar" unicode="&#x127;" horiz-adv-x="578" 
d="M185 296v-296h-96v585h-70v72h70v93h96v-93h146v-72h-146v-75l-5 -77h7q50 80 155 80q170 0 170 -188v-325h-96v289q0 71 -27 104.5t-85 33.5q-54 0 -86.5 -32t-32.5 -99z" />
    <glyph glyph-name="Itilde" unicode="&#x128;" horiz-adv-x="259" 
d="M79 0v750h101v-750h-101zM4 798v82q18 33 66 33q24 0 64 -17t59 -17q43 0 61 38v-83q-16 -32 -63 -32q-25 0 -65.5 16.5t-60.5 16.5q-40 0 -61 -37z" />
    <glyph glyph-name="itilde" unicode="&#x129;" horiz-adv-x="237" 
d="M71 0v503h96v-503h-96zM-7 601v89q18 32 64 32q25 0 66 -16.5t61 -16.5q41 0 59 38v-89q-14 -33 -61 -33q-26 0 -67 17t-62 17q-37 0 -60 -38z" />
    <glyph glyph-name="Imacron" unicode="&#x12a;" horiz-adv-x="259" 
d="M79 0v750h101v-750h-101zM6 816v73h247v-73h-247z" />
    <glyph glyph-name="imacron" unicode="&#x12b;" horiz-adv-x="237" 
d="M71 0v503h96v-503h-96zM-7 627v73h253v-73h-253z" />
    <glyph glyph-name="Ibreve" unicode="&#x12c;" horiz-adv-x="259" 
d="M79 0v750h101v-750h-101zM129 788q-66 0 -105 31.5t-39 93.5h81q0 -59 63 -59t63 59h82q0 -62 -39 -93.5t-106 -31.5z" />
    <glyph glyph-name="ibreve" unicode="&#x12d;" horiz-adv-x="237" 
d="M71 0v503h96v-503h-96zM121 581q-68 0 -107 36t-39 106h83q0 -71 63 -71q33 0 46.5 18t13.5 53h81q0 -71 -36.5 -106.5t-104.5 -35.5z" />
    <glyph glyph-name="Iogonek" unicode="&#x12e;" horiz-adv-x="259" 
d="M104 0h-25v750h101v-750q-19 0 -31 -10t-12 -28q0 -35 42 -35q25 0 38 15v-69q-16 -16 -63 -16q-91 0 -91 71q0 52 41 72z" />
    <glyph glyph-name="iogonek" unicode="&#x12f;" horiz-adv-x="237" 
d="M119 605q-29 0 -48 18.5t-19 46.5t19 47t48 19q27 0 47 -19t20 -47q0 -27 -20 -46t-47 -19zM91 0h-20v503h96v-503q-19 0 -31 -10t-12 -28q0 -35 42 -35q25 0 38 15v-69q-16 -16 -63 -16q-91 0 -91 71q0 52 41 72z" />
    <glyph glyph-name="Idotaccent" unicode="&#x130;" horiz-adv-x="259" 
d="M79 0v750h101v-750h-101zM129 794q-29 0 -46.5 17t-17.5 44t17.5 44t46.5 17q28 0 46.5 -17.5t18.5 -43.5t-18.5 -43.5t-46.5 -17.5z" />
    <glyph glyph-name="dotlessi" unicode="&#x131;" horiz-adv-x="237" 
d="M71 0v503h96v-503h-96z" />
    <glyph glyph-name="Jcircumflex" unicode="&#x134;" horiz-adv-x="376" 
d="M206 233v517h101v-513q0 -119 -41.5 -183t-137.5 -64q-82 0 -120 23v96q40 -29 100 -29q55 0 76.5 35.5t21.5 117.5zM223 906h70l125 -116h-106l-55 47h-5l-54 -47h-101z" />
    <glyph glyph-name="jcircumflex" unicode="&#x135;" horiz-adv-x="254" 
d="M91 -23v526h96v-545q0 -118 -35 -168t-110 -50q-55 0 -85 16v87q25 -19 61 -19q41 0 57 30t16 123zM97 723h77l118 -153h-95l-59 74h-5l-59 -74h-95z" />
    <glyph glyph-name="Kcommaaccent" unicode="&#x136;" horiz-adv-x="625" 
d="M486 0l-231 309l-75 -105v-204h-101v750h101v-408l286 408h109l-246 -357l289 -393h-132zM341 -237h-54l25 77q-23 2 -35.5 18.5t-12.5 39.5q0 26 17 43t43 17q38 0 53 -30t0 -70z" />
    <glyph glyph-name="kcommaaccent" unicode="&#x137;" horiz-adv-x="502" 
d="M375 0l-156 191l-52 -67v-124h-96v750h96v-509l200 262h103l-185 -238l210 -265h-120zM283 -237h-54l25 77q-23 2 -35.5 18.5t-12.5 39.5q0 26 17 43t43 17q38 0 53 -30t0 -70z" />
    <glyph glyph-name="Lacute" unicode="&#x139;" horiz-adv-x="487" 
d="M79 0v750h101v-661h296v-89h-397zM81 797l86 109h159l-156 -109h-89z" />
    <glyph glyph-name="lacute" unicode="&#x13a;" horiz-adv-x="271" 
d="M65 115v635h96v-621q0 -53 48 -53q26 -1 52 13v-83q-27 -16 -72 -16q-61 0 -92.5 29t-31.5 96zM69 797l86 109h159l-156 -109h-89z" />
    <glyph glyph-name="Lcommaaccent" unicode="&#x13b;" horiz-adv-x="487" 
d="M79 0v750h101v-661h296v-89h-397zM304 -237h-54l25 77q-23 2 -35.5 18.5t-12.5 39.5q0 26 17.5 43t42.5 17q37 0 52.5 -30t0.5 -70z" />
    <glyph glyph-name="lcommaaccent" unicode="&#x13c;" horiz-adv-x="271" 
d="M65 115v635h96v-621q0 -53 48 -53q26 -1 52 13v-83q-27 -16 -72 -16q-61 0 -92.5 29t-31.5 96zM182 -237h-54l25 77q-23 2 -35.5 18.5t-12.5 39.5q0 26 17.5 43t42.5 17q37 0 52.5 -30t0.5 -70z" />
    <glyph glyph-name="Lcaron" unicode="&#x13d;" horiz-adv-x="487" 
d="M79 0v750h101v-661h296v-89h-397zM433 568h-54l25 77q-23 2 -35.5 18.5t-12.5 39.5q0 25 17 42.5t43 17.5q38 0 53 -30t0 -70z" />
    <glyph glyph-name="lcaron" unicode="&#x13e;" horiz-adv-x="297" 
d="M65 115v635h96v-621q0 -53 48 -53q26 -1 52 13v-83q-27 -16 -72 -16q-61 0 -92.5 29t-31.5 96zM288 568h-54l25 77q-23 2 -35.5 18.5t-12.5 39.5q0 25 17.5 42.5t42.5 17.5q37 0 52.5 -30t0.5 -70z" />
    <glyph glyph-name="Ldot" unicode="&#x13f;" horiz-adv-x="487" 
d="M79 0v750h101v-661h296v-89h-397zM380 319q-28 0 -48 19.5t-20 48.5q0 28 20 47.5t48 19.5q27 0 47 -19.5t20 -47.5t-20 -48t-47 -20z" />
    <glyph glyph-name="ldot" unicode="&#x140;" horiz-adv-x="387" 
d="M65 115v635h96v-621q0 -53 48 -53q26 -1 52 13v-83q-27 -16 -72 -16q-61 0 -92.5 29t-31.5 96zM310 223q-28 0 -48 19.5t-20 48.5q0 28 20 47.5t48 19.5q27 0 47 -19.5t20 -47.5t-20 -48t-47 -20z" />
    <glyph glyph-name="Lslash" unicode="&#x141;" horiz-adv-x="507" 
d="M495 0h-397v270l-93 -53v84l93 53v396h101v-338l128 73v-83l-128 -74v-239h296v-89z" />
    <glyph glyph-name="lslash" unicode="&#x142;" horiz-adv-x="300" 
d="M218 -10q-61 0 -92.5 29t-31.5 96v197l-72 -41v79l72 41v359h96v-304l88 50v-79l-88 -50v-238q0 -53 48 -53q26 -1 52 13v-83q-27 -16 -72 -16z" />
    <glyph glyph-name="Nacute" unicode="&#x143;" horiz-adv-x="682" 
d="M79 0v750h104l324 -566h5v566h91v-750h-102l-326 567h-7v-567h-89zM302 797l86 109h159l-156 -109h-89z" />
    <glyph glyph-name="nacute" unicode="&#x144;" horiz-adv-x="560" 
d="M71 0v503h91v-71h7q47 81 155 81q170 0 170 -188v-325h-96v289q0 71 -27 104.5t-85 33.5q-54 0 -86.5 -35t-32.5 -96v-296h-96zM247 577l73 146h139l-127 -146h-85z" />
    <glyph glyph-name="Ncommaaccent" unicode="&#x145;" horiz-adv-x="682" 
d="M79 0v750h104l324 -566h5v566h91v-750h-102l-326 567h-7v-567h-89zM370 -237h-54l25 77q-23 2 -35.5 18.5t-12.5 39.5q0 26 17.5 43t42.5 17q37 0 52.5 -30t0.5 -70z" />
    <glyph glyph-name="ncommaaccent" unicode="&#x146;" horiz-adv-x="560" 
d="M71 0v503h91v-71h7q47 81 155 81q170 0 170 -188v-325h-96v289q0 71 -27 104.5t-85 33.5q-54 0 -86.5 -35t-32.5 -96v-296h-96zM301 -237h-54l25 77q-23 2 -35.5 18.5t-12.5 39.5q0 26 17 43t43 17q38 0 53 -30t0 -70z" />
    <glyph glyph-name="Ncaron" unicode="&#x147;" horiz-adv-x="682" 
d="M79 0v750h104l324 -566h5v566h91v-750h-102l-326 567h-7v-567h-89zM315 797l-125 116h103l55 -47h5l53 47h105l-125 -116h-71z" />
    <glyph glyph-name="ncaron" unicode="&#x148;" horiz-adv-x="560" 
d="M71 0v503h91v-71h7q47 81 155 81q170 0 170 -188v-325h-96v289q0 71 -27 104.5t-85 33.5q-54 0 -86.5 -35t-32.5 -96v-296h-96zM326 570h-84l-122 153h101l61 -74h4l59 74h101z" />
    <glyph glyph-name="napostrophe" unicode="&#x149;" horiz-adv-x="600" 
d="M111 0v503h91v-71h7q47 81 155 81q170 0 170 -188v-325h-96v289q0 71 -27 104.5t-85 33.5q-54 0 -86.5 -35t-32.5 -96v-296h-96zM114 568h-54l25 77q-23 2 -35.5 18.5t-12.5 39.5q0 25 17.5 42.5t42.5 17.5q37 0 52.5 -30t0.5 -70z" />
    <glyph glyph-name="Eng" unicode="&#x14a;" horiz-adv-x="682" 
d="M452 -260q-55 0 -85 16v89q29 -21 68 -21q40 0 57.5 27.5t17.5 104.5v44l-331 558h-6v-558h-94v750h95l330 -557h6v557h94v-783q0 -120 -34 -173.5t-118 -53.5z" />
    <glyph glyph-name="eng" unicode="&#x14b;" horiz-adv-x="560" 
d="M350 -260q-54 0 -86 16v87q25 -19 61 -19q41 0 57 30t16 123v312q0 71 -27 104.5t-85 33.5q-54 0 -86.5 -35t-32.5 -96v-296h-96v503h91v-71h7q47 81 155 81q170 0 170 -188v-367q0 -118 -34.5 -168t-109.5 -50z" />
    <glyph glyph-name="Omacron" unicode="&#x14c;" horiz-adv-x="688" 
d="M344 -10q-142 0 -222 103t-80 282q0 180 80 282.5t222 102.5q143 0 223 -102t80 -282t-80 -283t-223 -103zM344 78q93 0 145 77t52 221q0 142 -52 219t-145 77q-92 0 -144 -76.5t-52 -220.5q0 -143 52 -220t144 -77zM218 816v73h247v-73h-247z" />
    <glyph glyph-name="omacron" unicode="&#x14d;" horiz-adv-x="544" 
d="M272 -10q-104 0 -169.5 69t-65.5 191q0 121 65.5 192t169.5 71q102 0 168.5 -70.5t66.5 -191.5t-66 -191t-169 -70zM272 74q59 0 96.5 44.5t37.5 132.5t-38 133t-96 45q-60 0 -97 -45t-37 -134t37 -132.5t97 -43.5zM144 627v73h253v-73h-253z" />
    <glyph glyph-name="Obreve" unicode="&#x14e;" horiz-adv-x="688" 
d="M344 -10q-142 0 -222 103t-80 282q0 180 80 282.5t222 102.5q143 0 223 -102t80 -282t-80 -283t-223 -103zM344 78q93 0 145 77t52 221q0 142 -52 219t-145 77q-92 0 -144 -76.5t-52 -220.5q0 -143 52 -220t144 -77zM342 788q-66 0 -105 31.5t-39 93.5h81q0 -59 63 -59
t63 59h82q0 -62 -39 -93.5t-106 -31.5z" />
    <glyph glyph-name="obreve" unicode="&#x14f;" horiz-adv-x="544" 
d="M272 -10q-104 0 -169.5 69t-65.5 191q0 121 65.5 192t169.5 71q102 0 168.5 -70.5t66.5 -191.5t-66 -191t-169 -70zM272 74q59 0 96.5 44.5t37.5 132.5t-38 133t-96 45q-60 0 -97 -45t-37 -134t37 -132.5t97 -43.5zM272 581q-68 0 -107 36t-39 106h83q0 -71 63 -71
q33 0 46.5 18t13.5 53h81q0 -71 -36.5 -106.5t-104.5 -35.5z" />
    <glyph glyph-name="Ohungarumlaut" unicode="&#x150;" horiz-adv-x="688" 
d="M344 -10q-142 0 -222 103t-80 282q0 180 80 282.5t222 102.5q143 0 223 -102t80 -282t-80 -283t-223 -103zM344 78q93 0 145 77t52 221q0 142 -52 219t-145 77q-92 0 -144 -76.5t-52 -220.5q0 -143 52 -220t144 -77zM366 797l110 109h154l-185 -109h-79zM247 797l68 109
h121l-114 -109h-75z" />
    <glyph glyph-name="ohungarumlaut" unicode="&#x151;" horiz-adv-x="544" 
d="M272 -10q-104 0 -169.5 69t-65.5 191q0 121 65.5 192t169.5 71q102 0 168.5 -70.5t66.5 -191.5t-66 -191t-169 -70zM272 74q59 0 96.5 44.5t37.5 132.5t-38 133t-96 45q-60 0 -97 -45t-37 -134t37 -132.5t97 -43.5zM180 577l58 146h117l-102 -146h-73zM300 577l96 146
h141l-159 -146h-78z" />
    <glyph glyph-name="OE" unicode="&#x152;" horiz-adv-x="897" 
d="M349 78q65 0 95 15v567q-29 12 -97 12q-93 0 -146 -77t-53 -220t53.5 -220t147.5 -77zM863 0h-416q-34 -10 -103 -10q-142 0 -222 103t-80 282q0 180 80 282.5t222 102.5q66 0 104 -10h402v-89h-305v-231h249v-89h-249v-252h318v-89z" />
    <glyph glyph-name="oe" unicode="&#x153;" horiz-adv-x="879" 
d="M655 -10q-144 0 -198 103h-7q-56 -103 -178 -103q-104 0 -169.5 69t-65.5 191q0 121 65.5 192t169.5 71q128 0 180 -105h7q50 105 175 105q94 0 151 -52t57 -154q0 -43 -6 -63h-326q0 -84 41 -127t117 -43q99 0 157 48v-89q-55 -43 -170 -43zM509 311h237
q-4 66 -35.5 95.5t-80.5 29.5t-80.5 -31t-40.5 -94zM272 73q59 0 96.5 44t37.5 134q0 89 -38 134t-96 45q-60 0 -97 -45t-37 -135q0 -89 37 -133t97 -44z" />
    <glyph glyph-name="Racute" unicode="&#x154;" horiz-adv-x="612" 
d="M180 386h87q72 0 113.5 35t41.5 104q0 67 -41.5 101.5t-113.5 34.5h-87v-275zM180 296v-296h-101v750h186q136 0 199.5 -63t63.5 -159q0 -68 -37.5 -125.5t-110.5 -81.5l213 -321h-126l-191 297q-10 -1 -28 -1h-68zM221 797l86 109h159l-156 -109h-89z" />
    <glyph glyph-name="racute" unicode="&#x155;" horiz-adv-x="376" 
d="M71 0v503h91v-79h7q15 39 49.5 64t85.5 25q43 0 62 -8v-97q-34 12 -77 12q-21 0 -40.5 -6t-39 -20t-31 -42.5t-11.5 -67.5v-284h-96zM168 577l73 146h139l-127 -146h-85z" />
    <glyph glyph-name="Rcommaaccent" unicode="&#x156;" horiz-adv-x="612" 
d="M180 386h87q72 0 113.5 35t41.5 104q0 67 -41.5 101.5t-113.5 34.5h-87v-275zM180 296v-296h-101v750h186q136 0 199.5 -63t63.5 -159q0 -68 -37.5 -125.5t-110.5 -81.5l213 -321h-126l-191 297q-10 -1 -28 -1h-68zM340 -237h-54l25 77q-23 2 -35.5 18.5t-12.5 39.5
q0 26 17.5 43t42.5 17q37 0 52.5 -30t0.5 -70z" />
    <glyph glyph-name="rcommaaccent" unicode="&#x157;" horiz-adv-x="376" 
d="M71 0v503h91v-79h7q15 39 49.5 64t85.5 25q43 0 62 -8v-97q-34 12 -77 12q-21 0 -40.5 -6t-39 -20t-31 -42.5t-11.5 -67.5v-284h-96zM134 -237h-54l25 77q-23 2 -35.5 18.5t-12.5 39.5q0 26 17.5 43t42.5 17q37 0 52.5 -30t0.5 -70z" />
    <glyph glyph-name="Rcaron" unicode="&#x158;" horiz-adv-x="612" 
d="M180 386h87q72 0 113.5 35t41.5 104q0 67 -41.5 101.5t-113.5 34.5h-87v-275zM180 296v-296h-101v750h186q136 0 199.5 -63t63.5 -159q0 -68 -37.5 -125.5t-110.5 -81.5l213 -321h-126l-191 297q-10 -1 -28 -1h-68zM245 797l-125 116h103l55 -47h5l53 47h105l-125 -116
h-71z" />
    <glyph glyph-name="rcaron" unicode="&#x159;" horiz-adv-x="376" 
d="M71 0v503h91v-79h7q15 39 49.5 64t85.5 25q43 0 62 -8v-97q-34 12 -77 12q-21 0 -40.5 -6t-39 -20t-31 -42.5t-11.5 -67.5v-284h-96zM249 570h-84l-122 153h101l61 -74h4l59 74h101z" />
    <glyph glyph-name="Sacute" unicode="&#x15a;" 
d="M237 78q130 0 130 116q0 28 -8.5 48t-35 39t-39 25.5t-57.5 26.5l-3 1.5l-3 1.5l-4 2q-87 40 -130.5 88t-43.5 135q0 104 69.5 151.5t170.5 47.5q110 0 158 -27v-96q-57 35 -154 35q-57 0 -97.5 -25.5t-40.5 -85.5q0 -27 9.5 -48t32 -38.5t39.5 -27t51 -25.5
q38 -18 60 -30t51 -33t44 -42t26 -52t11 -69q0 -92 -56.5 -149t-174.5 -57q-127 0 -205 45v104q92 -61 200 -61zM228 797l86 109h159l-156 -109h-89z" />
    <glyph glyph-name="sacute" unicode="&#x15b;" horiz-adv-x="434" 
d="M213 -10q-113 0 -174 37v92q69 -49 172 -49q87 0 87 68q0 28 -20.5 43.5t-59.5 29.5q-7 3 -32.5 11t-35.5 12t-31 13.5t-31 19t-22 23t-17 32t-5 40.5q0 71 50.5 111t150.5 40q85 0 127 -19v-88q-50 27 -123 27q-47 0 -74 -18t-27 -52q0 -25 19 -39t56 -26q5 -2 27.5 -9
t30.5 -10t27.5 -11.5t28.5 -15t22.5 -19t20 -25.5t11.5 -31t5 -40q0 -65 -45 -106t-138 -41zM190 577l73 146h139l-127 -146h-85z" />
    <glyph glyph-name="Scircumflex" unicode="&#x15c;" 
d="M237 78q130 0 130 116q0 28 -8.5 48t-35 39t-39 25.5t-57.5 26.5l-3 1.5l-3 1.5l-4 2q-87 40 -130.5 88t-43.5 135q0 104 69.5 151.5t170.5 47.5q110 0 158 -27v-96q-57 35 -154 35q-57 0 -97.5 -25.5t-40.5 -85.5q0 -27 9.5 -48t32 -38.5t39.5 -27t51 -25.5
q38 -18 60 -30t51 -33t44 -42t26 -52t11 -69q0 -92 -56.5 -149t-174.5 -57q-127 0 -205 45v104q92 -61 200 -61zM257 906h70l125 -116h-106l-55 47h-5l-54 -47h-101z" />
    <glyph glyph-name="scircumflex" unicode="&#x15d;" horiz-adv-x="434" 
d="M213 -10q-113 0 -174 37v92q69 -49 172 -49q87 0 87 68q0 28 -20.5 43.5t-59.5 29.5q-7 3 -32.5 11t-35.5 12t-31 13.5t-31 19t-22 23t-17 32t-5 40.5q0 71 50.5 111t150.5 40q85 0 127 -19v-88q-50 27 -123 27q-47 0 -74 -18t-27 -52q0 -25 19 -39t56 -26q5 -2 27.5 -9
t30.5 -10t27.5 -11.5t28.5 -15t22.5 -19t20 -25.5t11.5 -31t5 -40q0 -65 -45 -106t-138 -41zM185 723h77l118 -153h-95l-59 74h-5l-59 -74h-95z" />
    <glyph glyph-name="Scedilla" unicode="&#x15e;" 
d="M254 -196q-55 0 -84 18v68q30 -27 70 -27q36 0 36 27q0 18 -14.5 24.5t-49.5 6.5v70q-104 4 -175 44v104q92 -61 200 -61q130 0 130 116q0 28 -8.5 48t-35 39t-39 25.5t-57.5 26.5l-3 1.5l-3 1.5l-4 2q-87 40 -130.5 88t-43.5 135q0 104 69.5 151.5t170.5 47.5
q110 0 158 -27v-96q-57 35 -154 35q-57 0 -97.5 -25.5t-40.5 -85.5q0 -27 9.5 -48t32 -38.5t39.5 -27t51 -25.5q38 -18 60 -30t51 -33t44 -42t26 -52t11 -69q0 -84 -48 -140t-148 -65v-27q80 -7 80 -81q0 -79 -103 -79z" />
    <glyph glyph-name="scedilla" unicode="&#x15f;" horiz-adv-x="434" 
d="M227 -196q-55 0 -84 18v68q30 -27 70 -27q36 0 36 27q0 18 -14.5 24.5t-49.5 6.5v70q-92 4 -146 36v92q69 -49 172 -49q87 0 87 68q0 28 -20.5 43.5t-59.5 29.5q-7 3 -32.5 11t-35.5 12t-31 13.5t-31 19t-22 23t-17 32t-5 40.5q0 71 50.5 111t150.5 40q85 0 127 -19v-88
q-50 27 -123 27q-47 0 -74 -18t-27 -52q0 -25 19 -39t56 -26q5 -2 27.5 -9t30.5 -10t27.5 -11.5t28.5 -15t22.5 -19t20 -25.5t11.5 -31t5 -40q0 -58 -36 -97.5t-110 -47.5v-28q80 -7 80 -81q0 -79 -103 -79z" />
    <glyph glyph-name="Scaron" unicode="&#x160;" 
d="M237 78q130 0 130 116q0 28 -8.5 48t-35 39t-39 25.5t-57.5 26.5l-3 1.5l-3 1.5l-4 2q-87 40 -130.5 88t-43.5 135q0 104 69.5 151.5t170.5 47.5q110 0 158 -27v-96q-57 35 -154 35q-57 0 -97.5 -25.5t-40.5 -85.5q0 -27 9.5 -48t32 -38.5t39.5 -27t51 -25.5
q38 -18 60 -30t51 -33t44 -42t26 -52t11 -69q0 -92 -56.5 -149t-174.5 -57q-127 0 -205 45v104q92 -61 200 -61zM246 797l-125 116h103l55 -47h5l53 47h105l-125 -116h-71z" />
    <glyph glyph-name="scaron" unicode="&#x161;" horiz-adv-x="434" 
d="M213 -10q-113 0 -174 37v92q69 -49 172 -49q87 0 87 68q0 28 -20.5 43.5t-59.5 29.5q-7 3 -32.5 11t-35.5 12t-31 13.5t-31 19t-22 23t-17 32t-5 40.5q0 71 50.5 111t150.5 40q85 0 127 -19v-88q-50 27 -123 27q-47 0 -74 -18t-27 -52q0 -25 19 -39t56 -26q5 -2 27.5 -9
t30.5 -10t27.5 -11.5t28.5 -15t22.5 -19t20 -25.5t11.5 -31t5 -40q0 -65 -45 -106t-138 -41zM258 570h-84l-122 153h101l61 -74h4l59 74h101z" />
    <glyph glyph-name="Tcommaaccent" unicode="&#x162;" horiz-adv-x="556" 
d="M228 0v661h-208v89h516v-89h-207v-661h-101zM294 -237h-54l25 77q-23 2 -35.5 18.5t-12.5 39.5q0 26 17.5 43t42.5 17q37 0 52.5 -30t0.5 -70z" />
    <glyph glyph-name="tcommaaccent" unicode="&#x163;" horiz-adv-x="383" 
d="M248 -10q-87 0 -123 48.5t-36 142.5v239h-70v83h70v144h96v-144h157v-83h-157v-235q0 -56 17.5 -84t59.5 -28q48 -1 87 14v-81q-39 -16 -101 -16zM235 -237h-54l25 77q-23 2 -35.5 18.5t-12.5 39.5q0 26 17 43t43 17q38 0 53 -30t0 -70z" />
    <glyph glyph-name="Tcaron" unicode="&#x164;" horiz-adv-x="556" 
d="M228 0v661h-208v89h516v-89h-207v-661h-101zM244 797l-125 116h103l55 -47h5l53 47h105l-125 -116h-71z" />
    <glyph glyph-name="tcaron" unicode="&#x165;" horiz-adv-x="395" 
d="M248 -10q-87 0 -123 48.5t-36 142.5v239h-70v83h70v144h96v-144h157v-83h-157v-235q0 -56 17.5 -84t59.5 -28q48 -1 87 14v-81q-39 -16 -101 -16zM332 581h-54l25 77q-23 2 -35.5 18.5t-12.5 39.5q0 26 17.5 43t42.5 17q37 0 52.5 -30t0.5 -70z" />
    <glyph glyph-name="Tbar" unicode="&#x166;" horiz-adv-x="556" 
d="M499 352h-170v-352h-101v352h-171v76h171v233h-208v89h516v-89h-207v-233h170v-76z" />
    <glyph glyph-name="tbar" unicode="&#x167;" horiz-adv-x="383" 
d="M349 6q-39 -16 -101 -16q-87 0 -123 48.5t-36 142.5v66h-67v73h67v100h-70v83h70v144h96v-144h157v-83h-157v-100h157v-73h-157v-62q0 -56 17.5 -84t59.5 -28q48 -1 87 14v-81z" />
    <glyph glyph-name="Utilde" unicode="&#x168;" horiz-adv-x="657" 
d="M580 273q0 -283 -248 -283q-255 0 -255 282v478h101v-473q0 -97 36 -147.5t119 -50.5q85 0 118 49.5t33 149.5v472h96v-477zM208 798v82q18 33 66 33q24 0 64 -17t59 -17q43 0 61 38v-83q-16 -32 -63 -32q-25 0 -65.5 16.5t-60.5 16.5q-40 0 -61 -37z" />
    <glyph glyph-name="utilde" unicode="&#x169;" horiz-adv-x="557" 
d="M233 -10q-82 0 -124.5 49t-42.5 139v325h96v-289q0 -72 27.5 -105t82.5 -33q47 0 82.5 33.5t35.5 108.5v285h96v-503h-91v70h-7q-49 -80 -155 -80zM157 601v89q18 32 64 32q25 0 66 -16.5t61 -16.5q41 0 59 38v-89q-14 -33 -61 -33q-26 0 -67 17t-62 17q-37 0 -60 -38z
" />
    <glyph glyph-name="Umacron" unicode="&#x16a;" horiz-adv-x="657" 
d="M580 273q0 -283 -248 -283q-255 0 -255 282v478h101v-473q0 -97 36 -147.5t119 -50.5q85 0 118 49.5t33 149.5v472h96v-477zM208 816v73h247v-73h-247z" />
    <glyph glyph-name="umacron" unicode="&#x16b;" horiz-adv-x="557" 
d="M233 -10q-82 0 -124.5 49t-42.5 139v325h96v-289q0 -72 27.5 -105t82.5 -33q47 0 82.5 33.5t35.5 108.5v285h96v-503h-91v70h-7q-49 -80 -155 -80zM153 627v73h253v-73h-253z" />
    <glyph glyph-name="Ubreve" unicode="&#x16c;" horiz-adv-x="657" 
d="M580 273q0 -283 -248 -283q-255 0 -255 282v478h101v-473q0 -97 36 -147.5t119 -50.5q85 0 118 49.5t33 149.5v472h96v-477zM333 788q-66 0 -105 31.5t-39 93.5h81q0 -59 63 -59t63 59h82q0 -62 -39 -93.5t-106 -31.5z" />
    <glyph glyph-name="ubreve" unicode="&#x16d;" horiz-adv-x="557" 
d="M233 -10q-82 0 -124.5 49t-42.5 139v325h96v-289q0 -72 27.5 -105t82.5 -33q47 0 82.5 33.5t35.5 108.5v285h96v-503h-91v70h-7q-49 -80 -155 -80zM282 581q-68 0 -107 36t-39 106h83q0 -71 63 -71q33 0 46.5 18t13.5 53h81q0 -71 -36.5 -106.5t-104.5 -35.5z" />
    <glyph glyph-name="Uring" unicode="&#x16e;" horiz-adv-x="657" 
d="M580 273q0 -283 -248 -283q-255 0 -255 282v478h101v-473q0 -97 36 -147.5t119 -50.5q85 0 118 49.5t33 149.5v472h96v-477zM334 773q-50 0 -79 24.5t-29 60.5q0 37 28.5 60.5t79.5 23.5q48 0 77.5 -24t29.5 -60t-29.5 -60.5t-77.5 -24.5zM334 827q44 0 44 31t-44 31
q-45 0 -45 -31t45 -31z" />
    <glyph glyph-name="uring" unicode="&#x16f;" horiz-adv-x="557" 
d="M233 -10q-82 0 -124.5 49t-42.5 139v325h96v-289q0 -72 27.5 -105t82.5 -33q47 0 82.5 33.5t35.5 108.5v285h96v-503h-91v70h-7q-49 -80 -155 -80zM279 563q-42 0 -71 27t-29 67t29 66t71 26q39 0 68.5 -26.5t29.5 -65.5t-29.5 -66.5t-68.5 -27.5zM279 624q14 0 25 9.5
t11 23.5q0 13 -11 22.5t-25 9.5q-16 0 -26 -9t-10 -23q0 -15 10 -24t26 -9z" />
    <glyph glyph-name="Uhungarumlaut" unicode="&#x170;" horiz-adv-x="657" 
d="M580 273q0 -283 -248 -283q-255 0 -255 282v478h101v-473q0 -97 36 -147.5t119 -50.5q85 0 118 49.5t33 149.5v472h96v-477zM345 797l110 109h154l-185 -109h-79zM226 797l68 109h121l-114 -109h-75z" />
    <glyph glyph-name="uhungarumlaut" unicode="&#x171;" horiz-adv-x="557" 
d="M233 -10q-82 0 -124.5 49t-42.5 139v325h96v-289q0 -72 27.5 -105t82.5 -33q47 0 82.5 33.5t35.5 108.5v285h96v-503h-91v70h-7q-49 -80 -155 -80zM183 577l58 146h117l-102 -146h-73zM303 577l96 146h141l-159 -146h-78z" />
    <glyph glyph-name="Uogonek" unicode="&#x172;" horiz-adv-x="657" 
d="M377 -143q-96 0 -96 71q0 39 31 62q-235 12 -235 282v478h101v-473q0 -97 36 -147.5t119 -50.5q85 0 118 49.5t33 149.5v472h96v-477q0 -245 -189 -278q-35 -7 -35 -37q0 -31 40 -31q27 0 40 15v-69q-16 -16 -59 -16z" />
    <glyph glyph-name="uogonek" unicode="&#x173;" horiz-adv-x="557" 
d="M410 0h-15v70h-7q-49 -80 -155 -80q-82 0 -124.5 49t-42.5 139v325h96v-289q0 -72 27.5 -105t82.5 -33q47 0 82.5 33.5t35.5 108.5v285h96v-503q-19 0 -31 -10t-12 -28q0 -35 42 -35q25 0 38 15v-69q-16 -16 -63 -16q-91 0 -91 71q0 52 41 72z" />
    <glyph glyph-name="Wcircumflex" unicode="&#x174;" horiz-adv-x="868" 
d="M289 0h-81l-195 750h102l141 -550h7l138 550h77l140 -550h9l137 550h91l-194 -750h-85l-142 547h-9zM407 906h70l125 -116h-106l-55 47h-5l-54 -47h-101z" />
    <glyph glyph-name="wcircumflex" unicode="&#x175;" horiz-adv-x="686" 
d="M451 0l-105 378h-7l-90 -378h-100l-144 503h94l106 -385h9l91 385h87l107 -385h8l92 385h82l-130 -503h-100zM305 723h77l118 -153h-95l-59 74h-5l-59 -74h-95z" />
    <glyph glyph-name="Ycircumflex" unicode="&#x176;" horiz-adv-x="577" 
d="M348 0h-101v304l-240 446h114l181 -339h5l168 339h95l-222 -446v-304zM263 906h70l125 -116h-106l-55 47h-5l-54 -47h-101z" />
    <glyph glyph-name="ycircumflex" unicode="&#x177;" horiz-adv-x="478" 
d="M205 -250h-91l88 244l-200 509h102l141 -370h9l131 370h91zM212 723h77l118 -153h-95l-59 74h-5l-59 -74h-95z" />
    <glyph glyph-name="Ydieresis" unicode="&#x178;" horiz-adv-x="577" 
d="M348 0h-101v304l-240 446h114l181 -339h5l168 339h95l-222 -446v-304zM200 793q-27 0 -45 17.5t-18 43.5t18 44t45 18t45 -18t18 -44t-18 -43.5t-45 -17.5zM395 793q-27 0 -45 17.5t-18 43.5t18 44t45 18t45 -18t18 -44t-18 -43.5t-45 -17.5z" />
    <glyph glyph-name="Zacute" unicode="&#x179;" horiz-adv-x="517" 
d="M490 0h-463v68l339 593h-327v89h444v-68l-340 -593h347v-89zM203 797l86 109h159l-156 -109h-89z" />
    <glyph glyph-name="zacute" unicode="&#x17a;" horiz-adv-x="468" 
d="M435 0h-391v63l258 357h-253v83h364v-63l-258 -357h280v-83zM192 577l73 146h139l-127 -146h-85z" />
    <glyph glyph-name="Zdotaccent" unicode="&#x17b;" horiz-adv-x="517" 
d="M490 0h-463v68l339 593h-327v89h444v-68l-340 -593h347v-89zM263 794q-29 0 -46.5 17t-17.5 44t17.5 44t46.5 17q28 0 46.5 -17.5t18.5 -43.5t-18.5 -43.5t-46.5 -17.5z" />
    <glyph glyph-name="zdotaccent" unicode="&#x17c;" horiz-adv-x="468" 
d="M435 0h-391v63l258 357h-253v83h364v-63l-258 -357h280v-83zM237 605q-29 0 -48 18.5t-19 46.5t19 47t48 19q27 0 47 -19t20 -47q0 -27 -20 -46t-47 -19z" />
    <glyph glyph-name="Zcaron" unicode="&#x17d;" horiz-adv-x="517" 
d="M490 0h-463v68l339 593h-327v89h444v-68l-340 -593h347v-89zM228 797l-125 116h103l55 -47h5l53 47h105l-125 -116h-71z" />
    <glyph glyph-name="zcaron" unicode="&#x17e;" horiz-adv-x="468" 
d="M435 0h-391v63l258 357h-253v83h364v-63l-258 -357h280v-83zM283 570h-84l-122 153h101l61 -74h4l59 74h101z" />
    <glyph glyph-name="florin" unicode="&#x192;" horiz-adv-x="406" 
d="M243 420l-56 -462q-15 -118 -56 -168t-116 -50q-55 0 -83 16l10 87q24 -19 59 -19q41 0 61 30.5t31 122.5l54 443h-70l10 83h70l8 68q11 93 60.5 142.5t133.5 49.5q58 0 95 -15l-12 -91q-25 20 -73 20q-95 0 -109 -110l-7 -64h120l-9 -83h-121z" />
    <glyph glyph-name="Aringacute" unicode="&#x1fa;" horiz-adv-x="604" 
d="M287 603l-103 -329h218l-106 329h-9zM491 0l-60 187h-274l-58 -187h-89l240 750h94l250 -750h-103zM246 959l86 109h159l-156 -109h-89zM297 773q-50 0 -79 24.5t-29 60.5q0 37 28.5 60.5t79.5 23.5q48 0 77.5 -24t29.5 -60t-29.5 -60.5t-77.5 -24.5zM297 827q44 0 44 31
t-44 31q-45 0 -45 -31t45 -31z" />
    <glyph glyph-name="aringacute" unicode="&#x1fb;" horiz-adv-x="519" 
d="M235 69q50 0 86.5 37t36.5 104v27q-116 0 -163 -21t-47 -73q0 -74 87 -74zM199 -10q-73 0 -112.5 39t-39.5 103q0 88 72.5 127.5t238.5 39.5v23q0 109 -122 109q-90 0 -158 -45v90q62 37 171 37q103 0 154 -50t51 -142v-321h-91v79h-7q-26 -45 -61.5 -67t-95.5 -22z
M202 800l86 109h159l-156 -109h-89zM268 563q-42 0 -71 27t-29 67t29 66t71 26q39 0 68.5 -26.5t29.5 -65.5t-29.5 -66.5t-68.5 -27.5zM268 624q14 0 25 9.5t11 23.5q0 13 -11 22.5t-25 9.5q-16 0 -26 -9t-10 -23q0 -15 10 -24t26 -9z" />
    <glyph glyph-name="AEacute" unicode="&#x1fc;" horiz-adv-x="896" 
d="M250 275h194v316h-10zM90 0h-94l432 750h422v-89h-305v-231h249v-89h-249v-252h318v-89h-419v190h-243zM601 797l86 109h159l-156 -109h-89z" />
    <glyph glyph-name="aeacute" unicode="&#x1fd;" horiz-adv-x="829" 
d="M605 -10q-73 0 -125.5 30t-75.5 84h-7q-34 -64 -79.5 -89t-115.5 -25q-73 0 -114 41.5t-41 103.5q0 87 71.5 128t240.5 41v18q0 111 -123 111q-90 0 -158 -45v88q62 37 171 37q64 0 103.5 -22.5t60.5 -70.5h7q52 93 170 93q90 0 146 -52.5t56 -153.5q0 -50 -6 -70h-326
q-1 -80 40.5 -121.5t117.5 -41.5q99 0 157 48v-89q-55 -43 -170 -43zM459 304h238q-7 131 -117 131q-104 0 -121 -131zM235 70q51 0 87.5 37t36.5 103v30q-120 0 -165.5 -21.5t-45.5 -73.5q0 -31 21.5 -53t65.5 -22zM379 577l73 146h139l-127 -146h-85z" />
    <glyph glyph-name="Oslashacute" unicode="&#x1fe;" horiz-adv-x="688" 
d="M148 375q0 -119 37 -195l281 443q-49 49 -122 49q-92 0 -144 -76.5t-52 -220.5zM344 78q93 0 145 77t52 221q0 110 -32 182l-279 -438q46 -42 114 -42zM344 -10q-96 0 -165 49l-57 -89h-83l87 138q-84 103 -84 287q0 180 80 282.5t222 102.5q102 0 175 -54l47 74h84
l-80 -126q77 -102 77 -278q0 -180 -80 -283t-223 -103zM296 797l86 109h159l-156 -109h-89z" />
    <glyph glyph-name="oslashacute" unicode="&#x1ff;" horiz-adv-x="544" 
d="M138 250q0 -67 24 -112l172 275q-28 16 -62 16q-60 0 -97 -45t-37 -134zM272 74q59 0 96.5 44.5t37.5 132.5q0 69 -26 114l-173 -275q28 -16 65 -16zM272 -10q-60 0 -112 25l-47 -75h-76l71 113q-71 73 -71 197q0 121 65.5 192t169.5 71q59 0 109 -25l50 79h76l-74 -117
q74 -72 74 -199q0 -121 -66 -191t-169 -70zM234 577l73 146h139l-127 -146h-85z" />
    <glyph glyph-name="Scommaaccent" unicode="&#x218;" 
d="M237 78q130 0 130 116q0 28 -8.5 48t-35 39t-39 25.5t-57.5 26.5l-3 1.5l-3 1.5l-4 2q-87 40 -130.5 88t-43.5 135q0 104 69.5 151.5t170.5 47.5q110 0 158 -27v-96q-57 35 -154 35q-57 0 -97.5 -25.5t-40.5 -85.5q0 -27 9.5 -48t32 -38.5t39.5 -27t51 -25.5
q38 -18 60 -30t51 -33t44 -42t26 -52t11 -69q0 -92 -56.5 -149t-174.5 -57q-127 0 -205 45v104q92 -61 200 -61zM287 -237h-54l25 77q-23 2 -35.5 18.5t-12.5 39.5q0 26 17 43t43 17q38 0 53 -30t0 -70z" />
    <glyph glyph-name="scommaaccent" unicode="&#x219;" horiz-adv-x="434" 
d="M213 -10q-113 0 -174 37v92q69 -49 172 -49q87 0 87 68q0 28 -20.5 43.5t-59.5 29.5q-7 3 -32.5 11t-35.5 12t-31 13.5t-31 19t-22 23t-17 32t-5 40.5q0 71 50.5 111t150.5 40q85 0 127 -19v-88q-50 27 -123 27q-47 0 -74 -18t-27 -52q0 -25 19 -39t56 -26q5 -2 27.5 -9
t30.5 -10t27.5 -11.5t28.5 -15t22.5 -19t20 -25.5t11.5 -31t5 -40q0 -65 -45 -106t-138 -41zM236 -237h-54l25 77q-23 2 -35.5 18.5t-12.5 39.5q0 26 17.5 43t42.5 17q37 0 52.5 -30t0.5 -70z" />
    <glyph glyph-name="circumflex" unicode="&#x2c6;" horiz-adv-x="500" 
d="M202 723h77l118 -153h-95l-59 74h-5l-59 -74h-95z" />
    <glyph glyph-name="caron" unicode="&#x2c7;" horiz-adv-x="513" 
d="M290 570h-84l-122 153h101l61 -74h4l59 74h101z" />
    <glyph glyph-name="breve" unicode="&#x2d8;" horiz-adv-x="507" 
d="M256 581q-68 0 -107 36t-39 106h83q0 -71 63 -71q33 0 46.5 18t13.5 53h81q0 -71 -36.5 -106.5t-104.5 -35.5z" />
    <glyph glyph-name="dotaccent" unicode="&#x2d9;" horiz-adv-x="308" 
d="M154 605q-29 0 -48 18.5t-19 46.5t19 47t48 19q27 0 47 -19t20 -47q0 -27 -20 -46t-47 -19z" />
    <glyph glyph-name="ring" unicode="&#x2da;" horiz-adv-x="358" 
d="M180 563q-42 0 -71 27t-29 67t29 66t71 26q39 0 68.5 -26.5t29.5 -65.5t-29.5 -66.5t-68.5 -27.5zM180 624q14 0 25 9.5t11 23.5q0 13 -11 22.5t-25 9.5q-16 0 -26 -9t-10 -23q0 -15 10 -24t26 -9z" />
    <glyph glyph-name="ogonek" unicode="&#x2db;" horiz-adv-x="311" 
d="M128 0h76q-19 0 -31 -10t-12 -28q0 -35 42 -35q25 0 38 15v-69q-16 -16 -63 -16q-91 0 -91 71q0 52 41 72z" />
    <glyph glyph-name="tilde" unicode="&#x2dc;" horiz-adv-x="350" 
d="M50 601v89q18 32 64 32q26 0 67 -16.5t60 -16.5q41 0 59 38v-89q-14 -33 -61 -33q-26 0 -67 17t-62 17q-37 0 -60 -38z" />
    <glyph glyph-name="hungarumlaut" unicode="&#x2dd;" horiz-adv-x="358" 
d="M75 577l58 146h117l-102 -146h-73zM195 577l96 146h141l-159 -146h-78z" />
    <glyph glyph-name="afii10023" unicode="&#x401;" horiz-adv-x="532" 
d="M79 0v750h406v-89h-305v-231h249v-89h-249v-252h318v-89h-419zM190 793q-27 0 -45 17.5t-18 43.5t18 44t45 18t45 -18t18 -44t-18 -43.5t-45 -17.5zM385 793q-27 0 -45 17.5t-18 43.5t18 44t45 18t45 -18t18 -44t-18 -43.5t-45 -17.5z" />
    <glyph glyph-name="afii10051" unicode="&#x402;" horiz-adv-x="749" 
d="M700 232q0 -242 -184 -242q-52 0 -86 15v91q36 -18 72 -18q97 0 97 152q0 153 -141 153q-39 0 -76 -14.5t-55 -37.5v-331h-101v661h-206v89h513v-89h-206v-242q60 52 158 52q99 0 157 -59t58 -180z" />
    <glyph glyph-name="afii10052" unicode="&#x403;" horiz-adv-x="488" 
d="M79 0v750h389v-89h-288v-661h-101zM222 797l86 109h159l-156 -109h-89z" />
    <glyph glyph-name="afii10053" unicode="&#x404;" horiz-adv-x="570" 
d="M530 27q-63 -37 -164 -37q-163 0 -243.5 101t-80.5 284q0 178 86.5 281.5t239.5 103.5q92 0 145 -24v-92q-50 28 -138 28q-89 0 -150.5 -62.5t-73.5 -179.5h291v-89h-293q7 -132 65.5 -197.5t161.5 -65.5q97 0 154 43v-94z" />
    <glyph glyph-name="afii10054" unicode="&#x405;" 
d="M237 78q130 0 130 116q0 28 -8.5 48t-35 39t-39 25.5t-57.5 26.5l-3 1.5l-3 1.5l-4 2q-87 40 -130.5 88t-43.5 135q0 104 69.5 151.5t170.5 47.5q110 0 158 -27v-96q-57 35 -154 35q-57 0 -97.5 -25.5t-40.5 -85.5q0 -27 9.5 -48t32 -38.5t39.5 -27t51 -25.5
q38 -18 60 -30t51 -33t44 -42t26 -52t11 -69q0 -92 -56.5 -149t-174.5 -57q-127 0 -205 45v104q92 -61 200 -61z" />
    <glyph glyph-name="afii10055" unicode="&#x406;" horiz-adv-x="259" 
d="M79 0v750h101v-750h-101z" />
    <glyph glyph-name="afii10056" unicode="&#x407;" horiz-adv-x="259" 
d="M205 794q-26 0 -41.5 17.5t-15.5 43.5t15.5 43.5t41.5 17.5t42 -17.5t16 -43.5t-16 -43.5t-42 -17.5zM55 794q-26 0 -41.5 17.5t-15.5 43.5t15.5 43.5t41.5 17.5t42 -18t16 -43q0 -26 -16 -43.5t-42 -17.5zM79 0v750h101v-750h-101z" />
    <glyph glyph-name="afii10057" unicode="&#x408;" horiz-adv-x="376" 
d="M206 233v517h101v-513q0 -119 -41.5 -183t-137.5 -64q-82 0 -120 23v96q40 -29 100 -29q55 0 76.5 35.5t21.5 117.5z" />
    <glyph glyph-name="afii10058" unicode="&#x409;" horiz-adv-x="949" 
d="M251 530q0 -103 -3.5 -176.5t-15.5 -146t-32 -116.5t-55 -71t-83 -27q-27 0 -50 7v94l4 -1q5 -1 12 -1.5t14 -0.5q30 0 50.5 19t36.5 67t24 136.5t8 221.5v215h397v-276h103q135 0 200 -64.5t65 -175.5q0 -98 -67 -166t-201 -68h-201v661h-206v-131zM558 89h97
q79 0 122 37t43 107q0 76 -43 113.5t-123 37.5h-96v-295z" />
    <glyph glyph-name="afii10059" unicode="&#x40a;" horiz-adv-x="989" 
d="M597 89h97q79 0 122.5 31.5t43.5 90.5q0 130 -167 130h-96v-252zM180 339v-339h-101v750h101v-322h316v322h101v-320h104q135 0 200 -58.5t65 -159.5q0 -88 -67.5 -150t-200.5 -62h-202v339h-316z" />
    <glyph glyph-name="afii10060" unicode="&#x40b;" horiz-adv-x="749" 
d="M327 331v-331h-101v661h-206v89h513v-89h-206v-242q59 52 158 52q97 0 149 -53t52 -161v-257h-101v234q0 81 -31 115t-96 34q-39 0 -76 -14.5t-55 -37.5z" />
    <glyph glyph-name="afii10061" unicode="&#x40c;" horiz-adv-x="599" 
d="M180 317v-317h-101v750h101v-343l55 19l227 324h104l-246 -356l268 -394h-121l-234 335zM248 797l86 109h159l-156 -109h-89z" />
    <glyph glyph-name="afii10062" unicode="&#x40e;" horiz-adv-x="580" 
d="M257 0h-96l88 210l-241 540h109l181 -409h6l172 409h96zM296 769q-70 0 -114 36t-44 108h83q0 -75 75 -75q39 0 57.5 21.5t18.5 53.5h83q0 -72 -43.5 -108t-115.5 -36z" />
    <glyph glyph-name="afii10145" unicode="&#x40f;" horiz-adv-x="649" 
d="M571 0h-195l-4 -159h-92l-6 159h-195v750h101v-661h290v661h101v-750z" />
    <glyph glyph-name="afii10017" unicode="&#x410;" horiz-adv-x="604" 
d="M287 603l-103 -329h218l-106 329h-9zM491 0l-60 187h-274l-58 -187h-89l240 750h94l250 -750h-103z" />
    <glyph glyph-name="afii10018" unicode="&#x411;" horiz-adv-x="582" 
d="M548 226q0 -95 -67 -160.5t-201 -65.5h-201v750h418v-89h-317v-202h103q135 0 200 -62t65 -171zM180 89h97q79 0 122 34t43 102q0 144 -166 144h-96v-280z" />
    <glyph glyph-name="afii10019" unicode="&#x412;" horiz-adv-x="589" 
d="M298 0h-219v750h205q124 0 184 -49.5t60 -137.5q0 -122 -124 -164v-8q77 -17 114.5 -64.5t37.5 -116.5q0 -95 -61.5 -152.5t-196.5 -57.5zM180 426h97q68 0 106.5 34.5t38.5 95.5q0 109 -145 109h-97v-239zM180 85h109q161 0 161 126q0 133 -168 133h-102v-259z" />
    <glyph glyph-name="afii10020" unicode="&#x413;" horiz-adv-x="488" 
d="M79 0v750h389v-89h-288v-661h-101z" />
    <glyph glyph-name="afii10021" unicode="&#x414;" horiz-adv-x="687" 
d="M164 89h305v572h-213q0 -103 -2.5 -173.5t-11 -154t-28 -144.5t-50.5 -100zM561 0h-460l-10 -155h-86v244h53q32 31 54 83t32.5 114t16.5 134.5t5.5 145t-0.5 146.5v38h404v-661h88v-244h-86z" />
    <glyph glyph-name="afii10022" unicode="&#x415;" horiz-adv-x="532" 
d="M79 0v750h406v-89h-305v-231h249v-89h-249v-252h318v-89h-419z" />
    <glyph glyph-name="afii10024" unicode="&#x416;" horiz-adv-x="888" 
d="M392 402v348h101v-348l47 19l214 329h101l-232 -357l255 -393h-120l-220 336l-45 -17v-319h-101v319l-44 17l-221 -336h-117l251 384l-237 366h108l214 -330z" />
    <glyph glyph-name="afii10025" unicode="&#x417;" horiz-adv-x="502" 
d="M209 -10q-106 0 -178 37v96q79 -45 178 -45q154 0 154 134q0 66 -47 99.5t-121 33.5h-68v90h68q65 0 101.5 34.5t36.5 95.5q0 51 -34 78.5t-93 27.5q-97 0 -162 -60v97q62 52 173 52q116 0 169 -52.5t53 -136.5q0 -61 -35 -105t-96 -63v-9q161 -35 161 -188
q0 -97 -62.5 -156.5t-197.5 -59.5z" />
    <glyph glyph-name="afii10026" unicode="&#x418;" horiz-adv-x="682" 
d="M603 0h-101v564h-9l-316 -564h-98v750h101v-559h9l316 559h98v-750z" />
    <glyph glyph-name="afii10027" unicode="&#x419;" horiz-adv-x="682" 
d="M603 0h-101v564h-9l-316 -564h-98v750h101v-559h9l316 559h98v-750zM345 769q-70 0 -114 36t-44 108h83q0 -75 75 -75q39 0 57.5 21.5t18.5 53.5h83q0 -72 -43.5 -108t-115.5 -36z" />
    <glyph glyph-name="afii10028" unicode="&#x41a;" horiz-adv-x="599" 
d="M180 317v-317h-101v750h101v-343l55 19l227 324h104l-246 -356l268 -394h-121l-234 335z" />
    <glyph glyph-name="afii10029" unicode="&#x41b;" horiz-adv-x="636" 
d="M62 -7q-27 0 -50 7v94l4 -1q5 -1 12 -1.5t14 -0.5q30 0 50.5 19t36.5 67t24 136.5t8 221.5v215h397v-750h-101v661h-206v-131q0 -103 -3.5 -176.5t-15.5 -146t-32 -116.5t-55 -71t-83 -27z" />
    <glyph glyph-name="afii10030" unicode="&#x41c;" horiz-adv-x="816" 
d="M79 0v750h133l196 -597h5l195 597h129v-750h-101v599h-6l-192 -599h-75l-192 599h-6v-599h-86z" />
    <glyph glyph-name="afii10031" unicode="&#x41d;" horiz-adv-x="676" 
d="M79 0v750h101v-322h316v322h101v-750h-101v339h-316v-339h-101z" />
    <glyph glyph-name="afii10032" unicode="&#x41e;" horiz-adv-x="688" 
d="M344 -10q-142 0 -222 103t-80 282q0 180 80 282.5t222 102.5q143 0 223 -102t80 -282t-80 -283t-223 -103zM344 78q93 0 145 77t52 221q0 142 -52 219t-145 77q-92 0 -144 -76.5t-52 -220.5q0 -143 52 -220t144 -77z" />
    <glyph glyph-name="afii10033" unicode="&#x41f;" horiz-adv-x="660" 
d="M79 0v750h502v-750h-101v661h-300v-661h-101z" />
    <glyph glyph-name="afii10034" unicode="&#x420;" horiz-adv-x="548" 
d="M79 0v750h193q130 0 192 -64.5t62 -157.5q0 -97 -62.5 -164t-191.5 -67h-92v-297h-101zM180 387h87q71 0 112 36t41 106q0 63 -41.5 97.5t-111.5 34.5h-87v-274z" />
    <glyph glyph-name="afii10035" unicode="&#x421;" horiz-adv-x="570" 
d="M366 -10q-163 0 -243.5 101t-80.5 284q0 178 86.5 281.5t239.5 103.5q92 0 145 -24v-92q-50 28 -138 28q-99 0 -163 -77t-64 -220q0 -150 59 -223.5t169 -73.5q97 0 154 43v-94q-63 -37 -164 -37z" />
    <glyph glyph-name="afii10036" unicode="&#x422;" horiz-adv-x="556" 
d="M228 0v661h-208v89h516v-89h-207v-661h-101z" />
    <glyph glyph-name="afii10037" unicode="&#x423;" horiz-adv-x="580" 
d="M257 0h-96l88 210l-241 540h109l181 -409h6l172 409h96z" />
    <glyph glyph-name="afii10038" unicode="&#x424;" horiz-adv-x="811" 
d="M355 -10v96q-148 1 -235 78t-87 211q0 135 86.5 212t235.5 79v94h101v-94q149 -2 235 -79.5t86 -212.5q0 -134 -86 -210.5t-235 -77.5v-96h-101zM456 170q102 0 158.5 55t56.5 149t-57 150.5t-158 56.5v-411zM355 170v411q-102 0 -159 -55.5t-57 -150.5
q0 -92 57.5 -148.5t158.5 -56.5z" />
    <glyph glyph-name="afii10039" unicode="&#x425;" horiz-adv-x="625" 
d="M489 0l-187 307l-180 -307h-100l229 390l-218 360h114l163 -267l156 267h101l-205 -351l241 -399h-114z" />
    <glyph glyph-name="afii10040" unicode="&#x426;" horiz-adv-x="687" 
d="M573 -155l-10 155h-484v750h101v-661h290v661h101v-661h88v-244h-86z" />
    <glyph glyph-name="afii10041" unicode="&#x427;" horiz-adv-x="609" 
d="M429 0v320q-58 -27 -148 -27q-111 0 -172 60t-61 186v211h101v-204q0 -92 36.5 -129t107.5 -37q39 0 73 6.5t48 13.5l15 6v344h101v-750h-101z" />
    <glyph glyph-name="afii10042" unicode="&#x428;" horiz-adv-x="924" 
d="M79 0v750h101v-661h232v661h101v-661h232v661h101v-750h-767z" />
    <glyph glyph-name="afii10043" unicode="&#x429;" horiz-adv-x="963" 
d="M837 0h-758v750h101v-661h232v661h101v-661h232v661h101v-661h88v-244h-86z" />
    <glyph glyph-name="afii10044" unicode="&#x42a;" horiz-adv-x="660" 
d="M368 0h-201v661h-149v89h250v-276h103q135 0 200 -64.5t65 -175.5q0 -98 -67 -166t-201 -68zM268 89h97q79 0 122 37t43 107q0 76 -43 113.5t-123 37.5h-96v-295z" />
    <glyph glyph-name="afii10045" unicode="&#x42b;" horiz-adv-x="819" 
d="M79 0v750h101v-276h103q135 0 200 -64.5t65 -175.5q0 -98 -67 -166t-201 -68h-201zM180 89h97q79 0 122 37t43 107q0 76 -43 113.5t-123 37.5h-96v-295zM639 0v750h101v-750h-101z" />
    <glyph glyph-name="afii10046" unicode="&#x42c;" horiz-adv-x="572" 
d="M79 0v750h101v-276h103q135 0 200 -64.5t65 -175.5q0 -98 -67 -166t-201 -68h-201zM180 89h97q79 0 122 37t43 107q0 76 -43 113.5t-123 37.5h-96v-295z" />
    <glyph glyph-name="afii10047" unicode="&#x42d;" horiz-adv-x="564" 
d="M218 -10q-101 0 -169 37v92q70 -41 163 -41q192 0 203 261h-253v89h252q-10 119 -65.5 181.5t-143.5 62.5q-92 0 -153 -48v92q60 44 159 44q151 0 231 -102t80 -282q0 -186 -77 -286t-227 -100z" />
    <glyph glyph-name="afii10048" unicode="&#x42e;" horiz-adv-x="908" 
d="M573 -10q-131 0 -208 94.5t-84 254.5h-101v-339h-101v750h101v-322h104q12 155 87 243.5t202 88.5q140 0 216.5 -103.5t76.5 -280.5t-77 -281.5t-216 -104.5zM573 81q87 0 136 76.5t51 218.5q2 139 -48.5 216t-138.5 77q-86 0 -135 -76t-51 -218q-2 -140 48.5 -217
t137.5 -77z" />
    <glyph glyph-name="afii10049" unicode="&#x42f;" horiz-adv-x="580" 
d="M322 397h91v264h-93q-72 0 -113.5 -34t-41.5 -97q0 -64 42 -98.5t115 -34.5zM322 307l-189 -307h-118l202 327q-78 21 -118 77t-40 129q0 93 62 155t200 62h193v-750h-101v307h-91z" />
    <glyph glyph-name="afii10065" unicode="&#x430;" horiz-adv-x="519" 
d="M235 69q50 0 86.5 37t36.5 104v27q-116 0 -163 -21t-47 -73q0 -74 87 -74zM199 -10q-73 0 -112.5 39t-39.5 103q0 88 72.5 127.5t238.5 39.5v23q0 109 -122 109q-90 0 -158 -45v90q62 37 171 37q103 0 154 -50t51 -142v-321h-91v79h-7q-26 -45 -61.5 -67t-95.5 -22z" />
    <glyph glyph-name="afii10066" unicode="&#x431;" horiz-adv-x="556" 
d="M279 -10q-242 0 -242 323q0 226 78 324t256 111q83 5 114 11v-91q-37 -7 -109 -11q-134 -9 -193 -70t-65 -210h7q15 55 62 87t117 32q94 0 155 -67t61 -182q0 -117 -68.5 -187t-172.5 -70zM279 74q61 0 100.5 46t39.5 127q0 80 -39 123.5t-101 43.5t-101 -43.5
t-39 -124.5q0 -82 39 -127t101 -45z" />
    <glyph glyph-name="afii10067" unicode="&#x432;" horiz-adv-x="501" 
d="M71 0v503h158q215 0 215 -125q0 -91 -100 -110v-7q59 -9 90.5 -40t31.5 -75q0 -66 -49.5 -106t-159.5 -40h-186zM167 291h65q111 0 111 75q0 64 -111 64h-65v-139zM167 72h86q54 0 83 19.5t29 54.5q0 76 -112 76h-86v-150z" />
    <glyph glyph-name="afii10068" unicode="&#x433;" horiz-adv-x="389" 
d="M71 0v503h309v-83h-213v-420h-96z" />
    <glyph glyph-name="afii10069" unicode="&#x434;" horiz-adv-x="577" 
d="M154 83h219v337h-156q-2 -248 -63 -337zM103 0l-10 -132h-81v215h49q40 50 58 145.5t19 274.5h332v-420h85v-215h-81l-10 132h-361z" />
    <glyph glyph-name="afii10070" unicode="&#x435;" 
d="M287 -10q-119 0 -184.5 65t-65.5 195q0 122 63 192.5t166 70.5q93 0 150 -52.5t57 -153.5q0 -42 -6 -62h-326q-1 -84 40.5 -127.5t117.5 -43.5q99 0 157 48v-89q-55 -43 -169 -43zM140 311h237q-4 66 -35.5 95.5t-80.5 29.5t-80.5 -31t-40.5 -94z" />
    <glyph glyph-name="afii10072" unicode="&#x436;" horiz-adv-x="720" 
d="M276 220l-155 -220h-113l188 269l-184 234h98l166 -209l35 -9v218h96v-218l35 9l166 209h94l-180 -230l190 -273h-117l-154 219l-34 -9v-210h-96v210z" />
    <glyph glyph-name="afii10073" unicode="&#x437;" horiz-adv-x="439" 
d="M195 -10q-94 0 -156 35v88q73 -45 157 -45q103 0 103 78q0 73 -109 73h-77v77h77q45 0 68 19.5t23 52.5q0 67 -99 67q-72 0 -133 -37v86q64 29 142 29q98 0 143 -36t45 -93q0 -90 -104 -114v-7q122 -22 122 -123q0 -150 -202 -150z" />
    <glyph glyph-name="afii10074" unicode="&#x438;" horiz-adv-x="548" 
d="M71 0v503h96v-345h7l219 345h85v-503h-96v346h-8l-219 -346h-84z" />
    <glyph glyph-name="afii10075" unicode="&#x439;" horiz-adv-x="548" 
d="M71 0v503h96v-345h7l219 345h85v-503h-96v346h-8l-219 -346h-84zM275 571q-71 0 -114.5 38t-43.5 114h85q0 -78 73 -78t73 78h85q0 -77 -43.5 -114.5t-114.5 -37.5z" />
    <glyph glyph-name="afii10076" unicode="&#x43a;" horiz-adv-x="487" 
d="M167 208v-208h-96v503h96v-217l41 9l159 208h95l-174 -229l191 -274h-117l-154 219z" />
    <glyph glyph-name="afii10077" unicode="&#x43b;" horiz-adv-x="532" 
d="M54 -7l-35 4v90q12 -3 22 -3q57 0 75 105.5t18 313.5h328v-503h-96v420h-150q0 -74 -3.5 -130t-13.5 -115t-27 -96.5t-47 -61.5t-71 -24z" />
    <glyph glyph-name="afii10078" unicode="&#x43c;" horiz-adv-x="704" 
d="M71 0v503h136l142 -382h4l143 382h134v-503h-96v390h-8l-145 -390h-76l-144 390h-8v-390h-82z" />
    <glyph glyph-name="afii10079" unicode="&#x43d;" horiz-adv-x="548" 
d="M382 0v218h-215v-218h-96v503h96v-202h215v202h96v-503h-96z" />
    <glyph glyph-name="afii10080" unicode="&#x43e;" horiz-adv-x="544" 
d="M272 -10q-104 0 -169.5 69t-65.5 191q0 121 65.5 192t169.5 71q102 0 168.5 -70.5t66.5 -191.5t-66 -191t-169 -70zM272 74q59 0 96.5 44.5t37.5 132.5t-38 133t-96 45q-60 0 -97 -45t-37 -134t37 -132.5t97 -43.5z" />
    <glyph glyph-name="afii10081" unicode="&#x43f;" horiz-adv-x="538" 
d="M372 0v420h-205v-420h-96v503h397v-503h-96z" />
    <glyph glyph-name="afii10082" unicode="&#x440;" horiz-adv-x="575" 
d="M300 74q59 0 98 44.5t39 134.5q0 87 -39 131.5t-99 44.5t-96 -35t-36 -102v-70q0 -71 37.5 -109.5t95.5 -38.5zM71 -250v753h91v-71h7q49 81 159 81q93 0 151.5 -71t58.5 -189q0 -122 -58 -192.5t-153 -70.5q-106 0 -158 80h-7l5 -80v-240h-96z" />
    <glyph glyph-name="afii10083" unicode="&#x441;" horiz-adv-x="447" 
d="M282 -10q-116 0 -180.5 68t-64.5 192q0 121 67.5 192t174.5 71q79 0 126 -25v-93q-45 32 -117 32q-67 0 -108.5 -45t-41.5 -132q0 -88 41.5 -131t113.5 -43q77 0 119 36v-95q-47 -27 -130 -27z" />
    <glyph glyph-name="afii10084" unicode="&#x442;" horiz-adv-x="413" 
d="M158 0v420h-148v83h393v-83h-149v-420h-96z" />
    <glyph glyph-name="afii10085" unicode="&#x443;" horiz-adv-x="478" 
d="M205 -250h-91l88 244l-200 509h102l141 -370h9l131 370h91z" />
    <glyph glyph-name="afii10086" unicode="&#x444;" horiz-adv-x="684" 
d="M390 -250h-96v241q-124 3 -193 73.5t-69 185.5q0 117 69.5 189.5t192.5 72.5v238h96v-238q124 -3 193 -73t69 -185q0 -118 -69.5 -190.5t-192.5 -72.5v-241zM294 68v367q-78 -1 -119.5 -50t-41.5 -135q0 -85 41.5 -133t119.5 -49zM390 68q78 1 119.5 50.5t41.5 135.5
q0 85 -41.5 132.5t-119.5 48.5v-367z" />
    <glyph glyph-name="afii10087" unicode="&#x445;" horiz-adv-x="502" 
d="M369 0l-122 187l-121 -187h-95l167 251l-171 252h113l118 -181l117 181h95l-163 -245l176 -258h-114z" />
    <glyph glyph-name="afii10088" unicode="&#x446;" horiz-adv-x="572" 
d="M459 0h-388v503h96v-420h202v420h96v-420h85v-218h-81z" />
    <glyph glyph-name="afii10089" unicode="&#x447;" horiz-adv-x="505" 
d="M339 0v199q-43 -18 -110 -18q-94 0 -139.5 46t-45.5 141v135h96v-134q0 -54 26 -79t83 -25q55 0 90 17v221h96v-503h-96z" />
    <glyph glyph-name="afii10090" unicode="&#x448;" horiz-adv-x="764" 
d="M693 0h-622v503h96v-420h167v420h96v-420h167v420h96v-503z" />
    <glyph glyph-name="afii10091" unicode="&#x449;" horiz-adv-x="801" 
d="M778 -135h-81l-10 135h-616v503h96v-420h167v420h96v-420h167v420h96v-420h85v-218z" />
    <glyph glyph-name="afii10092" unicode="&#x44a;" horiz-adv-x="521" 
d="M284 0h-163v420h-113v83h209v-168h67q117 0 168 -46.5t51 -118.5q0 -74 -51.5 -122t-167.5 -48zM217 78h76q53 0 81 24.5t28 66.5q0 41 -27.5 64t-81.5 23h-76v-178z" />
    <glyph glyph-name="afii10093" unicode="&#x44b;" horiz-adv-x="680" 
d="M71 0v503h96v-168h67q117 0 168 -46.5t51 -118.5q0 -74 -51.5 -122t-167.5 -48h-163zM167 78h76q53 0 81 24.5t28 66.5q0 41 -27.5 64t-81.5 23h-76v-178zM514 0v503h96v-503h-96z" />
    <glyph glyph-name="afii10094" unicode="&#x44c;" horiz-adv-x="471" 
d="M71 0v503h96v-168h67q117 0 168 -46.5t51 -118.5q0 -74 -51.5 -122t-167.5 -48h-163zM167 78h76q53 0 81 24.5t28 66.5q0 41 -27.5 64t-81.5 23h-76v-178z" />
    <glyph glyph-name="afii10095" unicode="&#x44d;" horiz-adv-x="448" 
d="M167 -10q-86 0 -132 29v93q44 -39 125 -39q134 0 148 149h-184v73h184q-8 67 -46.5 101t-100.5 34q-74 0 -121 -34v91q47 26 131 26q107 0 173.5 -67.5t66.5 -184.5q0 -129 -62 -200t-182 -71z" />
    <glyph glyph-name="afii10096" unicode="&#x44e;" horiz-adv-x="734" 
d="M471 -10q-93 0 -154.5 60.5t-70.5 167.5h-79v-218h-96v503h96v-202h81q13 99 74 155.5t149 56.5q99 0 163 -70.5t64 -191.5t-63.5 -191t-163.5 -70zM471 74q55 0 90.5 44.5t35.5 132.5t-36 133t-90 45q-56 0 -90.5 -45t-34.5 -134t34.5 -132.5t90.5 -43.5z" />
    <glyph glyph-name="afii10097" unicode="&#x44f;" horiz-adv-x="503" 
d="M268 253h68v172h-68q-54 0 -84 -23.5t-30 -62.5q0 -40 29.5 -63t84.5 -23zM336 179h-60l-133 -179h-111l145 197q-59 14 -91.5 52t-32.5 93q0 66 49.5 113.5t151.5 47.5h178v-503h-96v179z" />
    <glyph glyph-name="afii10071" unicode="&#x451;" 
d="M287 -10q-119 0 -184.5 65t-65.5 195q0 122 63 192.5t166 70.5q93 0 150 -52.5t57 -153.5q0 -42 -6 -62h-326q-1 -84 40.5 -127.5t117.5 -43.5q99 0 157 48v-89q-55 -43 -169 -43zM140 311h237q-4 66 -35.5 95.5t-80.5 29.5t-80.5 -31t-40.5 -94zM153 605q-28 0 -47 18.5
t-19 46.5q0 27 19 46.5t47 19.5q26 0 46 -19.5t20 -46.5t-19.5 -46t-46.5 -19zM361 605q-27 0 -46.5 19t-19.5 46t19.5 46.5t46.5 19.5t46.5 -19.5t19.5 -46.5t-19.5 -46t-46.5 -19z" />
    <glyph glyph-name="afii10099" unicode="&#x452;" horiz-adv-x="561" 
d="M513 253q0 -129 -35 -196t-114 -67q-57 0 -87 16v87q25 -19 66 -19q39 0 56.5 40.5t17.5 137.5q0 93 -27.5 134t-85.5 41q-38 0 -70.5 -14.5t-48.5 -38.5v-374h-96v585h-70v72h70v93h96v-93h146v-72h-146v-132q51 60 144 60q96 0 140 -65t44 -195z" />
    <glyph glyph-name="afii10100" unicode="&#x453;" horiz-adv-x="389" 
d="M71 0v503h309v-83h-213v-420h-96zM185 577l73 146h139l-127 -146h-85z" />
    <glyph glyph-name="afii10101" unicode="&#x454;" horiz-adv-x="447" 
d="M412 17q-47 -27 -130 -27q-116 0 -180.5 68t-64.5 192q0 121 67.5 192t174.5 71q79 0 126 -25v-93q-45 32 -117 32q-57 0 -96.5 -33t-49.5 -98h207v-74h-210q7 -74 47.5 -110t106.5 -36q77 0 119 36v-95z" />
    <glyph glyph-name="afii10102" unicode="&#x455;" horiz-adv-x="434" 
d="M213 -10q-113 0 -174 37v92q69 -49 172 -49q87 0 87 68q0 28 -20.5 43.5t-59.5 29.5q-7 3 -32.5 11t-35.5 12t-31 13.5t-31 19t-22 23t-17 32t-5 40.5q0 71 50.5 111t150.5 40q85 0 127 -19v-88q-50 27 -123 27q-47 0 -74 -18t-27 -52q0 -25 19 -39t56 -26q5 -2 27.5 -9
t30.5 -10t27.5 -11.5t28.5 -15t22.5 -19t20 -25.5t11.5 -31t5 -40q0 -65 -45 -106t-138 -41z" />
    <glyph glyph-name="afii10103" unicode="&#x456;" horiz-adv-x="237" 
d="M71 0v503h96v-503h-96zM119 605q-29 0 -48 18.5t-19 46.5t19 47t48 19q27 0 47 -19t20 -47q0 -27 -20 -46t-47 -19z" />
    <glyph glyph-name="afii10104" unicode="&#x457;" horiz-adv-x="237" 
d="M196 605q-28 0 -45.5 18.5t-17.5 46.5t17.5 47t45.5 19q26 0 44.5 -19.5t18.5 -46.5q0 -28 -18.5 -46.5t-44.5 -18.5zM41 605q-27 0 -44.5 18.5t-17.5 46.5q0 27 17.5 46.5t44.5 19.5t45 -19.5t18 -46.5q0 -28 -18 -46.5t-45 -18.5zM71 0v503h96v-503h-96z" />
    <glyph glyph-name="afii10105" unicode="&#x458;" horiz-adv-x="254" 
d="M91 -23v526h96v-545q0 -118 -35 -168t-110 -50q-55 0 -85 16v87q25 -19 61 -19q41 0 57 30t16 123zM139 605q-29 0 -48 18.5t-19 46.5t19 47t48 19q27 0 47 -19t20 -47q0 -27 -20 -46t-47 -19z" />
    <glyph glyph-name="afii10106" unicode="&#x459;" horiz-adv-x="766" 
d="M216 420q0 -74 -3.5 -130t-13.5 -115t-27 -96.5t-47 -61.5t-71 -24l-35 4v90q12 -3 22 -3q57 0 75 105.5t18 313.5h328v-168h67q117 0 168 -46.5t51 -118.5q0 -74 -51.5 -122t-167.5 -48h-163v420h-150zM462 78h76q53 0 81 24.5t28 66.5q0 41 -27.5 64t-81.5 23h-76v-178
z" />
    <glyph glyph-name="afii10107" unicode="&#x45a;" horiz-adv-x="782" 
d="M478 78h82q102 0 102 80q0 77 -102 77h-82v-157zM167 218v-218h-96v503h96v-202h215v202h96v-189h74q211 0 211 -154q0 -160 -211 -160h-170v218h-215z" />
    <glyph glyph-name="afii10108" unicode="&#x45b;" horiz-adv-x="578" 
d="M185 374v-374h-96v585h-70v72h70v93h96v-93h146v-72h-146v-132q48 60 157 60q171 0 171 -188v-325h-96v289q0 138 -113 138q-38 0 -70.5 -14.5t-48.5 -38.5z" />
    <glyph glyph-name="afii10109" unicode="&#x45c;" horiz-adv-x="487" 
d="M167 208v-208h-96v503h96v-217l41 9l159 208h95l-174 -229l191 -274h-117l-154 219zM217 577l73 146h139l-127 -146h-85z" />
    <glyph glyph-name="afii10110" unicode="&#x45e;" horiz-adv-x="478" 
d="M205 -250h-91l88 244l-200 509h102l141 -370h9l131 370h91zM242 571q-71 0 -114.5 38t-43.5 114h85q0 -78 73 -78t73 78h85q0 -77 -43.5 -114.5t-114.5 -37.5z" />
    <glyph glyph-name="afii10193" unicode="&#x45f;" horiz-adv-x="535" 
d="M465 0h-151l-4 -135h-83l-6 135h-150v503h96v-420h202v420h96v-503z" />
    <glyph glyph-name="afii10050" unicode="&#x490;" horiz-adv-x="488" 
d="M180 661v-661h-101v750h292l11 158h86v-247h-288z" />
    <glyph glyph-name="afii10098" unicode="&#x491;" horiz-adv-x="389" 
d="M167 0h-96v503h219l9 135h81v-218h-213v-420z" />
    <glyph glyph-name="uni0492" unicode="&#x492;" horiz-adv-x="503" 
d="M355 351h-160v-351h-101v351h-89v77h89v322h389v-89h-288v-233h160v-77z" />
    <glyph glyph-name="uni0493" unicode="&#x493;" horiz-adv-x="417" 
d="M322 210h-127v-210h-96v210h-77v73h77v220h309v-83h-213v-137h127v-73z" />
    <glyph glyph-name="uni0496" unicode="&#x496;" horiz-adv-x="911" 
d="M908 -155h-86l-10 155h-54l-220 336l-45 -17v-319h-101v319l-44 17l-221 -336h-117l251 384l-237 366h108l214 -330l46 -18v348h101v-348l47 19l214 329h101l-232 -357l197 -304h88v-244z" />
    <glyph glyph-name="uni0497" unicode="&#x497;" horiz-adv-x="738" 
d="M731 -135h-81l-10 135h-45l-154 219l-34 -9v-210h-96v210l-35 10l-155 -220h-113l188 269l-184 234h98l166 -209l35 -9v218h96v-218l35 9l166 209h94l-180 -230l132 -190h77v-218z" />
    <glyph glyph-name="uni049A" unicode="&#x49a;" horiz-adv-x="624" 
d="M617 -155h-86l-10 155h-54l-234 335l-53 -18v-317h-101v750h101v-343l55 19l227 324h104l-246 -356l207 -305h90v-244z" />
    <glyph glyph-name="uni049B" unicode="&#x49b;" horiz-adv-x="505" 
d="M498 -135h-81l-10 135h-45l-154 219l-41 -11v-208h-96v503h96v-217l41 9l159 208h95l-174 -229l133 -191h77v-218z" />
    <glyph glyph-name="uni04A2" unicode="&#x4a2;" horiz-adv-x="714" 
d="M686 -155h-86l-10 155h-94v339h-316v-339h-101v750h101v-322h316v322h101v-663h89v-242z" />
    <glyph glyph-name="uni04A3" unicode="&#x4a3;" horiz-adv-x="585" 
d="M563 -135h-81l-10 135h-90v218h-215v-218h-96v503h96v-202h215v202h96v-419l85 -1v-218z" />
    <glyph glyph-name="uni04AE" unicode="&#x4ae;" horiz-adv-x="577" 
d="M348 0h-101v304l-240 446h114l181 -339h5l168 339h95l-222 -446v-304z" />
    <glyph glyph-name="uni04AF" unicode="&#x4af;" horiz-adv-x="478" 
d="M296 -250h-96v248l-198 505h100l144 -366h10l131 366h89l-180 -504v-249z" />
    <glyph glyph-name="uni04B0" unicode="&#x4b0;" horiz-adv-x="577" 
d="M508 264h-160v-264h-101v264h-161v83h138l-217 403h114l181 -339h5l168 339h95l-201 -403h139v-83z" />
    <glyph glyph-name="uni04B1" unicode="&#x4b1;" horiz-adv-x="478" 
d="M434 -73h-138v-177h-96v177h-141v73h140l-197 503h100l144 -366h10l131 366h89l-180 -503h138v-73z" />
    <glyph glyph-name="uni04B2" unicode="&#x4b2;" horiz-adv-x="638" 
d="M635 -155h-86l-10 155h-50l-187 307l-180 -307h-100l229 390l-218 360h114l163 -267l156 267h101l-205 -351l187 -310h86v-244z" />
    <glyph glyph-name="uni04B3" unicode="&#x4b3;" horiz-adv-x="513" 
d="M503 -135h-81l-10 135h-43l-122 187l-121 -187h-95l167 251l-171 252h113l118 -181l117 181h95l-163 -245l119 -175h77v-218z" />
    <glyph glyph-name="uni04B6" unicode="&#x4b6;" horiz-adv-x="647" 
d="M618 -155h-86l-10 155h-93v320q-58 -27 -148 -27q-111 0 -172 60t-61 186v211h101v-204q0 -92 36.5 -129t107.5 -37q39 0 73 6.5t48 13.5l15 6v344h101v-661h88v-244z" />
    <glyph glyph-name="uni04B7" unicode="&#x4b7;" horiz-adv-x="542" 
d="M520 -135h-81l-10 135h-90v199q-43 -18 -110 -18q-94 0 -139.5 46t-45.5 141v135h96v-134q0 -54 26 -79t83 -25q55 0 90 17v221h96v-419h85v-219z" />
    <glyph glyph-name="uni04BA" unicode="&#x4ba;" horiz-adv-x="609" 
d="M180 750v-320q61 27 151 27q229 0 229 -240v-217h-101v204q0 92 -35 129t-105 37q-39 0 -73.5 -6.5t-49.5 -13.5l-16 -6v-344h-101v750h101z" />
    <glyph glyph-name="uni04BB" unicode="&#x4bb;" horiz-adv-x="560" 
d="M71 0v750h96v-240l-5 -77h7q50 80 155 80q170 0 170 -188v-325h-96v289q0 71 -27 104.5t-85 33.5q-54 0 -86.5 -32t-32.5 -99v-296h-96z" />
    <glyph glyph-name="uni04D8" unicode="&#x4d8;" horiz-adv-x="687" 
d="M343 -10q-139 0 -219.5 95t-80.5 268q0 29 3 48h493q-9 271 -225 271q-128 0 -208 -70v96q80 62 216 62q162 0 242.5 -99t80.5 -285q0 -182 -80.5 -284t-221.5 -102zM343 78q83 0 133.5 59t60.5 178h-388q9 -116 60 -176.5t134 -60.5z" />
    <glyph glyph-name="uni04D9" unicode="&#x4d9;" horiz-adv-x="517" 
d="M235 513q116 0 180.5 -65t64.5 -194q0 -125 -59 -194.5t-168 -69.5q-94 0 -151.5 52.5t-57.5 153.5q0 61 5 76h328q1 77 -41.5 117.5t-121.5 40.5q-91 0 -150 -48v89q53 42 171 42zM378 207h-238q0 -140 117 -140q110 0 121 140z" />
    <glyph glyph-name="uni04E2" unicode="&#x4e2;" horiz-adv-x="682" 
d="M603 0h-101v564h-9l-316 -564h-98v750h101v-559h9l316 559h98v-750zM221 816v73h247v-73h-247z" />
    <glyph glyph-name="uni04E3" unicode="&#x4e3;" horiz-adv-x="548" 
d="M71 0v503h96v-345h7l219 345h85v-503h-96v346h-8l-219 -346h-84zM148 627v73h253v-73h-253z" />
    <glyph glyph-name="uni04E8" unicode="&#x4e8;" horiz-adv-x="688" 
d="M344 -10q-142 0 -222 103t-80 282q0 180 80 282.5t222 102.5q143 0 223 -102t80 -282t-80 -283t-223 -103zM344 672q-83 0 -134 -63.5t-60 -183.5h389q-9 120 -60 183.5t-135 63.5zM344 78q87 0 138.5 68.5t57.5 196.5h-391q6 -128 57.5 -196.5t137.5 -68.5z" />
    <glyph glyph-name="uni04E9" unicode="&#x4e9;" horiz-adv-x="544" 
d="M272 -10q-104 0 -169.5 69t-65.5 191q0 121 65.5 192t169.5 71q102 0 168.5 -70.5t66.5 -191.5t-66 -191t-169 -70zM272 429q-53 0 -88.5 -35.5t-43.5 -106.5h264q-8 71 -44.5 106.5t-87.5 35.5zM272 74q54 0 91 38.5t42 114.5h-266q5 -77 41 -115t92 -38z" />
    <glyph glyph-name="uni04EE" unicode="&#x4ee;" horiz-adv-x="580" 
d="M257 0h-96l88 210l-241 540h109l181 -409h6l172 409h96zM171 816v73h247v-73h-247z" />
    <glyph glyph-name="uni04EF" unicode="&#x4ef;" horiz-adv-x="478" 
d="M205 -250h-91l88 244l-200 509h102l141 -370h9l131 370h91zM120 627v73h253v-73h-253z" />
    <glyph glyph-name="Wgrave" unicode="&#x1e80;" horiz-adv-x="868" 
d="M289 0h-81l-195 750h102l141 -550h7l138 550h77l140 -550h9l137 550h91l-194 -750h-85l-142 547h-9zM480 797h-93l-164 109h169z" />
    <glyph glyph-name="wgrave" unicode="&#x1e81;" horiz-adv-x="686" 
d="M451 0l-105 378h-7l-90 -378h-100l-144 503h94l106 -385h9l91 385h87l107 -385h8l92 385h82l-130 -503h-100zM372 577h-83l-122 146h145z" />
    <glyph glyph-name="Wacute" unicode="&#x1e82;" horiz-adv-x="868" 
d="M289 0h-81l-195 750h102l141 -550h7l138 550h77l140 -550h9l137 550h91l-194 -750h-85l-142 547h-9zM399 797l86 109h159l-156 -109h-89z" />
    <glyph glyph-name="wacute" unicode="&#x1e83;" horiz-adv-x="686" 
d="M451 0l-105 378h-7l-90 -378h-100l-144 503h94l106 -385h9l91 385h87l107 -385h8l92 385h82l-130 -503h-100zM309 577l73 146h139l-127 -146h-85z" />
    <glyph glyph-name="Wdieresis" unicode="&#x1e84;" horiz-adv-x="868" 
d="M289 0h-81l-195 750h102l141 -550h7l138 550h77l140 -550h9l137 550h91l-194 -750h-85l-142 547h-9zM343 793q-27 0 -45 17.5t-18 43.5t18 44t45 18t45 -18t18 -44t-18 -43.5t-45 -17.5zM538 793q-27 0 -45 17.5t-18 43.5t18 44t45 18t45 -18t18 -44t-18 -43.5t-45 -17.5
z" />
    <glyph glyph-name="wdieresis" unicode="&#x1e85;" horiz-adv-x="686" 
d="M451 0l-105 378h-7l-90 -378h-100l-144 503h94l106 -385h9l91 385h87l107 -385h8l92 385h82l-130 -503h-100zM237 605q-28 0 -47 18.5t-19 46.5q0 27 19 46.5t47 19.5q26 0 46 -19.5t20 -46.5t-19.5 -46t-46.5 -19zM445 605q-27 0 -46.5 19t-19.5 46t19.5 46.5t46.5 19.5
t46.5 -19.5t19.5 -46.5t-19.5 -46t-46.5 -19z" />
    <glyph glyph-name="Ygrave" unicode="&#x1ef2;" horiz-adv-x="577" 
d="M348 0h-101v304l-240 446h114l181 -339h5l168 339h95l-222 -446v-304zM357 797h-93l-164 109h169z" />
    <glyph glyph-name="ygrave" unicode="&#x1ef3;" horiz-adv-x="478" 
d="M205 -250h-91l88 244l-200 509h102l141 -370h9l131 370h91zM284 577h-83l-122 146h145z" />
    <glyph glyph-name="endash" unicode="&#x2013;" horiz-adv-x="640" 
d="M43 252v73h554v-73h-554z" />
    <glyph glyph-name="emdash" unicode="&#x2014;" horiz-adv-x="840" 
d="M43 252v73h754v-73h-754z" />
    <glyph glyph-name="quoteleft" unicode="&#x2018;" horiz-adv-x="255" 
d="M120 760h60l-39 -124q25 -4 39.5 -22t14.5 -44q0 -28 -20 -47.5t-48 -19.5q-42 0 -58.5 33t-0.5 78z" />
    <glyph glyph-name="quoteright" unicode="&#x2019;" horiz-adv-x="255" 
d="M135 503h-60l39 124q-25 4 -39.5 22t-14.5 44q0 28 20 47.5t48 19.5q42 0 58.5 -33t0.5 -78z" />
    <glyph glyph-name="quotesinglbase" unicode="&#x201a;" horiz-adv-x="255" 
d="M135 -134h-60l39 124q-25 4 -39.5 22t-14.5 44q0 28 20 47.5t48 19.5q42 0 58.5 -33t0.5 -78z" />
    <glyph glyph-name="quotedblleft" unicode="&#x201c;" horiz-adv-x="429" 
d="M294 760h60l-39 -124q25 -4 39.5 -22t14.5 -44q0 -28 -20 -47.5t-48 -19.5q-42 0 -58.5 33t-0.5 78zM120 760h60l-39 -124q25 -4 39.5 -22t14.5 -44q0 -28 -20 -47.5t-48 -19.5q-42 0 -58.5 33t-0.5 78z" />
    <glyph glyph-name="quotedblright" unicode="&#x201d;" horiz-adv-x="429" 
d="M135 503h-60l39 124q-25 4 -39.5 22t-14.5 44q0 28 20 47.5t48 19.5q42 0 58.5 -33t0.5 -78zM310 503h-60l39 124q-25 4 -39.5 22t-14.5 44q0 28 20 47.5t48 19.5q42 0 58.5 -33t0.5 -78z" />
    <glyph glyph-name="quotedblbase" unicode="&#x201e;" horiz-adv-x="429" 
d="M310 -134h-60l39 124q-25 4 -39.5 22t-14.5 44q0 28 20 47.5t48 19.5q42 0 58.5 -33t0.5 -78zM135 -134h-60l39 124q-25 4 -39.5 22t-14.5 44q0 28 20 47.5t48 19.5q42 0 58.5 -33t0.5 -78z" />
    <glyph glyph-name="dagger" unicode="&#x2020;" horiz-adv-x="527" 
d="M488 490h-179v-730h-91v730h-179v88h179v244h91v-244h179v-88z" />
    <glyph glyph-name="daggerdbl" unicode="&#x2021;" horiz-adv-x="527" 
d="M488 72h-179v-312h-91v312h-179v88h179v330h-179v88h179v244h91v-244h179v-88h-179v-330h179v-88z" />
    <glyph glyph-name="bullet" unicode="&#x2022;" horiz-adv-x="303" 
d="M152 202q-40 0 -68.5 28t-28.5 68t28 68t69 28q40 0 68 -28t28 -68t-28 -68t-68 -28z" />
    <glyph glyph-name="ellipsis" unicode="&#x2026;" horiz-adv-x="643" 
d="M515 -12q-29 0 -48.5 20t-19.5 48t20 47.5t48 19.5q27 0 47 -19.5t20 -47.5t-20 -48t-47 -20zM322 -12q-28 0 -48 20t-20 48t20 47.5t48 19.5q27 0 47 -19.5t20 -47.5t-20 -48t-47 -20zM128 -12q-28 0 -48 20t-20 48t20 47.5t48 19.5q27 0 47 -19.5t20 -47.5t-20 -48
t-47 -20z" />
    <glyph glyph-name="perthousand" unicode="&#x2030;" horiz-adv-x="1271" 
d="M221 402q-79 0 -129.5 47t-50.5 129t51 130.5t129 48.5t129.5 -48t51.5 -130t-51 -129.5t-130 -47.5zM221 478q38 0 63 25.5t25 75.5q0 49 -25.5 75t-62.5 26q-38 0 -62.5 -26t-24.5 -76q0 -49 24.5 -74.5t62.5 -25.5zM136 0l475 750h105l-476 -750h-104zM638 -9
q-79 0 -129.5 47.5t-50.5 129.5t51 130.5t129 48.5t129 -48t51 -130q0 -83 -50.5 -130.5t-129.5 -47.5zM638 68q38 0 62.5 25.5t24.5 75.5q0 49 -25 75t-62 26q-38 0 -62.5 -26t-24.5 -76q0 -49 24.5 -74.5t62.5 -25.5zM1050 -9q-79 0 -129.5 47.5t-50.5 129.5t51 130.5
t129 48.5t129.5 -48t51.5 -130q0 -83 -51 -130.5t-130 -47.5zM1050 68q38 0 63 25.5t25 75.5q0 49 -25.5 75t-62.5 26q-38 0 -62.5 -26t-24.5 -76q0 -49 24.5 -74.5t62.5 -25.5z" />
    <glyph glyph-name="minute" unicode="&#x2032;" horiz-adv-x="250" 
d="M101 750h109l-70 -236h-90z" />
    <glyph glyph-name="second" unicode="&#x2033;" horiz-adv-x="414" 
d="M265 750h109l-70 -236h-90zM111 750h109l-70 -236h-90z" />
    <glyph glyph-name="guilsinglleft" unicode="&#x2039;" horiz-adv-x="268" 
d="M232 52l-216 192v54l215 192v-106l-128 -113l129 -112v-107z" />
    <glyph glyph-name="guilsinglright" unicode="&#x203a;" horiz-adv-x="268" 
d="M37 52v106l129 112l-130 113v107l216 -192v-54z" />
    <glyph glyph-name="Euro" unicode="&#x20ac;" horiz-adv-x="655" 
d="M615 27q-63 -37 -164 -37q-136 0 -214.5 70.5t-100.5 200.5h-109l33 79h68q-1 11 -1 35q0 26 1 39h-101l33 78h78q26 127 107.5 197.5t207.5 70.5q93 0 145 -24v-92q-50 28 -138 28q-76 0 -133 -46t-80 -134h276l-31 -78h-258q-1 -12 -1 -39q0 -24 1 -35h230l-31 -79
h-189q40 -183 217 -183q97 0 154 43v-94z" />
    <glyph glyph-name="uni20B4" unicode="&#x20b4;" horiz-adv-x="539" 
d="M519 414h-499v77h327q30 31 30 76q0 53 -34.5 77.5t-88.5 24.5q-92 0 -153 -32v99q51 24 160 24q108 0 165 -48t57 -131q0 -52 -23 -90h59v-77zM488 33q-69 -43 -186 -43q-132 0 -189.5 52t-57.5 128q0 49 24 92h-59v77h499v-77h-329q-29 -34 -29 -81q0 -100 144 -100
q95 0 183 57v-105z" />
    <glyph glyph-name="uni20B8" unicode="&#x20b8;" horiz-adv-x="550" 
d="M530 668h-510v82h510v-82zM225 0v501h-205v89h510v-89h-204v-501h-101z" />
    <glyph glyph-name="uni20BD" unicode="&#x20bd;" horiz-adv-x="581" 
d="M213 390h87q71 0 112 36.5t41 104.5q0 62 -41.5 96t-111.5 34h-87v-271zM447 159h-234v-159h-101v159h-85v79h85v73h-85v79h85v360h193q131 0 192.5 -62.5t61.5 -153.5q0 -94 -62.5 -158.5t-191.5 -64.5h-92v-73h234v-79z" />
    <glyph glyph-name="afii61352" unicode="&#x2116;" horiz-adv-x="1130" 
d="M888 354q-89 0 -146 54t-57 147q0 95 57 150t146 55q87 0 144.5 -55t57.5 -149t-57 -148t-145 -54zM888 431q49 0 79.5 31.5t30.5 93.5t-31.5 94.5t-78.5 32.5q-49 0 -80 -33t-31 -95q0 -61 30.5 -92.5t80.5 -31.5zM693 203v83h387v-83h-387zM79 0v750h104l324 -566h5
v566h91v-750h-102l-326 567h-7v-567h-89z" />
    <glyph glyph-name="trademark" unicode="&#x2122;" horiz-adv-x="674" 
d="M98 450v239h-88v61h246v-61h-88v-239h-70zM348 666v-216h-62v300h99l71 -209l73 209h95v-300h-70v216h-1l-76 -216h-51l-76 216h-2z" />
    <glyph glyph-name="minus" unicode="&#x2212;" horiz-adv-x="534" 
d="M60 315v79h414v-79h-414z" />
    <glyph glyph-name="approxequal" unicode="&#x2248;" horiz-adv-x="563" 
d="M451 321h77q-4 -85 -39 -126.5t-94 -41.5q-36 0 -67.5 15t-50 33.5t-44 33.5t-52.5 15q-58 0 -69 -81h-77q4 81 43 124t103 43q36 0 67.5 -15.5t50 -33.5t43 -33.5t47.5 -15.5q58 0 62 83zM451 530h77q-4 -85 -39 -126.5t-94 -41.5q-36 0 -67.5 15t-50 33.5t-44 33.5
t-52.5 15q-58 0 -69 -81h-77q4 81 43 124t103 43q36 0 67.5 -15.5t50 -33.5t43 -33.5t47.5 -15.5q58 0 62 83z" />
    <glyph glyph-name="notequal" unicode="&#x2260;" horiz-adv-x="516" 
d="M456 220h-245l-77 -118h-83l77 118h-68v80h120l72 109h-192v80h244l79 121h82l-79 -121h70v-80h-122l-71 -109h193v-80z" />
    <glyph glyph-name="lessequal" unicode="&#x2264;" horiz-adv-x="481" 
d="M421 218l-389 189v53l388 189v-93l-260 -122l261 -121v-95zM36 101v80h385v-80h-385z" />
    <glyph glyph-name="greaterequal" unicode="&#x2265;" horiz-adv-x="481" 
d="M60 218v94l261 122l-260 121v94l387 -189v-53zM445 101h-385v80h385v-80z" />
    <glyph glyph-name="commaaccent" horiz-adv-x="259" 
d="M146 -237h-54l25 77q-23 2 -35.5 18.5t-12.5 39.5q0 26 17.5 43t42.5 17q37 0 52.5 -30t0.5 -70z" />
    <glyph glyph-name="cyrbreve" horiz-adv-x="470" 
d="M235 571q-71 0 -114.5 38t-43.5 114h85q0 -78 73 -78t73 78h85q0 -77 -43.5 -114.5t-114.5 -37.5z" />
    <glyph glyph-name="dotlessj" horiz-adv-x="254" 
d="M91 -23v526h96v-545q0 -118 -35 -168t-110 -50q-55 0 -85 16v87q25 -19 61 -19q41 0 57 30t16 123z" />
    <glyph glyph-name="idotaccent" horiz-adv-x="237" 
d="M71 0v503h96v-503h-96zM119 605q-29 0 -48 18.5t-19 46.5t19 47t48 19q27 0 47 -19t20 -47q0 -27 -20 -46t-47 -19z" />
    <glyph glyph-name="numbersign.icon" horiz-adv-x="733" 
d="M408 307l29 108h-113l-29 -108h113zM355 110l32 121h-112l-33 -121h-87l33 121h-118l19 76h119l29 108h-119l19 76h121l37 139h87l-37 -139h112l37 139h87l-37 -139h119l-20 -76h-119l-29 -108h120l-19 -76h-122l-32 -121h-87z" />
    <glyph glyph-name="asterisk.icon" horiz-adv-x="604" 
d="M533 303l-49 -94l-140 101l21 -183h-123l27 183l-148 -100l-51 93l170 68l-166 66l51 92l144 -101l-25 183h121l-21 -183l139 101l51 -92l-167 -67z" />
    <glyph glyph-name="phone1.icon" horiz-adv-x="513" 
d="M324 653q25 3 62 -10t62 -28l25 -15l-58 -108l-101 49q-26 -30 -77.5 -132.5t-66.5 -150.5l102 -51l-57 -124q-11 5 -29 14.5t-53.5 34.5t-47.5 47q-17 39 -4 111.5t47 142.5l19 40q31 66 84.5 121t92.5 59z" />
    <glyph glyph-name="bluetooth.icon" horiz-adv-x="579" 
d="M328 452l71 72l-71 70v-142zM258 -10v299l-126 -129l-49 50l158 160l-161 160l51 52l127 -127v305h7l234 -233l-152 -154l151 -150l-233 -233h-7zM328 147l71 73l-71 71v-144z" />
    <glyph glyph-name="file.icon" horiz-adv-x="626" 
d="M486 500h70v-282q0 -63 -20 -109t-54 -71t-72.5 -36.5t-82.5 -11.5q-47 0 -85.5 11.5t-71.5 36.5t-51.5 71t-18.5 109v366q0 91 48 133.5t122 42.5t120 -42.5t46 -133.5v-371q0 -52 -30 -82.5t-78 -30.5q-50 0 -79 30t-29 82v288h70v-282q0 -53 38 -53q21 0 29.5 12
t8.5 40v363q0 115 -96 115q-100 0 -100 -115v-357q0 -168 157 -168q73 0 116 40.5t43 128.5v276z" />
    <glyph glyph-name="phone2.icon" horiz-adv-x="920" 
d="M616 497q15 -10 30.5 -34.5t23.5 -44.5l7 -19l-93 -37l-38 76q-29 -5 -101 -36t-95 -50l37 -78l-99 -47q-4 8 -10 21.5t-14.5 44.5t-5.5 49q7 29 49 65.5t91 57.5l32 14q51 22 105 28t81 -10zM710 630q110 0 110 -109v-301q0 -110 -110 -110h-500q-49 0 -79.5 27.5
t-30.5 81.5v302q0 52 31.5 80.5t78.5 28.5h500zM165 516v-292q0 -24 13.5 -39t36.5 -15h490q50 0 50 55v291q0 54 -50 54h-490q-22 0 -36 -14t-14 -40z" />
    <glyph glyph-name="phone3.icon" horiz-adv-x="606" 
d="M441 165v489h-276v-489h276zM154 750h298q22 0 38 -16t16 -38v-642q0 -22 -16 -38t-38 -16h-298q-22 0 -38 16t-16 38v642q0 22 16 38t38 16zM303 45q17 0 28.5 11.5t11.5 28.5t-11.5 28.5t-28.5 11.5t-28.5 -11.5t-11.5 -28.5t11.5 -28.5t28.5 -11.5z" />
    <glyph glyph-name="phone4.icon" horiz-adv-x="1094" 
d="M296 55v638h-116v-638h116zM914 55v638h-436v-638h436zM854 630v-121h-316v121h316zM696 356q-16 0 -27 11t-11 27t11 27t27 11t27 -11t11 -27t-11 -27t-27 -11zM778 394q0 16 11 27t27 11t27 -11t11 -27t-11 -27t-27 -11t-27 11t-11 27zM614 394q0 -16 -11 -27t-27 -11
t-27 11t-11 27t11 27t27 11t27 -11t11 -27zM696 232q-16 0 -27 11t-11 27t11 27t27 11t27 -11t11 -27t-11 -27t-27 -11zM778 270q0 16 11 27t27 11t27 -11t11 -27t-11 -27t-27 -11t-27 11t-11 27zM614 270q0 -16 -11 -27t-27 -11t-27 11t-11 27t11 27t27 11t27 -11t11 -27z
M658 146q0 16 11 27t27 11t27 -11t11 -27t-11 -27t-27 -11t-27 11t-11 27zM778 146q0 16 11 27t27 11t27 -11t11 -27t-11 -27t-27 -11t-27 11t-11 27zM614 146q0 -16 -11 -27t-27 -11t-27 11t-11 27t11 27t27 11t27 -11t11 -27zM539 -23q0 -163 -150 -163q-79 0 -116 37
t-37 125v24h-62q-22 0 -38 16t-16 38v642q0 22 16 38t38 16h128q22 0 38 -16t16 -38v-642q0 -22 -16 -38t-38 -16h-6v-18q0 -60 22 -86.5t71 -26.5q51 0 70.5 24t19.5 88v19h-7q-22 0 -38 16t-16 38v642q0 22 16 38t38 16h448q22 0 38 -16t16 -38v-642q0 -22 -16 -38
t-38 -16h-381v-23z" />
    <glyph glyph-name="sim1.icon" horiz-adv-x="820" 
d="M220 750h302l178 -210v-441q0 -41 -29 -70t-71 -29h-379q-46 0 -73.5 27.5t-27.5 70.5v552q0 42 29.5 71t70.5 29zM230 695q-21 0 -35.5 -14.5t-14.5 -35.5v-540q0 -50 53 -50h357q21 0 35.5 14.5t14.5 34.5v411l-154 180h-256zM235 110v404h350v-404h-350zM285 154h100
v315h-100v-315zM535 469h-100v-75h100v75zM535 274v75h-100v-75h100zM535 154v75h-100v-75h100z" />
    <glyph glyph-name="mail1.icon" horiz-adv-x="920" 
d="M210 630h500q110 0 110 -109v-301q0 -110 -110 -110h-500q-49 0 -79.5 27.5t-30.5 81.5v302q0 52 31.5 80.5t78.5 28.5zM717 580h-504l252 -227zM155 192l201 176l-201 180v-356zM765 192v356l-201 -180zM460 271l-63 59l-198 -170h522l-198 170z" />
    <glyph glyph-name="mail2.icon" horiz-adv-x="920" 
d="M100 630h720v-520h-720v520zM717 580h-504l252 -227zM155 192l201 176l-201 180v-356zM765 192v356l-201 -180zM460 271l-63 59l-198 -170h522l-198 170z" />
    <glyph glyph-name="wifi.icon" horiz-adv-x="897" 
d="M517 168q0 -28 -20 -48t-48 -20q-29 0 -49 20t-20 48t20 47.5t49 19.5q28 0 48 -19.5t20 -47.5zM250 347l-53 52q99 108 252 108t252 -108l-53 -51q-79 87 -199 87q-122 0 -199 -88zM344 257l-52 50q57 66 157 66q97 0 155 -67l-51 -50q-39 45 -104 45q-67 0 -105 -44z
M154 439l-54 52q140 149 349 149q217 0 348 -149l-53 -50q-122 127 -295 127q-175 0 -295 -129z" />
    <glyph glyph-name="phone5.icon" horiz-adv-x="880" 
d="M621 516q-31 18 -92.5 11t-119.5 -32l-36 -16q-54 -24 -102 -65.5t-56 -73.5q-4 -20 4.5 -52.5t18.5 -55.5l11 -22l112 53l-42 89q27 21 109 56.5t113 40.5l43 -86l106 42q-31 85 -69 111zM190 630h500q110 0 110 -109v-301q0 -110 -110 -110h-500q-49 0 -79.5 27.5
t-30.5 81.5v302q0 52 31.5 80.5t78.5 28.5z" />
    <glyph glyph-name="phone6.icon" horiz-adv-x="1054" 
d="M834 630h-316v-121h316v121zM638 394q0 -16 11 -27t27 -11t27 11t11 27t-11 27t-27 11t-27 -11t-11 -27zM796 432q-16 0 -27 -11t-11 -27t11 -27t27 -11t27 11t11 27t-11 27t-27 11zM556 356q16 0 27 11t11 27t-11 27t-27 11t-27 -11t-11 -27t11 -27t27 -11zM638 270
q0 -16 11 -27t27 -11t27 11t11 27t-11 27t-27 11t-27 -11t-11 -27zM796 308q-16 0 -27 -11t-11 -27t11 -27t27 -11t27 11t11 27t-11 27t-27 11zM556 232q16 0 27 11t11 27t-11 27t-27 11t-27 -11t-11 -27t11 -27t27 -11zM676 184q-16 0 -27 -11t-11 -27t11 -27t27 -11t27 11
t11 27t-11 27t-27 11zM796 184q-16 0 -27 -11t-11 -27t11 -27t27 -11t27 11t11 27t-11 27t-27 11zM556 108q16 0 27 11t11 27t-11 27t-27 11t-27 -11t-11 -27t11 -27t27 -11zM519 -23q0 -163 -150 -163q-79 0 -116 37t-37 125v24h-62q-22 0 -38 16t-16 38v642q0 22 16 38
t38 16h128q22 0 38 -16t16 -38v-642q0 -22 -16 -38t-38 -16h-6v-18q0 -60 22 -86.5t71 -26.5q51 0 70.5 24t19.5 88v19h-7q-22 0 -38 16t-16 38v642q0 22 16 38t38 16h448q22 0 38 -16t16 -38v-642q0 -22 -16 -38t-38 -16h-381v-23z" />
    <glyph glyph-name="sim2.icon" horiz-adv-x="820" 
d="M435 469h100v-75h-100v75zM535 349v-75h-100v75h100zM535 229v-75h-100v75h100zM220 750h302l178 -210v-441q0 -41 -29 -70t-71 -29h-379q-46 0 -73.5 27.5t-27.5 70.5v552q0 42 29.5 71t70.5 29zM235 110h350v404h-350v-404zM285 154v315h100v-315h-100z" />
    <glyph glyph-name="mail3.icon" horiz-adv-x="920" 
d="M159 630h612l-306 -277zM100 143v454l256 -229zM820 597v-454l-256 225zM779 110h-638l256 220l63 -59l63 59z" />
    <glyph glyph-name="acute.uc" horiz-adv-x="605" 
d="M244 797l86 109h159l-156 -109h-89z" />
    <glyph glyph-name="grave.uc" horiz-adv-x="605" 
d="M337 797h-93l-164 109h169z" />
    <glyph glyph-name="hungarumlaut.uc" horiz-adv-x="662" 
d="M352 797l110 109h154l-185 -109h-79zM233 797l68 109h121l-114 -109h-75z" />
    <glyph glyph-name="circumflex.uc" horiz-adv-x="570" 
d="M312 906h70l125 -116h-106l-55 47h-5l-54 -47h-101z" />
    <glyph glyph-name="caron.uc" horiz-adv-x="532" 
d="M255 797l-125 116h103l55 -47h5l53 47h105l-125 -116h-71z" />
    <glyph glyph-name="breve.uc" horiz-adv-x="605" 
d="M291 788q-66 0 -105 31.5t-39 93.5h81q0 -59 63 -59t63 59h82q0 -62 -39 -93.5t-106 -31.5z" />
    <glyph glyph-name="tilde.uc" horiz-adv-x="620" 
d="M176 798v82q18 33 66 33q24 0 64 -17t59 -17q43 0 61 38v-83q-16 -32 -63 -32q-25 0 -65.5 16.5t-60.5 16.5q-40 0 -61 -37z" />
    <glyph glyph-name="macron.uc" horiz-adv-x="605" 
d="M163 816v73h247v-73h-247z" />
    <glyph glyph-name="dieresis.uc" horiz-adv-x="572" 
d="M175 793q-27 0 -45 17.5t-18 43.5t18 44t45 18t45 -18t18 -44t-18 -43.5t-45 -17.5zM370 793q-27 0 -45 17.5t-18 43.5t18 44t45 18t45 -18t18 -44t-18 -43.5t-45 -17.5z" />
    <glyph glyph-name="dotaccent.uc" horiz-adv-x="610" 
d="M378 794q-29 0 -46.5 17t-17.5 44t17.5 44t46.5 17q28 0 46.5 -17.5t18.5 -43.5t-18.5 -43.5t-46.5 -17.5z" />
    <glyph glyph-name="ring.uc" horiz-adv-x="605" 
d="M290 773q-50 0 -79 24.5t-29 60.5q0 37 28.5 60.5t79.5 23.5q48 0 77.5 -24t29.5 -60t-29.5 -60.5t-77.5 -24.5zM290 827q44 0 44 31t-44 31q-45 0 -45 -31t45 -31z" />
    <glyph glyph-name="cyrbreve.uc" horiz-adv-x="682" 
d="M347 769q-70 0 -114 36t-44 108h83q0 -75 75 -75q39 0 57.5 21.5t18.5 53.5h83q0 -72 -43.5 -108t-115.5 -36z" />
    <glyph glyph-name="zero.tab" horiz-adv-x="600" 
d="M300 -10q-245 0 -245 383q0 387 245 387t245 -386q0 -384 -245 -384zM300 81q139 0 139 293q0 295 -139 295t-139 -296q0 -140 32 -216t107 -76z" />
    <glyph glyph-name="one.tab" horiz-adv-x="600" 
d="M520 0h-412v91h160v553l-160 -61v92l210 82h51v-666h151v-91z" />
    <glyph glyph-name="two.tab" horiz-adv-x="600" 
d="M521 0h-444v81l215 270q95 122 95 208q0 113 -113 113q-98 0 -168 -60v96q30 25 82 38.5t104 13.5q100 0 150.5 -50.5t50.5 -143.5q0 -66 -30 -124t-96 -140l-170 -211h324v-91z" />
    <glyph glyph-name="three.tab" horiz-adv-x="600" 
d="M275 -10q-103 0 -174 37v96q78 -45 169 -45q69 0 108 38t39 106q0 64 -37 100.5t-105 36.5q-47 0 -80 -9v87q196 21 196 135q0 47 -28.5 73.5t-78.5 26.5q-108 0 -167 -63v96q61 55 177 55q102 0 152 -46.5t50 -119.5q0 -71 -42 -115t-105 -60v-5q83 -10 128.5 -61
t45.5 -130q0 -103 -59 -168t-189 -65z" />
    <glyph glyph-name="four.tab" horiz-adv-x="600" 
d="M557 184h-94v-194h-101v194h-318v67l324 506h95v-492h94v-81zM356 592l-211 -327h217v327h-6z" />
    <glyph glyph-name="five.tab" horiz-adv-x="600" 
d="M266 -10q-110 0 -178 37v96q80 -45 170 -45q84 0 125 41t41 116q0 71 -48 108t-133 37q-26 0 -55.5 -3t-45.5 -6l-17 -3l27 382h346v-91h-260l-15 -195q34 2 51 2q122 0 189 -62t67 -169q0 -106 -67 -175.5t-197 -69.5z" />
    <glyph glyph-name="six.tab" horiz-adv-x="600" 
d="M300 -10q-119 0 -181 77.5t-62 246.5q0 238 82 342t237 104q73 0 123 -20v-91q-46 23 -111 23q-115 0 -172 -66t-62 -200h10q48 87 161 87q103 0 160.5 -68t57.5 -182q0 -116 -64 -184.5t-179 -68.5zM301 75q61 0 98.5 44.5t37.5 123.5q0 78 -38 122t-98 44
q-64 0 -101 -44t-37 -123q-1 -79 36.5 -123t101.5 -44z" />
    <glyph glyph-name="seven.tab" horiz-adv-x="600" 
d="M273 0h-101q6 116 93 309l158 350h-332v91h440v-71l-173 -383q-79 -173 -85 -296z" />
    <glyph glyph-name="eight.tab" horiz-adv-x="600" 
d="M300 -10q-115 0 -180.5 58.5t-65.5 160.5q0 68 36.5 118.5t105.5 73.5v8q-56 17 -84 60.5t-28 99.5q0 83 57.5 137t158.5 54q102 0 158.5 -53.5t56.5 -136.5q0 -56 -28 -100t-83 -61v-8q68 -23 104.5 -73t36.5 -118q0 -103 -64.5 -161.5t-180.5 -58.5zM300 442
q51 0 80 29.5t29 86.5t-29 89t-80 32q-52 0 -82 -32t-30 -89t30 -86.5t82 -29.5zM300 71q66 0 102.5 38.5t36.5 104.5q0 69 -36.5 107t-102.5 38t-103 -38.5t-37 -106.5q0 -65 37.5 -104t102.5 -39z" />
    <glyph glyph-name="nine.tab" horiz-adv-x="600" 
d="M301 675q-64 0 -101 -44t-37 -124q0 -78 38 -122t100 -44q65 0 101 43.5t37 123.5q0 81 -35 124t-103 43zM267 78q42 0 73 13.5t50.5 36t32.5 58t18.5 73.5t7.5 89h-10q-24 -46 -61 -68.5t-96 -22.5q-108 0 -166.5 66.5t-58.5 183.5q0 116 65.5 184.5t178.5 68.5
q124 0 183.5 -80.5t59.5 -262.5q0 -127 -18.5 -212t-56.5 -131.5t-87.5 -65t-120.5 -18.5q-97 0 -163 32v99q73 -43 169 -43z" />
    <glyph glyph-name="zero.superior" horiz-adv-x="433" 
d="M216 427q-174 0 -174 248q0 258 174 258q175 0 175 -258q0 -248 -175 -248zM216 500q93 0 93 175q0 186 -93 186q-92 0 -92 -186q0 -175 92 -175z" />
    <glyph glyph-name="one.superior" horiz-adv-x="279" 
d="M114 434v403l-92 -36v71l133 57h38v-495h-79z" />
    <glyph glyph-name="two.superior" horiz-adv-x="360" 
d="M327 434h-300v53l138 169q62 74 62 138q0 69 -73 69q-64 0 -109 -39v75q40 34 120 34q71 0 107.5 -34.5t36.5 -97.5q0 -46 -19.5 -85.5t-62.5 -90.5l-98 -119h198v-72z" />
    <glyph glyph-name="three.superior" horiz-adv-x="355" 
d="M144 427q-68 0 -112 24v76q53 -30 111 -30q44 0 68 21.5t24 59.5q0 79 -91 79q-29 0 -51 -6v67q66 5 96 27.5t30 56.5q0 29 -18.5 45t-50.5 16q-69 0 -109 -40v75q39 35 116 35q74 0 109 -32t35 -82q0 -87 -95 -113v-3q54 -7 82.5 -40.5t28.5 -86.5q0 -66 -40 -107.5
t-133 -41.5z" />
    <glyph glyph-name="four.superior" horiz-adv-x="387" 
d="M365 556h-61v-129h-79v129h-218v54l220 323h77v-314h61v-63zM220 821l-136 -202h141v202h-5z" />
    <glyph glyph-name="five.superior" horiz-adv-x="365" 
d="M154 427q-76 0 -120 25v75q52 -29 117 -29q43 0 68.5 22.5t25.5 66.5q0 40 -30 60.5t-80 20.5q-17 0 -36 -2t-30 -4l-11 -2l18 267h234v-69h-166l-7 -123q6 1 19 1q85 0 128.5 -39.5t43.5 -109.5t-43 -115t-131 -45z" />
    <glyph glyph-name="six.superior" horiz-adv-x="427" 
d="M218 427q-178 0 -178 220q0 149 53 217.5t160 68.5q61 0 104 -17v-72q-40 19 -96 19q-79 0 -111.5 -43.5t-33.5 -121.5h6q36 56 109 56t114.5 -45t41.5 -119t-45.5 -118.5t-123.5 -44.5zM214 496q42 0 68 24.5t26 69.5q0 46 -26 71t-68 25q-43 0 -69 -25t-26 -71
t25.5 -70t69.5 -24z" />
    <glyph glyph-name="seven.superior" horiz-adv-x="324" 
d="M151 434h-80q5 78 59 198l104 226h-209v69h294v-53l-115 -251q-49 -107 -53 -189z" />
    <glyph glyph-name="eight.superior" horiz-adv-x="431" 
d="M216 427q-82 0 -129 39t-47 106q0 97 91 125v5q-72 26 -72 106q0 55 42 90t115 35t114 -35t41 -89q0 -77 -72 -107v-5q91 -27 91 -125q0 -67 -46 -106t-128 -39zM216 727q73 0 73 71q0 33 -20 51t-53 18q-35 0 -55 -18t-20 -51q0 -71 75 -71zM216 493q43 0 68 23t25 62
q0 42 -24.5 65t-68.5 23t-69 -23t-25 -65q0 -39 25 -62t69 -23z" />
    <glyph glyph-name="nine.superior" horiz-adv-x="414" 
d="M207 865q-41 0 -67.5 -24t-26.5 -71t26.5 -71.5t67.5 -24.5q42 0 68.5 25t27.5 71q0 47 -26.5 71t-69.5 24zM207 933q175 0 175 -201q0 -161 -45.5 -233t-156.5 -72q-65 0 -116 20v73q61 -23 109 -23q73 0 101.5 42.5t30.5 122.5h-6q-32 -56 -108 -56q-70 0 -114.5 42.5
t-44.5 121.5q0 78 49.5 120.5t125.5 42.5z" />
    <glyph glyph-name="zero.frame" horiz-adv-x="931" 
d="M722 0h-513q-53 0 -81 28t-28 81v532q0 53 28 81t81 28h513q53 0 81 -28t28 -81v-532q0 -53 -28 -81t-81 -28zM693 680h-455q-35 0 -50 -15t-15 -50v-480q0 -35 15 -50t50 -15h455q35 0 50 15t15 50v480q0 35 -15 50t-50 15zM465 137q-164 0 -164 233q0 242 164 242
t164 -242q0 -233 -164 -233zM465 205q87 0 87 165q0 174 -87 174t-87 -174q0 -165 87 -165z" />
    <glyph glyph-name="one.frame" horiz-adv-x="931" 
d="M722 0h-513q-53 0 -81 28t-28 81v532q0 53 28 81t81 28h513q53 0 81 -28t28 -81v-532q0 -53 -28 -81t-81 -28zM693 680h-455q-35 0 -50 -15t-15 -50v-480q0 -35 15 -50t50 -15h455q35 0 50 15t15 50v480q0 35 -15 50t-50 15zM446 143v381l-86 -34v67l125 54h35v-468h-74z
" />
    <glyph glyph-name="two.frame" horiz-adv-x="931" 
d="M722 0h-513q-53 0 -81 28t-28 81v532q0 53 28 81t81 28h513q53 0 81 -28t28 -81v-532q0 -53 -28 -81t-81 -28zM693 680h-455q-35 0 -50 -15t-15 -50v-480q0 -35 15 -50t50 -15h455q35 0 50 15t15 50v480q0 35 -15 50t-50 15zM612 144h-278v49l128 159q31 38 44 67t13 62
q0 65 -67 65q-59 0 -101 -37v71q37 31 111 31q66 0 99.5 -32t33.5 -91q0 -43 -18 -80t-58 -85l-91 -112h184v-67z" />
    <glyph glyph-name="three.frame" horiz-adv-x="931" 
d="M722 0h-513q-53 0 -81 28t-28 81v532q0 53 28 81t81 28h513q53 0 81 -28t28 -81v-532q0 -53 -28 -81t-81 -28zM693 680h-455q-35 0 -50 -15t-15 -50v-480q0 -35 15 -50t50 -15h455q35 0 50 15t15 50v480q0 35 -15 50t-50 15zM448 138q-65 0 -103 22v71q50 -28 102 -28
q41 0 63 20t22 56q0 74 -84 74q-27 0 -47 -6v63q116 9 116 79q0 27 -17 42t-46 15q-64 0 -101 -38v71q36 32 107 32q68 0 100.5 -29.5t32.5 -76.5q0 -82 -88 -106v-3q51 -7 77 -38t26 -81q0 -139 -160 -139z" />
    <glyph glyph-name="four.frame" horiz-adv-x="931" 
d="M722 0h-513q-53 0 -81 28t-28 81v532q0 53 28 81t81 28h513q53 0 81 -28t28 -81v-532q0 -53 -28 -81t-81 -28zM693 680h-455q-35 0 -50 -15t-15 -50v-480q0 -35 15 -50t50 -15h455q35 0 50 15t15 50v480q0 35 -15 50t-50 15zM610 258h-56v-120h-74v120h-202v51l204 302
h72v-294h56v-59zM476 506l-126 -189h130v189h-4z" />
    <glyph glyph-name="five.frame" horiz-adv-x="931" 
d="M722 0h-513q-53 0 -81 28t-28 81v532q0 53 28 81t81 28h513q53 0 81 -28t28 -81v-532q0 -53 -28 -81t-81 -28zM693 680h-455q-35 0 -50 -15t-15 -50v-480q0 -35 15 -50t50 -15h455q35 0 50 15t15 50v480q0 35 -15 50t-50 15zM445 137q-69 0 -111 24v70q48 -27 109 -27
q40 0 63.5 21t23.5 62q0 37 -28 56t-74 19q-16 0 -33.5 -2t-27.5 -4l-10 -1l16 250h217v-65h-154l-6 -115q5 1 17 1q79 0 119 -37t40 -102q0 -66 -39.5 -108t-121.5 -42z" />
    <glyph glyph-name="six.frame" horiz-adv-x="931" 
d="M722 0h-513q-53 0 -81 28t-28 81v532q0 53 28 81t81 28h513q53 0 81 -28t28 -81v-532q0 -53 -28 -81t-81 -28zM693 680h-455q-35 0 -50 -15t-15 -50v-480q0 -35 15 -50t50 -15h455q35 0 50 15t15 50v480q0 35 -15 50t-50 15zM467 138q-165 0 -165 206q0 140 49 203.5
t148 63.5q59 0 96 -16v-67q-38 18 -89 18q-132 0 -134 -155h6q31 53 101 53q67 0 105.5 -42t38.5 -112q0 -69 -42 -110.5t-114 -41.5zM463 202q39 0 63 23t24 65q0 43 -24 66.5t-63 23.5q-40 0 -64 -23.5t-24 -66.5t23.5 -65.5t64.5 -22.5z" />
    <glyph glyph-name="seven.frame" horiz-adv-x="931" 
d="M722 0h-513q-53 0 -81 28t-28 81v532q0 53 28 81t81 28h513q53 0 81 -28t28 -81v-532q0 -53 -28 -81t-81 -28zM693 680h-455q-35 0 -50 -15t-15 -50v-480q0 -35 15 -50t50 -15h455q35 0 50 15t15 50v480q0 35 -15 50t-50 15zM456 144h-74q5 73 55 185l97 211h-195v64h274
v-49l-107 -235q-46 -100 -50 -176z" />
    <glyph glyph-name="eight.frame" horiz-adv-x="931" 
d="M722 0h-513q-53 0 -81 28t-28 81v532q0 53 28 81t81 28h513q53 0 81 -28t28 -81v-532q0 -53 -28 -81t-81 -28zM693 680h-455q-35 0 -50 -15t-15 -50v-480q0 -35 15 -50t50 -15h455q35 0 50 15t15 50v480q0 35 -15 50t-50 15zM472 138q-76 0 -119.5 36.5t-43.5 98.5
q0 44 22 74.5t62 42.5v5q-66 24 -66 99q0 52 39 84.5t106 32.5q68 0 106 -32.5t38 -83.5q0 -71 -67 -100v-5q84 -24 84 -117q0 -63 -42.5 -99t-118.5 -36zM472 418q68 0 68 67q0 30 -18.5 47.5t-49.5 17.5q-32 0 -50.5 -17t-18.5 -48q0 -67 69 -67zM472 199q40 0 63 21.5
t23 58.5q0 39 -22.5 60.5t-63.5 21.5t-64 -21.5t-23 -60.5q0 -37 23 -58.5t64 -21.5z" />
    <glyph glyph-name="nine.frame" horiz-adv-x="931" 
d="M722 0h-513q-53 0 -81 28t-28 81v532q0 53 28 81t81 28h513q53 0 81 -28t28 -81v-532q0 -53 -28 -81t-81 -28zM693 680h-455q-35 0 -50 -15t-15 -50v-480q0 -35 15 -50t50 -15h455q35 0 50 15t15 50v480q0 35 -15 50t-50 15zM463 548q-38 0 -62.5 -22.5t-24.5 -66.5
t24.5 -67t62.5 -23q39 0 63.5 23.5t25.5 66.5q0 44 -24.5 66.5t-64.5 22.5zM463 611q162 0 162 -188q0 -150 -42 -217.5t-145 -67.5q-61 0 -108 18v69q58 -22 101 -22q68 0 94.5 40t28.5 115h-6q-28 -53 -100 -53q-65 0 -106 40t-41 114q0 73 45.5 112.5t116.5 39.5z" />
    <glyph glyph-name="numbersign.frame" horiz-adv-x="931" 
d="M499 325l24 88h-93l-24 -88h93zM455 164l27 99h-92l-27 -99h-71l27 99h-97l16 62h97l24 88h-97l15 63h99l30 113h72l-31 -113h92l30 113h71l-30 -113h97l-16 -63h-97l-24 -88h98l-15 -62h-100l-26 -99h-72zM722 0h-513q-53 0 -81 28t-28 81v532q0 53 28 81t81 28h513
q53 0 81 -28t28 -81v-532q0 -53 -28 -81t-81 -28zM693 680h-455q-35 0 -50 -15t-15 -50v-480q0 -35 15 -50t50 -15h455q35 0 50 15t15 50v480q0 35 -15 50t-50 15z" />
    <glyph glyph-name="asterisk.frame" horiz-adv-x="931" 
d="M722 0h-513q-53 0 -81 28t-28 81v532q0 53 28 81t81 28h513q53 0 81 -28t28 -81v-532q0 -53 -28 -81t-81 -28zM693 680h-455q-35 0 -50 -15t-15 -50v-480q0 -35 15 -50t50 -15h455q35 0 50 15t15 50v480q0 35 -15 50t-50 15zM675 311l-45 -88l-131 95l19 -171h-115
l26 171l-139 -94l-48 87l159 64l-155 62l48 86l135 -95l-24 171h113l-19 -171l130 95l47 -86l-156 -63z" />
    <glyph glyph-name="phone.frame" horiz-adv-x="931" 
d="M722 0h-513q-53 0 -81 28t-28 81v532q0 53 28 81t81 28h513q53 0 81 -28t28 -81v-532q0 -53 -28 -81t-81 -28zM693 680h-455q-35 0 -50 -15t-15 -50v-480q0 -35 15 -50t50 -15h455q35 0 50 15t15 50v480q0 35 -15 50t-50 15zM508 616q21 3 53 -8.5t53 -23.5l22 -13
l-50 -94l-86 43q-22 -26 -66.5 -114.5t-56.5 -129.5l87 -44l-49 -107q-87 40 -110 82q-14 35 -3 97t39 123l16 34q27 57 72.5 104t78.5 51z" />
    <glyph glyph-name="empty.frame" horiz-adv-x="931" 
d="M722 0h-513q-53 0 -81 28t-28 81v532q0 53 28 81t81 28h513q53 0 81 -28t28 -81v-532q0 -53 -28 -81t-81 -28zM693 680h-455q-35 0 -50 -15t-15 -50v-480q0 -35 15 -50t50 -15h455q35 0 50 15t15 50v480q0 35 -15 50t-50 15z" />
    </font>
</defs>
</svg>
