<?xml version="1.0" standalone="no"?>
<!DOCTYPE svg PUBLIC "-//W3C//DTD SVG 1.1//EN" "http://www.w3.org/Graphics/SVG/1.1/DTD/svg11.dtd" >
<svg xmlns="http://www.w3.org/2000/svg" xmlns:xlink="http://www.w3.org/1999/xlink" version="1.1">
<metadata>
Created by FontForge 20170731 at Mon Apr 27 12:36:42 2015
 By ,,,
Generated in 2015 by FontLab Studio. Copyright info pending.
</metadata>
<defs>
<font id="Tele2DisplaySerif-Regular" horiz-adv-x="595" >
  <font-face 
    font-family="Tele2 DisplaySerif"
    font-weight="400"
    font-stretch="normal"
    units-per-em="1000"
    panose-1="2 0 0 0 0 0 0 0 0 0"
    ascent="745"
    descent="-255"
    x-height="503"
    cap-height="750"
    bbox="-68 -260 1243 1090"
    underline-thickness="50"
    underline-position="-200"
    unicode-range="U+0020-2265"
  />
<missing-glyph horiz-adv-x="500" 
 />
    <glyph glyph-name="IJ" unicode="IJ" horiz-adv-x="689" 
d="M304 0h-267v85h83v580h-83v85h267v-85h-83v-580h83v-85zM456 -10q-71 0 -107 23v93q35 -29 95 -29q81 0 81 115v473h-147v85h248v-550q0 -210 -170 -210z" />
    <glyph glyph-name="ij" unicode="ij" horiz-adv-x="570" 
d="M142 592q-28 0 -47.5 19t-19.5 47q0 27 19.5 46t47.5 19q27 0 47 -19t20 -46t-20 -46.5t-47 -19.5zM431 591q-28 0 -47.5 19t-19.5 47q0 27 19.5 46t47.5 19q27 0 47.5 -19t20.5 -46t-20.5 -46.5t-47.5 -19.5zM103 0v425h-76v78h172v-425h77v-78h-173zM320 -260
q-69 0 -99 16v87q26 -19 75 -19t71.5 36.5t22.5 121.5v443h-83v78h179v-541q0 -222 -166 -222z" />
    <glyph glyph-name="fi" unicode="fi" 
d="M276 0h-236v78h77v342h-70v83h70v38q0 109 59 164t164 55q88 0 138 -27v-94q-45 35 -129 35q-136 0 -136 -135v-36h265v-425h76v-78h-172v420h-169v-342h63v-78z" />
    <glyph glyph-name="fl" unicode="fl" 
d="M276 78v-78h-236v78h77v342h-70v83h70v41q0 107 59 161.5t164 54.5q90 0 138 -24v-658h76v-78h-172v673q-20 3 -40 3q-64 0 -96.5 -32t-32.5 -104v-37h114v-83h-114v-342h63z" />
    <glyph glyph-name=".notdef" horiz-adv-x="500" 
 />
    <glyph glyph-name=".null" horiz-adv-x="0" 
 />
    <glyph glyph-name="nonmarkingreturn" horiz-adv-x="333" 
 />
    <glyph glyph-name="space" unicode=" " horiz-adv-x="290" 
 />
    <glyph glyph-name="exclam" unicode="!" horiz-adv-x="265" 
d="M94 220l-23 530h121l-24 -530h-74zM133 -12q-29 0 -48.5 20t-19.5 48t20 47.5t48 19.5q27 0 47 -19.5t20 -47.5t-20 -48t-47 -20z" />
    <glyph glyph-name="quotedbl" unicode="&#x22;" horiz-adv-x="407" 
d="M237 514l-9 236h109l-10 -236h-90zM79 514l-9 236h109l-10 -236h-90z" />
    <glyph glyph-name="numbersign" unicode="#" horiz-adv-x="716" 
d="M403 297l42 155h-145l-42 -155h145zM324 0l58 216h-145l-58 -216h-94l58 216h-114l20 81h115l42 155h-115l20 81h116l58 217h94l-58 -217h145l58 217h95l-58 -217h120l-20 -81h-121l-42 -155h121l-20 -81h-122l-58 -216h-95z" />
    <glyph glyph-name="dollar" unicode="$" horiz-adv-x="523" 
d="M304 -94h-83v85q-110 4 -184 41v182h89v-121q50 -14 95 -17v263q-88 38 -132.5 85.5t-44.5 132.5t48.5 133.5t128.5 63.5v89h83v-83q88 -3 155 -28v-181h-88v116q-35 7 -67 8v-260q90 -39 135.5 -85.5t45.5 -128.5t-44.5 -137.5t-136.5 -69.5v-88zM380 194
q0 39 -19.5 63.5t-56.5 44.5v-220q76 21 76 112zM149 562q0 -67 72 -108v210q-72 -25 -72 -102z" />
    <glyph glyph-name="percent" unicode="%" horiz-adv-x="865" 
d="M221 402q-79 0 -129.5 47t-50.5 129t51 130.5t129 48.5t129.5 -48t51.5 -130t-51 -129.5t-130 -47.5zM221 476q38 0 63 26t25 77q0 50 -25.5 76.5t-62.5 26.5q-38 0 -63 -27t-25 -77t25 -76t63 -26zM134 0l485 750h104l-485 -750h-104zM644 -9q-79 0 -130 47.5t-51 129.5
t51 130.5t130 48.5q78 0 129 -48t51 -130q0 -83 -50.5 -130.5t-129.5 -47.5zM644 66q39 0 63.5 26t24.5 77q0 50 -25.5 76.5t-62.5 26.5q-39 0 -63.5 -27t-24.5 -77t24.5 -76t63.5 -26z" />
    <glyph glyph-name="ampersand" unicode="&#x26;" horiz-adv-x="695" 
d="M609 -10q-66 51 -103 82q-85 -82 -222 -82q-110 0 -174.5 50.5t-64.5 142.5q0 67 35.5 114t99.5 90q-80 95 -80 188q0 79 48.5 132t141.5 53q92 0 141.5 -46t49.5 -117q0 -68 -37.5 -117.5t-120.5 -104.5l12 -13q70 -74 161 -157q32 62 39 137h-90v75h233v-75h-55
q-14 -116 -59 -196q87 -72 101 -82zM204 580q0 -66 63 -142q60 42 85 76t25 79q0 40 -25 62t-62 22q-41 0 -63.5 -25.5t-22.5 -71.5zM291 76q87 0 147 54q-110 98 -198 190l-3 4q-41 -30 -63.5 -60.5t-22.5 -72.5q0 -56 38 -85.5t102 -29.5z" />
    <glyph glyph-name="quotesingle" unicode="'" horiz-adv-x="249" 
d="M79 514l-9 236h109l-10 -236h-90z" />
    <glyph glyph-name="parenleft" unicode="(" horiz-adv-x="345" 
d="M335 -239q-52 14 -101 51.5t-94 101t-72.5 164.5t-27.5 225q0 100 18.5 186t48 145.5t69 104.5t79 70t80.5 36v-77q-81 -31 -137.5 -149t-56.5 -316t56.5 -316t137.5 -149v-77z" />
    <glyph glyph-name="parenright" unicode=")" horiz-adv-x="345" 
d="M10 -239v77q81 31 137.5 149.5t56.5 317.5q0 198 -56.5 316.5t-137.5 149.5v77q41 -11 80.5 -36t79 -70.5t69 -105t48 -145.5t18.5 -186t-18.5 -186.5t-48 -146t-69 -105t-79 -70.5t-80.5 -36z" />
    <glyph glyph-name="asterisk" unicode="*" horiz-adv-x="431" 
d="M388 535l-40 -74l-99 71l16 -129h-96l18 129l-104 -71l-40 74l121 48l-119 46l41 72l101 -70l-17 129h95l-16 -130l99 71l39 -72l-118 -47z" />
    <glyph glyph-name="plus" unicode="+" horiz-adv-x="536" 
d="M476 315h-167v-184h-81v184h-168v79h168v176h81v-176h167v-79z" />
    <glyph glyph-name="comma" unicode="," horiz-adv-x="256" 
d="M75 -134l39 124q-25 4 -39.5 22t-14.5 44q0 28 20 47.5t48 19.5q42 0 58.5 -33t0.5 -78l-52 -146h-60z" />
    <glyph glyph-name="hyphen" unicode="-" horiz-adv-x="380" 
d="M43 238v73h294v-73h-294z" />
    <glyph glyph-name="period" unicode="." horiz-adv-x="255" 
d="M128 -12q-28 0 -48 20t-20 48t20 47.5t48 19.5q27 0 47 -19.5t20 -47.5t-20 -48t-47 -20z" />
    <glyph glyph-name="slash" unicode="/" horiz-adv-x="471" 
d="M20 -240l340 1065h96l-340 -1065h-96z" />
    <glyph glyph-name="zero" unicode="0" horiz-adv-x="583" 
d="M291 -10q-249 0 -249 385q0 388 249 388q251 0 251 -387q0 -386 -251 -386zM291 78q145 0 145 298q0 299 -145 299q-143 0 -143 -300q0 -143 33 -220t110 -77z" />
    <glyph glyph-name="one" unicode="1" horiz-adv-x="434" 
d="M404 0h-358v88h130v554l-143 -61v97l193 82h51v-672h127v-88z" />
    <glyph glyph-name="two" unicode="2" horiz-adv-x="521" 
d="M482 0h-447v81q195 244 217 267q47 60 70.5 109.5t23.5 101.5q0 116 -113 116q-50 0 -86 -16v-106h-89v158q67 52 190 52q100 0 152 -52t52 -145q0 -72 -30.5 -130.5t-94.5 -135.5q-49 -56 -174 -212h329v-88z" />
    <glyph glyph-name="three" unicode="3" horiz-adv-x="528" 
d="M256 -10q-92 0 -153.5 51t-67.5 157h96q6 -55 37 -87.5t87 -32.5q53 0 89 39.5t36 105.5q0 65 -38 101t-108 36q-37 0 -63 -6v84q91 9 134 46t43 91q0 48 -29 74.5t-78 26.5q-45 0 -85 -16v-107h-89v158q74 52 186 52q98 0 149 -47.5t51 -121.5q0 -70 -40.5 -115
t-100.5 -61v-4q81 -9 127.5 -60.5t46.5 -129.5q0 -100 -58 -167t-172 -67z" />
    <glyph glyph-name="four" unicode="4" horiz-adv-x="553" 
d="M328 -10v182h-311v70l338 515h74v-501h94v-84h-94v-182h-101zM117 256h211v317h-4z" />
    <glyph glyph-name="five" unicode="5" horiz-adv-x="527" 
d="M253 -10q-92 0 -153.5 51t-67.5 157h96q5 -54 36.5 -87t87.5 -33q53 0 90 41t37 108q0 75 -45.5 116.5t-126.5 41.5q-27 0 -59.5 -3.5t-51.5 -7.5l-19 -3l26 379h342v-88h-256l-14 -196q25 3 59 3q118 0 184.5 -65.5t66.5 -175.5q0 -101 -59 -169.5t-173 -68.5z" />
    <glyph glyph-name="six" unicode="6" horiz-adv-x="571" 
d="M286 -10q-117 0 -180.5 84t-63.5 252q0 100 12 175.5t40.5 135.5t79 91.5t123.5 31.5q92 0 150 -52.5t64 -138.5h-96q-7 49 -39.5 76t-81.5 27q-149 0 -155 -288h7q21 37 61 61.5t96 24.5q104 0 165 -65.5t61 -171.5q0 -111 -66 -177t-177 -66zM287 75q60 0 99 42t39 116
q0 70 -39 111t-99 41q-59 0 -97 -42t-38 -114q0 -66 38.5 -110t96.5 -44z" />
    <glyph glyph-name="seven" unicode="7" horiz-adv-x="482" 
d="M346 0h-290v88h80q15 86 72 228q26 64 149 346h-248v-109h-89v197h444v-71q-147 -341 -162 -377q-49 -123 -64 -214h108v-88z" />
    <glyph glyph-name="eight" unicode="8" horiz-adv-x="579" 
d="M290 -10q-116 0 -183 60t-67 160q0 68 36.5 118.5t105.5 74.5v6q-55 17 -83.5 61.5t-28.5 98.5q0 85 58.5 139.5t161.5 54.5q104 0 161 -54t57 -139q0 -55 -28 -99.5t-83 -61.5v-6q69 -24 105.5 -74t36.5 -118q0 -101 -66 -161t-183 -60zM290 445q52 0 82 30t30 87
q0 54 -30.5 85.5t-81.5 31.5q-53 0 -83.5 -31t-30.5 -86q0 -57 30.5 -87t83.5 -30zM290 74q67 0 105 38.5t38 102.5q0 68 -38 106t-105 38q-68 0 -106 -38.5t-38 -105.5q0 -64 38.5 -102.5t105.5 -38.5z" />
    <glyph glyph-name="nine" unicode="9" horiz-adv-x="571" 
d="M284 365q59 0 97 42t38 114q0 66 -38.5 110t-96.5 44q-61 0 -100 -41.5t-39 -116.5q0 -70 39.5 -111t99.5 -41zM274 -10q-92 0 -150 52.5t-65 138.5h96q8 -49 40 -76t81 -27q151 0 155 288h-7q-20 -37 -60 -61.5t-96 -24.5q-104 0 -165 65.5t-61 171.5q0 111 65.5 177
t176.5 66q117 0 181 -84t64 -252q0 -100 -12 -175.5t-40.5 -135.5t-79 -91.5t-123.5 -31.5z" />
    <glyph glyph-name="colon" unicode=":" horiz-adv-x="255" 
d="M128 377q-28 0 -48 19.5t-20 47.5t20 48t48 20q27 0 47 -20t20 -48t-20 -47.5t-47 -19.5zM128 -12q-28 0 -48 20t-20 48t20 47.5t48 19.5q27 0 47 -19.5t20 -47.5t-20 -48t-47 -20z" />
    <glyph glyph-name="semicolon" unicode=";" horiz-adv-x="257" 
d="M128 377q-28 0 -48 19.5t-20 47.5t20 48t48 20q27 0 47 -20t20 -48t-20 -47.5t-47 -19.5zM75 -134l39 124q-25 4 -39.5 22t-14.5 44q0 28 20 47.5t48 19.5q42 0 58.5 -33t0.5 -78l-52 -146h-60z" />
    <glyph glyph-name="less" unicode="&#x3c;" horiz-adv-x="446" 
d="M386 105l-376 215v54l375 215v-92l-258 -148l259 -149v-95z" />
    <glyph glyph-name="equal" unicode="=" horiz-adv-x="516" 
d="M60 409v80h396v-80h-396zM60 220v80h396v-80h-396z" />
    <glyph glyph-name="greater" unicode="&#x3e;" horiz-adv-x="446" 
d="M60 105v94l258 148l-257 148v94l375 -215v-54z" />
    <glyph glyph-name="question" unicode="?" horiz-adv-x="481" 
d="M305 190q-175 0 -175 111q0 31 15.5 58t38 45t49.5 38t49.5 38t38 44t15.5 56q0 94 -102 94q-46 0 -89 -12v-111h-89v157q62 52 183 52q100 0 151.5 -43t51.5 -125q0 -42 -15.5 -77.5t-39 -58t-51 -43.5t-51 -35.5t-39 -32t-15.5 -35.5q0 -50 74 -48v-72zM228 -12
q-28 0 -48 20t-20 48t20 47.5t48 19.5q27 0 47 -19.5t20 -47.5t-20 -48t-47 -20z" />
    <glyph glyph-name="at" unicode="@" horiz-adv-x="990" 
d="M508 -225q-42 0 -81 3.5t-87 16t-88 32t-79.5 54.5t-66.5 81.5t-44 115.5t-17 153q0 102 26 184t70 135.5t104 90t125.5 52t137.5 15.5q198 0 317.5 -108.5t119.5 -330.5q0 -131 -51 -205t-145 -74q-47 0 -78.5 14.5t-43.5 30t-23 41.5h-7q-26 -43 -58.5 -64.5
t-87.5 -21.5q-189 0 -189 241q0 117 51.5 179.5t143.5 62.5q105 0 137 -81h7v71h91v-290q0 -57 18 -78t48 -21q86 0 86 185q0 102 -28 174.5t-78 111t-106 55.5t-124 17q-53 0 -101 -10t-96.5 -37.5t-84 -69.5t-58 -111t-22.5 -158q0 -72 15.5 -130t39 -95t58 -65t66 -41.5
t70 -22t62.5 -10t51 -1.5q47 0 99.5 10.5t84.5 30.5v-92q-31 -18 -82.5 -29t-101.5 -11zM487 76q109 0 109 137v51q0 57 -27.5 90t-80.5 33q-125 0 -125 -156q0 -155 124 -155z" />
    <glyph glyph-name="A" unicode="A" horiz-adv-x="646" 
d="M318 633l-95 -321h189l-89 321h-5zM228 85v-85h-223v85h62l174 580h-77v85h225l190 -665h62v-85h-142l-63 227h-238l-42 -142h72z" />
    <glyph glyph-name="B" unicode="B" horiz-adv-x="601" 
d="M37 0v85h83v580h-83v85h257q125 0 186 -49.5t61 -136.5q0 -64 -32.5 -106t-89.5 -62v-6q75 -18 112.5 -65.5t37.5 -116.5q0 -91 -63.5 -149.5t-197.5 -58.5h-271zM221 427h70q68 0 106.5 33.5t38.5 92.5q0 110 -145 110h-70v-236zM221 87h82q161 0 161 123q0 67 -45 99
t-123 32h-75v-254z" />
    <glyph glyph-name="C" unicode="C" horiz-adv-x="556" 
d="M513 27q-61 -37 -161 -37q-152 0 -232.5 100.5t-80.5 275.5q0 182 87 288t243 106q89 0 144 -25v-184h-89v118q-22 3 -48 3q-105 0 -168 -81.5t-63 -223.5q0 -138 58 -213t165 -75q93 0 145 43v-95z" />
    <glyph glyph-name="D" unicode="D" horiz-adv-x="672" 
d="M37 0v85h83v580h-83v85h225q178 0 274.5 -97.5t96.5 -276.5q0 -180 -97 -278t-274 -98h-225zM221 88h41q125 0 195 73.5t70 214.5q0 142 -70 214t-195 72h-41v-574z" />
    <glyph glyph-name="E" unicode="E" 
d="M37 0v85h83v580h-83v85h492v-199h-89v110h-219v-233h215v-89h-215v-250h232v125h89v-214h-505z" />
    <glyph glyph-name="F" unicode="F" horiz-adv-x="554" 
d="M321 0h-284v85h83v580h-83v85h492v-199h-89v110h-219v-243h216v-89h-216v-244h100v-85z" />
    <glyph glyph-name="G" unicode="G" horiz-adv-x="635" 
d="M572 21q-63 -31 -185 -31q-171 0 -259.5 101t-88.5 284q0 180 94.5 282.5t253.5 102.5q41 0 94 -7t78 -18v-184h-89v115q-36 6 -74 6q-114 0 -182.5 -80.5t-68.5 -218.5q0 -140 61.5 -218.5t182.5 -78.5q43 0 83 8v207h-145v84h245v-354z" />
    <glyph glyph-name="H" unicode="H" horiz-adv-x="714" 
d="M304 85v-85h-267v85h83v580h-83v85h184v-322h272v237h-83v85h268v-85h-84v-580h84v-85h-185v339h-272v-254h83z" />
    <glyph glyph-name="I" unicode="I" horiz-adv-x="340" 
d="M304 0h-267v85h83v580h-83v85h267v-85h-83v-580h83v-85z" />
    <glyph glyph-name="J" unicode="J" horiz-adv-x="354" 
d="M122 -10q-71 0 -107 23v93q35 -29 95 -29q81 0 81 115v473h-147v85h248v-550q0 -210 -170 -210z" />
    <glyph glyph-name="K" unicode="K" horiz-adv-x="656" 
d="M298 85v-85h-261v85h83v580h-83v85h232v-85h-48v-321l227 321h-71v85h242v-85h-72l-175 -242l-12 -16l227 -322h60v-85h-128l-225 318l-73 -100v-133h77z" />
    <glyph glyph-name="L" unicode="L" horiz-adv-x="562" 
d="M37 0v85h83v580h-83v85h284v-85h-100v-576h229v125h89v-214h-502z" />
    <glyph glyph-name="M" unicode="M" horiz-adv-x="930" 
d="M208 0h-171v85h83v580h-83v85h250l179 -586h3l180 586h244v-85h-83v-580h83v-85h-184v656h-5l-203 -656h-85l-203 656h-5v-656z" />
    <glyph glyph-name="N" unicode="N" horiz-adv-x="761" 
d="M302 85v-85h-265v85h83v580h-83v85h212l297 -555h6v555h175v-85h-83v-665h-90l-336 603h-6v-518h90z" />
    <glyph glyph-name="O" unicode="O" horiz-adv-x="693" 
d="M345 -10q-144 0 -225 103t-81 282q0 181 81 283t225 102q147 0 228 -101.5t81 -282.5t-81 -283.5t-228 -102.5zM346 78q96 0 149 77t53 221q0 143 -53 219.5t-149 76.5q-94 0 -147.5 -76.5t-53.5 -220.5q0 -143 53.5 -220t147.5 -77z" />
    <glyph glyph-name="P" unicode="P" horiz-adv-x="583" 
d="M321 0h-284v85h83v580h-83v85h262q134 0 197 -63t63 -155q0 -96 -64 -162t-197 -66h-77v-219h100v-85zM221 394h79q70 0 111.5 35.5t41.5 102.5q0 61 -42 95t-111 34h-79v-267z" />
    <glyph glyph-name="Q" unicode="Q" horiz-adv-x="693" 
d="M592 -153l-330 20v85l330 -20v-85zM345 -10q-144 0 -225 103t-81 282q0 181 81 283t225 102q147 0 228 -101.5t81 -282.5t-81 -283.5t-228 -102.5zM346 78q96 0 149 77t53 221q0 143 -53 219.5t-149 76.5q-94 0 -147.5 -76.5t-53.5 -220.5q0 -143 53.5 -220t147.5 -77z
" />
    <glyph glyph-name="R" unicode="R" horiz-adv-x="643" 
d="M221 396h80q72 0 113.5 34.5t41.5 102.5q0 63 -41.5 95.5t-113.5 32.5h-80v-265zM294 0h-257v85h83v580h-83v85h262q134 0 198.5 -61t64.5 -154q0 -70 -39 -125.5t-112 -79.5l158 -245h63v-85h-131l-194 308h-86v-223h73v-85z" />
    <glyph glyph-name="S" unicode="S" horiz-adv-x="523" 
d="M244 -10q-123 0 -207 42v182h89v-121q63 -17 119 -17q64 0 99.5 26.5t35.5 91.5q0 28 -10 49t-31.5 36.5t-42.5 26t-55 25.5q-7 3 -10 4q-45 19 -75 36.5t-57.5 43t-41 61t-13.5 81.5q0 103 70 153t175 50q97 0 170 -28v-181h-88v116q-38 8 -79 8q-61 0 -102 -25.5
t-41 -87.5q0 -50 32.5 -79t94.5 -56q52 -21 84 -38.5t64 -44t46.5 -62t14.5 -81.5q0 -95 -59 -153t-182 -58z" />
    <glyph glyph-name="T" unicode="T" horiz-adv-x="609" 
d="M448 0h-287v85h93v576h-145v-116h-89v205h569v-205h-89v116h-145v-576h93v-85z" />
    <glyph glyph-name="U" unicode="U" horiz-adv-x="702" 
d="M602 272q0 -131 -62.5 -206.5t-192.5 -75.5q-128 0 -187.5 77t-59.5 206v392h-83v85h267v-85h-83v-386q0 -99 32 -148.5t115 -49.5q158 0 158 197v472h179v-85h-83v-393z" />
    <glyph glyph-name="V" unicode="V" horiz-adv-x="655" 
d="M385 0h-93l-218 665h-69v85h146l188 -595h6l147 510h-73v85h231v-85h-66z" />
    <glyph glyph-name="W" unicode="W" horiz-adv-x="921" 
d="M454 553l-130 -553h-83l-172 665h-64v85h146l140 -540h6l129 540h79l133 -542h7l116 457h-65v85h220v-85h-62l-172 -665h-84l-137 553h-7z" />
    <glyph glyph-name="X" unicode="X" horiz-adv-x="632" 
d="M234 85v-85h-223v85h74l170 307l-160 273h-76v85h137l159 -272l101 187h-45v85h214v-85h-73l-149 -269l183 -311h75v-85h-137l-180 309l-124 -224h54z" />
    <glyph glyph-name="Y" unicode="Y" horiz-adv-x="630" 
d="M467 0h-287v85h93v229l-195 351h-75v85h143l182 -334h5l126 249h-63v85h231v-85h-72l-181 -350v-230h93v-85z" />
    <glyph glyph-name="Z" unicode="Z" horiz-adv-x="541" 
d="M30 0v68l354 594h-256v-111h-89v199h463v-68l-354 -594h274v126h89v-214h-481z" />
    <glyph glyph-name="bracketleft" unicode="[" horiz-adv-x="321" 
d="M80 -230v1075h231v-77h-130v-921h130v-77h-231z" />
    <glyph glyph-name="backslash" unicode="\" horiz-adv-x="476" 
d="M360 -240l-340 1065h93l340 -1065h-93z" />
    <glyph glyph-name="bracketright" unicode="]" horiz-adv-x="321" 
d="M10 -230v77h130v921h-130v77h231v-1075h-231z" />
    <glyph glyph-name="asciicircum" unicode="^" horiz-adv-x="493" 
d="M470 376h-91l-133 250l-132 -249h-91l198 374h53z" />
    <glyph glyph-name="underscore" unicode="_" horiz-adv-x="510" 
d="M0 -114v74h510v-74h-510z" />
    <glyph glyph-name="grave" unicode="`" horiz-adv-x="334" 
d="M170 577l-122 146h145l60 -146h-83z" />
    <glyph glyph-name="a" unicode="a" horiz-adv-x="528" 
d="M215 70q49 0 82 36.5t33 103.5v23q-103 0 -146 -22t-43 -74q0 -29 19 -48t55 -19zM329 79q-26 -45 -58 -67t-87 -22q-68 0 -106 38.5t-38 99.5q0 89 71 130.5t219 41.5v23q0 107 -118 107q-75 0 -141 -45v91q60 37 156 37q199 0 199 -192v-243h77v-78h-168v79h-6z" />
    <glyph glyph-name="b" unicode="b" horiz-adv-x="560" 
d="M321 -10q-99 0 -152 80h-7v-70h-91v672h-77v78h173v-240l-5 -78h7q50 81 153 81q90 0 145.5 -69.5t55.5 -186.5q0 -123 -56 -195t-146 -72zM293 74q56 0 92.5 45.5t36.5 136.5q0 86 -36.5 129.5t-91.5 43.5q-61 0 -94 -37.5t-33 -107.5v-62q0 -71 36 -109.5t90 -38.5z
" />
    <glyph glyph-name="c" unicode="c" horiz-adv-x="466" 
d="M416 21q-50 -31 -134 -31q-117 0 -181 68t-64 192q0 122 67.5 192.5t176.5 70.5q81 0 133 -26h2v-164h-80v102q-23 4 -50 4q-67 0 -107.5 -45.5t-40.5 -132.5q0 -89 41 -133t111 -44q79 0 126 39v-92z" />
    <glyph glyph-name="d" unicode="d" horiz-adv-x="600" 
d="M271 74q52 0 87.5 37t35.5 110v69q0 65 -33.5 102t-87.5 37q-60 0 -97.5 -44.5t-37.5 -133.5t37 -133t96 -44zM392 70q-47 -80 -153 -80q-92 0 -147 69t-55 190t57.5 192.5t152.5 71.5q101 0 145 -80h7l-5 77v162h-77v78h173v-672h77v-78h-168v70h-7z" />
    <glyph glyph-name="e" unicode="e" horiz-adv-x="496" 
d="M280 -10q-116 0 -179.5 65.5t-63.5 194.5q0 122 61 192.5t161 70.5q91 0 145.5 -53t54.5 -153q0 -50 -6 -65h-311q1 -169 151 -169q91 0 150 48v-88q-53 -43 -163 -43zM141 313h221q-1 62 -30.5 92t-77.5 30q-96 0 -113 -122z" />
    <glyph glyph-name="f" unicode="f" horiz-adv-x="371" 
d="M307 0h-267v78h77v347h-70v78h70v65q0 91 45 141.5t127 50.5q57 0 95 -15v-88q-28 20 -74 20q-48 0 -72.5 -26t-24.5 -86v-62h121v-78h-121v-347h94v-78z" />
    <glyph glyph-name="g" unicode="g" horiz-adv-x="513" 
d="M240 218q44 0 72.5 29.5t28.5 82.5t-28.5 82t-72.5 29t-72 -29.5t-28 -83.5q0 -52 28 -81t72 -29zM491 -87q0 -82 -64.5 -127.5t-173.5 -45.5q-106 0 -168 38t-62 109q0 87 95 125q-41 23 -41 71q0 60 67 85q-49 20 -76.5 61.5t-27.5 99.5q0 85 55.5 134.5t144.5 49.5
q66 0 116 -28l142 18v-83l-79 1q22 -39 22 -91q0 -84 -55.5 -132t-145.5 -48h-1q-70 0 -70 -39q0 -14 8 -23t25.5 -13.5t35.5 -6.5t48 -3q101 -5 153 -40t52 -112zM265 -192q63 0 101 24t38 69q0 43 -35 61.5t-106 21.5q-55 2 -92 9q-54 -28 -54 -83q0 -50 40 -76t108 -26z
" />
    <glyph glyph-name="h" unicode="h" horiz-adv-x="596" 
d="M274 78v-78h-244v78h77v594h-77v78h172v-240l-3 -77h7q47 80 139 80q149 0 149 -180v-255h77v-78h-173v295q0 132 -94 132q-46 0 -73.5 -33.5t-27.5 -91.5v-224h71z" />
    <glyph glyph-name="i" unicode="i" horiz-adv-x="313" 
d="M103 0v425h-76v78h172v-425h77v-78h-173zM142 591q-28 0 -47.5 19.5t-19.5 47.5q0 27 19.5 46t47.5 19q27 0 47 -19t20 -46t-20 -47t-47 -20z" />
    <glyph glyph-name="j" unicode="j" horiz-adv-x="278" 
d="M54 -260q-54 0 -86 16v87q25 -19 61 -19q41 0 57 30t16 123v448h-83v78h179v-545q0 -118 -34.5 -168t-109.5 -50zM145 590q-28 0 -47.5 19.5t-19.5 47.5q0 27 19.5 46t47.5 19q27 0 47 -19t20 -46t-20 -47t-47 -20z" />
    <glyph glyph-name="k" unicode="k" horiz-adv-x="558" 
d="M267 78v-78h-237v78h77v594h-77v78h173v-512l157 187h-58v78h218v-78h-67l-136 -159l152 -188h65v-78h-122l-158 198l-51 -60v-60h64z" />
    <glyph glyph-name="l" unicode="l" horiz-adv-x="288" 
d="M81 0v672h-77v78h173v-672h77v-78h-173z" />
    <glyph glyph-name="m" unicode="m" horiz-adv-x="854" 
d="M271 78v-78h-234v78h77v347h-77v78h168v-71h7q49 81 134 81q89 0 123 -81h7q45 81 136 81q75 0 107 -46t32 -137v-252h77v-78h-173v298q0 67 -20 98t-63 31q-41 0 -66 -29.5t-25 -89.5v-230h60v-78h-156v298q0 129 -84 129q-40 0 -65.5 -29.5t-25.5 -89.5v-230h61z" />
    <glyph glyph-name="n" unicode="n" horiz-adv-x="607" 
d="M284 78v-78h-244v78h77v347h-77v78h168v-71h7q49 81 142 81q147 0 147 -180v-255h77v-78h-173v295q0 68 -22.5 100t-70.5 32q-46 0 -74 -33.5t-28 -91.5v-224h71z" />
    <glyph glyph-name="o" unicode="o" horiz-adv-x="537" 
d="M268 -10q-102 0 -166.5 69.5t-64.5 190.5t65 192t166 71t166.5 -70.5t65.5 -191.5q0 -122 -65 -191.5t-167 -69.5zM268 74q58 0 94.5 44.5t36.5 132.5t-37 133t-94 45q-58 0 -94 -45t-36 -134q0 -88 36 -132t94 -44z" />
    <glyph glyph-name="p" unicode="p" horiz-adv-x="592" 
d="M329 74q55 0 90 45t35 136q0 87 -35.5 130.5t-89.5 43.5q-59 0 -94.5 -35t-35.5 -102v-70q0 -70 37 -109t93 -39zM279 -250h-252v78h76v597h-76v78h167v-71h7q49 81 156 81q88 0 143 -70t55 -187q0 -124 -55 -195t-144 -71q-100 0 -155 80h-7l5 -80v-162h80v-78z" />
    <glyph glyph-name="q" unicode="q" horiz-adv-x="567" 
d="M567 -250h-253v78h80v172l5 70h-7q-49 -80 -156 -80q-92 0 -145.5 69.5t-53.5 189.5q0 119 56.5 191.5t148.5 72.5q106 0 150 -80h7v70h91v-675h77v-78zM267 74q54 0 90.5 37t36.5 110v69q0 65 -35 102t-90 37q-58 0 -94.5 -45t-36.5 -133q0 -87 36 -132t93 -45z" />
    <glyph glyph-name="r" unicode="r" horiz-adv-x="449" 
d="M310 0h-270v78h77v347h-77v78h168v-79h7q15 39 47.5 64t81.5 25q53 0 85 -13v-177h-81v104h-16q-54 0 -86.5 -37t-32.5 -103v-209h97v-78z" />
    <glyph glyph-name="s" unicode="s" horiz-adv-x="433" 
d="M205 -10q-98 0 -163 27v148h80v-85q44 -9 84 -9q91 0 91 66q0 29 -24.5 46t-82.5 37q-77 28 -109.5 60t-32.5 91q0 63 49.5 102.5t136.5 39.5q76 0 149 -23v-148h-80v84q-33 6 -65 6q-41 0 -65.5 -16.5t-24.5 -44.5q0 -30 21 -44.5t77 -35.5q73 -27 109 -60t36 -94
q0 -66 -45.5 -106.5t-140.5 -40.5z" />
    <glyph glyph-name="t" unicode="t" horiz-adv-x="378" 
d="M245 -10q-83 0 -118 48.5t-35 142.5v244h-70v78h70v137h96v-137h149v-78h-149v-240q0 -56 16.5 -84t57.5 -28q46 0 82 14v-81q-41 -16 -99 -16z" />
    <glyph glyph-name="u" unicode="u" horiz-adv-x="604" 
d="M393 71q-49 -81 -142 -81q-147 0 -147 180v255h-77v78h173v-295q0 -68 22.5 -100t70.5 -32q46 0 74 33.5t28 91.5v224h-77v78h173v-425h77v-78h-168v71h-7z" />
    <glyph glyph-name="v" unicode="v" horiz-adv-x="511" 
d="M308 0h-96l-157 425h-57v78h128l134 -379h8l97 301h-62v78h203v-78h-54z" />
    <glyph glyph-name="w" unicode="w" horiz-adv-x="718" 
d="M347 370l-84 -370h-102l-117 425h-53v78h126l101 -381h7l87 381h90l102 -381h7l72 303h-58v78h188v-78h-48l-109 -425h-105l-99 370h-5z" />
    <glyph glyph-name="x" unicode="x" horiz-adv-x="532" 
d="M229 78v-78h-194v78h58l117 178l-111 169h-67v78h124l126 -191l71 113h-52v78h194v-78h-57l-115 -175l114 -172h59v-78h-116l-128 194l-74 -116h51z" />
    <glyph glyph-name="y" unicode="y" horiz-adv-x="527" 
d="M318 -250h-228v78h72l61 166l-161 431h-57v78h129l134 -377h8l101 299h-57v78h202v-78h-55l-214 -597h65v-78z" />
    <glyph glyph-name="z" unicode="z" horiz-adv-x="464" 
d="M427 0h-390v60l259 363h-174v-97h-80v177h364v-60l-258 -363h200v97h79v-177z" />
    <glyph glyph-name="braceleft" unicode="{" horiz-adv-x="381" 
d="M371 -240q-71 0 -114.5 10.5t-73 40.5t-41 79.5t-11.5 129.5v141q0 40 -19.5 73t-71.5 38v76q55 11 72.5 39t17.5 85v164q0 124 51 166.5t190 42.5v-77q-27 0 -46 -1t-34 -6t-25 -9t-17 -16t-10.5 -21.5t-5 -30.5t-2 -37.5t-0.5 -48.5v-141q0 -32 -2 -50.5t-9 -40
t-24 -34.5t-44 -19v-5q35 -8 53.5 -30.5t22.5 -44.5t4 -55v-110q0 -143 21 -187t118 -44v-77z" />
    <glyph glyph-name="bar" unicode="|" horiz-adv-x="291" 
d="M100 -240v1062h91v-1062h-91z" />
    <glyph glyph-name="braceright" unicode="}" horiz-adv-x="381" 
d="M10 -240v77q21 0 37.5 1.5t30 6.5t23.5 9t17.5 15t12.5 19t8.5 25.5t5.5 29t3 36t1 41v48.5v110q0 32 4.5 54.5t23 45.5t52.5 30v5q-50 12 -64.5 46.5t-14.5 97.5v141q0 32 -0.5 48.5t-2 37.5t-5 30.5t-10.5 21.5t-17 16t-25 9t-34 6t-46 1v77q139 0 190 -42.5t51 -166.5
v-164q0 -57 17.5 -85t72.5 -39v-76q-52 -5 -71.5 -38t-19.5 -73v-141q0 -80 -11.5 -129.5t-41 -79.5t-73 -40.5t-114.5 -10.5z" />
    <glyph glyph-name="asciitilde" unicode="~" horiz-adv-x="563" 
d="M395 279q-36 0 -67.5 15t-50 33.5t-44 33.5t-52.5 15q-58 0 -69 -81h-77q4 81 43 124t103 43q36 0 67.5 -15.5t50 -33.5t43 -33.5t47.5 -15.5q58 0 62 83h77q-4 -85 -39 -126.5t-94 -41.5z" />
    <glyph glyph-name="uni00A0" unicode="&#xa0;" horiz-adv-x="290" 
 />
    <glyph glyph-name="exclamdown" unicode="&#xa1;" horiz-adv-x="265" 
d="M171 530l23 -530h-121l24 530h74zM132 762q28 0 48 -20t20 -48t-20 -47.5t-48 -19.5q-27 0 -47 19.5t-20 47.5t20 48t47 20z" />
    <glyph glyph-name="cent" unicode="&#xa2;" horiz-adv-x="466" 
d="M300 -96h-83v93q-87 17 -133.5 82t-46.5 171q0 102 48.5 169t131.5 86v108h83v-101q67 -3 114 -25h2v-164h-80v102q-12 2 -36 4v-355q72 2 116 39v-92q-43 -27 -116 -30v-87zM138 251q0 -125 79 -162v324q-79 -39 -79 -162z" />
    <glyph glyph-name="sterling" unicode="&#xa3;" horiz-adv-x="513" 
d="M491 91v-91h-469v71q52 41 70.5 91t19.5 144h-82v82h82v129q0 113 55.5 178t172.5 65q91 0 137 -23v-186h-88v115q-22 3 -47 3q-124 0 -124 -155v-126h211v-82h-211q-1 -148 -58 -215h331z" />
    <glyph glyph-name="yen" unicode="&#xa5;" horiz-adv-x="630" 
d="M106 321v81h118l-146 263h-75v85h143l182 -334h5l126 249h-63v85h231v-85h-72l-136 -263h122v-81h-164l-3 -6v-63h167v-80h-167v-87h93v-85h-287v85h93v87h-167v80h167v62l-4 7h-163z" />
    <glyph glyph-name="brokenbar" unicode="&#xa6;" horiz-adv-x="288" 
d="M100 367v455h88v-455h-88zM100 -240v461h88v-461h-88z" />
    <glyph glyph-name="section" unicode="&#xa7;" horiz-adv-x="515" 
d="M146 326q0 -29 12 -51.5t35 -38.5t46 -28t56 -27.5t54 -29.5q28 29 28 73q0 37 -20.5 65t-44.5 41.5t-68.5 35t-66.5 34.5q-31 -28 -31 -74zM232 -204q-98 0 -180 40v100q90 -49 173 -49q54 0 83 25t29 70q0 40 -30 68t-72.5 47t-84.5 42t-72 66.5t-30 105.5q0 89 69 138
q-42 48 -42 123q0 86 57.5 137t155.5 51q94 0 145 -24v-99q-62 32 -145 32q-50 0 -79 -25.5t-29 -70.5q0 -39 30 -67.5t73 -49t86 -44.5t73 -69t30 -108q0 -92 -65 -136q35 -48 35 -116q0 -85 -54.5 -136t-155.5 -51z" />
    <glyph glyph-name="dieresis" unicode="&#xa8;" horiz-adv-x="505" 
d="M124 587q-27 0 -46.5 19t-19.5 47q0 27 19.5 46.5t46.5 19.5t46.5 -19.5t19.5 -46.5q0 -28 -19.5 -47t-46.5 -19zM325 587q-28 0 -46.5 19t-18.5 47q0 27 19 46.5t46 19.5q26 0 46 -19.5t20 -46.5t-19.5 -46.5t-46.5 -19.5z" />
    <glyph glyph-name="copyright" unicode="&#xa9;" horiz-adv-x="871" 
d="M436 -10q-164 0 -274.5 102.5t-110.5 282.5t110.5 282.5t274.5 102.5q105 0 191 -43t140 -132t54 -210t-54 -210t-140 -132t-191 -43zM435 63q135 0 217.5 81.5t82.5 230.5q0 141 -84 226.5t-216 85.5q-130 0 -215 -82t-85 -230q0 -147 86 -229.5t214 -82.5zM568 182
q-38 -23 -109 -23q-100 0 -157 57t-57 159q0 101 58.5 160.5t147.5 59.5q64 0 111 -21v-145h-79v86q-8 1 -24 1q-56 0 -89.5 -34.5t-33.5 -106.5q0 -138 131 -138q69 0 101 30v-85z" />
    <glyph glyph-name="ordfeminine" unicode="&#xaa;" horiz-adv-x="483" 
d="M213 381q43 0 73 30t30 87v17q-92 0 -131 -18t-39 -62q0 -54 67 -54zM315 385q-22 -39 -51 -58t-78 -19q-61 0 -94.5 33.5t-33.5 85.5q0 74 62.5 111t195.5 37v20q0 89 -103 89q-74 0 -129 -39v84q51 31 141 31q88 0 131.5 -43t43.5 -123v-208h61v-69h-140v68h-6z" />
    <glyph glyph-name="guillemotleft" unicode="&#xab;" horiz-adv-x="444" 
d="M215 50l-192 203v50l191 203v-107l-105 -120l106 -115v-114zM394 57l-185 196v50l185 197v-108l-100 -114l100 -113v-108z" />
    <glyph glyph-name="uni00AD" unicode="&#xad;" horiz-adv-x="380" 
d="M43 238v73h294v-73h-294z" />
    <glyph glyph-name="registered" unicode="&#xae;" horiz-adv-x="647" 
d="M323 227q-113 0 -189.5 70.5t-76.5 195.5t76.5 196t189.5 71t190 -71t77 -196t-77 -195.5t-190 -70.5zM323 288q89 0 143.5 53.5t54.5 151.5q0 93 -55.5 149t-142.5 56q-86 0 -142 -53.5t-56 -151.5q0 -97 56.5 -151t141.5 -54zM290 512h28q53 0 53 42q0 43 -53 43h-28
v-85zM290 358h-93v42h36v197h-36v43h125q108 0 108 -83q0 -55 -52 -77l50 -80h30v-42h-71l-68 109h-29v-109z" />
    <glyph glyph-name="macron" unicode="&#xaf;" horiz-adv-x="333" 
d="M19 616v73h253v-73h-253z" />
    <glyph glyph-name="degree" unicode="&#xb0;" horiz-adv-x="315" 
d="M157 524q-53 0 -87.5 32t-34.5 88t34.5 87.5t87.5 31.5q51 0 86.5 -31.5t35.5 -87.5q0 -55 -35.5 -87.5t-86.5 -32.5zM158 585q25 0 40.5 15.5t15.5 43.5q0 27 -15.5 42t-40.5 15q-24 0 -39.5 -14.5t-15.5 -42.5t16 -43.5t39 -15.5z" />
    <glyph glyph-name="plusminus" unicode="&#xb1;" horiz-adv-x="550" 
d="M490 413h-174v-177h-81v177h-175v80h175v170h81v-170h174v-80zM60 105v80h430v-80h-430z" />
    <glyph glyph-name="acute" unicode="&#xb4;" horiz-adv-x="341" 
d="M70 577l73 146h139l-127 -146h-85z" />
    <glyph glyph-name="paragraph" unicode="&#xb6;" horiz-adv-x="626" 
d="M366 -240h-91v497q-125 3 -185 75t-60 176q0 47 14 89t43 77t79.5 55.5t116.5 20.5h83v-990zM455 -240v990h91v-990h-91z" />
    <glyph glyph-name="periodcentered" unicode="&#xb7;" horiz-adv-x="262" 
d="M131 223q-29 0 -48.5 19.5t-19.5 48.5q0 28 20 47.5t48 19.5q27 0 47 -19.5t20 -47.5t-20 -48t-47 -20z" />
    <glyph glyph-name="cedilla" unicode="&#xb8;" horiz-adv-x="334" 
d="M157 -196q-50 0 -83 23v62q25 -22 64 -22q38 0 38 27q0 33 -66 33v73h65v-36q79 -12 79 -78q0 -37 -25 -59.5t-72 -22.5z" />
    <glyph glyph-name="ordmasculine" unicode="&#xba;" horiz-adv-x="487" 
d="M244 308q-90 0 -148.5 60t-58.5 164q0 105 58.5 166.5t148.5 61.5q89 0 148 -61t59 -166t-58.5 -165t-148.5 -60zM244 384q51 0 83.5 37.5t32.5 111.5q0 75 -33 113t-83 38q-52 0 -84 -38.5t-32 -113.5q0 -73 32 -110.5t84 -37.5z" />
    <glyph glyph-name="guillemotright" unicode="&#xbb;" horiz-adv-x="444" 
d="M229 50v105l106 120l-106 115v116l191 -203v-50zM50 56v107l99 113l-99 113v111l184 -197v-50z" />
    <glyph glyph-name="questiondown" unicode="&#xbf;" horiz-adv-x="481" 
d="M176 563q175 0 175 -111q0 -31 -15.5 -58t-38 -45t-49.5 -38t-49.5 -38t-38 -44t-15.5 -56q0 -94 102 -94q45 0 89 12v111h89v-157q-62 -52 -183 -52q-100 0 -151.5 43t-51.5 125q0 42 15.5 77.5t39 58t51 43.5t51 35.5t39 32t15.5 35.5q0 50 -74 48v72zM253 765
q29 0 48.5 -19.5t19.5 -48.5q0 -28 -20 -47.5t-48 -19.5q-27 0 -47 19.5t-20 47.5t20 48t47 20z" />
    <glyph glyph-name="Agrave" unicode="&#xc0;" horiz-adv-x="646" 
d="M318 633l-95 -321h189l-89 321h-5zM228 85v-85h-223v85h62l174 580h-77v85h225l190 -665h62v-85h-142l-63 227h-238l-42 -142h72zM273 797l-163 109h155l98 -109h-90z" />
    <glyph glyph-name="Aacute" unicode="&#xc1;" horiz-adv-x="646" 
d="M318 633l-95 -321h189l-89 321h-5zM228 85v-85h-223v85h62l174 580h-77v85h225l190 -665h62v-85h-142l-63 227h-238l-42 -142h72zM272 797l93 109h149l-157 -109h-85z" />
    <glyph glyph-name="Acircumflex" unicode="&#xc2;" horiz-adv-x="646" 
d="M318 633l-95 -321h189l-89 321h-5zM228 85v-85h-223v85h62l174 580h-77v85h225l190 -665h62v-85h-142l-63 227h-238l-42 -142h72zM149 797l126 116h70l125 -116h-103l-55 49h-5l-58 -49h-100z" />
    <glyph glyph-name="Atilde" unicode="&#xc3;" horiz-adv-x="646" 
d="M318 633l-95 -321h189l-89 321h-5zM228 85v-85h-223v85h62l174 580h-77v85h225l190 -665h62v-85h-142l-63 227h-238l-42 -142h72zM176 790v84q18 33 66 33q24 0 64 -17t59 -17q43 0 61 38v-84q-16 -33 -63 -33q-25 0 -65.5 17t-60.5 17q-40 0 -61 -38z" />
    <glyph glyph-name="Adieresis" unicode="&#xc4;" horiz-adv-x="646" 
d="M318 633l-95 -321h189l-89 321h-5zM228 85v-85h-223v85h62l174 580h-77v85h225l190 -665h62v-85h-142l-63 227h-238l-42 -142h72zM210 793q-27 0 -45 17.5t-18 43.5t18 44t45 18t45 -18t18 -44t-18 -43.5t-45 -17.5zM405 793q-27 0 -45 17.5t-18 43.5t18 44t45 18t45 -18
t18 -44t-18 -43.5t-45 -17.5z" />
    <glyph glyph-name="Aring" unicode="&#xc5;" horiz-adv-x="646" 
d="M318 633l-95 -321h189l-89 321h-5zM228 85v-85h-223v85h62l174 580h-77v85h225l190 -665h62v-85h-142l-63 227h-238l-42 -142h72zM309 785q-50 0 -79 24t-29 61q0 36 29 60t79 24q49 0 78.5 -24t29.5 -60t-30 -60.5t-78 -24.5zM310 837q20 0 33 9t13 23t-13 23t-34 9
q-47 0 -47 -32t48 -32z" />
    <glyph glyph-name="AE" unicode="&#xc6;" horiz-adv-x="973" 
d="M498 615h-4l-190 -321h194v321zM228 0h-223v85h79l343 580h-69v85h549v-199h-89v110h-219v-233h215v-89h-215v-250h232v125h89v-214h-505v85h83v125h-241l-75 -125h46v-85z" />
    <glyph glyph-name="Ccedilla" unicode="&#xc7;" horiz-adv-x="556" 
d="M350 -196q-50 0 -83 23v62q25 -22 64 -22q38 0 38 27q0 33 -66 33v66q-129 16 -196.5 114.5t-67.5 258.5q0 182 87 288t243 106q89 0 144 -25v-184h-89v118q-22 3 -48 3q-105 0 -168 -81.5t-63 -223.5q0 -138 58 -213t165 -75q93 0 145 43v-95q-56 -34 -145 -37v-26
q79 -12 79 -78q0 -37 -25 -59.5t-72 -22.5z" />
    <glyph glyph-name="Egrave" unicode="&#xc8;" 
d="M37 0v85h83v580h-83v85h492v-199h-89v110h-219v-233h215v-89h-215v-250h232v125h89v-214h-505zM269 797l-163 109h155l98 -109h-90z" />
    <glyph glyph-name="Eacute" unicode="&#xc9;" 
d="M37 0v85h83v580h-83v85h492v-199h-89v110h-219v-233h215v-89h-215v-250h232v125h89v-214h-505zM241 797l93 109h149l-157 -109h-85z" />
    <glyph glyph-name="Ecircumflex" unicode="&#xca;" 
d="M37 0v85h83v580h-83v85h492v-199h-89v110h-219v-233h215v-89h-215v-250h232v125h89v-214h-505zM140 797l126 116h70l125 -116h-103l-55 49h-5l-58 -49h-100z" />
    <glyph glyph-name="Edieresis" unicode="&#xcb;" 
d="M37 0v85h83v580h-83v85h492v-199h-89v110h-219v-233h215v-89h-215v-250h232v125h89v-214h-505zM204 793q-27 0 -45 17.5t-18 43.5t18 44t45 18t45 -18t18 -44t-18 -43.5t-45 -17.5zM399 793q-27 0 -45 17.5t-18 43.5t18 44t45 18t45 -18t18 -44t-18 -43.5t-45 -17.5z" />
    <glyph glyph-name="Igrave" unicode="&#xcc;" horiz-adv-x="340" 
d="M304 0h-267v85h83v580h-83v85h267v-85h-83v-580h83v-85zM132 797l-163 109h155l98 -109h-90z" />
    <glyph glyph-name="Iacute" unicode="&#xcd;" horiz-adv-x="340" 
d="M304 0h-267v85h83v580h-83v85h267v-85h-83v-580h83v-85zM125 797l93 109h149l-157 -109h-85z" />
    <glyph glyph-name="Icircumflex" unicode="&#xce;" horiz-adv-x="340" 
d="M304 0h-267v85h83v580h-83v85h267v-85h-83v-580h83v-85zM10 797l126 116h70l125 -116h-103l-55 49h-5l-58 -49h-100z" />
    <glyph glyph-name="Idieresis" unicode="&#xcf;" horiz-adv-x="340" 
d="M88 794q-28 0 -45.5 17.5t-17.5 43.5q0 25 17.5 43t45.5 18q27 0 45 -18t18 -43q0 -26 -18 -43.5t-45 -17.5zM249 794q-27 0 -44.5 17.5t-17.5 43.5q0 25 17.5 43t44.5 18q28 0 45.5 -18t17.5 -43q0 -26 -17.5 -43.5t-45.5 -17.5zM304 0h-267v85h83v580h-83v85h267v-85
h-83v-580h83v-85z" />
    <glyph glyph-name="Eth" unicode="&#xd0;" horiz-adv-x="682" 
d="M23 350v75h107v240h-83v85h225q178 0 274.5 -97.5t96.5 -276.5q0 -180 -97 -278t-274 -98h-225v85h83v265h-107zM231 88h41q125 0 195 73.5t70 214.5q0 142 -70 214t-195 72h-41v-237h113v-75h-113v-262z" />
    <glyph glyph-name="Ntilde" unicode="&#xd1;" horiz-adv-x="761" 
d="M302 85v-85h-265v85h83v580h-83v85h212l297 -555h6v555h175v-85h-83v-665h-90l-336 603h-6v-518h90zM265 790v84q18 33 66 33q24 0 64 -17t59 -17q43 0 61 38v-84q-16 -33 -63 -33q-25 0 -65.5 17t-60.5 17q-40 0 -61 -38z" />
    <glyph glyph-name="Ograve" unicode="&#xd2;" horiz-adv-x="693" 
d="M345 -10q-144 0 -225 103t-81 282q0 181 81 283t225 102q147 0 228 -101.5t81 -282.5t-81 -283.5t-228 -102.5zM346 78q96 0 149 77t53 221q0 143 -53 219.5t-149 76.5q-94 0 -147.5 -76.5t-53.5 -220.5q0 -143 53.5 -220t147.5 -77zM299 797l-163 109h155l98 -109h-90z
" />
    <glyph glyph-name="Oacute" unicode="&#xd3;" horiz-adv-x="693" 
d="M345 -10q-144 0 -225 103t-81 282q0 181 81 283t225 102q147 0 228 -101.5t81 -282.5t-81 -283.5t-228 -102.5zM346 78q96 0 149 77t53 221q0 143 -53 219.5t-149 76.5q-94 0 -147.5 -76.5t-53.5 -220.5q0 -143 53.5 -220t147.5 -77zM293 797l93 109h149l-157 -109h-85z
" />
    <glyph glyph-name="Ocircumflex" unicode="&#xd4;" horiz-adv-x="693" 
d="M345 -10q-144 0 -225 103t-81 282q0 181 81 283t225 102q147 0 228 -101.5t81 -282.5t-81 -283.5t-228 -102.5zM346 78q96 0 149 77t53 221q0 143 -53 219.5t-149 76.5q-94 0 -147.5 -76.5t-53.5 -220.5q0 -143 53.5 -220t147.5 -77zM186 797l126 116h70l125 -116h-103
l-55 49h-5l-58 -49h-100z" />
    <glyph glyph-name="Otilde" unicode="&#xd5;" horiz-adv-x="693" 
d="M345 -10q-144 0 -225 103t-81 282q0 181 81 283t225 102q147 0 228 -101.5t81 -282.5t-81 -283.5t-228 -102.5zM346 78q96 0 149 77t53 221q0 143 -53 219.5t-149 76.5q-94 0 -147.5 -76.5t-53.5 -220.5q0 -143 53.5 -220t147.5 -77zM223 790v84q18 33 66 33q24 0 64 -17
t59 -17q43 0 61 38v-84q-16 -33 -63 -33q-25 0 -65.5 17t-60.5 17q-40 0 -61 -38z" />
    <glyph glyph-name="Odieresis" unicode="&#xd6;" horiz-adv-x="693" 
d="M345 -10q-144 0 -225 103t-81 282q0 181 81 283t225 102q147 0 228 -101.5t81 -282.5t-81 -283.5t-228 -102.5zM346 78q96 0 149 77t53 221q0 143 -53 219.5t-149 76.5q-94 0 -147.5 -76.5t-53.5 -220.5q0 -143 53.5 -220t147.5 -77zM249 793q-27 0 -45 17.5t-18 43.5
t18 44t45 18t45 -18t18 -44t-18 -43.5t-45 -17.5zM444 793q-27 0 -45 17.5t-18 43.5t18 44t45 18t45 -18t18 -44t-18 -43.5t-45 -17.5z" />
    <glyph glyph-name="multiply" unicode="&#xd7;" horiz-adv-x="517" 
d="M399 153l-142 142l-140 -140l-57 56l140 141l-140 140l58 59l141 -141l138 139l57 -57l-138 -138l141 -142z" />
    <glyph glyph-name="Oslash" unicode="&#xd8;" horiz-adv-x="688" 
d="M345 -10q-100 0 -170 50l-57 -90h-81l88 137q-86 101 -86 288q0 181 81 283t225 102q104 0 177 -53l49 76h80l-79 -123q82 -100 82 -284q0 -181 -81 -283.5t-228 -102.5zM145 375q0 -124 39 -196l286 446q-50 47 -124 47q-94 0 -147.5 -76.5t-53.5 -220.5zM346 78
q96 0 149 77t53 221q0 115 -36 190l-285 -445q47 -43 119 -43z" />
    <glyph glyph-name="Ugrave" unicode="&#xd9;" horiz-adv-x="702" 
d="M602 272q0 -131 -62.5 -206.5t-192.5 -75.5q-128 0 -187.5 77t-59.5 206v392h-83v85h267v-85h-83v-386q0 -99 32 -148.5t115 -49.5q158 0 158 197v472h179v-85h-83v-393zM327 797l-163 109h155l98 -109h-90z" />
    <glyph glyph-name="Uacute" unicode="&#xda;" horiz-adv-x="702" 
d="M602 272q0 -131 -62.5 -206.5t-192.5 -75.5q-128 0 -187.5 77t-59.5 206v392h-83v85h267v-85h-83v-386q0 -99 32 -148.5t115 -49.5q158 0 158 197v472h179v-85h-83v-393zM313 797l93 109h149l-157 -109h-85z" />
    <glyph glyph-name="Ucircumflex" unicode="&#xdb;" horiz-adv-x="702" 
d="M602 272q0 -131 -62.5 -206.5t-192.5 -75.5q-128 0 -187.5 77t-59.5 206v392h-83v85h267v-85h-83v-386q0 -99 32 -148.5t115 -49.5q158 0 158 197v472h179v-85h-83v-393zM198 797l126 116h70l125 -116h-103l-55 49h-5l-58 -49h-100z" />
    <glyph glyph-name="Udieresis" unicode="&#xdc;" horiz-adv-x="702" 
d="M602 272q0 -131 -62.5 -206.5t-192.5 -75.5q-128 0 -187.5 77t-59.5 206v392h-83v85h267v-85h-83v-386q0 -99 32 -148.5t115 -49.5q158 0 158 197v472h179v-85h-83v-393zM261 793q-27 0 -45 17.5t-18 43.5t18 44t45 18t45 -18t18 -44t-18 -43.5t-45 -17.5zM456 793
q-27 0 -45 17.5t-18 43.5t18 44t45 18t45 -18t18 -44t-18 -43.5t-45 -17.5z" />
    <glyph glyph-name="Yacute" unicode="&#xdd;" horiz-adv-x="630" 
d="M467 0h-287v85h93v229l-195 351h-75v85h143l182 -334h5l126 249h-63v85h231v-85h-72l-181 -350v-230h93v-85zM261 797l93 109h149l-157 -109h-85z" />
    <glyph glyph-name="Thorn" unicode="&#xde;" horiz-adv-x="578" 
d="M301 0h-264v80h83v593h-83v80h264v-80h-80v-53q157 -2 243.5 -64t86.5 -180q0 -119 -86.5 -179.5t-243.5 -61.5v-55h80v-80zM221 221q224 0 224 155q0 158 -224 158v-313z" />
    <glyph glyph-name="germandbls" unicode="&#xdf;" horiz-adv-x="584" 
d="M390 -10q-90 0 -133 35v93q51 -42 119 -42q80 0 80 84q0 32 -16.5 56t-40.5 39t-48 29.5t-40.5 35.5t-16.5 49t16.5 52.5t37 42t37 49.5t16.5 73q0 91 -91 91q-41 0 -69 -28t-28 -94v-555h-173v78h77v347h-77v78h77v60q0 106 57.5 153t136.5 47q96 0 143.5 -47t47.5 -120
q0 -45 -16.5 -82t-36.5 -56.5t-36.5 -40t-16.5 -36.5q0 -17 16.5 -32.5t40 -31t47.5 -35t40.5 -52.5t16.5 -76q0 -72 -41 -118t-126 -46z" />
    <glyph glyph-name="agrave" unicode="&#xe0;" horiz-adv-x="532" 
d="M215 70q49 0 82 36.5t33 103.5v23q-103 0 -146 -22t-43 -74q0 -29 19 -48t55 -19zM329 79q-26 -45 -58 -67t-87 -22q-68 0 -106 38.5t-38 99.5q0 89 71 130.5t219 41.5v23q0 107 -118 107q-75 0 -141 -45v91q60 37 156 37q199 0 199 -192v-243h77v-78h-168v79h-6z
M218 577l-122 146h145l60 -146h-83z" />
    <glyph glyph-name="aacute" unicode="&#xe1;" horiz-adv-x="532" 
d="M215 70q49 0 82 36.5t33 103.5v23q-103 0 -146 -22t-43 -74q0 -29 19 -48t55 -19zM329 79q-26 -45 -58 -67t-87 -22q-68 0 -106 38.5t-38 99.5q0 89 71 130.5t219 41.5v23q0 107 -118 107q-75 0 -141 -45v91q60 37 156 37q199 0 199 -192v-243h77v-78h-168v79h-6z
M210 577l73 146h139l-127 -146h-85z" />
    <glyph glyph-name="acircumflex" unicode="&#xe2;" horiz-adv-x="532" 
d="M215 70q49 0 82 36.5t33 103.5v23q-103 0 -146 -22t-43 -74q0 -29 19 -48t55 -19zM329 79q-26 -45 -58 -67t-87 -22q-68 0 -106 38.5t-38 99.5q0 89 71 130.5t219 41.5v23q0 107 -118 107q-75 0 -141 -45v91q60 37 156 37q199 0 199 -192v-243h77v-78h-168v79h-6zM99 570
l118 153h77l118 -153h-95l-59 74h-5l-59 -74h-95z" />
    <glyph glyph-name="atilde" unicode="&#xe3;" horiz-adv-x="532" 
d="M215 70q49 0 82 36.5t33 103.5v23q-103 0 -146 -22t-43 -74q0 -29 19 -48t55 -19zM329 79q-26 -45 -58 -67t-87 -22q-68 0 -106 38.5t-38 99.5q0 89 71 130.5t219 41.5v23q0 107 -118 107q-75 0 -141 -45v91q60 37 156 37q199 0 199 -192v-243h77v-78h-168v79h-6z
M123 587v86q18 33 65 33q25 0 65.5 -17t60.5 -17q41 0 59 38v-87q-14 -32 -61 -32q-25 0 -66.5 16.5t-62.5 16.5q-37 0 -60 -37z" />
    <glyph glyph-name="adieresis" unicode="&#xe4;" horiz-adv-x="532" 
d="M215 70q49 0 82 36.5t33 103.5v23q-103 0 -146 -22t-43 -74q0 -29 19 -48t55 -19zM329 79q-26 -45 -58 -67t-87 -22q-68 0 -106 38.5t-38 99.5q0 89 71 130.5t219 41.5v23q0 107 -118 107q-75 0 -141 -45v91q60 37 156 37q199 0 199 -192v-243h77v-78h-168v79h-6z
M139 584q-27 0 -46.5 19t-19.5 47q0 27 19.5 46.5t46.5 19.5t46.5 -19.5t19.5 -46.5q0 -28 -19.5 -47t-46.5 -19zM340 584q-28 0 -46.5 19t-18.5 47q0 27 19 46.5t46 19.5q26 0 46 -19.5t20 -46.5t-19.5 -46.5t-46.5 -19.5z" />
    <glyph glyph-name="aring" unicode="&#xe5;" horiz-adv-x="532" 
d="M215 70q49 0 82 36.5t33 103.5v23q-103 0 -146 -22t-43 -74q0 -29 19 -48t55 -19zM329 79q-26 -45 -58 -67t-87 -22q-68 0 -106 38.5t-38 99.5q0 89 71 130.5t219 41.5v23q0 107 -118 107q-75 0 -141 -45v91q60 37 156 37q199 0 199 -192v-243h77v-78h-168v79h-6z
M247 556q-42 0 -71 27t-29 67t29 66t71 26q39 0 69 -26.5t30 -65.5t-30 -66.5t-69 -27.5zM247 617q14 0 25 9.5t11 23.5t-11 23t-25 9q-15 0 -25.5 -9t-10.5 -23q0 -15 10.5 -24t25.5 -9z" />
    <glyph glyph-name="ae" unicode="&#xe6;" horiz-adv-x="822" 
d="M599 -10q-73 0 -127 30.5t-79 83.5h-7q-32 -65 -76.5 -89.5t-114.5 -24.5q-74 0 -114.5 38.5t-40.5 99.5q0 86 75.5 128t235.5 42v24q0 107 -122 107q-90 0 -158 -45v92q62 37 171 37q119 0 166 -88h6q52 88 164 88q93 0 150 -52t57 -154q0 -44 -6 -64h-325
q0 -83 41 -125.5t116 -42.5q98 0 157 48v-90q-55 -43 -169 -43zM453 312h234q-3 65 -34.5 94t-79.5 29q-101 0 -120 -123zM228 70q50 0 86.5 37t36.5 103v23q-112 0 -161 -22t-49 -72q0 -31 21 -50t66 -19z" />
    <glyph glyph-name="ccedilla" unicode="&#xe7;" horiz-adv-x="466" 
d="M267 -196q-50 0 -83 23v62q25 -22 64 -22q38 0 38 27q0 33 -66 33v69q-89 17 -136 82.5t-47 171.5q0 122 67.5 192.5t176.5 70.5q81 0 133 -26h2v-164h-80v102q-23 4 -50 4q-67 0 -107.5 -45.5t-40.5 -132.5q0 -89 41 -133t111 -44q79 0 126 39v-92q-48 -30 -131 -31v-26
q79 -12 79 -78q0 -37 -25 -59.5t-72 -22.5z" />
    <glyph glyph-name="egrave" unicode="&#xe8;" horiz-adv-x="496" 
d="M280 -10q-116 0 -179.5 65.5t-63.5 194.5q0 122 61 192.5t161 70.5q91 0 145.5 -53t54.5 -153q0 -50 -6 -65h-311q1 -169 151 -169q91 0 150 48v-88q-53 -43 -163 -43zM141 313h221q-1 62 -30.5 92t-77.5 30q-96 0 -113 -122zM223 577l-122 146h145l60 -146h-83z" />
    <glyph glyph-name="eacute" unicode="&#xe9;" horiz-adv-x="496" 
d="M280 -10q-116 0 -179.5 65.5t-63.5 194.5q0 122 61 192.5t161 70.5q91 0 145.5 -53t54.5 -153q0 -50 -6 -65h-311q1 -169 151 -169q91 0 150 48v-88q-53 -43 -163 -43zM141 313h221q-1 62 -30.5 92t-77.5 30q-96 0 -113 -122zM204 577l73 146h139l-127 -146h-85z" />
    <glyph glyph-name="ecircumflex" unicode="&#xea;" horiz-adv-x="496" 
d="M280 -10q-116 0 -179.5 65.5t-63.5 194.5q0 122 61 192.5t161 70.5q91 0 145.5 -53t54.5 -153q0 -50 -6 -65h-311q1 -169 151 -169q91 0 150 48v-88q-53 -43 -163 -43zM141 313h221q-1 62 -30.5 92t-77.5 30q-96 0 -113 -122zM102 570l118 153h77l118 -153h-95l-59 74h-5
l-59 -74h-95z" />
    <glyph glyph-name="edieresis" unicode="&#xeb;" horiz-adv-x="496" 
d="M280 -10q-116 0 -179.5 65.5t-63.5 194.5q0 122 61 192.5t161 70.5q91 0 145.5 -53t54.5 -153q0 -50 -6 -65h-311q1 -169 151 -169q91 0 150 48v-88q-53 -43 -163 -43zM141 313h221q-1 62 -30.5 92t-77.5 30q-96 0 -113 -122zM156 584q-27 0 -46.5 19t-19.5 47
q0 27 19.5 46.5t46.5 19.5t46.5 -19.5t19.5 -46.5q0 -28 -19.5 -47t-46.5 -19zM357 584q-28 0 -46.5 19t-18.5 47q0 27 19 46.5t46 19.5q26 0 46 -19.5t20 -46.5t-19.5 -46.5t-46.5 -19.5z" />
    <glyph glyph-name="igrave" unicode="&#xec;" horiz-adv-x="313" 
d="M103 0v425h-76v78h172v-425h77v-78h-173zM116 577l-122 146h145l60 -146h-83z" />
    <glyph glyph-name="iacute" unicode="&#xed;" horiz-adv-x="313" 
d="M103 0v425h-76v78h172v-425h77v-78h-173zM92 577l73 146h139l-127 -146h-85z" />
    <glyph glyph-name="icircumflex" unicode="&#xee;" horiz-adv-x="313" 
d="M103 0v425h-76v78h172v-425h77v-78h-173zM-31 570l118 153h77l118 -153h-95l-59 74h-5l-59 -74h-95z" />
    <glyph glyph-name="idieresis" unicode="&#xef;" horiz-adv-x="313" 
d="M45 591q-25 0 -42 18.5t-17 47.5q0 27 17 46t42 19q26 0 42.5 -19t16.5 -46q0 -29 -16.5 -47.5t-42.5 -18.5zM204 591q-27 0 -43 18.5t-16 47.5q0 28 16.5 46.5t42.5 18.5q25 0 42 -19t17 -46q0 -28 -17 -47t-42 -19zM103 0v425h-76v78h172v-425h77v-78h-173z" />
    <glyph glyph-name="eth" unicode="&#xf0;" horiz-adv-x="566" 
d="M284 -10q-112 0 -179.5 74t-67.5 190q0 114 61 187t166 73q108 0 156 -93h8q-17 125 -107 197l-153 -72v61l98 46q-36 18 -81 30v77q94 -19 167 -66l141 66v-61l-93 -44q129 -122 129 -353q0 -157 -66 -234.5t-179 -77.5zM283 74q68 0 106 52t38 130q0 81 -39.5 128
t-103.5 47q-65 0 -105.5 -47.5t-40.5 -131.5q0 -81 40.5 -129.5t104.5 -48.5z" />
    <glyph glyph-name="ntilde" unicode="&#xf1;" horiz-adv-x="607" 
d="M284 78v-78h-244v78h77v347h-77v78h168v-71h7q49 81 142 81q147 0 147 -180v-255h77v-78h-173v295q0 68 -22.5 100t-70.5 32q-46 0 -74 -33.5t-28 -91.5v-224h71zM172 587v86q18 33 65 33q25 0 65.5 -17t60.5 -17q41 0 59 38v-87q-14 -32 -61 -32q-25 0 -66.5 16.5
t-62.5 16.5q-37 0 -60 -37z" />
    <glyph glyph-name="ograve" unicode="&#xf2;" horiz-adv-x="537" 
d="M268 -10q-102 0 -166.5 69.5t-64.5 190.5t65 192t166 71t166.5 -70.5t65.5 -191.5q0 -122 -65 -191.5t-167 -69.5zM268 74q58 0 94.5 44.5t36.5 132.5t-37 133t-94 45q-58 0 -94 -45t-36 -134q0 -88 36 -132t94 -44zM234 577l-122 146h145l60 -146h-83z" />
    <glyph glyph-name="oacute" unicode="&#xf3;" horiz-adv-x="537" 
d="M268 -10q-102 0 -166.5 69.5t-64.5 190.5t65 192t166 71t166.5 -70.5t65.5 -191.5q0 -122 -65 -191.5t-167 -69.5zM268 74q58 0 94.5 44.5t36.5 132.5t-37 133t-94 45q-58 0 -94 -45t-36 -134q0 -88 36 -132t94 -44zM238 577l73 146h139l-127 -146h-85z" />
    <glyph glyph-name="ocircumflex" unicode="&#xf4;" horiz-adv-x="537" 
d="M268 -10q-102 0 -166.5 69.5t-64.5 190.5t65 192t166 71t166.5 -70.5t65.5 -191.5q0 -122 -65 -191.5t-167 -69.5zM268 74q58 0 94.5 44.5t36.5 132.5t-37 133t-94 45q-58 0 -94 -45t-36 -134q0 -88 36 -132t94 -44zM118 570l118 153h77l118 -153h-95l-59 74h-5l-59 -74
h-95z" />
    <glyph glyph-name="otilde" unicode="&#xf5;" horiz-adv-x="537" 
d="M268 -10q-102 0 -166.5 69.5t-64.5 190.5t65 192t166 71t166.5 -70.5t65.5 -191.5q0 -122 -65 -191.5t-167 -69.5zM268 74q58 0 94.5 44.5t36.5 132.5t-37 133t-94 45q-58 0 -94 -45t-36 -134q0 -88 36 -132t94 -44zM143 586v86q18 33 65 33q25 0 65.5 -17t60.5 -17
q41 0 59 38v-87q-14 -32 -61 -32q-25 0 -66.5 16.5t-62.5 16.5q-37 0 -60 -37z" />
    <glyph glyph-name="odieresis" unicode="&#xf6;" horiz-adv-x="537" 
d="M268 -10q-102 0 -166.5 69.5t-64.5 190.5t65 192t166 71t166.5 -70.5t65.5 -191.5q0 -122 -65 -191.5t-167 -69.5zM268 74q58 0 94.5 44.5t36.5 132.5t-37 133t-94 45q-58 0 -94 -45t-36 -134q0 -88 36 -132t94 -44zM167 584q-27 0 -46.5 19t-19.5 47q0 27 19.5 46.5
t46.5 19.5t46.5 -19.5t19.5 -46.5q0 -28 -19.5 -47t-46.5 -19zM368 584q-28 0 -46.5 19t-18.5 47q0 27 19 46.5t46 19.5q26 0 46 -19.5t20 -46.5t-19.5 -46.5t-46.5 -19.5z" />
    <glyph glyph-name="divide" unicode="&#xf7;" horiz-adv-x="561" 
d="M279 475q-28 0 -47.5 19.5t-19.5 47.5t19 47.5t48 19.5q28 0 47.5 -19.5t19.5 -47.5t-19.5 -47.5t-47.5 -19.5zM60 315v79h441v-79h-441zM279 96q-28 0 -47.5 19.5t-19.5 47.5q0 29 19 48t48 19q28 0 47.5 -19.5t19.5 -47.5t-19.5 -47.5t-47.5 -19.5z" />
    <glyph glyph-name="oslash" unicode="&#xf8;" horiz-adv-x="544" 
d="M137 250q0 -68 23 -114l175 276q-29 20 -67 20q-58 0 -94.5 -45.5t-36.5 -136.5zM268 71q59 0 95.5 44.5t36.5 135.5q0 67 -22 111l-174 -274q27 -17 64 -17zM268 -10q-59 0 -109 25l-48 -75h-74l71 113q-71 71 -71 197q0 121 65 192t166 71q61 0 112 -28l52 82h75
l-76 -121q69 -72 69 -195q0 -122 -65 -191.5t-167 -69.5z" />
    <glyph glyph-name="ugrave" unicode="&#xf9;" horiz-adv-x="604" 
d="M393 71q-49 -81 -142 -81q-147 0 -147 180v255h-77v78h173v-295q0 -68 22.5 -100t70.5 -32q46 0 74 33.5t28 91.5v224h-77v78h173v-425h77v-78h-168v71h-7zM242 577l-122 146h145l60 -146h-83z" />
    <glyph glyph-name="uacute" unicode="&#xfa;" horiz-adv-x="604" 
d="M393 71q-49 -81 -142 -81q-147 0 -147 180v255h-77v78h173v-295q0 -68 22.5 -100t70.5 -32q46 0 74 33.5t28 91.5v224h-77v78h173v-425h77v-78h-168v71h-7zM222 577l73 146h139l-127 -146h-85z" />
    <glyph glyph-name="ucircumflex" unicode="&#xfb;" horiz-adv-x="604" 
d="M393 71q-49 -81 -142 -81q-147 0 -147 180v255h-77v78h173v-295q0 -68 22.5 -100t70.5 -32q46 0 74 33.5t28 91.5v224h-77v78h173v-425h77v-78h-168v71h-7zM117 570l118 153h77l118 -153h-95l-59 74h-5l-59 -74h-95z" />
    <glyph glyph-name="udieresis" unicode="&#xfc;" horiz-adv-x="604" 
d="M393 71q-49 -81 -142 -81q-147 0 -147 180v255h-77v78h173v-295q0 -68 22.5 -100t70.5 -32q46 0 74 33.5t28 91.5v224h-77v78h173v-425h77v-78h-168v71h-7zM167 584q-27 0 -46.5 19t-19.5 47q0 27 19.5 46.5t46.5 19.5t46.5 -19.5t19.5 -46.5q0 -28 -19.5 -47t-46.5 -19z
M368 584q-28 0 -46.5 19t-18.5 47q0 27 19 46.5t46 19.5q26 0 46 -19.5t20 -46.5t-19.5 -46.5t-46.5 -19.5z" />
    <glyph glyph-name="yacute" unicode="&#xfd;" horiz-adv-x="527" 
d="M318 -250h-228v78h72l61 166l-161 431h-57v78h129l134 -377h8l101 299h-57v78h202v-78h-55l-214 -597h65v-78zM214 577l73 146h139l-127 -146h-85z" />
    <glyph glyph-name="thorn" unicode="&#xfe;" horiz-adv-x="589" 
d="M330 74q53 0 87 44.5t34 134.5q0 87 -34.5 131.5t-87.5 44.5q-60 0 -96.5 -35t-36.5 -102v-70q0 -71 38 -109.5t96 -38.5zM280 -250h-257v78h77v844h-77v78h172v-248l-5 -70h7q49 81 161 81q86 0 140 -71t54 -189q0 -123 -53.5 -193t-141.5 -70q-105 0 -159 80h-7l5 -80
v-162h84v-78z" />
    <glyph glyph-name="ydieresis" unicode="&#xff;" horiz-adv-x="527" 
d="M318 -250h-228v78h72l61 166l-161 431h-57v78h129l134 -377h8l101 299h-57v78h202v-78h-55l-214 -597h65v-78zM153 584q-27 0 -46.5 19t-19.5 47q0 27 19.5 46.5t46.5 19.5t46.5 -19.5t19.5 -46.5q0 -28 -19.5 -47t-46.5 -19zM354 584q-28 0 -46.5 19t-18.5 47
q0 27 19 46.5t46 19.5q26 0 46 -19.5t20 -46.5t-19.5 -46.5t-46.5 -19.5z" />
    <glyph glyph-name="Amacron" unicode="&#x100;" horiz-adv-x="646" 
d="M318 633l-95 -321h189l-89 321h-5zM228 85v-85h-223v85h62l174 580h-77v85h225l190 -665h62v-85h-142l-63 227h-238l-42 -142h72zM183 816v73h247v-73h-247z" />
    <glyph glyph-name="amacron" unicode="&#x101;" horiz-adv-x="528" 
d="M215 70q49 0 82 36.5t33 103.5v23q-103 0 -146 -22t-43 -74q0 -29 19 -48t55 -19zM329 79q-26 -45 -58 -67t-87 -22q-68 0 -106 38.5t-38 99.5q0 89 71 130.5t219 41.5v23q0 107 -118 107q-75 0 -141 -45v91q60 37 156 37q199 0 199 -192v-243h77v-78h-168v79h-6z
M127 616v73h253v-73h-253z" />
    <glyph glyph-name="Abreve" unicode="&#x102;" horiz-adv-x="646" 
d="M318 633l-95 -321h189l-89 321h-5zM228 85v-85h-223v85h62l174 580h-77v85h225l190 -665h62v-85h-142l-63 227h-238l-42 -142h72zM311 788q-66 0 -105.5 32t-39.5 94h79q0 -62 66 -62t66 62h79q0 -62 -39.5 -94t-105.5 -32z" />
    <glyph glyph-name="abreve" unicode="&#x103;" horiz-adv-x="528" 
d="M215 70q49 0 82 36.5t33 103.5v23q-103 0 -146 -22t-43 -74q0 -29 19 -48t55 -19zM329 79q-26 -45 -58 -67t-87 -22q-68 0 -106 38.5t-38 99.5q0 89 71 130.5t219 41.5v23q0 107 -118 107q-75 0 -141 -45v91q60 37 156 37q199 0 199 -192v-243h77v-78h-168v79h-6z
M247 575q-67 0 -108 37t-41 104h84q0 -69 65 -69q33 0 49.5 19t16.5 50h83q0 -68 -40.5 -104.5t-108.5 -36.5z" />
    <glyph glyph-name="Aogonek" unicode="&#x104;" horiz-adv-x="646" 
d="M593 -151q-45 0 -70 20t-25 56q0 51 42 75h-41l-63 227h-238l-42 -142h72v-85h-223v85h62l174 580h-77v85h225l190 -665h62v-85h-12q-25 0 -41 -11.5t-16 -32.5q0 -36 43 -36q35 0 51 22v-69q-18 -24 -73 -24zM318 633l-95 -321h189l-89 321h-5z" />
    <glyph glyph-name="aogonek" unicode="&#x105;" horiz-adv-x="528" 
d="M455 -151q-45 0 -70 20t-25 56q0 51 42 75h-67v79h-6q-26 -45 -58 -67t-87 -22q-68 0 -106 38.5t-38 99.5q0 89 71 130.5t219 41.5v23q0 107 -118 107q-75 0 -141 -45v91q60 37 156 37q199 0 199 -192v-243h77v-78h-12q-25 0 -41 -11.5t-16 -32.5q0 -36 43 -36
q35 0 51 22v-69q-18 -24 -73 -24zM215 70q49 0 82 36.5t33 103.5v23q-103 0 -146 -22t-43 -74q0 -29 19 -48t55 -19z" />
    <glyph glyph-name="Cacute" unicode="&#x106;" horiz-adv-x="559" 
d="M513 27q-61 -37 -161 -37q-152 0 -232.5 100.5t-80.5 275.5q0 182 87 288t243 106q89 0 144 -25v-184h-89v118q-22 3 -48 3q-105 0 -168 -81.5t-63 -223.5q0 -138 58 -213t165 -75q93 0 145 43v-95zM292 797l93 109h149l-157 -109h-85z" />
    <glyph glyph-name="cacute" unicode="&#x107;" horiz-adv-x="466" 
d="M416 21q-50 -31 -134 -31q-117 0 -181 68t-64 192q0 122 67.5 192.5t176.5 70.5q81 0 133 -26h2v-164h-80v102q-23 4 -50 4q-67 0 -107.5 -45.5t-40.5 -132.5q0 -89 41 -133t111 -44q79 0 126 39v-92zM219 577l73 146h139l-127 -146h-85z" />
    <glyph glyph-name="Ccircumflex" unicode="&#x108;" horiz-adv-x="556" 
d="M513 27q-61 -37 -161 -37q-152 0 -232.5 100.5t-80.5 275.5q0 182 87 288t243 106q89 0 144 -25v-184h-89v118q-22 3 -48 3q-105 0 -168 -81.5t-63 -223.5q0 -138 58 -213t165 -75q93 0 145 43v-95zM179 797l126 116h70l125 -116h-103l-55 49h-5l-58 -49h-100z" />
    <glyph glyph-name="ccircumflex" unicode="&#x109;" horiz-adv-x="466" 
d="M416 21q-50 -31 -134 -31q-117 0 -181 68t-64 192q0 122 67.5 192.5t176.5 70.5q81 0 133 -26h2v-164h-80v102q-23 4 -50 4q-67 0 -107.5 -45.5t-40.5 -132.5q0 -89 41 -133t111 -44q79 0 126 39v-92zM109 570l118 153h77l118 -153h-95l-59 74h-5l-59 -74h-95z" />
    <glyph glyph-name="Cdotaccent" unicode="&#x10a;" horiz-adv-x="556" 
d="M513 27q-61 -37 -161 -37q-152 0 -232.5 100.5t-80.5 275.5q0 182 87 288t243 106q89 0 144 -25v-184h-89v118q-22 3 -48 3q-105 0 -168 -81.5t-63 -223.5q0 -138 58 -213t165 -75q93 0 145 43v-95zM338 794q-29 0 -46.5 17.5t-17.5 43.5q0 27 17.5 44t46.5 17
q28 0 46.5 -17.5t18.5 -43.5t-18.5 -43.5t-46.5 -17.5z" />
    <glyph glyph-name="cdotaccent" unicode="&#x10b;" horiz-adv-x="466" 
d="M416 21q-50 -31 -134 -31q-117 0 -181 68t-64 192q0 122 67.5 192.5t176.5 70.5q81 0 133 -26h2v-164h-80v102q-23 4 -50 4q-67 0 -107.5 -45.5t-40.5 -132.5q0 -89 41 -133t111 -44q79 0 126 39v-92zM273 584q-28 0 -47.5 19.5t-19.5 47.5q0 27 19.5 46t47.5 19
q27 0 47 -19t20 -46t-20 -47t-47 -20z" />
    <glyph glyph-name="Ccaron" unicode="&#x10c;" horiz-adv-x="556" 
d="M513 27q-61 -37 -161 -37q-152 0 -232.5 100.5t-80.5 275.5q0 182 87 288t243 106q89 0 144 -25v-184h-89v118q-22 3 -48 3q-105 0 -168 -81.5t-63 -223.5q0 -138 58 -213t165 -75q93 0 145 43v-95zM302 797l-126 116h101l58 -49h4l56 49h102l-125 -116h-70z" />
    <glyph glyph-name="ccaron" unicode="&#x10d;" horiz-adv-x="466" 
d="M416 21q-50 -31 -134 -31q-117 0 -181 68t-64 192q0 122 67.5 192.5t176.5 70.5q81 0 133 -26h2v-164h-80v102q-23 4 -50 4q-67 0 -107.5 -45.5t-40.5 -132.5q0 -89 41 -133t111 -44q79 0 126 39v-92zM218 570l-122 153h101l61 -74h4l59 74h101l-120 -153h-84z" />
    <glyph glyph-name="Dcaron" unicode="&#x10e;" horiz-adv-x="672" 
d="M37 0v85h83v580h-83v85h225q178 0 274.5 -97.5t96.5 -276.5q0 -180 -97 -278t-274 -98h-225zM221 88h41q125 0 195 73.5t70 214.5q0 142 -70 214t-195 72h-41v-574zM239 797l-126 116h101l58 -49h4l56 49h102l-125 -116h-70z" />
    <glyph glyph-name="dcaron" unicode="&#x10f;" horiz-adv-x="609" 
d="M271 74q52 0 87.5 37t35.5 110v69q0 65 -33.5 102t-87.5 37q-60 0 -97.5 -44.5t-37.5 -133.5t37 -133t96 -44zM392 70q-47 -80 -153 -80q-92 0 -147 69t-55 190t57.5 192.5t152.5 71.5q101 0 145 -80h7l-5 77v162h-77v78h173v-672h77v-78h-168v70h-7zM577 559l27 79
q-23 3 -37 20.5t-14 41.5q0 26 18 44.5t45 18.5q39 0 54.5 -31.5t0.5 -72.5l-38 -100h-56z" />
    <glyph glyph-name="Dcroat" unicode="&#x110;" horiz-adv-x="682" 
d="M23 350v75h107v240h-83v85h225q178 0 274.5 -97.5t96.5 -276.5q0 -180 -97 -278t-274 -98h-225v85h83v265h-107zM231 88h41q125 0 195 73.5t70 214.5q0 142 -70 214t-195 72h-41v-237h113v-75h-113v-262z" />
    <glyph glyph-name="dcroat" unicode="&#x111;" horiz-adv-x="608" 
d="M271 74q52 0 87.5 37t35.5 110v69q0 65 -33.5 102t-87.5 37q-60 0 -97.5 -44.5t-37.5 -133.5t37 -133t96 -44zM392 70q-47 -80 -153 -80q-92 0 -147 69t-55 190t57.5 192.5t152.5 71.5q101 0 145 -80h7l-5 77v75h-136v72h136v93h96v-93h87v-72h-87v-507h77v-78h-168v70
h-7z" />
    <glyph glyph-name="Emacron" unicode="&#x112;" 
d="M37 0v85h83v580h-83v85h492v-199h-89v110h-219v-233h215v-89h-215v-250h232v125h89v-214h-505zM180 816v73h247v-73h-247z" />
    <glyph glyph-name="emacron" unicode="&#x113;" horiz-adv-x="496" 
d="M280 -10q-116 0 -179.5 65.5t-63.5 194.5q0 122 61 192.5t161 70.5q91 0 145.5 -53t54.5 -153q0 -50 -6 -65h-311q1 -169 151 -169q91 0 150 48v-88q-53 -43 -163 -43zM141 313h221q-1 62 -30.5 92t-77.5 30q-96 0 -113 -122zM134 617v73h253v-73h-253z" />
    <glyph glyph-name="Ebreve" unicode="&#x114;" 
d="M37 0v85h83v580h-83v85h492v-199h-89v110h-219v-233h215v-89h-215v-250h232v125h89v-214h-505zM307 788q-66 0 -105.5 32t-39.5 94h79q0 -62 66 -62t66 62h79q0 -62 -39.5 -94t-105.5 -32z" />
    <glyph glyph-name="ebreve" unicode="&#x115;" horiz-adv-x="496" 
d="M280 -10q-116 0 -179.5 65.5t-63.5 194.5q0 122 61 192.5t161 70.5q91 0 145.5 -53t54.5 -153q0 -50 -6 -65h-311q1 -169 151 -169q91 0 150 48v-88q-53 -43 -163 -43zM141 313h221q-1 62 -30.5 92t-77.5 30q-96 0 -113 -122zM253 575q-67 0 -108 37t-41 104h84
q0 -69 65 -69q33 0 49.5 19t16.5 50h83q0 -68 -40.5 -104.5t-108.5 -36.5z" />
    <glyph glyph-name="Edotaccent" unicode="&#x116;" 
d="M37 0v85h83v580h-83v85h492v-199h-89v110h-219v-233h215v-89h-215v-250h232v125h89v-214h-505zM313 794q-29 0 -46.5 17.5t-17.5 43.5q0 27 17.5 44t46.5 17q28 0 46.5 -17.5t18.5 -43.5t-18.5 -43.5t-46.5 -17.5z" />
    <glyph glyph-name="edotaccent" unicode="&#x117;" horiz-adv-x="496" 
d="M280 -10q-116 0 -179.5 65.5t-63.5 194.5q0 122 61 192.5t161 70.5q91 0 145.5 -53t54.5 -153q0 -50 -6 -65h-311q1 -169 151 -169q91 0 150 48v-88q-53 -43 -163 -43zM141 313h221q-1 62 -30.5 92t-77.5 30q-96 0 -113 -122zM255 583q-28 0 -47.5 19.5t-19.5 47.5
q0 27 19.5 46t47.5 19q27 0 47 -19t20 -46t-20 -47t-47 -20z" />
    <glyph glyph-name="Eogonek" unicode="&#x118;" 
d="M37 0v85h83v580h-83v85h492v-199h-89v110h-219v-233h215v-89h-215v-250h232v125h89v-214h-16q-24 -1 -38 -12.5t-14 -31.5q0 -36 43 -36q35 0 51 22v-69q-18 -24 -73 -24q-45 0 -70 20t-25 56q0 51 42 75h-405z" />
    <glyph glyph-name="eogonek" unicode="&#x119;" horiz-adv-x="496" 
d="M280 -10q-116 0 -179.5 65.5t-63.5 194.5q0 122 61 192.5t161 70.5q91 0 145.5 -53t54.5 -153q0 -50 -6 -65h-311q1 -169 151 -169q91 0 150 48v-88q-17 -14 -47 -25q-44 -20 -44 -53q0 -35 43 -35q34 0 50 22v-69q-18 -24 -73 -24q-47 0 -71 21t-24 54q0 40 34 67
q-5 0 -15.5 -0.5t-15.5 -0.5zM141 313h221q-1 62 -30.5 92t-77.5 30q-96 0 -113 -122z" />
    <glyph glyph-name="Ecaron" unicode="&#x11a;" 
d="M37 0v85h83v580h-83v85h492v-199h-89v110h-219v-233h215v-89h-215v-250h232v125h89v-214h-505zM273 797l-126 116h101l58 -49h4l56 49h102l-125 -116h-70z" />
    <glyph glyph-name="ecaron" unicode="&#x11b;" horiz-adv-x="496" 
d="M280 -10q-116 0 -179.5 65.5t-63.5 194.5q0 122 61 192.5t161 70.5q91 0 145.5 -53t54.5 -153q0 -50 -6 -65h-311q1 -169 151 -169q91 0 150 48v-88q-53 -43 -163 -43zM141 313h221q-1 62 -30.5 92t-77.5 30q-96 0 -113 -122zM214 570l-122 153h101l61 -74h4l59 74h101
l-120 -153h-84z" />
    <glyph glyph-name="Gcircumflex" unicode="&#x11c;" horiz-adv-x="635" 
d="M572 21q-63 -31 -185 -31q-171 0 -259.5 101t-88.5 284q0 180 94.5 282.5t253.5 102.5q41 0 94 -7t78 -18v-184h-89v115q-36 6 -74 6q-114 0 -182.5 -80.5t-68.5 -218.5q0 -140 61.5 -218.5t182.5 -78.5q43 0 83 8v207h-145v84h245v-354zM210 797l126 116h70l125 -116
h-103l-55 49h-5l-58 -49h-100z" />
    <glyph glyph-name="gcircumflex" unicode="&#x11d;" horiz-adv-x="513" 
d="M240 218q44 0 72.5 29.5t28.5 82.5t-28.5 82t-72.5 29t-72 -29.5t-28 -83.5q0 -52 28 -81t72 -29zM491 -87q0 -82 -64.5 -127.5t-173.5 -45.5q-106 0 -168 38t-62 109q0 87 95 125q-41 23 -41 71q0 60 67 85q-49 20 -76.5 61.5t-27.5 99.5q0 85 55.5 134.5t144.5 49.5
q66 0 116 -28l142 18v-83l-79 1q22 -39 22 -91q0 -84 -55.5 -132t-145.5 -48h-1q-70 0 -70 -39q0 -14 8 -23t25.5 -13.5t35.5 -6.5t48 -3q101 -5 153 -40t52 -112zM265 -192q63 0 101 24t38 69q0 43 -35 61.5t-106 21.5q-55 2 -92 9q-54 -28 -54 -83q0 -50 40 -76t108 -26z
M91 570l118 153h77l118 -153h-95l-59 74h-5l-59 -74h-95z" />
    <glyph glyph-name="Gbreve" unicode="&#x11e;" horiz-adv-x="635" 
d="M572 21q-63 -31 -185 -31q-171 0 -259.5 101t-88.5 284q0 180 94.5 282.5t253.5 102.5q41 0 94 -7t78 -18v-184h-89v115q-36 6 -74 6q-114 0 -182.5 -80.5t-68.5 -218.5q0 -140 61.5 -218.5t182.5 -78.5q43 0 83 8v207h-145v84h245v-354zM373 788q-66 0 -105.5 32
t-39.5 94h79q0 -62 66 -62t66 62h79q0 -62 -39.5 -94t-105.5 -32z" />
    <glyph glyph-name="gbreve" unicode="&#x11f;" horiz-adv-x="513" 
d="M240 218q44 0 72.5 29.5t28.5 82.5t-28.5 82t-72.5 29t-72 -29.5t-28 -83.5q0 -52 28 -81t72 -29zM491 -87q0 -82 -64.5 -127.5t-173.5 -45.5q-106 0 -168 38t-62 109q0 87 95 125q-41 23 -41 71q0 60 67 85q-49 20 -76.5 61.5t-27.5 99.5q0 85 55.5 134.5t144.5 49.5
q66 0 116 -28l142 18v-83l-79 1q22 -39 22 -91q0 -84 -55.5 -132t-145.5 -48h-1q-70 0 -70 -39q0 -14 8 -23t25.5 -13.5t35.5 -6.5t48 -3q101 -5 153 -40t52 -112zM265 -192q63 0 101 24t38 69q0 43 -35 61.5t-106 21.5q-55 2 -92 9q-54 -28 -54 -83q0 -50 40 -76t108 -26z
M242 573q-67 0 -108 37t-41 104h84q0 -69 65 -69q33 0 49.5 19t16.5 50h83q0 -68 -40.5 -104.5t-108.5 -36.5z" />
    <glyph glyph-name="Gdotaccent" unicode="&#x120;" horiz-adv-x="635" 
d="M572 21q-63 -31 -185 -31q-171 0 -259.5 101t-88.5 284q0 180 94.5 282.5t253.5 102.5q41 0 94 -7t78 -18v-184h-89v115q-36 6 -74 6q-114 0 -182.5 -80.5t-68.5 -218.5q0 -140 61.5 -218.5t182.5 -78.5q43 0 83 8v207h-145v84h245v-354zM373 794q-29 0 -46.5 17.5
t-17.5 43.5q0 27 17.5 44t46.5 17q28 0 46.5 -17.5t18.5 -43.5t-18.5 -43.5t-46.5 -17.5z" />
    <glyph glyph-name="gdotaccent" unicode="&#x121;" horiz-adv-x="513" 
d="M240 218q44 0 72.5 29.5t28.5 82.5t-28.5 82t-72.5 29t-72 -29.5t-28 -83.5q0 -52 28 -81t72 -29zM491 -87q0 -82 -64.5 -127.5t-173.5 -45.5q-106 0 -168 38t-62 109q0 87 95 125q-41 23 -41 71q0 60 67 85q-49 20 -76.5 61.5t-27.5 99.5q0 85 55.5 134.5t144.5 49.5
q66 0 116 -28l142 18v-83l-79 1q22 -39 22 -91q0 -84 -55.5 -132t-145.5 -48h-1q-70 0 -70 -39q0 -14 8 -23t25.5 -13.5t35.5 -6.5t48 -3q101 -5 153 -40t52 -112zM265 -192q63 0 101 24t38 69q0 43 -35 61.5t-106 21.5q-55 2 -92 9q-54 -28 -54 -83q0 -50 40 -76t108 -26z
M236 583q-28 0 -47.5 19.5t-19.5 47.5q0 27 19.5 46t47.5 19q27 0 47 -19t20 -46t-20 -47t-47 -20z" />
    <glyph glyph-name="Gcommaaccent" unicode="&#x122;" horiz-adv-x="635" 
d="M572 21q-63 -31 -185 -31q-171 0 -259.5 101t-88.5 284q0 180 94.5 282.5t253.5 102.5q41 0 94 -7t78 -18v-184h-89v115q-36 6 -74 6q-114 0 -182.5 -80.5t-68.5 -218.5q0 -140 61.5 -218.5t182.5 -78.5q43 0 83 8v207h-145v84h245v-354zM345 -246l27 80q-23 3 -37 20
t-14 41q0 26 18 44.5t45 18.5q39 0 54.5 -31.5t0.5 -72.5l-38 -100h-56z" />
    <glyph glyph-name="gcommaaccent" unicode="&#x123;" horiz-adv-x="513" 
d="M240 218q44 0 72.5 29.5t28.5 82.5t-28.5 82t-72.5 29t-72 -29.5t-28 -83.5q0 -52 28 -81t72 -29zM491 -87q0 -82 -64.5 -127.5t-173.5 -45.5q-106 0 -168 38t-62 109q0 87 95 125q-41 23 -41 71q0 60 67 85q-49 20 -76.5 61.5t-27.5 99.5q0 85 55.5 134.5t144.5 49.5
q66 0 116 -28l142 18v-83l-79 1q22 -39 22 -91q0 -84 -55.5 -132t-145.5 -48h-1q-70 0 -70 -39q0 -14 8 -23t25.5 -13.5t35.5 -6.5t48 -3q101 -5 153 -40t52 -112zM265 -192q63 0 101 24t38 69q0 43 -35 61.5t-106 21.5q-55 2 -92 9q-54 -28 -54 -83q0 -50 40 -76t108 -26z
M277 786l-27 -80q24 -3 37.5 -20t13.5 -42q0 -26 -18.5 -44.5t-45.5 -18.5q-39 0 -54.5 31.5t-0.5 72.5l39 101h56z" />
    <glyph glyph-name="Hcircumflex" unicode="&#x124;" horiz-adv-x="714" 
d="M304 85v-85h-267v85h83v580h-83v85h184v-322h272v237h-83v85h268v-85h-84v-580h84v-85h-185v339h-272v-254h83zM191 797l126 116h70l125 -116h-103l-55 49h-5l-58 -49h-100z" />
    <glyph glyph-name="hcircumflex" unicode="&#x125;" horiz-adv-x="596" 
d="M274 78v-78h-244v78h77v594h-77v78h172v-240l-3 -77h7q47 80 139 80q149 0 149 -180v-255h77v-78h-173v295q0 132 -94 132q-46 0 -73.5 -33.5t-27.5 -91.5v-224h71zM126 797l126 116h70l125 -116h-103l-55 49h-5l-58 -49h-100z" />
    <glyph glyph-name="Hbar" unicode="&#x126;" horiz-adv-x="721" 
d="M228 428h272v96h-272v-96zM311 85v-85h-268v85h84v439h-104v70h104v74h-84v82h185v-156h272v74h-83v82h267v-82h-83v-74h97v-70h-97v-439h83v-85h-184v339h-272v-254h83z" />
    <glyph glyph-name="hbar" unicode="&#x127;" horiz-adv-x="607" 
d="M284 78v-78h-244v78h77v507h-94v72h94v93h96v-93h129v-72h-129v-75l-4 -77h7q47 80 139 80q149 0 149 -180v-255h77v-78h-173v295q0 68 -22.5 100t-70.5 32q-46 0 -74 -33.5t-28 -91.5v-224h71z" />
    <glyph glyph-name="Itilde" unicode="&#x128;" horiz-adv-x="340" 
d="M304 0h-267v85h83v580h-83v85h267v-85h-83v-580h83v-85zM46 790v84q18 33 66 33q24 0 64 -17t59 -17q43 0 61 38v-84q-16 -33 -63 -33q-25 0 -65.5 17t-60.5 17q-40 0 -61 -38z" />
    <glyph glyph-name="itilde" unicode="&#x129;" horiz-adv-x="313" 
d="M103 0v425h-76v78h172v-425h77v-78h-173zM-12 587v86q18 33 65 33q25 0 65.5 -17t60.5 -17q41 0 59 38v-87q-14 -32 -61 -32q-25 0 -66.5 16.5t-62.5 16.5q-37 0 -60 -37z" />
    <glyph glyph-name="Imacron" unicode="&#x12a;" horiz-adv-x="340" 
d="M304 0h-267v85h83v580h-83v85h267v-85h-83v-580h83v-85zM46 816v73h247v-73h-247z" />
    <glyph glyph-name="imacron" unicode="&#x12b;" horiz-adv-x="313" 
d="M103 0v425h-76v78h172v-425h77v-78h-173zM-11 617v73h253v-73h-253z" />
    <glyph glyph-name="Ibreve" unicode="&#x12c;" horiz-adv-x="340" 
d="M304 0h-267v85h83v580h-83v85h267v-85h-83v-580h83v-85zM169 788q-66 0 -105.5 32t-39.5 94h79q0 -62 66 -62t66 62h79q0 -62 -39.5 -94t-105.5 -32z" />
    <glyph glyph-name="ibreve" unicode="&#x12d;" horiz-adv-x="313" 
d="M103 0v425h-76v78h172v-425h77v-78h-173zM124 575q-67 0 -108 37t-41 104h84q0 -69 65 -69q33 0 49.5 19t16.5 50h83q0 -68 -40.5 -104.5t-108.5 -36.5z" />
    <glyph glyph-name="Iogonek" unicode="&#x12e;" horiz-adv-x="340" 
d="M242 -151q-45 0 -70 20t-25 56q0 51 42 75h-152v85h83v580h-83v85h267v-85h-83v-580h83v-85h-31q-24 -1 -38 -12.5t-14 -31.5q0 -36 43 -36q35 0 51 22v-69q-18 -24 -73 -24z" />
    <glyph glyph-name="iogonek" unicode="&#x12f;" horiz-adv-x="313" 
d="M103 0v425h-76v78h172v-425h77v-78h-21q-25 0 -41 -11.5t-16 -32.5q0 -36 43 -36q35 0 51 22v-69q-18 -24 -73 -24q-45 0 -70 20t-25 56q0 51 42 75h-63zM142 591q-28 0 -47.5 19.5t-19.5 47.5q0 27 19.5 46t47.5 19q27 0 47 -19t20 -46t-20 -47t-47 -20z" />
    <glyph glyph-name="Idotaccent" unicode="&#x130;" horiz-adv-x="340" 
d="M304 0h-267v85h83v580h-83v85h267v-85h-83v-580h83v-85zM170 794q-29 0 -46.5 17.5t-17.5 43.5q0 27 17.5 44t46.5 17q28 0 46.5 -17.5t18.5 -43.5t-18.5 -43.5t-46.5 -17.5z" />
    <glyph glyph-name="dotlessi" unicode="&#x131;" horiz-adv-x="313" 
d="M103 0v425h-76v78h172v-425h77v-78h-173z" />
    <glyph glyph-name="Jcircumflex" unicode="&#x134;" horiz-adv-x="354" 
d="M23 797l126 116h70l125 -116h-103l-55 49h-5l-58 -49h-100zM122 -10q-71 0 -107 23v93q35 -29 95 -29q81 0 81 115v473h-147v85h248v-550q0 -210 -170 -210z" />
    <glyph glyph-name="jcircumflex" unicode="&#x135;" horiz-adv-x="278" 
d="M54 -260q-54 0 -86 16v87q25 -19 61 -19q41 0 57 30t16 123v448h-83v78h179v-545q0 -118 -34.5 -168t-109.5 -50zM-22 571l118 153h77l118 -153h-95l-59 74h-5l-59 -74h-95z" />
    <glyph glyph-name="Kcommaaccent" unicode="&#x136;" horiz-adv-x="656" 
d="M298 85v-85h-261v85h83v580h-83v85h232v-85h-48v-321l227 321h-71v85h242v-85h-72l-175 -242l-12 -16l227 -322h60v-85h-128l-225 318l-73 -100v-133h77zM320 -246l27 80q-23 3 -37 20t-14 41q0 26 18 44.5t45 18.5q39 0 54.5 -31.5t0.5 -72.5l-38 -100h-56z" />
    <glyph glyph-name="kcommaaccent" unicode="&#x137;" horiz-adv-x="558" 
d="M267 78v-78h-237v78h77v594h-77v78h173v-512l157 187h-58v78h218v-78h-67l-136 -159l152 -188h65v-78h-122l-158 198l-51 -60v-60h64zM243 -246l27 79q-23 3 -37 20.5t-14 41.5q0 26 18.5 44.5t45.5 18.5q38 0 54 -32t0 -72l-38 -100h-56z" />
    <glyph glyph-name="Lacute" unicode="&#x139;" horiz-adv-x="562" 
d="M37 0v85h83v580h-83v85h284v-85h-100v-576h229v125h89v-214h-502zM125 797l93 109h149l-157 -109h-85z" />
    <glyph glyph-name="lacute" unicode="&#x13a;" horiz-adv-x="288" 
d="M83 797l94 119h159l-161 -119h-92zM81 0v672h-77v78h173v-672h77v-78h-173z" />
    <glyph glyph-name="Lcommaaccent" unicode="&#x13b;" horiz-adv-x="562" 
d="M37 0v85h83v580h-83v85h284v-85h-100v-576h229v125h89v-214h-502zM278 -246l27 80q-23 3 -37 20t-14 41q0 26 18 44.5t45 18.5q39 0 54.5 -31.5t0.5 -72.5l-38 -100h-56z" />
    <glyph glyph-name="lcommaaccent" unicode="&#x13c;" horiz-adv-x="288" 
d="M81 0v672h-77v78h173v-672h77v-78h-173zM110 -246l27 79q-23 3 -37 20.5t-14 41.5q0 26 18.5 44.5t45.5 18.5q38 0 54 -32t0 -72l-38 -100h-56z" />
    <glyph glyph-name="Lcaron" unicode="&#x13d;" horiz-adv-x="567" 
d="M37 0v85h83v580h-83v85h284v-85h-100v-576h229v125h89v-214h-502zM428 547l28 84q-25 3 -39 21t-14 43q0 28 19 47.5t47 19.5q41 0 57.5 -33.5t-0.5 -76.5l-39 -105h-59z" />
    <glyph glyph-name="lcaron" unicode="&#x13e;" horiz-adv-x="301" 
d="M81 0v672h-77v78h173v-672h77v-78h-173zM247 559l27 80q-23 2 -37 19.5t-14 41.5q0 26 18.5 44.5t45.5 18.5q38 0 53.5 -31.5t0.5 -72.5l-38 -100h-56z" />
    <glyph glyph-name="Ldot" unicode="&#x13f;" horiz-adv-x="562" 
d="M37 0v85h83v580h-83v85h284v-85h-100v-576h229v125h89v-214h-502zM458 325q-28 0 -48 19.5t-20 48.5q0 28 20 47.5t48 19.5q27 0 47 -19.5t20 -47.5t-20 -48t-47 -20z" />
    <glyph glyph-name="ldot" unicode="&#x140;" horiz-adv-x="379" 
d="M81 0v672h-77v78h173v-672h77v-78h-173zM313 235q-29 0 -48.5 19.5t-19.5 48.5q0 28 20 47.5t48 19.5q27 0 47 -19.5t20 -47.5t-20 -48t-47 -20z" />
    <glyph glyph-name="Lslash" unicode="&#x141;" horiz-adv-x="570" 
d="M23 225v85l105 63v292h-83v85h284v-85h-100v-232l103 62v-86l-103 -62v-258h229v125h89v-214h-502v85h83v202z" />
    <glyph glyph-name="lslash" unicode="&#x142;" horiz-adv-x="315" 
d="M25 259v82l84 47v284h-77v78h173v-309l84 47v-78l-84 -48v-284h77v-78h-173v307z" />
    <glyph glyph-name="Nacute" unicode="&#x143;" horiz-adv-x="761" 
d="M302 85v-85h-265v85h83v580h-83v85h212l297 -555h6v555h175v-85h-83v-665h-90l-336 603h-6v-518h90zM345 797l93 109h149l-157 -109h-85z" />
    <glyph glyph-name="nacute" unicode="&#x144;" horiz-adv-x="607" 
d="M284 78v-78h-244v78h77v347h-77v78h168v-71h7q49 81 142 81q147 0 147 -180v-255h77v-78h-173v295q0 68 -22.5 100t-70.5 32q-46 0 -74 -33.5t-28 -91.5v-224h71zM240 577l73 146h139l-127 -146h-85z" />
    <glyph glyph-name="Ncommaaccent" unicode="&#x145;" horiz-adv-x="761" 
d="M302 85v-85h-265v85h83v580h-83v85h212l297 -555h6v555h175v-85h-83v-665h-90l-336 603h-6v-518h90zM339 -252l28 82q-24 3 -38 20.5t-14 42.5q0 27 18.5 46t46.5 19q40 0 56 -33t0 -74l-39 -103h-58z" />
    <glyph glyph-name="ncommaaccent" unicode="&#x146;" horiz-adv-x="607" 
d="M284 78v-78h-244v78h77v347h-77v78h168v-71h7q49 81 142 81q147 0 147 -180v-255h77v-78h-173v295q0 68 -22.5 100t-70.5 32q-46 0 -74 -33.5t-28 -91.5v-224h71zM283 -246l27 79q-23 3 -37 20.5t-14 41.5q0 26 18.5 44.5t45.5 18.5q38 0 54 -32t0 -72l-38 -100h-56z" />
    <glyph glyph-name="Ncaron" unicode="&#x147;" horiz-adv-x="761" 
d="M302 85v-85h-265v85h83v580h-83v85h212l297 -555h6v555h175v-85h-83v-665h-90l-336 603h-6v-518h90zM359 797l-126 116h101l58 -49h4l56 49h102l-125 -116h-70z" />
    <glyph glyph-name="ncaron" unicode="&#x148;" horiz-adv-x="607" 
d="M284 78v-78h-244v78h77v347h-77v78h168v-71h7q49 81 142 81q147 0 147 -180v-255h77v-78h-173v295q0 68 -22.5 100t-70.5 32q-46 0 -74 -33.5t-28 -91.5v-224h71zM252 570l-122 153h101l61 -74h4l59 74h101l-120 -153h-84z" />
    <glyph glyph-name="napostrophe" unicode="&#x149;" horiz-adv-x="619" 
d="M296 78v-78h-244v78h77v347h-77v78h168v-71h7q49 81 142 81q147 0 147 -180v-255h77v-78h-173v295q0 68 -22.5 100t-70.5 32q-46 0 -74 -33.5t-28 -91.5v-224h71zM10 557l28 80q-24 3 -37.5 20.5t-13.5 41.5q0 27 18.5 45.5t45.5 18.5q40 0 55.5 -31.5t0.5 -73.5
l-39 -101h-58z" />
    <glyph glyph-name="Eng" unicode="&#x14a;" horiz-adv-x="767" 
d="M493 -260q-55 0 -85 16v89q29 -21 67 -21q40 0 56.5 27.5t16.5 104.5v43l-330 601h-5v-515h90v-85h-266v85h83v580h-83v85h212l297 -556h5v556h176v-85h-83v-698q0 -120 -33.5 -173.5t-117.5 -53.5z" />
    <glyph glyph-name="eng" unicode="&#x14b;" horiz-adv-x="586" 
d="M360 -260q-54 0 -86 16v87q25 -19 61 -19q40 0 56.5 30.5t16.5 116.5v324q0 68 -22.5 100t-70.5 32q-46 0 -74 -33.5t-28 -91.5v-224h71v-78h-244v78h77v347h-77v78h168v-71h7q49 81 142 81q147 0 147 -180v-365q0 -121 -34.5 -174.5t-109.5 -53.5z" />
    <glyph glyph-name="Omacron" unicode="&#x14c;" horiz-adv-x="693" 
d="M345 -10q-144 0 -225 103t-81 282q0 181 81 283t225 102q147 0 228 -101.5t81 -282.5t-81 -283.5t-228 -102.5zM346 78q96 0 149 77t53 221q0 143 -53 219.5t-149 76.5q-94 0 -147.5 -76.5t-53.5 -220.5q0 -143 53.5 -220t147.5 -77zM222 816v73h247v-73h-247z" />
    <glyph glyph-name="omacron" unicode="&#x14d;" horiz-adv-x="537" 
d="M268 -10q-102 0 -166.5 69.5t-64.5 190.5t65 192t166 71t166.5 -70.5t65.5 -191.5q0 -122 -65 -191.5t-167 -69.5zM268 74q58 0 94.5 44.5t36.5 132.5t-37 133t-94 45q-58 0 -94 -45t-36 -134q0 -88 36 -132t94 -44zM143 617v73h253v-73h-253z" />
    <glyph glyph-name="Obreve" unicode="&#x14e;" horiz-adv-x="693" 
d="M345 -10q-144 0 -225 103t-81 282q0 181 81 283t225 102q147 0 228 -101.5t81 -282.5t-81 -283.5t-228 -102.5zM346 78q96 0 149 77t53 221q0 143 -53 219.5t-149 76.5q-94 0 -147.5 -76.5t-53.5 -220.5q0 -143 53.5 -220t147.5 -77zM347 788q-66 0 -105.5 32t-39.5 94
h79q0 -62 66 -62t66 62h79q0 -62 -39.5 -94t-105.5 -32z" />
    <glyph glyph-name="obreve" unicode="&#x14f;" horiz-adv-x="537" 
d="M268 -10q-102 0 -166.5 69.5t-64.5 190.5t65 192t166 71t166.5 -70.5t65.5 -191.5q0 -122 -65 -191.5t-167 -69.5zM268 74q58 0 94.5 44.5t36.5 132.5t-37 133t-94 45q-58 0 -94 -45t-36 -134q0 -88 36 -132t94 -44zM269 575q-67 0 -108 37t-41 104h84q0 -69 65 -69
q33 0 49.5 19t16.5 50h83q0 -68 -40.5 -104.5t-108.5 -36.5z" />
    <glyph glyph-name="Ohungarumlaut" unicode="&#x150;" horiz-adv-x="693" 
d="M345 -10q-144 0 -225 103t-81 282q0 181 81 283t225 102q147 0 228 -101.5t81 -282.5t-81 -283.5t-228 -102.5zM346 78q96 0 149 77t53 221q0 143 -53 219.5t-149 76.5q-94 0 -147.5 -76.5t-53.5 -220.5q0 -143 53.5 -220t147.5 -77zM257 797l75 109h111l-114 -109h-72z
M373 797l111 109h140l-172 -109h-79z" />
    <glyph glyph-name="ohungarumlaut" unicode="&#x151;" horiz-adv-x="537" 
d="M268 -10q-102 0 -166.5 69.5t-64.5 190.5t65 192t166 71t166.5 -70.5t65.5 -191.5q0 -122 -65 -191.5t-167 -69.5zM268 74q58 0 94.5 44.5t36.5 132.5t-37 133t-94 45q-58 0 -94 -45t-36 -134q0 -88 36 -132t94 -44zM171 577l58 146h117l-102 -146h-73zM291 577l96 146
h141l-159 -146h-78z" />
    <glyph glyph-name="OE" unicode="&#x152;" horiz-adv-x="939" 
d="M464 660q-3 1 -18.5 4t-41.5 5.5t-48 2.5q-101 0 -156 -75.5t-55 -220.5t55 -221.5t158 -76.5q70 0 106 12v570zM464 750h409v-199h-89v110h-219v-233h215v-89h-215v-250h232v125h89v-214h-422q-45 -10 -111 -10q-150 0 -232 102.5t-82 283.5q0 182 81.5 283t232.5 101
q76 0 111 -10z" />
    <glyph glyph-name="oe" unicode="&#x153;" horiz-adv-x="865" 
d="M642 -10q-137 0 -194 92h-3q-57 -92 -177 -92q-102 0 -166.5 69.5t-64.5 190.5t65 192t166 71q122 0 177 -96h4q58 96 172 96q90 0 145 -53t55 -153q0 -44 -6 -64h-311q3 -168 146 -168q96 0 154 48v-90q-51 -43 -162 -43zM503 312h221q-1 63 -30.5 93t-77.5 30
q-96 0 -113 -123zM268 74q58 0 94.5 44.5t36.5 132.5t-37 133t-94 45q-58 0 -94 -45t-36 -134q0 -88 36 -132t94 -44z" />
    <glyph glyph-name="Racute" unicode="&#x154;" horiz-adv-x="643" 
d="M221 396h80q72 0 113.5 34.5t41.5 102.5q0 63 -41.5 95.5t-113.5 32.5h-80v-265zM294 0h-257v85h83v580h-83v85h262q134 0 198.5 -61t64.5 -154q0 -70 -39 -125.5t-112 -79.5l158 -245h63v-85h-131l-194 308h-86v-223h73v-85zM245 797l93 109h149l-157 -109h-85z" />
    <glyph glyph-name="racute" unicode="&#x155;" horiz-adv-x="449" 
d="M310 0h-270v78h77v347h-77v78h168v-79h7q15 39 47.5 64t81.5 25q53 0 85 -13v-177h-81v104h-16q-54 0 -86.5 -37t-32.5 -103v-209h97v-78zM205 577l73 146h139l-127 -146h-85z" />
    <glyph glyph-name="Rcommaaccent" unicode="&#x156;" horiz-adv-x="643" 
d="M221 396h80q72 0 113.5 34.5t41.5 102.5q0 63 -41.5 95.5t-113.5 32.5h-80v-265zM294 0h-257v85h83v580h-83v85h262q134 0 198.5 -61t64.5 -154q0 -70 -39 -125.5t-112 -79.5l158 -245h63v-85h-131l-194 308h-86v-223h73v-85zM313 -246l27 80q-23 3 -37 20t-14 41
q0 26 18 44.5t45 18.5q39 0 54.5 -31.5t0.5 -72.5l-38 -100h-56z" />
    <glyph glyph-name="rcommaaccent" unicode="&#x157;" horiz-adv-x="449" 
d="M310 0h-270v78h77v347h-77v78h168v-79h7q15 39 47.5 64t81.5 25q53 0 85 -13v-177h-81v104h-16q-54 0 -86.5 -37t-32.5 -103v-209h97v-78zM125 -246l27 79q-23 3 -37 20.5t-14 41.5q0 26 18.5 44.5t45.5 18.5q38 0 54 -32t0 -72l-38 -100h-56z" />
    <glyph glyph-name="Rcaron" unicode="&#x158;" horiz-adv-x="643" 
d="M221 396h80q72 0 113.5 34.5t41.5 102.5q0 63 -41.5 95.5t-113.5 32.5h-80v-265zM294 0h-257v85h83v580h-83v85h262q134 0 198.5 -61t64.5 -154q0 -70 -39 -125.5t-112 -79.5l158 -245h63v-85h-131l-194 308h-86v-223h73v-85zM253 797l-126 116h101l58 -49h4l56 49h102
l-125 -116h-70z" />
    <glyph glyph-name="rcaron" unicode="&#x159;" horiz-adv-x="449" 
d="M310 0h-270v78h77v347h-77v78h168v-79h7q15 39 47.5 64t81.5 25q53 0 85 -13v-177h-81v104h-16q-54 0 -86.5 -37t-32.5 -103v-209h97v-78zM205 570l-122 153h101l61 -74h4l59 74h101l-120 -153h-84z" />
    <glyph glyph-name="Sacute" unicode="&#x15a;" horiz-adv-x="523" 
d="M244 -10q-123 0 -207 42v182h89v-121q63 -17 119 -17q64 0 99.5 26.5t35.5 91.5q0 28 -10 49t-31.5 36.5t-42.5 26t-55 25.5q-7 3 -10 4q-45 19 -75 36.5t-57.5 43t-41 61t-13.5 81.5q0 103 70 153t175 50q97 0 170 -28v-181h-88v116q-38 8 -79 8q-61 0 -102 -25.5
t-41 -87.5q0 -50 32.5 -79t94.5 -56q52 -21 84 -38.5t64 -44t46.5 -62t14.5 -81.5q0 -95 -59 -153t-182 -58zM223 800l93 109h149l-157 -109h-85z" />
    <glyph glyph-name="sacute" unicode="&#x15b;" horiz-adv-x="433" 
d="M205 -10q-98 0 -163 27v148h80v-85q44 -9 84 -9q91 0 91 66q0 29 -24.5 46t-82.5 37q-77 28 -109.5 60t-32.5 91q0 63 49.5 102.5t136.5 39.5q76 0 149 -23v-148h-80v84q-33 6 -65 6q-41 0 -65.5 -16.5t-24.5 -44.5q0 -30 21 -44.5t77 -35.5q73 -27 109 -60t36 -94
q0 -66 -45.5 -106.5t-140.5 -40.5zM183 577l73 146h139l-127 -146h-85z" />
    <glyph glyph-name="Scircumflex" unicode="&#x15c;" horiz-adv-x="523" 
d="M244 -10q-123 0 -207 42v182h89v-121q63 -17 119 -17q64 0 99.5 26.5t35.5 91.5q0 28 -10 49t-31.5 36.5t-42.5 26t-55 25.5q-7 3 -10 4q-45 19 -75 36.5t-57.5 43t-41 61t-13.5 81.5q0 103 70 153t175 50q97 0 170 -28v-181h-88v116q-38 8 -79 8q-61 0 -102 -25.5
t-41 -87.5q0 -50 32.5 -79t94.5 -56q52 -21 84 -38.5t64 -44t46.5 -62t14.5 -81.5q0 -95 -59 -153t-182 -58zM116 800l126 116h70l125 -116h-103l-55 49h-5l-58 -49h-100z" />
    <glyph glyph-name="scircumflex" unicode="&#x15d;" horiz-adv-x="433" 
d="M205 -10q-98 0 -163 27v148h80v-85q44 -9 84 -9q91 0 91 66q0 29 -24.5 46t-82.5 37q-77 28 -109.5 60t-32.5 91q0 63 49.5 102.5t136.5 39.5q76 0 149 -23v-148h-80v84q-33 6 -65 6q-41 0 -65.5 -16.5t-24.5 -44.5q0 -30 21 -44.5t77 -35.5q73 -27 109 -60t36 -94
q0 -66 -45.5 -106.5t-140.5 -40.5zM68 570l118 153h77l118 -153h-95l-59 74h-5l-59 -74h-95z" />
    <glyph glyph-name="Scedilla" unicode="&#x15e;" horiz-adv-x="523" 
d="M252 -196q-50 0 -83 23v62q25 -22 64 -22q38 0 38 27q0 33 -66 33v64q-102 8 -168 41v182h89v-121q63 -17 119 -17q64 0 99.5 26.5t35.5 91.5q0 28 -10 49t-31.5 36.5t-42.5 26t-55 25.5q-7 3 -10 4q-45 19 -75 36.5t-57.5 43t-41 61t-13.5 81.5q0 103 70 153t175 50
q97 0 170 -28v-181h-88v116q-38 8 -79 8q-61 0 -102 -25.5t-41 -87.5q0 -50 32.5 -79t94.5 -56q52 -21 84 -38.5t64 -44t46.5 -62t14.5 -81.5q0 -90 -53 -147t-162 -63v-27q79 -12 79 -78q0 -37 -25 -59.5t-72 -22.5z" />
    <glyph glyph-name="scedilla" unicode="&#x15f;" horiz-adv-x="433" 
d="M207 -196q-50 0 -83 23v62q25 -22 64 -22q38 0 38 27q0 33 -66 33v65q-71 5 -118 25v148h80v-85q44 -9 84 -9q91 0 91 66q0 29 -24.5 46t-82.5 37q-77 28 -109.5 60t-32.5 91q0 63 49.5 102.5t136.5 39.5q76 0 149 -23v-148h-80v84q-33 6 -65 6q-41 0 -65.5 -16.5
t-24.5 -44.5q0 -30 21 -44.5t77 -35.5q73 -27 109 -60t36 -94q0 -62 -40.5 -102t-125.5 -44v-27q79 -12 79 -78q0 -37 -25 -59.5t-72 -22.5z" />
    <glyph glyph-name="Scaron" unicode="&#x160;" horiz-adv-x="523" 
d="M244 -10q-123 0 -207 42v182h89v-121q63 -17 119 -17q64 0 99.5 26.5t35.5 91.5q0 28 -10 49t-31.5 36.5t-42.5 26t-55 25.5q-7 3 -10 4q-45 19 -75 36.5t-57.5 43t-41 61t-13.5 81.5q0 103 70 153t175 50q97 0 170 -28v-181h-88v116q-38 8 -79 8q-61 0 -102 -25.5
t-41 -87.5q0 -50 32.5 -79t94.5 -56q52 -21 84 -38.5t64 -44t46.5 -62t14.5 -81.5q0 -95 -59 -153t-182 -58zM233 800l-126 116h101l58 -49h4l56 49h102l-125 -116h-70z" />
    <glyph glyph-name="scaron" unicode="&#x161;" horiz-adv-x="433" 
d="M205 -10q-98 0 -163 27v148h80v-85q44 -9 84 -9q91 0 91 66q0 29 -24.5 46t-82.5 37q-77 28 -109.5 60t-32.5 91q0 63 49.5 102.5t136.5 39.5q76 0 149 -23v-148h-80v84q-33 6 -65 6q-41 0 -65.5 -16.5t-24.5 -44.5q0 -30 21 -44.5t77 -35.5q73 -27 109 -60t36 -94
q0 -66 -45.5 -106.5t-140.5 -40.5zM181 570l-122 153h101l61 -74h4l59 74h101l-120 -153h-84z" />
    <glyph glyph-name="Tcommaaccent" unicode="&#x162;" horiz-adv-x="609" 
d="M448 0h-287v85h93v576h-145v-116h-89v205h569v-205h-89v116h-145v-576h93v-85zM267 -248l27 80q-23 3 -37 20t-14 41q0 26 18 44.5t45 18.5q39 0 54.5 -31.5t0.5 -72.5l-38 -100h-56z" />
    <glyph glyph-name="tcommaaccent" unicode="&#x163;" horiz-adv-x="378" 
d="M245 -10q-83 0 -118 48.5t-35 142.5v244h-70v78h70v137h96v-137h149v-78h-149v-240q0 -56 16.5 -84t57.5 -28q46 0 82 14v-81q-41 -16 -99 -16zM178 -246l27 79q-23 3 -37 20.5t-14 41.5q0 26 18.5 44.5t45.5 18.5q38 0 54 -32t0 -72l-38 -100h-56z" />
    <glyph glyph-name="Tcaron" unicode="&#x164;" horiz-adv-x="609" 
d="M448 0h-287v85h93v576h-145v-116h-89v205h569v-205h-89v116h-145v-576h93v-85zM268 797l-126 116h101l58 -49h4l56 49h102l-125 -116h-70z" />
    <glyph glyph-name="tcaron" unicode="&#x165;" horiz-adv-x="401" 
d="M245 -10q-83 0 -118 48.5t-35 142.5v244h-70v78h70v137h96v-137h149v-78h-149v-240q0 -56 16.5 -84t57.5 -28q46 0 82 14v-81q-41 -16 -99 -16zM275 571l27 80q-24 3 -37.5 20t-13.5 42q0 26 18.5 44.5t45.5 18.5q39 0 54.5 -31.5t0.5 -72.5l-38 -101h-57z" />
    <glyph glyph-name="Tbar" unicode="&#x166;" horiz-adv-x="609" 
d="M107 347v75h147v239h-145v-116h-89v205h569v-205h-89v116h-145v-239h147v-75h-147v-262h93v-85h-287v85h93v262h-147z" />
    <glyph glyph-name="tbar" unicode="&#x167;" horiz-adv-x="378" 
d="M22 270v72h70v83h-70v78h70v137h96v-137h149v-78h-149v-83h150v-72h-150v-85q0 -56 16.5 -84t57.5 -28q46 0 82 14v-81q-41 -16 -99 -16q-83 0 -118 48.5t-35 142.5v89h-70z" />
    <glyph glyph-name="Utilde" unicode="&#x168;" horiz-adv-x="702" 
d="M602 272q0 -131 -62.5 -206.5t-192.5 -75.5q-128 0 -187.5 77t-59.5 206v392h-83v85h267v-85h-83v-386q0 -99 32 -148.5t115 -49.5q158 0 158 197v472h179v-85h-83v-393zM239 790v84q18 33 66 33q24 0 64 -17t59 -17q43 0 61 38v-84q-16 -33 -63 -33q-25 0 -65.5 17
t-60.5 17q-40 0 -61 -38z" />
    <glyph glyph-name="utilde" unicode="&#x169;" horiz-adv-x="604" 
d="M393 71q-49 -81 -142 -81q-147 0 -147 180v255h-77v78h173v-295q0 -68 22.5 -100t70.5 -32q46 0 74 33.5t28 91.5v224h-77v78h173v-425h77v-78h-168v71h-7zM161 587v86q18 33 65 33q25 0 65.5 -17t60.5 -17q41 0 59 38v-87q-14 -32 -61 -32q-25 0 -66.5 16.5t-62.5 16.5
q-37 0 -60 -37z" />
    <glyph glyph-name="Umacron" unicode="&#x16a;" horiz-adv-x="702" 
d="M602 272q0 -131 -62.5 -206.5t-192.5 -75.5q-128 0 -187.5 77t-59.5 206v392h-83v85h267v-85h-83v-386q0 -99 32 -148.5t115 -49.5q158 0 158 197v472h179v-85h-83v-393zM235 816v73h247v-73h-247z" />
    <glyph glyph-name="umacron" unicode="&#x16b;" horiz-adv-x="604" 
d="M393 71q-49 -81 -142 -81q-147 0 -147 180v255h-77v78h173v-295q0 -68 22.5 -100t70.5 -32q46 0 74 33.5t28 91.5v224h-77v78h173v-425h77v-78h-168v71h-7zM159 616v73h253v-73h-253z" />
    <glyph glyph-name="Ubreve" unicode="&#x16c;" horiz-adv-x="702" 
d="M602 272q0 -131 -62.5 -206.5t-192.5 -75.5q-128 0 -187.5 77t-59.5 206v392h-83v85h267v-85h-83v-386q0 -99 32 -148.5t115 -49.5q158 0 158 197v472h179v-85h-83v-393zM362 788q-66 0 -105.5 32t-39.5 94h79q0 -62 66 -62t66 62h79q0 -62 -39.5 -94t-105.5 -32z" />
    <glyph glyph-name="ubreve" unicode="&#x16d;" horiz-adv-x="604" 
d="M393 71q-49 -81 -142 -81q-147 0 -147 180v255h-77v78h173v-295q0 -68 22.5 -100t70.5 -32q46 0 74 33.5t28 91.5v224h-77v78h173v-425h77v-78h-168v71h-7zM273 575q-67 0 -108 37t-41 104h84q0 -69 65 -69q33 0 49.5 19t16.5 50h83q0 -68 -40.5 -104.5t-108.5 -36.5z
" />
    <glyph glyph-name="Uring" unicode="&#x16e;" horiz-adv-x="702" 
d="M602 272q0 -131 -62.5 -206.5t-192.5 -75.5q-128 0 -187.5 77t-59.5 206v392h-83v85h267v-85h-83v-386q0 -99 32 -148.5t115 -49.5q158 0 158 197v472h179v-85h-83v-393zM363 785q-50 0 -79 24t-29 61q0 36 29 60t79 24q49 0 78.5 -24t29.5 -60t-30 -60.5t-78 -24.5z
M364 837q20 0 33 9t13 23t-13 23t-34 9q-47 0 -47 -32t48 -32z" />
    <glyph glyph-name="uring" unicode="&#x16f;" horiz-adv-x="604" 
d="M393 71q-49 -81 -142 -81q-147 0 -147 180v255h-77v78h173v-295q0 -68 22.5 -100t70.5 -32q46 0 74 33.5t28 91.5v224h-77v78h173v-425h77v-78h-168v71h-7zM274 556q-42 0 -71 27t-29 67t29 66t71 26q39 0 69 -26.5t30 -65.5t-30 -66.5t-69 -27.5zM274 617q14 0 25 9.5
t11 23.5t-11 23t-25 9q-15 0 -25.5 -9t-10.5 -23q0 -15 10.5 -24t25.5 -9z" />
    <glyph glyph-name="Uhungarumlaut" unicode="&#x170;" horiz-adv-x="702" 
d="M602 272q0 -131 -62.5 -206.5t-192.5 -75.5q-128 0 -187.5 77t-59.5 206v392h-83v85h267v-85h-83v-386q0 -99 32 -148.5t115 -49.5q158 0 158 197v472h179v-85h-83v-393zM267 797l75 109h111l-114 -109h-72zM383 797l111 109h140l-172 -109h-79z" />
    <glyph glyph-name="uhungarumlaut" unicode="&#x171;" horiz-adv-x="604" 
d="M393 71q-49 -81 -142 -81q-147 0 -147 180v255h-77v78h173v-295q0 -68 22.5 -100t70.5 -32q46 0 74 33.5t28 91.5v224h-77v78h173v-425h77v-78h-168v71h-7zM173 577l58 146h117l-102 -146h-73zM293 577l96 146h141l-159 -146h-78z" />
    <glyph glyph-name="Uogonek" unicode="&#x172;" horiz-adv-x="702" 
d="M602 272q0 -111 -44.5 -182.5t-136.5 -91.5q-39 -14 -39 -44q0 -34 43 -34q35 0 51 22v-69q-18 -24 -73 -24q-44 0 -69.5 20.5t-25.5 58.5q0 40 36 62q-127 1 -185.5 77.5t-58.5 205.5v392h-83v85h267v-85h-83v-386q0 -99 32 -148.5t115 -49.5q158 0 158 197v472h179v-85
h-83v-393z" />
    <glyph glyph-name="uogonek" unicode="&#x173;" horiz-adv-x="604" 
d="M521 -151q-45 0 -70 20t-25 56q0 51 42 75h-68v71h-7q-49 -81 -142 -81q-147 0 -147 180v255h-77v78h173v-295q0 -68 22.5 -100t70.5 -32q46 0 74 33.5t28 91.5v224h-77v78h173v-425h77v-78h-11q-25 0 -41 -11.5t-16 -32.5q0 -36 43 -36q35 0 51 22v-69q-18 -24 -73 -24z
" />
    <glyph glyph-name="Wcircumflex" unicode="&#x174;" horiz-adv-x="921" 
d="M454 553l-130 -553h-83l-172 665h-64v85h146l140 -540h6l129 540h79l133 -542h7l116 457h-65v85h220v-85h-62l-172 -665h-84l-137 553h-7zM303 797l126 116h70l125 -116h-103l-55 49h-5l-58 -49h-100z" />
    <glyph glyph-name="wcircumflex" unicode="&#x175;" horiz-adv-x="718" 
d="M347 370l-84 -370h-102l-117 425h-53v78h126l101 -381h7l87 381h90l102 -381h7l72 303h-58v78h188v-78h-48l-109 -425h-105l-99 370h-5zM194 570l118 153h77l118 -153h-95l-59 74h-5l-59 -74h-95z" />
    <glyph glyph-name="Ycircumflex" unicode="&#x176;" horiz-adv-x="630" 
d="M467 0h-287v85h93v229l-195 351h-75v85h143l182 -334h5l126 249h-63v85h231v-85h-72l-181 -350v-230h93v-85zM146 797l126 116h70l125 -116h-103l-55 49h-5l-58 -49h-100z" />
    <glyph glyph-name="ycircumflex" unicode="&#x177;" horiz-adv-x="527" 
d="M318 -250h-228v78h72l61 166l-161 431h-57v78h129l134 -377h8l101 299h-57v78h202v-78h-55l-214 -597h65v-78zM101 570l118 153h77l118 -153h-95l-59 74h-5l-59 -74h-95z" />
    <glyph glyph-name="Ydieresis" unicode="&#x178;" horiz-adv-x="630" 
d="M467 0h-287v85h93v229l-195 351h-75v85h143l182 -334h5l126 249h-63v85h231v-85h-72l-181 -350v-230h93v-85zM221 793q-27 0 -45 17.5t-18 43.5t18 44t45 18t45 -18t18 -44t-18 -43.5t-45 -17.5zM416 793q-27 0 -45 17.5t-18 43.5t18 44t45 18t45 -18t18 -44t-18 -43.5
t-45 -17.5z" />
    <glyph glyph-name="Zacute" unicode="&#x179;" horiz-adv-x="541" 
d="M30 0v68l354 594h-256v-111h-89v199h463v-68l-354 -594h274v126h89v-214h-481zM205 800l93 109h149l-157 -109h-85z" />
    <glyph glyph-name="zacute" unicode="&#x17a;" horiz-adv-x="464" 
d="M427 0h-390v60l259 363h-174v-97h-80v177h364v-60l-258 -363h200v97h79v-177zM178 577l73 146h139l-127 -146h-85z" />
    <glyph glyph-name="Zdotaccent" unicode="&#x17b;" horiz-adv-x="541" 
d="M30 0v68l354 594h-256v-111h-89v199h463v-68l-354 -594h274v126h89v-214h-481zM272 797q-29 0 -46.5 17.5t-17.5 43.5q0 27 17.5 44t46.5 17q28 0 46.5 -17.5t18.5 -43.5t-18.5 -43.5t-46.5 -17.5z" />
    <glyph glyph-name="zdotaccent" unicode="&#x17c;" horiz-adv-x="464" 
d="M427 0h-390v60l259 363h-174v-97h-80v177h364v-60l-258 -363h200v97h79v-177zM230 583q-28 0 -47.5 19.5t-19.5 47.5q0 27 19.5 46t47.5 19q27 0 47 -19t20 -46t-20 -47t-47 -20z" />
    <glyph glyph-name="Zcaron" unicode="&#x17d;" horiz-adv-x="541" 
d="M30 0v68l354 594h-256v-111h-89v199h463v-68l-354 -594h274v126h89v-214h-481zM240 800l-126 116h101l58 -49h4l56 49h102l-125 -116h-70z" />
    <glyph glyph-name="zcaron" unicode="&#x17e;" horiz-adv-x="464" 
d="M427 0h-390v60l259 363h-174v-97h-80v177h364v-60l-258 -363h200v97h79v-177zM183 570l-122 153h101l61 -74h4l59 74h101l-120 -153h-84z" />
    <glyph glyph-name="florin" unicode="&#x192;" horiz-adv-x="406" 
d="M15 -260q-55 0 -83 16l10 87q24 -19 59 -19q41 0 61 30.5t31 122.5l54 443h-70v83h80l8 68q11 93 60.5 142.5t133.5 49.5q58 0 95 -15l-12 -91q-25 20 -73 20q-95 0 -109 -110l-7 -64h120v-83h-130l-56 -462q-15 -118 -56 -168t-116 -50z" />
    <glyph glyph-name="Aringacute" unicode="&#x1fa;" horiz-adv-x="646" 
d="M318 633l-95 -321h189l-89 321h-5zM228 85v-85h-223v85h62l174 580h-77v85h225l190 -665h62v-85h-142l-63 227h-238l-42 -142h72zM249 981l93 109h149l-157 -109h-85zM309 785q-50 0 -79 24t-29 61q0 36 29 60t79 24q49 0 78.5 -24t29.5 -60t-30 -60.5t-78 -24.5z
M310 837q20 0 33 9t13 23t-13 23t-34 9q-47 0 -47 -32t48 -32z" />
    <glyph glyph-name="aringacute" unicode="&#x1fb;" horiz-adv-x="528" 
d="M215 70q49 0 82 36.5t33 103.5v23q-103 0 -146 -22t-43 -74q0 -29 19 -48t55 -19zM329 79q-26 -45 -58 -67t-87 -22q-68 0 -106 38.5t-38 99.5q0 89 71 130.5t219 41.5v23q0 107 -118 107q-75 0 -141 -45v91q60 37 156 37q199 0 199 -192v-243h77v-78h-168v79h-6z
M170 779l93 109h149l-157 -109h-85zM247 556q-42 0 -71 27t-29 67t29 66t71 26q39 0 69 -26.5t30 -65.5t-30 -66.5t-69 -27.5zM247 617q14 0 25 9.5t11 23.5t-11 23t-25 9q-15 0 -25.5 -9t-10.5 -23q0 -15 10.5 -24t25.5 -9z" />
    <glyph glyph-name="AEacute" unicode="&#x1fc;" horiz-adv-x="973" 
d="M498 615h-4l-190 -321h194v321zM228 0h-223v85h79l343 580h-69v85h549v-199h-89v110h-219v-233h215v-89h-215v-250h232v125h89v-214h-505v85h83v125h-241l-75 -125h46v-85zM597 797l93 109h149l-157 -109h-85z" />
    <glyph glyph-name="aeacute" unicode="&#x1fd;" horiz-adv-x="822" 
d="M599 -10q-73 0 -127 30.5t-79 83.5h-7q-32 -65 -76.5 -89.5t-114.5 -24.5q-74 0 -114.5 38.5t-40.5 99.5q0 86 75.5 128t235.5 42v24q0 107 -122 107q-90 0 -158 -45v92q62 37 171 37q119 0 166 -88h6q52 88 164 88q93 0 150 -52t57 -154q0 -44 -6 -64h-325
q0 -83 41 -125.5t116 -42.5q98 0 157 48v-90q-55 -43 -169 -43zM453 312h234q-3 65 -34.5 94t-79.5 29q-101 0 -120 -123zM228 70q50 0 86.5 37t36.5 103v23q-112 0 -161 -22t-49 -72q0 -31 21 -50t66 -19zM386 577l73 146h139l-127 -146h-85z" />
    <glyph glyph-name="Oslashacute" unicode="&#x1fe;" horiz-adv-x="688" 
d="M345 -10q-100 0 -170 50l-57 -90h-81l88 137q-86 101 -86 288q0 181 81 283t225 102q104 0 177 -53l49 76h80l-79 -123q82 -100 82 -284q0 -181 -81 -283.5t-228 -102.5zM145 375q0 -124 39 -196l286 446q-50 47 -124 47q-94 0 -147.5 -76.5t-53.5 -220.5zM346 78
q96 0 149 77t53 221q0 115 -36 190l-285 -445q47 -43 119 -43zM299 797l93 109h149l-157 -109h-85z" />
    <glyph glyph-name="oslashacute" unicode="&#x1ff;" horiz-adv-x="544" 
d="M137 250q0 -68 23 -114l175 276q-29 20 -67 20q-58 0 -94.5 -45.5t-36.5 -136.5zM268 71q59 0 95.5 44.5t36.5 135.5q0 67 -22 111l-174 -274q27 -17 64 -17zM268 -10q-59 0 -109 25l-48 -75h-74l71 113q-71 71 -71 197q0 121 65 192t166 71q61 0 112 -28l52 82h75
l-76 -121q69 -72 69 -195q0 -122 -65 -191.5t-167 -69.5zM231 577l73 146h139l-127 -146h-85z" />
    <glyph glyph-name="Scommaaccent" unicode="&#x218;" horiz-adv-x="523" 
d="M244 -10q-123 0 -207 42v182h89v-121q63 -17 119 -17q64 0 99.5 26.5t35.5 91.5q0 28 -10 49t-31.5 36.5t-42.5 26t-55 25.5q-7 3 -10 4q-45 19 -75 36.5t-57.5 43t-41 61t-13.5 81.5q0 103 70 153t175 50q97 0 170 -28v-181h-88v116q-38 8 -79 8q-61 0 -102 -25.5
t-41 -87.5q0 -50 32.5 -79t94.5 -56q52 -21 84 -38.5t64 -44t46.5 -62t14.5 -81.5q0 -95 -59 -153t-182 -58zM227 -252l28 82q-24 3 -38 20.5t-14 42.5q0 27 18.5 46t46.5 19q40 0 56 -33t0 -74l-39 -103h-58z" />
    <glyph glyph-name="scommaaccent" unicode="&#x219;" horiz-adv-x="433" 
d="M205 -10q-98 0 -163 27v148h80v-85q44 -9 84 -9q91 0 91 66q0 29 -24.5 46t-82.5 37q-77 28 -109.5 60t-32.5 91q0 63 49.5 102.5t136.5 39.5q76 0 149 -23v-148h-80v84q-33 6 -65 6q-41 0 -65.5 -16.5t-24.5 -44.5q0 -30 21 -44.5t77 -35.5q73 -27 109 -60t36 -94
q0 -66 -45.5 -106.5t-140.5 -40.5zM169 -246l27 79q-23 3 -37 20.5t-14 41.5q0 26 18.5 44.5t45.5 18.5q38 0 54 -32t0 -72l-38 -100h-56z" />
    <glyph glyph-name="circumflex" unicode="&#x2c6;" horiz-adv-x="500" 
d="M84 570l118 153h77l118 -153h-95l-59 74h-5l-59 -74h-95z" />
    <glyph glyph-name="caron" unicode="&#x2c7;" horiz-adv-x="513" 
d="M206 570l-122 153h101l61 -74h4l59 74h101l-120 -153h-84z" />
    <glyph glyph-name="breve" unicode="&#x2d8;" horiz-adv-x="470" 
d="M214 581q-67 0 -108 37t-41 104h84q0 -69 65 -69q33 0 49.5 19t16.5 50h83q0 -68 -40.5 -104.5t-108.5 -36.5z" />
    <glyph glyph-name="dotaccent" unicode="&#x2d9;" horiz-adv-x="308" 
d="M154 618q-28 0 -47.5 19.5t-19.5 47.5q0 27 19.5 46t47.5 19q27 0 47 -19t20 -46t-20 -47t-47 -20z" />
    <glyph glyph-name="ring" unicode="&#x2da;" horiz-adv-x="358" 
d="M152 556q-42 0 -71 27t-29 67t29 66t71 26q39 0 69 -26.5t30 -65.5t-30 -66.5t-69 -27.5zM152 617q14 0 25 9.5t11 23.5t-11 23t-25 9q-15 0 -25.5 -9t-10.5 -23q0 -15 10.5 -24t25.5 -9z" />
    <glyph glyph-name="ogonek" unicode="&#x2db;" horiz-adv-x="311" 
d="M168 -151q-45 0 -70 20t-25 56q0 51 42 75h89q-25 0 -41 -11.5t-16 -32.5q0 -36 43 -36q35 0 51 22v-69q-18 -24 -73 -24z" />
    <glyph glyph-name="tilde" unicode="&#x2dc;" horiz-adv-x="350" 
d="M29 587v86q18 33 65 33q25 0 65.5 -17t60.5 -17q41 0 59 38v-87q-14 -32 -61 -32q-25 0 -66.5 16.5t-62.5 16.5q-37 0 -60 -37z" />
    <glyph glyph-name="hungarumlaut" unicode="&#x2dd;" horiz-adv-x="358" 
d="M75 577l58 146h117l-102 -146h-73zM195 577l96 146h141l-159 -146h-78z" />
    <glyph glyph-name="afii10023" unicode="&#x401;" 
d="M37 0v85h83v580h-83v85h492v-199h-89v110h-219v-233h215v-89h-215v-250h232v125h89v-214h-505zM204 793q-27 0 -45 17.5t-18 43.5t18 44t45 18t45 -18t18 -44t-18 -43.5t-45 -17.5zM399 793q-27 0 -45 17.5t-18 43.5t18 44t45 18t45 -18t18 -44t-18 -43.5t-45 -17.5z" />
    <glyph glyph-name="afii10051" unicode="&#x402;" horiz-adv-x="796" 
d="M554 -10q-63 0 -93 15v91q28 -18 72 -18q97 0 97 148q0 157 -141 157q-39 0 -77.5 -14.5t-56.5 -39.5v-329h-194v85h93v576h-145v-116h-89v205h569v-199h-89v110h-145v-244q59 54 161 54q100 0 157.5 -58.5t57.5 -185.5q0 -115 -44.5 -176t-132.5 -61z" />
    <glyph glyph-name="afii10052" unicode="&#x403;" horiz-adv-x="552" 
d="M321 0h-284v85h83v580h-83v85h492v-199h-89v110h-219v-576h100v-85zM232 800l93 109h149l-157 -109h-85z" />
    <glyph glyph-name="afii10053" unicode="&#x404;" horiz-adv-x="556" 
d="M513 27q-61 -37 -161 -37q-152 0 -232.5 100.5t-80.5 275.5q0 182 87 288t243 106q89 0 144 -25v-184h-89v118q-22 3 -48 3q-94 0 -154.5 -65t-73.5 -182h259v-89h-261q7 -124 64 -190.5t158 -66.5q93 0 145 43v-95z" />
    <glyph glyph-name="afii10054" unicode="&#x405;" horiz-adv-x="523" 
d="M244 -10q-123 0 -207 42v182h89v-121q63 -17 119 -17q64 0 99.5 26.5t35.5 91.5q0 28 -10 49t-31.5 36.5t-42.5 26t-55 25.5q-7 3 -10 4q-45 19 -75 36.5t-57.5 43t-41 61t-13.5 81.5q0 103 70 153t175 50q97 0 170 -28v-181h-88v116q-38 8 -79 8q-61 0 -102 -25.5
t-41 -87.5q0 -50 32.5 -79t94.5 -56q52 -21 84 -38.5t64 -44t46.5 -62t14.5 -81.5q0 -95 -59 -153t-182 -58z" />
    <glyph glyph-name="afii10055" unicode="&#x406;" horiz-adv-x="340" 
d="M304 0h-267v85h83v580h-83v85h267v-85h-83v-580h83v-85z" />
    <glyph glyph-name="afii10056" unicode="&#x407;" horiz-adv-x="340" 
d="M88 794q-28 0 -45.5 17.5t-17.5 43.5q0 25 17.5 43t45.5 18q27 0 45 -18t18 -43q0 -26 -18 -43.5t-45 -17.5zM249 794q-27 0 -44.5 17.5t-17.5 43.5q0 25 17.5 43t44.5 18q28 0 45.5 -18t17.5 -43q0 -26 -17.5 -43.5t-45.5 -17.5zM304 0h-267v85h83v580h-83v85h267v-85
h-83v-580h83v-85z" />
    <glyph glyph-name="afii10057" unicode="&#x408;" horiz-adv-x="354" 
d="M122 -10q-71 0 -107 23v93q35 -29 95 -29q81 0 81 115v473h-147v85h248v-550q0 -210 -170 -210z" />
    <glyph glyph-name="afii10058" unicode="&#x409;" horiz-adv-x="920" 
d="M60 -7q-22 0 -47 7v95q15 -3 30 -3q41 0 66.5 34t41 132.5t17.5 273.5l1 133h-81v85h557v-85h-100v-207h86q134 0 199.5 -62t65.5 -162q0 -101 -66 -167.5t-201 -66.5h-268v85h83v576h-185l-1 -134q-1 -104 -5.5 -175.5t-17 -144.5t-33 -116.5t-56.5 -70.5t-86 -27z
M545 89h82q76 0 119.5 36t43.5 104q0 69 -43 104.5t-120 35.5h-82v-280z" />
    <glyph glyph-name="afii10059" unicode="&#x40a;" horiz-adv-x="969" 
d="M594 89h83q76 0 119 32.5t43 93.5q0 66 -42.5 99t-120.5 33h-82v-258zM298 0h-261v85h83v580h-83v85h184v-322h272v237h-83v85h284v-85h-100v-229h86q134 0 199.5 -60t65.5 -156q0 -94 -66 -157t-200 -63h-262v85h76v254h-272v-254h77v-85z" />
    <glyph glyph-name="afii10060" unicode="&#x40b;" horiz-adv-x="823" 
d="M161 0v85h93v576h-145v-116h-89v205h569v-199h-89v110h-145v-241q49 52 159 52q200 0 200 -212v-175h83v-85h-184v232q0 84 -30.5 118.5t-96.5 34.5q-43 0 -80.5 -15t-50.5 -37v-248h77v-85h-271z" />
    <glyph glyph-name="afii10061" unicode="&#x40c;" horiz-adv-x="642" 
d="M301 85v-85h-264v85h83v580h-83v85h239v-85h-55v-257l57 20l165 237h-58v85h228v-85h-64l-190 -271l207 -309h68v-85h-131l-229 337l-53 -18v-234h80zM288 797l93 109h149l-157 -109h-85z" />
    <glyph glyph-name="afii10062" unicode="&#x40e;" horiz-adv-x="640" 
d="M345 787q-68 0 -108.5 36t-40.5 101h83q0 -27 16 -45t50 -18q33 0 49 18t16 45h84q0 -66 -40.5 -101.5t-108.5 -35.5zM387 0h-255v85h86l63 143l-209 437h-62v85h234v-85h-65l150 -315h7l178 400h116v-85h-58l-258 -580h73v-85z" />
    <glyph glyph-name="afii10145" unicode="&#x40f;" horiz-adv-x="704" 
d="M668 0h-265l-4 -159h-92l-6 159h-264v85h83v580h-83v85h184v-661h262v576h-83v85h268v-85h-84v-580h84v-85z" />
    <glyph glyph-name="afii10017" unicode="&#x410;" horiz-adv-x="646" 
d="M318 633l-95 -321h189l-89 321h-5zM228 85v-85h-223v85h62l174 580h-77v85h225l190 -665h62v-85h-142l-63 227h-238l-42 -142h72z" />
    <glyph glyph-name="afii10018" unicode="&#x411;" horiz-adv-x="616" 
d="M37 0v85h83v580h-83v85h493v-199h-89v110h-220v-215h91q131 0 197 -59.5t66 -155.5q0 -99 -67 -165t-199 -66h-272zM221 89h85q78 0 120.5 34t42.5 100q0 67 -43 101t-121 34h-84v-269z" />
    <glyph glyph-name="afii10019" unicode="&#x412;" horiz-adv-x="601" 
d="M37 0v85h83v580h-83v85h257q125 0 186 -49.5t61 -136.5q0 -64 -32.5 -106t-89.5 -62v-6q75 -18 112.5 -65.5t37.5 -116.5q0 -91 -63.5 -149.5t-197.5 -58.5h-271zM221 427h70q68 0 106.5 33.5t38.5 92.5q0 110 -145 110h-70v-236zM221 87h82q161 0 161 123q0 67 -45 99
t-123 32h-75v-254z" />
    <glyph glyph-name="afii10020" unicode="&#x413;" horiz-adv-x="552" 
d="M321 0h-284v85h83v580h-83v85h492v-199h-89v110h-219v-576h100v-85z" />
    <glyph glyph-name="afii10021" unicode="&#x414;" horiz-adv-x="696" 
d="M171 89h294v571h-203q0 -217 -17 -357.5t-74 -213.5zM107 0l-10 -155h-86v240h53q37 36 60.5 97.5t33 148.5t12 157.5t2.5 176.5h-83v85h560v-85h-83v-580h96v-240h-86l-11 155h-458z" />
    <glyph glyph-name="afii10022" unicode="&#x415;" 
d="M37 0v85h83v580h-83v85h492v-199h-89v110h-219v-233h215v-89h-215v-250h232v125h89v-214h-505z" />
    <glyph glyph-name="afii10024" unicode="&#x416;" horiz-adv-x="937" 
d="M417 402v263h-62v85h225v-85h-62v-263l50 20l166 243h-51v85h225v-85h-72l-188 -274l204 -306h77v-85h-138l-226 337l-47 -18v-234h70v-85h-241v85h70v234l-49 19l-226 -338h-134v85h76l201 300l-192 280h-67v85h226v-85h-50l164 -242z" />
    <glyph glyph-name="afii10025" unicode="&#x417;" horiz-adv-x="511" 
d="M222 -10q-105 0 -180 40v94q85 -48 171 -48q77 0 119 33t42 98q0 67 -43.5 101.5t-119.5 34.5h-64v89h65q65 0 101 34t36 92q0 56 -36 86.5t-103 30.5q-38 0 -76 -12v-112h-89v157q66 52 184 52q114 0 170 -56t56 -136q0 -62 -35 -107t-94 -63v-5q75 -14 114.5 -63
t39.5 -124q0 -100 -67.5 -158t-190.5 -58z" />
    <glyph glyph-name="afii10026" unicode="&#x418;" horiz-adv-x="743" 
d="M37 0v85h83v580h-83v85h267v-85h-83v-497h6l285 582h195v-85h-84v-580h84v-85h-268v85h83v502h-5l-286 -587h-194z" />
    <glyph glyph-name="afii10027" unicode="&#x419;" horiz-adv-x="743" 
d="M382 785q-67 0 -108 36t-41 101h83q0 -27 16 -45t50 -18q33 0 49.5 18.5t16.5 44.5h83q0 -66 -40.5 -101.5t-108.5 -35.5zM37 0v85h83v580h-83v85h267v-85h-83v-497h6l285 582h195v-85h-84v-580h84v-85h-268v85h83v502h-5l-286 -587h-194z" />
    <glyph glyph-name="afii10028" unicode="&#x41a;" horiz-adv-x="642" 
d="M301 85v-85h-264v85h83v580h-83v85h239v-85h-55v-257l57 20l165 237h-58v85h228v-85h-64l-190 -271l207 -309h68v-85h-131l-229 337l-53 -18v-234h80z" />
    <glyph glyph-name="afii10029" unicode="&#x41b;" horiz-adv-x="665" 
d="M258 527q-1 -104 -5.5 -175.5t-17 -144.5t-33 -116.5t-56.5 -70.5t-86 -27q-22 0 -47 7v95q15 -3 30 -3q41 0 66.5 34t41 132.5t17.5 273.5l2 133h-82v85h540v-85h-83v-580h83v-85h-184v661h-185z" />
    <glyph glyph-name="afii10030" unicode="&#x41c;" horiz-adv-x="930" 
d="M208 0h-171v85h83v580h-83v85h250l179 -586h3l180 586h244v-85h-83v-580h83v-85h-184v656h-5l-203 -656h-85l-203 656h-5v-656z" />
    <glyph glyph-name="afii10031" unicode="&#x41d;" horiz-adv-x="714" 
d="M304 85v-85h-267v85h83v580h-83v85h184v-322h272v237h-83v85h268v-85h-84v-580h84v-85h-185v339h-272v-254h83z" />
    <glyph glyph-name="afii10032" unicode="&#x41e;" horiz-adv-x="693" 
d="M345 -10q-144 0 -225 103t-81 282q0 181 81 283t225 102q147 0 228 -101.5t81 -282.5t-81 -283.5t-228 -102.5zM346 78q96 0 149 77t53 221q0 143 -53 219.5t-149 76.5q-94 0 -147.5 -76.5t-53.5 -220.5q0 -143 53.5 -220t147.5 -77z" />
    <glyph glyph-name="afii10033" unicode="&#x41f;" horiz-adv-x="704" 
d="M304 85v-85h-267v85h83v580h-83v85h631v-85h-84v-580h84v-85h-185v661h-262v-576h83z" />
    <glyph glyph-name="afii10034" unicode="&#x420;" horiz-adv-x="583" 
d="M321 0h-284v85h83v580h-83v85h262q134 0 197 -63t63 -155q0 -96 -64 -162t-197 -66h-77v-219h100v-85zM221 394h79q70 0 111.5 35.5t41.5 102.5q0 61 -42 95t-111 34h-79v-267z" />
    <glyph glyph-name="afii10035" unicode="&#x421;" horiz-adv-x="556" 
d="M513 27q-61 -37 -161 -37q-152 0 -232.5 100.5t-80.5 275.5q0 182 87 288t243 106q89 0 144 -25v-184h-89v118q-22 3 -48 3q-105 0 -168 -81.5t-63 -223.5q0 -138 58 -213t165 -75q93 0 145 43v-95z" />
    <glyph glyph-name="afii10036" unicode="&#x422;" horiz-adv-x="609" 
d="M448 0h-287v85h93v576h-145v-116h-89v205h569v-205h-89v116h-145v-576h93v-85z" />
    <glyph glyph-name="afii10037" unicode="&#x423;" horiz-adv-x="640" 
d="M387 0h-255v85h86l63 143l-209 437h-62v85h234v-85h-65l150 -315h7l178 400h116v-85h-58l-258 -580h73v-85z" />
    <glyph glyph-name="afii10038" unicode="&#x424;" horiz-adv-x="759" 
d="M507 -10h-255v79h77v49q-137 2 -223 72t-86 185q0 117 85 186.5t224 72.5v48h-77v78h255v-78h-77v-48q138 -3 223 -73t85 -186t-85 -185.5t-223 -71.5v-49h77v-79zM329 199v353q-96 -1 -149.5 -48t-53.5 -129q0 -80 53.5 -127t149.5 -49zM430 199q96 2 149 48t53 128
q0 81 -53 128.5t-149 48.5v-353z" />
    <glyph glyph-name="afii10039" unicode="&#x425;" horiz-adv-x="632" 
d="M234 85v-85h-223v85h74l170 307l-160 273h-76v85h137l159 -272l101 187h-45v85h214v-85h-73l-149 -269l183 -311h75v-85h-137l-180 309l-124 -224h54z" />
    <glyph glyph-name="afii10040" unicode="&#x426;" horiz-adv-x="728" 
d="M694 -155h-86l-10 155h-561v85h83v580h-83v85h184v-661h276v576h-83v85h267v-85h-83v-580h96v-240z" />
    <glyph glyph-name="afii10041" unicode="&#x427;" horiz-adv-x="689" 
d="M653 0h-284v85h100v241q-55 -27 -141 -27q-226 0 -226 246v120h-83v85h184v-198q0 -92 34.5 -129t102.5 -37q37 0 69 6.5t46 13.5l14 6v253h-83v85h267v-85h-83v-580h83v-85z" />
    <glyph glyph-name="afii10042" unicode="&#x428;" horiz-adv-x="983" 
d="M37 0v85h83v580h-83v85h264v-85h-80v-576h220v661h101v-661h220v576h-80v85h264v-85h-83v-580h83v-85h-909z" />
    <glyph glyph-name="afii10043" unicode="&#x429;" horiz-adv-x="993" 
d="M959 -155h-86l-11 155h-825v85h83v580h-83v85h264v-85h-80v-576h220v661h101v-661h220v576h-80v85h264v-85h-83v-580h96v-240z" />
    <glyph glyph-name="afii10044" unicode="&#x42a;" horiz-adv-x="705" 
d="M415 0h-268v85h83v576h-121v-116h-89v205h411v-85h-100v-207h86q134 0 199 -62t65 -162t-66 -167t-200 -67zM331 89h82q76 0 119 36t43 104q0 69 -42.5 104.5t-120.5 35.5h-81v-280z" />
    <glyph glyph-name="afii10045" unicode="&#x42b;" horiz-adv-x="873" 
d="M653 0v665h-83v85h267v-85h-83v-580h83v-85h-184zM37 0v85h83v580h-83v85h284v-85h-100v-207h86q134 0 199 -62t65 -162t-66 -167t-200 -67h-268zM221 89h82q76 0 119 36t43 104q0 69 -42.5 104.5t-120.5 35.5h-81v-280z" />
    <glyph glyph-name="afii10046" unicode="&#x42c;" 
d="M37 0v85h83v580h-83v85h284v-85h-100v-207h86q134 0 199 -62t65 -162t-66 -167t-200 -67h-268zM221 89h82q76 0 119 36t43 104q0 69 -42.5 104.5t-120.5 35.5h-81v-280z" />
    <glyph glyph-name="afii10047" unicode="&#x42d;" horiz-adv-x="555" 
d="M212 -10q-101 0 -169 37v94q71 -41 161 -41q92 0 145 66.5t61 192.5h-251v90h250q-8 119 -58.5 182.5t-135.5 63.5q-44 0 -83 -11v-113h-89v157q67 52 179 52q144 0 219.5 -100.5t75.5 -275.5q0 -186 -78.5 -290t-226.5 -104z" />
    <glyph glyph-name="afii10048" unicode="&#x42e;" horiz-adv-x="973" 
d="M627 -10q-137 0 -217.5 94.5t-86.5 254.5h-102v-254h73v-85h-257v85h83v580h-83v85h184v-322h104q13 155 91 243.5t211 88.5q147 0 227 -103.5t80 -280.5q0 -178 -80.5 -282t-226.5 -104zM628 81q95 0 146.5 76t53.5 219q2 140 -51.5 216.5t-148.5 76.5q-93 0 -145.5 -76
t-54.5 -218q-2 -140 52 -217t148 -77z" />
    <glyph glyph-name="afii10049" unicode="&#x42f;" horiz-adv-x="643" 
d="M336 405h87v256h-86q-74 0 -116.5 -33t-42.5 -95q0 -61 42.5 -94.5t115.5 -33.5zM149 0l-11 3v-3h-123v85h70l150 249q-79 22 -121 76t-42 126q0 91 63.5 152.5t202.5 61.5h269v-85h-83v-580h83v-85h-258v85h74v231h-85z" />
    <glyph glyph-name="afii10065" unicode="&#x430;" horiz-adv-x="528" 
d="M215 70q49 0 82 36.5t33 103.5v23q-103 0 -146 -22t-43 -74q0 -29 19 -48t55 -19zM329 79q-26 -45 -58 -67t-87 -22q-68 0 -106 38.5t-38 99.5q0 89 71 130.5t219 41.5v23q0 107 -118 107q-75 0 -141 -45v91q60 37 156 37q199 0 199 -192v-243h77v-78h-168v79h-6z" />
    <glyph glyph-name="afii10066" unicode="&#x431;" horiz-adv-x="550" 
d="M276 -10q-232 0 -232 330q0 210 75.5 302t243.5 99q7 0 19.5 0.5t17.5 0.5v67h80v-146q-29 -5 -112 -8q-120 -5 -176 -59.5t-66 -185.5h6q19 47 62.5 76.5t107.5 29.5q92 0 151.5 -67t59.5 -181q0 -118 -67 -188t-170 -70zM278 74q59 0 96.5 45.5t37.5 127.5
q0 80 -37 123.5t-96 43.5t-96 -43.5t-37 -124.5q0 -82 37 -127t95 -45z" />
    <glyph glyph-name="afii10067" unicode="&#x432;" horiz-adv-x="531" 
d="M40 0v78h77v347h-77v78h231q196 0 196 -126q0 -45 -24.5 -74t-68.5 -38v-6q55 -8 84 -39t29 -75q0 -65 -45.5 -105t-146.5 -40h-255zM213 291h56q97 0 97 75q0 64 -97 64h-56v-139zM213 72h75q47 0 72.5 20t25.5 55q0 75 -98 75h-75v-150z" />
    <glyph glyph-name="afii10068" unicode="&#x433;" horiz-adv-x="456" 
d="M307 0h-267v78h77v347h-77v78h396v-183h-79v103h-144v-345h94v-78z" />
    <glyph glyph-name="afii10069" unicode="&#x434;" horiz-adv-x="581" 
d="M154 80h206v343h-142q-2 -253 -64 -343zM103 0l-10 -132h-81v212h49q68 88 76 345h-76v78h472v-78h-76v-345h83v-212h-81l-10 132h-346z" />
    <glyph glyph-name="afii10070" unicode="&#x435;" horiz-adv-x="496" 
d="M280 -10q-116 0 -179.5 65.5t-63.5 194.5q0 122 61 192.5t161 70.5q91 0 145.5 -53t54.5 -153q0 -50 -6 -65h-311q1 -169 151 -169q91 0 150 48v-88q-53 -43 -163 -43zM141 313h221q-1 62 -30.5 92t-77.5 30q-96 0 -113 -122z" />
    <glyph glyph-name="afii10072" unicode="&#x436;" horiz-adv-x="786" 
d="M24 0v78h62l142 191l-127 156h-62v78h196v-78h-33l104 -129l39 -9v138h-46v78h187v-78h-45v-138l38 9l105 129h-34v78h197v-78h-66l-123 -151l144 -196h60v-78h-121l-161 221l-39 -10v-133h59v-78h-214v78h59v133l-39 10l-162 -221h-120z" />
    <glyph glyph-name="afii10073" unicode="&#x437;" horiz-adv-x="431" 
d="M194 -10q-92 0 -154 35v88q74 -45 150 -45q100 0 100 73q0 76 -93 76h-60v76h62q38 0 57.5 19.5t19.5 51.5q0 71 -86 71q-36 0 -67 -7v-86h-78v145q70 26 149 26q92 0 136 -37.5t44 -96.5q0 -89 -94 -116v-5q50 -9 79 -39.5t29 -79.5q0 -66 -47 -107.5t-147 -41.5z" />
    <glyph glyph-name="afii10074" unicode="&#x438;" horiz-adv-x="641" 
d="M40 0v78h77v347h-77v78h244v-78h-73v-289h5l214 367h171v-78h-77v-347h77v-78h-244v78h74v285h-5l-215 -363h-171z" />
    <glyph glyph-name="afii10075" unicode="&#x439;" horiz-adv-x="641" 
d="M40 0v78h77v347h-77v78h244v-78h-73v-289h5l214 367h171v-78h-77v-347h77v-78h-244v78h74v285h-5l-215 -363h-171zM321 554q-67 0 -108 37t-41 104h84q0 -69 65 -69q33 0 49.5 19t16.5 50h83q0 -68 -40.5 -104.5t-108.5 -36.5z" />
    <glyph glyph-name="afii10076" unicode="&#x43a;" horiz-adv-x="565" 
d="M277 78v-78h-237v78h77v347h-77v78h173v-217l46 10l104 129h-43v78h206v-78h-65l-124 -150l145 -197h59v-78h-121l-162 221l-45 -10v-133h64z" />
    <glyph glyph-name="afii10077" unicode="&#x43b;" horiz-adv-x="555" 
d="M222 420q-1 -65 -3.5 -113.5t-9.5 -100.5t-19 -87.5t-30.5 -65.5t-46.5 -45t-64 -15l-34 4v91q12 -3 23 -3q51 0 73.5 83.5t27.5 256.5h-76v78h452v-78h-77v-347h77v-78h-173v420h-120z" />
    <glyph glyph-name="afii10078" unicode="&#x43c;" horiz-adv-x="794" 
d="M226 78v-78h-186v78h77v347h-77v78h224l131 -376h5l133 376h220v-78h-77v-347h77v-78h-173v406h-5l-145 -406h-80l-145 406h-5v-328h26z" />
    <glyph glyph-name="afii10079" unicode="&#x43d;" horiz-adv-x="611" 
d="M284 78v-78h-244v78h77v347h-77v78h173v-203h185v125h-71v78h244v-78h-77v-347h77v-78h-173v220h-185v-142h71z" />
    <glyph glyph-name="afii10080" unicode="&#x43e;" horiz-adv-x="537" 
d="M268 -10q-102 0 -166.5 69.5t-64.5 190.5t65 192t166 71t166.5 -70.5t65.5 -191.5q0 -122 -65 -191.5t-167 -69.5zM268 74q58 0 94.5 44.5t36.5 132.5t-37 133t-94 45q-58 0 -94 -45t-36 -134q0 -88 36 -132t94 -44z" />
    <glyph glyph-name="afii10081" unicode="&#x43f;" horiz-adv-x="601" 
d="M284 78v-78h-244v78h77v347h-77v78h521v-78h-77v-347h77v-78h-173v423h-175v-345h71z" />
    <glyph glyph-name="afii10082" unicode="&#x440;" horiz-adv-x="592" 
d="M329 74q55 0 90 45t35 136q0 87 -35.5 130.5t-89.5 43.5q-59 0 -94.5 -35t-35.5 -102v-70q0 -70 37 -109t93 -39zM279 -250h-252v78h76v597h-76v78h167v-71h7q49 81 156 81q88 0 143 -70t55 -187q0 -124 -55 -195t-144 -71q-100 0 -155 80h-7l5 -80v-162h80v-78z" />
    <glyph glyph-name="afii10083" unicode="&#x441;" horiz-adv-x="466" 
d="M416 21q-50 -31 -134 -31q-117 0 -181 68t-64 192q0 122 67.5 192.5t176.5 70.5q81 0 133 -26h2v-164h-80v102q-23 4 -50 4q-67 0 -107.5 -45.5t-40.5 -132.5q0 -89 41 -133t111 -44q79 0 126 39v-92z" />
    <glyph glyph-name="afii10084" unicode="&#x442;" horiz-adv-x="495" 
d="M382 0h-270v78h87v345h-99v-103h-80v183h455v-183h-79v103h-101v-345h87v-78z" />
    <glyph glyph-name="afii10085" unicode="&#x443;" horiz-adv-x="527" 
d="M318 -250h-228v78h72l61 166l-161 431h-57v78h129l134 -377h8l101 299h-57v78h202v-78h-55l-214 -597h65v-78z" />
    <glyph glyph-name="afii10086" unicode="&#x444;" horiz-adv-x="691" 
d="M480 -250h-270v78h87v163q-125 4 -193.5 74t-68.5 185q0 116 68.5 188t193.5 74v163h-77v78h173v-241q124 -3 193 -73t69 -185q0 -118 -69.5 -190t-192.5 -73v-163h87v-78zM393 72q77 1 119 49t42 133q0 83 -42 129.5t-119 48.5v-360zM297 72v360q-77 -1 -119 -49.5
t-42 -132.5q0 -83 42 -129.5t119 -48.5z" />
    <glyph glyph-name="afii10087" unicode="&#x445;" horiz-adv-x="532" 
d="M229 78v-78h-194v78h58l117 178l-111 169h-67v78h124l126 -191l71 113h-52v78h194v-78h-57l-115 -175l114 -172h59v-78h-116l-128 194l-74 -116h51z" />
    <glyph glyph-name="afii10088" unicode="&#x446;" horiz-adv-x="611" 
d="M571 -132h-81l-10 132h-440v78h77v347h-77v78h173v-423h175v345h-71v78h244v-78h-77v-347h87v-210z" />
    <glyph glyph-name="afii10089" unicode="&#x447;" horiz-adv-x="583" 
d="M543 0h-260v78h87v135q-42 -19 -101 -19q-85 0 -130.5 45.5t-45.5 134.5v51h-76v78h172v-127q0 -101 100 -101q47 0 81 17v133h-74v78h247v-78h-77v-347h77v-78z" />
    <glyph glyph-name="afii10090" unicode="&#x448;" horiz-adv-x="831" 
d="M40 0v78h77v347h-77v78h244v-78h-71v-345h154v423h96v-423h154v345h-70v78h243v-78h-77v-347h77v-78h-750z" />
    <glyph glyph-name="afii10091" unicode="&#x449;" horiz-adv-x="841" 
d="M800 -132h-81l-10 132h-669v78h77v347h-77v78h244v-78h-71v-345h154v423h96v-423h154v345h-70v78h243v-78h-77v-347h87v-210z" />
    <glyph glyph-name="afii10092" unicode="&#x44a;" horiz-adv-x="583" 
d="M346 0h-234v78h77v347h-89v-88h-80v166h342v-78h-77v-103h61q111 0 159.5 -45t48.5 -113q0 -71 -48.5 -117.5t-159.5 -46.5zM285 77h69q49 0 74 22.5t25 62.5q0 82 -99 82h-69v-167z" />
    <glyph glyph-name="afii10093" unicode="&#x44b;" horiz-adv-x="746" 
d="M533 0v425h-77v78h250v-78h-77v-347h77v-78h-173zM40 0v78h77v347h-77v78h250v-78h-77v-103h61q111 0 159.5 -45t48.5 -113q0 -71 -48.5 -117.5t-159.5 -46.5h-234zM213 77h69q49 0 74 22.5t25 62.5q0 82 -99 82h-69v-167z" />
    <glyph glyph-name="afii10094" unicode="&#x44c;" horiz-adv-x="511" 
d="M40 0v78h77v347h-77v78h250v-78h-77v-103h61q111 0 159.5 -45t48.5 -113q0 -71 -48.5 -117.5t-159.5 -46.5h-234zM213 77h69q49 0 74 22.5t25 62.5q0 82 -99 82h-69v-167z" />
    <glyph glyph-name="afii10095" unicode="&#x44d;" horiz-adv-x="470" 
d="M182 -10q-90 0 -135 31v92q47 -39 127 -39q63 0 103 35.5t49 107.5h-181v77h181q-9 70 -48 105.5t-98 35.5q-30 0 -54 -5v-88h-79v145q52 26 139 26q106 0 174.5 -69.5t68.5 -186.5q0 -127 -64.5 -197t-182.5 -70z" />
    <glyph glyph-name="afii10096" unicode="&#x44e;" horiz-adv-x="764" 
d="M507 -10q-90 0 -150 61t-68 169h-76v-142h61v-78h-234v78h77v347h-77v78h173v-204h78q13 100 72 157t144 57q95 0 157.5 -70.5t62.5 -191.5t-62 -191t-158 -70zM507 74q53 0 86 44t33 133q0 88 -33.5 133t-85.5 45t-85 -45t-33 -134q0 -88 33 -132t85 -44z" />
    <glyph glyph-name="afii10097" unicode="&#x44f;" horiz-adv-x="546" 
d="M267 266h65v159h-65q-51 0 -78.5 -21.5t-27.5 -58.5t27.5 -58t78.5 -21zM143 0h-115v78h59l89 134q-56 13 -86 48.5t-30 86.5q0 65 47.5 110.5t146.5 45.5h251v-78h-77v-347h77v-78h-230v78h57v115h-62z" />
    <glyph glyph-name="afii10071" unicode="&#x451;" horiz-adv-x="496" 
d="M280 -10q-116 0 -179.5 65.5t-63.5 194.5q0 122 61 192.5t161 70.5q91 0 145.5 -53t54.5 -153q0 -50 -6 -65h-311q1 -169 151 -169q91 0 150 48v-88q-53 -43 -163 -43zM141 313h221q-1 62 -30.5 92t-77.5 30q-96 0 -113 -122zM156 584q-27 0 -46.5 19t-19.5 47
q0 27 19.5 46.5t46.5 19.5t46.5 -19.5t19.5 -46.5q0 -28 -19.5 -47t-46.5 -19zM357 584q-28 0 -46.5 19t-18.5 47q0 27 19 46.5t46 19.5q26 0 46 -19.5t20 -46.5t-19.5 -46.5t-46.5 -19.5z" />
    <glyph glyph-name="afii10099" unicode="&#x452;" horiz-adv-x="559" 
d="M356 -10q-48 0 -78 16v86q26 -18 65 -18q81 0 81 186q0 167 -110 167q-52 0 -81.5 -34t-29.5 -91v-302h-173v78h77v507h-84v72h84v93h96v-93h139v-72h-139v-75l-4 -77h7q47 80 139 80q88 0 131.5 -66t43.5 -186q0 -271 -164 -271z" />
    <glyph glyph-name="afii10100" unicode="&#x453;" horiz-adv-x="456" 
d="M307 0h-267v78h77v347h-77v78h396v-183h-79v103h-144v-345h94v-78zM189 577l73 146h139l-127 -146h-85z" />
    <glyph glyph-name="afii10101" unicode="&#x454;" horiz-adv-x="466" 
d="M416 21q-45 -31 -134 -31q-118 0 -183 68t-65 192q0 122 68.5 192.5t178.5 70.5q81 0 135 -27v-144h-78v82q-21 5 -52 5q-59 0 -99 -34.5t-49 -101.5h183v-77h-184q8 -71 48.5 -106.5t104.5 -35.5q79 0 126 39v-92z" />
    <glyph glyph-name="afii10102" unicode="&#x455;" horiz-adv-x="433" 
d="M205 -10q-98 0 -163 27v148h80v-85q44 -9 84 -9q91 0 91 66q0 29 -24.5 46t-82.5 37q-77 28 -109.5 60t-32.5 91q0 63 49.5 102.5t136.5 39.5q76 0 149 -23v-148h-80v84q-33 6 -65 6q-41 0 -65.5 -16.5t-24.5 -44.5q0 -30 21 -44.5t77 -35.5q73 -27 109 -60t36 -94
q0 -66 -45.5 -106.5t-140.5 -40.5z" />
    <glyph glyph-name="afii10103" unicode="&#x456;" horiz-adv-x="313" 
d="M103 0v425h-76v78h172v-425h77v-78h-173zM142 591q-28 0 -47.5 19.5t-19.5 47.5q0 27 19.5 46t47.5 19q27 0 47 -19t20 -46t-20 -47t-47 -20z" />
    <glyph glyph-name="afii10104" unicode="&#x457;" horiz-adv-x="313" 
d="M45 591q-25 0 -42 18.5t-17 47.5q0 27 17 46t42 19q26 0 42.5 -19t16.5 -46q0 -29 -16.5 -47.5t-42.5 -18.5zM204 591q-27 0 -43 18.5t-16 47.5q0 28 16.5 46.5t42.5 18.5q25 0 42 -19t17 -46q0 -28 -17 -47t-42 -19zM103 0v425h-76v78h172v-425h77v-78h-173z" />
    <glyph glyph-name="afii10105" unicode="&#x458;" horiz-adv-x="278" 
d="M54 -260q-54 0 -86 16v87q25 -19 61 -19q41 0 57 30t16 123v448h-83v78h179v-545q0 -118 -34.5 -168t-109.5 -50zM145 590q-28 0 -47.5 19.5t-19.5 47.5q0 27 19.5 46t47.5 19q27 0 47 -19t20 -46t-20 -47t-47 -20z" />
    <glyph glyph-name="afii10106" unicode="&#x459;" horiz-adv-x="736" 
d="M222 420q-1 -65 -3.5 -113.5t-9.5 -100.5t-19 -87.5t-30.5 -65.5t-46.5 -45t-64 -15l-34 4v91q12 -3 23 -3q51 0 73.5 84.5t27.5 255.5h-76v78h452v-78h-77v-103h61q111 0 159.5 -45t48.5 -113q0 -69 -47.5 -115.5t-154.5 -48.5h-237v78h74v342h-120zM438 77h69
q49 0 74 22.5t25 62.5q0 38 -25.5 60t-73.5 22h-69v-167z" />
    <glyph glyph-name="afii10107" unicode="&#x45a;" horiz-adv-x="792" 
d="M494 77h69q49 0 74 20t25 56q0 70 -99 70h-69v-146zM284 78v-78h-244v78h77v347h-77v78h173v-203h185v125h-71v78h244v-78h-77v-124h61q111 0 159.5 -42t48.5 -105q0 -66 -47 -109.5t-154 -44.5h-164v220h-185v-142h71z" />
    <glyph glyph-name="afii10108" unicode="&#x45b;" horiz-adv-x="607" 
d="M284 78v-78h-244v78h77v507h-94v72h94v93h96v-93h129v-72h-129v-75l-4 -77h7q47 80 139 80q149 0 149 -180v-255h77v-78h-173v295q0 68 -22.5 100t-70.5 32q-46 0 -74 -33.5t-28 -91.5v-224h71z" />
    <glyph glyph-name="afii10109" unicode="&#x45c;" horiz-adv-x="565" 
d="M277 78v-78h-237v78h77v347h-77v78h173v-217l46 10l104 129h-43v78h206v-78h-65l-124 -150l145 -197h59v-78h-121l-162 221l-45 -10v-133h64zM224 577l73 146h139l-127 -146h-85z" />
    <glyph glyph-name="afii10110" unicode="&#x45e;" horiz-adv-x="527" 
d="M318 -250h-228v78h72l61 166l-161 431h-57v78h129l134 -377h8l101 299h-57v78h202v-78h-55l-214 -597h65v-78zM254 554q-67 0 -108 37t-41 104h84q0 -69 65 -69q33 0 49.5 19t16.5 50h83q0 -68 -40.5 -104.5t-108.5 -36.5z" />
    <glyph glyph-name="afii10193" unicode="&#x45f;" horiz-adv-x="612" 
d="M571 0h-218l-4 -135h-84l-5 135h-220v78h77v347h-77v78h173v-420h186v342h-77v78h249v-78h-76v-347h76v-78z" />
    <glyph glyph-name="afii10050" unicode="&#x490;" horiz-adv-x="542" 
d="M321 0h-284v85h83v580h-83v85h385l11 155h86v-244h-298v-576h100v-85z" />
    <glyph glyph-name="afii10098" unicode="&#x491;" horiz-adv-x="449" 
d="M307 0h-267v78h77v347h-77v78h299l9 135h81v-215h-216v-345h94v-78z" />
    <glyph glyph-name="uni0492" unicode="&#x492;" horiz-adv-x="569" 
d="M30 350v75h107v240h-83v85h492v-199h-89v110h-219v-236h136v-75h-136v-265h100v-85h-284v85h83v265h-107z" />
    <glyph glyph-name="uni0493" unicode="&#x493;" horiz-adv-x="466" 
d="M318 0h-270v78h77v141h-93v76h93v130h-77v78h398v-168h-81v88h-144v-128h99v-76h-99v-141h97v-78z" />
    <glyph glyph-name="uni0496" unicode="&#x496;" horiz-adv-x="940" 
d="M417 402v263h-62v85h225v-85h-62v-263l50 20l166 243h-51v85h225v-85h-72l-188 -274l204 -306h80v-240h-86l-11 155h-44l-226 337l-47 -18v-234h70v-85h-241v85h70v234l-49 19l-226 -338h-134v85h76l201 300l-192 280h-67v85h226v-85h-50l164 -242z" />
    <glyph glyph-name="uni0497" unicode="&#x497;" horiz-adv-x="785" 
d="M24 0v78h62l142 191l-127 156h-62v78h196v-78h-33l104 -129l39 -9v138h-46v78h187v-78h-45v-138l38 9l105 129h-34v78h197v-78h-66l-123 -151l144 -196h60v-210h-81l-10 132h-30l-161 221l-39 -10v-133h59v-78h-214v78h59v133l-39 10l-162 -221h-120z" />
    <glyph glyph-name="uni049A" unicode="&#x49a;" horiz-adv-x="649" 
d="M301 85v-85h-264v85h83v580h-83v85h239v-85h-55v-257l57 20l165 237h-58v85h228v-85h-64l-190 -271l207 -309h75v-240h-86l-11 155h-41l-229 337l-53 -18v-234h80z" />
    <glyph glyph-name="uni049B" unicode="&#x49b;" horiz-adv-x="565" 
d="M277 78v-78h-237v78h77v347h-77v78h173v-217l46 10l104 129h-43v78h206v-78h-65l-124 -150l145 -197h59v-210h-81l-10 132h-30l-162 221l-45 -10v-133h64z" />
    <glyph glyph-name="uni04A2" unicode="&#x4a2;" horiz-adv-x="738" 
d="M304 85v-85h-267v85h83v580h-83v85h184v-322h272v237h-83v85h268v-85h-84v-580h96v-240h-86l-10 155h-101v339h-272v-254h83z" />
    <glyph glyph-name="uni04A3" unicode="&#x4a3;" horiz-adv-x="621" 
d="M284 78v-78h-244v78h77v347h-77v78h173v-203h185v125h-71v78h244v-78h-77v-347h87v-210h-81l-10 132h-92v220h-185v-142h71z" />
    <glyph glyph-name="uni04AE" unicode="&#x4ae;" horiz-adv-x="630" 
d="M467 0h-287v85h93v229l-195 351h-75v85h143l182 -334h5l126 249h-63v85h231v-85h-72l-181 -350v-230h93v-85z" />
    <glyph glyph-name="uni04AF" unicode="&#x4af;" horiz-adv-x="511" 
d="M308 0v-250h-96v250l-157 425h-57v78h128l134 -382h8l97 304h-62v78h203v-78h-54z" />
    <glyph glyph-name="uni04B0" unicode="&#x4b0;" horiz-adv-x="630" 
d="M109 300v75h130l-161 290h-75v85h143l182 -334h5l126 249h-63v85h231v-85h-72l-150 -290h131v-75h-162v-215h93v-85h-287v85h93v215h-164z" />
    <glyph glyph-name="uni04B1" unicode="&#x4b1;" horiz-adv-x="511" 
d="M445 -39h-137v-211h-96v211h-138v74h125l-144 390h-57v78h128l134 -382h8l97 304h-62v78h203v-78h-54l-132 -390h125v-74z" />
    <glyph glyph-name="uni04B2" unicode="&#x4b2;" horiz-adv-x="647" 
d="M234 85v-85h-223v85h74l170 307l-160 273h-76v85h137l159 -272l101 187h-45v85h214v-85h-73l-149 -269l183 -311h90v-240h-86l-11 155h-55l-180 309l-124 -224h54z" />
    <glyph glyph-name="uni04B3" unicode="&#x4b3;" horiz-adv-x="526" 
d="M229 78v-78h-194v78h58l117 178l-111 169h-67v78h124l126 -191l71 113h-52v78h194v-78h-57l-115 -175l114 -172h66v-210h-81l-11 132h-31l-128 194l-74 -116h51z" />
    <glyph glyph-name="uni04B6" unicode="&#x4b6;" horiz-adv-x="699" 
d="M580 -155l-10 155h-201v85h100v241q-55 -27 -141 -27q-226 0 -226 246v120h-83v85h184v-198q0 -92 34.5 -129t102.5 -37q37 0 69 6.5t46 13.5l14 6v253h-83v85h267v-85h-83v-580h96v-240h-86z" />
    <glyph glyph-name="uni04B7" unicode="&#x4b7;" horiz-adv-x="593" 
d="M472 -132l-10 132h-179v78h87v135q-42 -19 -101 -19q-85 0 -130.5 45.5t-45.5 134.5v51h-76v78h172v-127q0 -101 100 -101q47 0 81 17v133h-74v78h247v-78h-77v-347h87v-210h-81z" />
    <glyph glyph-name="uni04BA" unicode="&#x4ba;" horiz-adv-x="696" 
d="M304 85v-85h-267v85h83v580h-83v85h284v-85h-100v-226q55 27 141 27q107 0 166 -60t59 -186v-135h84v-85h-185v213q0 92 -34.5 129t-102.5 37q-36 0 -68 -6.5t-46 -12.5l-14 -6v-269h83z" />
    <glyph glyph-name="uni04BB" unicode="&#x4bb;" horiz-adv-x="596" 
d="M274 78v-78h-244v78h77v594h-77v78h172v-240l-3 -77h7q47 80 139 80q149 0 149 -180v-255h77v-78h-173v295q0 132 -94 132q-46 0 -73.5 -33.5t-27.5 -91.5v-224h71z" />
    <glyph glyph-name="uni04D8" unicode="&#x4d8;" horiz-adv-x="665" 
d="M335 -10q-135 0 -212.5 96.5t-78.5 268.5q-1 17 1 34l2 -1v1h473q-5 286 -220 286q-73 0 -136 -22v-110h-89v157q86 60 230 60q156 0 238.5 -100.5t82.5 -282.5q0 -181 -79.5 -284t-211.5 -103zM338 78q71 0 118.5 57.5t59.5 168.5h-365q9 -108 58.5 -167t128.5 -59z" />
    <glyph glyph-name="uni04D9" unicode="&#x4d9;" horiz-adv-x="499" 
d="M241 -10q-91 0 -146 53t-55 153q0 44 6 64h311q-1 169 -149 169q-40 0 -73 -10v-77h-78v130q63 41 163 41q116 0 179.5 -65t63.5 -194q0 -122 -61.5 -193t-160.5 -71zM245 69q96 0 113 121h-220q1 -62 30 -91.5t77 -29.5z" />
    <glyph glyph-name="uni04E2" unicode="&#x4e2;" horiz-adv-x="743" 
d="M37 0v85h83v580h-83v85h267v-85h-83v-497h6l285 582h195v-85h-84v-580h84v-85h-268v85h83v502h-5l-286 -587h-194zM239 816v73h247v-73h-247z" />
    <glyph glyph-name="uni04E3" unicode="&#x4e3;" horiz-adv-x="641" 
d="M40 0v78h77v347h-77v78h244v-78h-73v-289h5l214 367h171v-78h-77v-347h77v-78h-244v78h74v285h-5l-215 -363h-171zM192 616v73h253v-73h-253z" />
    <glyph glyph-name="uni04E8" unicode="&#x4e8;" horiz-adv-x="693" 
d="M345 -10q-144 0 -225 103t-81 282q0 181 81 283t225 102q147 0 228 -101.5t81 -282.5t-81 -283.5t-228 -102.5zM346 78q90 0 142 67.5t59 195.5h-401q6 -128 58.5 -195.5t141.5 -67.5zM346 672q-86 0 -138 -63.5t-61 -182.5h399q-9 119 -61 182.5t-139 63.5z" />
    <glyph glyph-name="uni04E9" unicode="&#x4e9;" horiz-adv-x="537" 
d="M268 -10q-102 0 -166.5 69.5t-64.5 190.5t65 192t166 71t166.5 -70.5t65.5 -191.5q0 -122 -65 -191.5t-167 -69.5zM268 74q52 0 88 37t42 111h-259q6 -75 41 -111.5t88 -36.5zM268 429q-50 0 -84.5 -34t-43.5 -102h256q-9 67 -44 101.5t-84 34.5z" />
    <glyph glyph-name="uni04EE" unicode="&#x4ee;" horiz-adv-x="640" 
d="M387 0h-255v85h86l63 143l-209 437h-62v85h234v-85h-65l150 -315h7l178 400h116v-85h-58l-258 -580h73v-85zM218 816v73h247v-73h-247z" />
    <glyph glyph-name="uni04EF" unicode="&#x4ef;" horiz-adv-x="527" 
d="M318 -250h-228v78h72l61 166l-161 431h-57v78h129l134 -377h8l101 299h-57v78h202v-78h-55l-214 -597h65v-78zM136 616v73h253v-73h-253z" />
    <glyph glyph-name="Wgrave" unicode="&#x1e80;" horiz-adv-x="921" 
d="M454 553l-130 -553h-83l-172 665h-64v85h146l140 -540h6l129 540h79l133 -542h7l116 457h-65v85h220v-85h-62l-172 -665h-84l-137 553h-7zM407 797l-163 109h155l98 -109h-90z" />
    <glyph glyph-name="wgrave" unicode="&#x1e81;" horiz-adv-x="718" 
d="M347 370l-84 -370h-102l-117 425h-53v78h126l101 -381h7l87 381h90l102 -381h7l72 303h-58v78h188v-78h-48l-109 -425h-105l-99 370h-5zM309 577l-122 146h145l60 -146h-83z" />
    <glyph glyph-name="Wacute" unicode="&#x1e82;" horiz-adv-x="921" 
d="M454 553l-130 -553h-83l-172 665h-64v85h146l140 -540h6l129 540h79l133 -542h7l116 457h-65v85h220v-85h-62l-172 -665h-84l-137 553h-7zM432 797l93 109h149l-157 -109h-85z" />
    <glyph glyph-name="wacute" unicode="&#x1e83;" horiz-adv-x="718" 
d="M347 370l-84 -370h-102l-117 425h-53v78h126l101 -381h7l87 381h90l102 -381h7l72 303h-58v78h188v-78h-48l-109 -425h-105l-99 370h-5zM316 577l73 146h139l-127 -146h-85z" />
    <glyph glyph-name="Wdieresis" unicode="&#x1e84;" horiz-adv-x="921" 
d="M454 553l-130 -553h-83l-172 665h-64v85h146l140 -540h6l129 540h79l133 -542h7l116 457h-65v85h220v-85h-62l-172 -665h-84l-137 553h-7zM368 793q-27 0 -45 17.5t-18 43.5t18 44t45 18t45 -18t18 -44t-18 -43.5t-45 -17.5zM563 793q-27 0 -45 17.5t-18 43.5t18 44
t45 18t45 -18t18 -44t-18 -43.5t-45 -17.5z" />
    <glyph glyph-name="wdieresis" unicode="&#x1e85;" horiz-adv-x="718" 
d="M347 370l-84 -370h-102l-117 425h-53v78h126l101 -381h7l87 381h90l102 -381h7l72 303h-58v78h188v-78h-48l-109 -425h-105l-99 370h-5zM252 584q-27 0 -46.5 19t-19.5 47q0 27 19.5 46.5t46.5 19.5t46.5 -19.5t19.5 -46.5q0 -28 -19.5 -47t-46.5 -19zM453 584
q-28 0 -46.5 19t-18.5 47q0 27 19 46.5t46 19.5q26 0 46 -19.5t20 -46.5t-19.5 -46.5t-46.5 -19.5z" />
    <glyph glyph-name="Ygrave" unicode="&#x1ef2;" horiz-adv-x="630" 
d="M467 0h-287v85h93v229l-195 351h-75v85h143l182 -334h5l126 249h-63v85h231v-85h-72l-181 -350v-230h93v-85zM267 797l-163 109h155l98 -109h-90z" />
    <glyph glyph-name="ygrave" unicode="&#x1ef3;" horiz-adv-x="527" 
d="M318 -250h-228v78h72l61 166l-161 431h-57v78h129l134 -377h8l101 299h-57v78h202v-78h-55l-214 -597h65v-78zM214 577l-122 146h145l60 -146h-83z" />
    <glyph glyph-name="endash" unicode="&#x2013;" horiz-adv-x="640" 
d="M43 238v73h554v-73h-554z" />
    <glyph glyph-name="emdash" unicode="&#x2014;" horiz-adv-x="840" 
d="M43 238v73h754v-73h-754z" />
    <glyph glyph-name="quoteleft" unicode="&#x2018;" horiz-adv-x="255" 
d="M180 753l-39 -124q25 -4 39.5 -22t14.5 -44q0 -28 -20 -47.5t-48 -19.5q-42 0 -58.5 33t-0.5 78l52 146h60z" />
    <glyph glyph-name="quoteright" unicode="&#x2019;" horiz-adv-x="255" 
d="M75 503l39 124q-25 4 -39.5 22t-14.5 44q0 28 20 47.5t48 19.5q42 0 58.5 -33t0.5 -78l-52 -146h-60z" />
    <glyph glyph-name="quotesinglbase" unicode="&#x201a;" horiz-adv-x="255" 
d="M75 -134l39 124q-25 4 -39.5 22t-14.5 44q0 28 20 47.5t48 19.5q42 0 58.5 -33t0.5 -78l-52 -146h-60z" />
    <glyph glyph-name="quotedblleft" unicode="&#x201c;" horiz-adv-x="429" 
d="M354 753l-39 -124q25 -4 39.5 -22t14.5 -44q0 -28 -20 -47.5t-48 -19.5q-42 0 -58.5 33t-0.5 78l52 146h60zM180 753l-39 -124q25 -4 39.5 -22t14.5 -44q0 -28 -20 -47.5t-48 -19.5q-42 0 -58.5 33t-0.5 78l52 146h60z" />
    <glyph glyph-name="quotedblright" unicode="&#x201d;" horiz-adv-x="429" 
d="M75 503l39 124q-25 4 -39.5 22t-14.5 44q0 28 20 47.5t48 19.5q42 0 58.5 -33t0.5 -78l-52 -146h-60zM250 503l39 124q-25 4 -39.5 22t-14.5 44q0 28 20 47.5t48 19.5q42 0 58.5 -33t0.5 -78l-52 -146h-60z" />
    <glyph glyph-name="quotedblbase" unicode="&#x201e;" horiz-adv-x="429" 
d="M250 -134l39 124q-25 4 -39.5 22t-14.5 44q0 28 20 47.5t48 19.5q42 0 58.5 -33t0.5 -78l-52 -146h-60zM75 -134l39 124q-25 4 -39.5 22t-14.5 44q0 28 20 47.5t48 19.5q42 0 58.5 -33t0.5 -78l-52 -146h-60z" />
    <glyph glyph-name="dagger" unicode="&#x2020;" horiz-adv-x="527" 
d="M39 490v88h179v244h91v-244h179v-88h-179v-730h-91v730h-179z" />
    <glyph glyph-name="daggerdbl" unicode="&#x2021;" horiz-adv-x="527" 
d="M39 490v88h179v244h91v-244h179v-88h-179v-330h179v-88h-179v-312h-91v312h-179v88h179v330h-179z" />
    <glyph glyph-name="bullet" unicode="&#x2022;" horiz-adv-x="303" 
d="M152 202q-40 0 -68.5 28t-28.5 68t28 68t69 28q40 0 68 -28t28 -68t-28 -68t-68 -28z" />
    <glyph glyph-name="ellipsis" unicode="&#x2026;" horiz-adv-x="643" 
d="M515 -12q-29 0 -48.5 20t-19.5 48t20 47.5t48 19.5q27 0 47 -19.5t20 -47.5t-20 -48t-47 -20zM322 -12q-28 0 -48 20t-20 48t20 47.5t48 19.5q27 0 47 -19.5t20 -47.5t-20 -48t-47 -20zM128 -12q-28 0 -48 20t-20 48t20 47.5t48 19.5q27 0 47 -19.5t20 -47.5t-20 -48
t-47 -20z" />
    <glyph glyph-name="perthousand" unicode="&#x2030;" horiz-adv-x="1284" 
d="M221 402q-79 0 -129.5 47t-50.5 129t51 130.5t129 48.5t129.5 -48t51.5 -130t-51 -129.5t-130 -47.5zM221 476q38 0 63 26t25 77q0 50 -25.5 76.5t-62.5 26.5q-38 0 -63 -27t-25 -77t25 -76t63 -26zM134 0l485 750h104l-485 -750h-104zM644 -9q-79 0 -130 47.5t-51 129.5
t51 130.5t130 48.5q78 0 129 -48t51 -130q0 -83 -50.5 -130.5t-129.5 -47.5zM644 66q39 0 63.5 26t24.5 77q0 50 -25.5 76.5t-62.5 26.5q-39 0 -63.5 -27t-24.5 -77t24.5 -76t63.5 -26zM1062 -9q-79 0 -129.5 47.5t-50.5 129.5t51 130.5t129 48.5q79 0 130 -48t51 -130
q0 -83 -51 -130.5t-130 -47.5zM1062 66q39 0 64 26t25 77q0 50 -25.5 76.5t-63.5 26.5t-63 -27t-25 -77t25 -76t63 -26z" />
    <glyph glyph-name="minute" unicode="&#x2032;" horiz-adv-x="250" 
d="M50 514l51 236h109l-70 -236h-90z" />
    <glyph glyph-name="second" unicode="&#x2033;" horiz-adv-x="414" 
d="M214 514l51 236h109l-70 -236h-90zM60 514l51 236h109l-70 -236h-90z" />
    <glyph glyph-name="guilsinglleft" unicode="&#x2039;" horiz-adv-x="268" 
d="M232 62l-216 192v54l215 192v-106l-127 -113l128 -112v-107z" />
    <glyph glyph-name="guilsinglright" unicode="&#x203a;" horiz-adv-x="268" 
d="M37 62v106l127 113l-128 112v107l216 -192v-54z" />
    <glyph glyph-name="Euro" unicode="&#x20ac;" horiz-adv-x="641" 
d="M598 27q-61 -37 -161 -37q-127 0 -204.5 70.5t-99.5 198.5h-106l33 81h64v26q0 29 1 43h-98l33 80h76q27 128 109 199.5t209 71.5q89 0 144 -25v-94q-57 31 -135 31q-81 0 -138 -47.5t-80 -135.5h277l-31 -80h-259q-2 -26 -2 -42q0 -18 1 -27h233l-31 -81h-192
q20 -88 74.5 -134t138.5 -46q92 0 144 43v-95z" />
    <glyph glyph-name="uni20B4" unicode="&#x20b4;" horiz-adv-x="551" 
d="M525 411h-499v79h310q54 29 54 86q0 48 -33.5 73.5t-85.5 25.5q-44 0 -92 -12v-95h-89v152q74 40 195 40q100 0 155.5 -46t55.5 -120q0 -59 -43 -104h72v-79zM502 30q-76 -40 -204 -40q-113 0 -174.5 46.5t-61.5 120.5q0 60 46 106h-82v79h499v-79h-300q-57 -29 -57 -89
q0 -49 39 -74t100 -25q54 0 106 13v94h89v-152z" />
    <glyph glyph-name="uni20B8" unicode="&#x20b8;" horiz-adv-x="575" 
d="M20 671v79h535v-79h-535zM424 0h-273v85h86v419h-128v-116h-89v206h535v-206h-89v116h-128v-419h86v-85z" />
    <glyph glyph-name="uni20BD" unicode="&#x20bd;" horiz-adv-x="611" 
d="M453 158h-205v-158h-101v158h-114v80h114v72h-114v80h114v275h-84v85h269q131 0 193 -62.5t62 -153.5q0 -95 -63 -160t-192 -65h-84v-71h205v-80zM248 390h80q70 0 111.5 36.5t41.5 104.5q0 62 -41.5 96t-111.5 34h-80v-271z" />
    <glyph glyph-name="afii61352" unicode="&#x2116;" horiz-adv-x="1172" 
d="M936 356q-89 0 -146 54t-57 147q0 95 57 150t146 55q87 0 144.5 -55t57.5 -149t-57 -148t-145 -54zM936 439q45 0 74.5 30t29.5 89q0 58 -30 89.5t-74 31.5q-46 0 -75.5 -31.5t-29.5 -90.5q0 -58 29 -88t76 -30zM741 205v82h387v-82h-387zM302 85v-85h-265v85h83v580h-83
v85h212l297 -555h6v555h175v-85h-83v-665h-90l-336 603h-6v-518h90z" />
    <glyph glyph-name="trademark" unicode="&#x2122;" horiz-adv-x="768" 
d="M239 450h-157v56h44v180h-54v-50h-55v114h290v-114h-55v50h-54v-180h41v-56zM327 450v56h40v188h-40v56h142l72 -208l73 208h137v-56h-40v-188h40v-56h-113v216h-1l-75 -216h-52l-75 216h-2v-216h-106z" />
    <glyph glyph-name="minus" unicode="&#x2212;" horiz-adv-x="534" 
d="M60 315v79h414v-79h-414z" />
    <glyph glyph-name="approxequal" unicode="&#x2248;" horiz-adv-x="576" 
d="M395 153q-36 0 -67.5 15t-50 33.5t-44 33.5t-52.5 15q-58 0 -69 -81h-77q4 81 43 124t103 43q36 0 67.5 -15.5t50 -33.5t43 -33.5t47.5 -15.5q58 0 62 83h77q-4 -85 -39 -126.5t-94 -41.5zM395 362q-36 0 -67.5 15t-50 33.5t-44 33.5t-52.5 15q-58 0 -69 -81h-77
q4 81 43 124t103 43q36 0 67.5 -15.5t50 -33.5t43 -33.5t47.5 -15.5q58 0 62 83h77q-4 -85 -39 -126.5t-94 -41.5z" />
    <glyph glyph-name="notequal" unicode="&#x2260;" horiz-adv-x="516" 
d="M60 409v80h244l79 121h82l-79 -121h70v-80h-122l-71 -109h193v-80h-245l-77 -118h-83l77 118h-68v80h120l71 109h-191z" />
    <glyph glyph-name="lessequal" unicode="&#x2264;" horiz-adv-x="474" 
d="M414 218l-388 189v53l387 189v-93l-260 -121l261 -122v-95zM29 101v80h385v-80h-385z" />
    <glyph glyph-name="greaterequal" unicode="&#x2265;" horiz-adv-x="474" 
d="M60 218v94l261 122l-260 121v94l387 -189v-53zM60 101v80h385v-80h-385z" />
    <glyph glyph-name="commaaccent" horiz-adv-x="259" 
d="M89 -252l28 82q-24 3 -38 20.5t-14 42.5q0 27 18.5 46t46.5 19q40 0 56 -33t0 -74l-39 -103h-58z" />
    <glyph glyph-name="cyrbreve" horiz-adv-x="470" 
d="M235 571q-71 0 -114.5 38t-43.5 114h85q0 -78 73 -78t73 78h85q0 -77 -43.5 -114.5t-114.5 -37.5z" />
    <glyph glyph-name="dotlessj" horiz-adv-x="278" 
d="M54 -260q-54 0 -86 16v87q25 -19 61 -19q41 0 57 30t16 123v448h-83v78h179v-545q0 -118 -34.5 -168t-109.5 -50z" />
    <glyph glyph-name="idotaccent" horiz-adv-x="313" 
d="M103 0v425h-76v78h172v-425h77v-78h-173zM142 591q-28 0 -47.5 19.5t-19.5 47.5q0 27 19.5 46t47.5 19q27 0 47 -19t20 -46t-20 -47t-47 -20z" />
    <glyph glyph-name="numbersign.icon" horiz-adv-x="733" 
d="M408 307l29 108h-113l-29 -108h113zM355 110l32 121h-112l-33 -121h-87l33 121h-118l19 76h119l29 108h-119l19 76h121l37 139h87l-37 -139h112l37 139h87l-37 -139h119l-20 -76h-119l-29 -108h120l-19 -76h-122l-32 -121h-87z" />
    <glyph glyph-name="asterisk.icon" horiz-adv-x="604" 
d="M533 303l-49 -94l-140 101l21 -183h-123l27 183l-148 -100l-51 93l170 68l-166 66l51 92l144 -101l-25 183h121l-21 -183l139 101l51 -92l-167 -67z" />
    <glyph glyph-name="phone1.icon" horiz-adv-x="513" 
d="M324 653q25 3 62 -10t62 -28l25 -15l-58 -108l-101 49q-26 -30 -77.5 -132.5t-66.5 -150.5l102 -51l-57 -124q-11 5 -29 14.5t-53.5 34.5t-47.5 47q-17 39 -4 111.5t47 142.5l19 40q31 66 84.5 121t92.5 59z" />
    <glyph glyph-name="bluetooth.icon" horiz-adv-x="579" 
d="M328 452l71 72l-71 70v-142zM258 -10v299l-126 -129l-49 50l158 160l-161 160l51 52l127 -127v305h7l234 -233l-152 -154l151 -150l-233 -233h-7zM328 147l71 73l-71 71v-144z" />
    <glyph glyph-name="file.icon" horiz-adv-x="626" 
d="M486 500h70v-282q0 -63 -20 -109t-54 -71t-72.5 -36.5t-82.5 -11.5q-47 0 -85.5 11.5t-71.5 36.5t-51.5 71t-18.5 109v366q0 91 48 133.5t122 42.5t120 -42.5t46 -133.5v-371q0 -52 -30 -82.5t-78 -30.5q-50 0 -79 30t-29 82v288h70v-282q0 -53 38 -53q21 0 29.5 12
t8.5 40v363q0 115 -96 115q-100 0 -100 -115v-357q0 -168 157 -168q73 0 116 40.5t43 128.5v276z" />
    <glyph glyph-name="phone2.icon" horiz-adv-x="920" 
d="M616 497q15 -10 30.5 -34.5t23.5 -44.5l7 -19l-93 -37l-38 76q-29 -5 -101 -36t-95 -50l37 -78l-99 -47q-4 8 -10 21.5t-14.5 44.5t-5.5 49q7 29 49 65.5t91 57.5l32 14q51 22 105 28t81 -10zM710 630q110 0 110 -109v-301q0 -110 -110 -110h-500q-49 0 -79.5 27.5
t-30.5 81.5v302q0 52 31.5 80.5t78.5 28.5h500zM165 516v-292q0 -24 13.5 -39t36.5 -15h490q50 0 50 55v291q0 54 -50 54h-490q-22 0 -36 -14t-14 -40z" />
    <glyph glyph-name="phone3.icon" horiz-adv-x="606" 
d="M441 165v489h-276v-489h276zM154 750h298q22 0 38 -16t16 -38v-642q0 -22 -16 -38t-38 -16h-298q-22 0 -38 16t-16 38v642q0 22 16 38t38 16zM303 45q17 0 28.5 11.5t11.5 28.5t-11.5 28.5t-28.5 11.5t-28.5 -11.5t-11.5 -28.5t11.5 -28.5t28.5 -11.5z" />
    <glyph glyph-name="phone4.icon" horiz-adv-x="1094" 
d="M296 55v638h-116v-638h116zM914 55v638h-436v-638h436zM854 630v-121h-316v121h316zM696 356q-16 0 -27 11t-11 27t11 27t27 11t27 -11t11 -27t-11 -27t-27 -11zM778 394q0 16 11 27t27 11t27 -11t11 -27t-11 -27t-27 -11t-27 11t-11 27zM614 394q0 -16 -11 -27t-27 -11
t-27 11t-11 27t11 27t27 11t27 -11t11 -27zM696 232q-16 0 -27 11t-11 27t11 27t27 11t27 -11t11 -27t-11 -27t-27 -11zM778 270q0 16 11 27t27 11t27 -11t11 -27t-11 -27t-27 -11t-27 11t-11 27zM614 270q0 -16 -11 -27t-27 -11t-27 11t-11 27t11 27t27 11t27 -11t11 -27z
M658 146q0 16 11 27t27 11t27 -11t11 -27t-11 -27t-27 -11t-27 11t-11 27zM778 146q0 16 11 27t27 11t27 -11t11 -27t-11 -27t-27 -11t-27 11t-11 27zM614 146q0 -16 -11 -27t-27 -11t-27 11t-11 27t11 27t27 11t27 -11t11 -27zM539 -23q0 -163 -150 -163q-79 0 -116 37
t-37 125v24h-62q-22 0 -38 16t-16 38v642q0 22 16 38t38 16h128q22 0 38 -16t16 -38v-642q0 -22 -16 -38t-38 -16h-6v-18q0 -60 22 -86.5t71 -26.5q51 0 70.5 24t19.5 88v19h-7q-22 0 -38 16t-16 38v642q0 22 16 38t38 16h448q22 0 38 -16t16 -38v-642q0 -22 -16 -38
t-38 -16h-381v-23z" />
    <glyph glyph-name="sim1.icon" horiz-adv-x="820" 
d="M220 750h302l178 -210v-441q0 -41 -29 -70t-71 -29h-379q-46 0 -73.5 27.5t-27.5 70.5v552q0 42 29.5 71t70.5 29zM230 695q-21 0 -35.5 -14.5t-14.5 -35.5v-540q0 -50 53 -50h357q21 0 35.5 14.5t14.5 34.5v411l-154 180h-256zM235 110v404h350v-404h-350zM285 154h100
v315h-100v-315zM535 469h-100v-75h100v75zM535 274v75h-100v-75h100zM535 154v75h-100v-75h100z" />
    <glyph glyph-name="mail1.icon" horiz-adv-x="920" 
d="M210 630h500q110 0 110 -109v-301q0 -110 -110 -110h-500q-49 0 -79.5 27.5t-30.5 81.5v302q0 52 31.5 80.5t78.5 28.5zM717 580h-504l252 -227zM155 192l201 176l-201 180v-356zM765 192v356l-201 -180zM460 271l-63 59l-198 -170h522l-198 170z" />
    <glyph glyph-name="mail2.icon" horiz-adv-x="920" 
d="M100 630h720v-520h-720v520zM717 580h-504l252 -227zM155 192l201 176l-201 180v-356zM765 192v356l-201 -180zM460 271l-63 59l-198 -170h522l-198 170z" />
    <glyph glyph-name="wifi.icon" horiz-adv-x="897" 
d="M517 168q0 -28 -20 -48t-48 -20q-29 0 -49 20t-20 48t20 47.5t49 19.5q28 0 48 -19.5t20 -47.5zM250 347l-53 52q99 108 252 108t252 -108l-53 -51q-79 87 -199 87q-122 0 -199 -88zM344 257l-52 50q57 66 157 66q97 0 155 -67l-51 -50q-39 45 -104 45q-67 0 -105 -44z
M154 439l-54 52q140 149 349 149q217 0 348 -149l-53 -50q-122 127 -295 127q-175 0 -295 -129z" />
    <glyph glyph-name="phone5.icon" horiz-adv-x="880" 
d="M621 516q-31 18 -92.5 11t-119.5 -32l-36 -16q-54 -24 -102 -65.5t-56 -73.5q-4 -20 4.5 -52.5t18.5 -55.5l11 -22l112 53l-42 89q27 21 109 56.5t113 40.5l43 -86l106 42q-31 85 -69 111zM190 630h500q110 0 110 -109v-301q0 -110 -110 -110h-500q-49 0 -79.5 27.5
t-30.5 81.5v302q0 52 31.5 80.5t78.5 28.5z" />
    <glyph glyph-name="phone6.icon" horiz-adv-x="1054" 
d="M834 630h-316v-121h316v121zM638 394q0 -16 11 -27t27 -11t27 11t11 27t-11 27t-27 11t-27 -11t-11 -27zM796 432q-16 0 -27 -11t-11 -27t11 -27t27 -11t27 11t11 27t-11 27t-27 11zM556 356q16 0 27 11t11 27t-11 27t-27 11t-27 -11t-11 -27t11 -27t27 -11zM638 270
q0 -16 11 -27t27 -11t27 11t11 27t-11 27t-27 11t-27 -11t-11 -27zM796 308q-16 0 -27 -11t-11 -27t11 -27t27 -11t27 11t11 27t-11 27t-27 11zM556 232q16 0 27 11t11 27t-11 27t-27 11t-27 -11t-11 -27t11 -27t27 -11zM676 184q-16 0 -27 -11t-11 -27t11 -27t27 -11t27 11
t11 27t-11 27t-27 11zM796 184q-16 0 -27 -11t-11 -27t11 -27t27 -11t27 11t11 27t-11 27t-27 11zM556 108q16 0 27 11t11 27t-11 27t-27 11t-27 -11t-11 -27t11 -27t27 -11zM519 -23q0 -163 -150 -163q-79 0 -116 37t-37 125v24h-62q-22 0 -38 16t-16 38v642q0 22 16 38
t38 16h128q22 0 38 -16t16 -38v-642q0 -22 -16 -38t-38 -16h-6v-18q0 -60 22 -86.5t71 -26.5q51 0 70.5 24t19.5 88v19h-7q-22 0 -38 16t-16 38v642q0 22 16 38t38 16h448q22 0 38 -16t16 -38v-642q0 -22 -16 -38t-38 -16h-381v-23z" />
    <glyph glyph-name="sim2.icon" horiz-adv-x="820" 
d="M435 469h100v-75h-100v75zM535 349v-75h-100v75h100zM535 229v-75h-100v75h100zM220 750h302l178 -210v-441q0 -41 -29 -70t-71 -29h-379q-46 0 -73.5 27.5t-27.5 70.5v552q0 42 29.5 71t70.5 29zM235 110h350v404h-350v-404zM285 154v315h100v-315h-100z" />
    <glyph glyph-name="mail3.icon" horiz-adv-x="920" 
d="M159 630h612l-306 -277zM100 143v454l256 -229zM820 597v-454l-256 225zM779 110h-638l256 220l63 -59l63 59z" />
    <glyph glyph-name="acute.uc" horiz-adv-x="402" 
d="M121 662l93 109h149l-157 -109h-85z" />
    <glyph glyph-name="grave.uc" horiz-adv-x="402" 
d="M198 662l-163 109h155l98 -109h-90z" />
    <glyph glyph-name="hungarumlaut.uc" horiz-adv-x="412" 
d="M120 662l75 109h111l-114 -109h-72zM236 662l111 109h140l-172 -109h-79z" />
    <glyph glyph-name="circumflex.uc" horiz-adv-x="478" 
d="M101 662l126 116h70l125 -116h-103l-55 49h-5l-58 -49h-100z" />
    <glyph glyph-name="caron.uc" horiz-adv-x="477" 
d="M211 662l-126 116h101l58 -49h4l56 49h102l-125 -116h-70z" />
    <glyph glyph-name="breve.uc" horiz-adv-x="523" 
d="M261 653q-66 0 -105.5 32t-39.5 94h79q0 -62 66 -62t66 62h79q0 -62 -39.5 -94t-105.5 -32z" />
    <glyph glyph-name="tilde.uc" horiz-adv-x="620" 
d="M176 793v84q18 33 66 33q24 0 64 -17t59 -17q43 0 61 38v-84q-16 -33 -63 -33q-25 0 -65.5 17t-60.5 17q-40 0 -61 -38z" />
    <glyph glyph-name="macron.uc" horiz-adv-x="605" 
d="M163 819v73h247v-73h-247z" />
    <glyph glyph-name="dieresis.uc" horiz-adv-x="572" 
d="M175 793q-27 0 -45 17.5t-18 43.5t18 44t45 18t45 -18t18 -44t-18 -43.5t-45 -17.5zM370 793q-27 0 -45 17.5t-18 43.5t18 44t45 18t45 -18t18 -44t-18 -43.5t-45 -17.5z" />
    <glyph glyph-name="dotaccent.uc" horiz-adv-x="610" 
d="M378 797q-29 0 -46.5 17.5t-17.5 43.5q0 27 17.5 44t46.5 17q28 0 46.5 -17.5t18.5 -43.5t-18.5 -43.5t-46.5 -17.5z" />
    <glyph glyph-name="ring.uc" horiz-adv-x="423" 
d="M211 640q-50 0 -79 24t-29 61q0 36 29 60t79 24q49 0 78.5 -24t29.5 -60t-30 -60.5t-78 -24.5zM212 692q20 0 33 9t13 23t-13 23t-34 9q-47 0 -47 -32t48 -32z" />
    <glyph glyph-name="cyrbreve.uc" horiz-adv-x="682" 
d="M347 779q-70 0 -114 36t-44 108h86q0 -72 72 -72q38 0 55.5 20.5t17.5 51.5h86q0 -72 -43.5 -108t-115.5 -36z" />
    <glyph glyph-name="zero.tab" horiz-adv-x="600" 
d="M300 -10q-245 0 -245 383q0 387 245 387t245 -386q0 -384 -245 -384zM300 81q139 0 139 293q0 295 -139 295t-139 -296q0 -140 32 -216t107 -76z" />
    <glyph glyph-name="one.tab" horiz-adv-x="600" 
d="M506 0h-411v88h158v557l-157 -61v94l207 82h51v-672h152v-88z" />
    <glyph glyph-name="two.tab" horiz-adv-x="600" 
d="M524 0h-447v81q195 244 217 267q47 60 70.5 109.5t23.5 101.5q0 116 -113 116q-50 0 -86 -16v-106h-89v158q67 52 190 52q100 0 152 -52t52 -145q0 -72 -30.5 -130.5t-94.5 -135.5q-49 -56 -174 -212h329v-88z" />
    <glyph glyph-name="three.tab" horiz-adv-x="600" 
d="M295 -10q-92 0 -153.5 51t-67.5 157h96q6 -55 37 -87.5t87 -32.5q53 0 89 39.5t36 105.5q0 65 -38 101t-108 36q-37 0 -63 -6v84q91 9 134 46t43 91q0 48 -29 74.5t-78 26.5q-45 0 -85 -16v-107h-89v158q74 52 186 52q98 0 149 -47.5t51 -121.5q0 -70 -40.5 -115
t-100.5 -61v-4q81 -9 127.5 -60.5t46.5 -129.5q0 -100 -58 -167t-172 -67z" />
    <glyph glyph-name="four.tab" horiz-adv-x="600" 
d="M355 -10v182h-311v70l338 515h74v-501h94v-84h-94v-182h-101zM144 256h211v317h-4z" />
    <glyph glyph-name="five.tab" horiz-adv-x="600" 
d="M292 -10q-92 0 -153.5 51t-67.5 157h96q5 -54 36.5 -87t87.5 -33q53 0 90 41t37 108q0 75 -45.5 116.5t-126.5 41.5q-27 0 -59.5 -3.5t-51.5 -7.5l-19 -3l26 379h342v-88h-256l-14 -196q26 3 59 3q118 0 184.5 -65.5t66.5 -175.5q0 -101 -59 -169.5t-173 -68.5z" />
    <glyph glyph-name="six.tab" horiz-adv-x="600" 
d="M301 -10q-117 0 -180.5 84t-63.5 252q0 100 12 175.5t40.5 135.5t79 91.5t123.5 31.5q92 0 150 -52.5t64 -138.5h-96q-7 49 -39.5 76t-81.5 27q-149 0 -155 -288h7q21 37 61 61.5t96 24.5q104 0 165 -65.5t61 -171.5q0 -111 -66 -177t-177 -66zM302 75q60 0 99 42t39 116
q0 70 -39 111t-99 41q-59 0 -97 -42t-38 -114q0 -66 38.5 -110t96.5 -44z" />
    <glyph glyph-name="seven.tab" horiz-adv-x="600" 
d="M408 0h-290v88h80q15 86 72 228q26 64 149 346h-248v-109h-89v197h444v-71q-147 -341 -162 -377q-49 -123 -64 -214h108v-88z" />
    <glyph glyph-name="eight.tab" horiz-adv-x="600" 
d="M300 -10q-116 0 -183 60t-67 160q0 68 36.5 118.5t105.5 74.5v6q-55 17 -83.5 61.5t-28.5 98.5q0 85 58.5 139.5t161.5 54.5q104 0 161 -54t57 -139q0 -55 -28 -99.5t-83 -61.5v-6q69 -24 105.5 -74t36.5 -118q0 -101 -66 -161t-183 -60zM300 445q52 0 82 30t30 87
q0 54 -30.5 85.5t-81.5 31.5q-53 0 -83.5 -31t-30.5 -86q0 -57 30.5 -87t83.5 -30zM300 74q67 0 105 38.5t38 102.5q0 68 -38 106t-105 38q-68 0 -106 -38.5t-38 -105.5q0 -64 38.5 -102.5t105.5 -38.5z" />
    <glyph glyph-name="nine.tab" horiz-adv-x="600" 
d="M299 365q59 0 97 42t38 114q0 66 -38.5 110t-96.5 44q-61 0 -100 -41.5t-39 -116.5q0 -70 39.5 -111t99.5 -41zM289 -10q-92 0 -150 52.5t-65 138.5h96q8 -49 40 -76t81 -27q151 0 155 288h-7q-20 -37 -60 -61.5t-96 -24.5q-104 0 -165 65.5t-61 171.5q0 111 65.5 177
t176.5 66q117 0 181 -84t64 -252q0 -100 -12 -175.5t-40.5 -135.5t-79 -91.5t-123.5 -31.5z" />
    <glyph glyph-name="zero.superior" horiz-adv-x="433" 
d="M216 427q-174 0 -174 250q0 256 174 256q175 0 175 -256q0 -250 -175 -250zM216 500q93 0 93 177q0 184 -93 184q-92 0 -92 -184q0 -177 92 -177z" />
    <glyph glyph-name="one.superior" horiz-adv-x="304" 
d="M274 432h-239v69h82v345l-90 -39v69l124 57h45v-432h78v-69z" />
    <glyph glyph-name="two.superior" horiz-adv-x="360" 
d="M334 432h-301v53l140 167q61 72 61 138q0 33 -19.5 51.5t-55.5 18.5q-28 0 -47 -5v-78h-63v123q43 33 123 33q70 0 107 -36t37 -96q0 -47 -20 -88t-63 -91l-100 -121h201v-69z" />
    <glyph glyph-name="three.superior" horiz-adv-x="361" 
d="M175 427q-65 0 -108 34t-47 104h72q2 -31 22.5 -49.5t58.5 -18.5q32 0 54.5 23t22.5 61q0 37 -23.5 57.5t-67.5 20.5q-33 0 -48 -4v67q60 6 90.5 28t30.5 56q0 28 -19 43t-52 15q-35 0 -62 -12v-58h-58v105q46 34 128 34q71 0 108 -31.5t37 -82.5q0 -45 -27.5 -74.5
t-67.5 -39.5v-3q53 -5 83.5 -38t30.5 -83q0 -66 -40 -110t-118 -44z" />
    <glyph glyph-name="four.superior" horiz-adv-x="372" 
d="M214 427v112h-199v55l238 339h41v-330h58v-64h-58v-112h-80zM212 771l-118 -168h120v168h-2z" />
    <glyph glyph-name="five.superior" horiz-adv-x="381" 
d="M182 427q-65 0 -109 34.5t-48 107.5h73q2 -32 23 -51.5t60 -19.5q35 0 59 25t24 65q0 45 -30.5 70t-86.5 25q-20 0 -43.5 -2t-37.5 -4l-13 -2l17 253h258v-70h-188l-9 -108q11 1 36 1q84 0 132 -44t48 -117q0 -69 -42.5 -116t-122.5 -47z" />
    <glyph glyph-name="six.superior" horiz-adv-x="420" 
d="M213 427q-80 0 -127 55.5t-47 165.5q0 136 42 210.5t141 74.5q61 0 100 -35t43 -92h-76q-9 56 -70 56q-99 0 -103 -170h5q30 55 105 55q71 0 113.5 -44t42.5 -117q0 -71 -46.5 -115t-122.5 -44zM211 495q38 0 63 24.5t25 66.5q0 44 -25 69t-63 25t-61.5 -25.5
t-23.5 -68.5q0 -39 24 -65t61 -26z" />
    <glyph glyph-name="seven.superior" horiz-adv-x="324" 
d="M237 432h-184v69h54q10 53 40 135l84 222h-154v-59h-59v128h295v-53l-96 -253q-26 -71 -36 -120h56v-69z" />
    <glyph glyph-name="eight.superior" horiz-adv-x="431" 
d="M216 427q-81 0 -128.5 39t-47.5 105q0 98 91 126v5q-72 26 -72 106q0 55 42 90t115 35t114 -35t41 -89q0 -77 -72 -107v-5q91 -27 91 -126q0 -67 -46 -105.5t-128 -38.5zM216 727q73 0 73 71q0 33 -20 51t-53 18q-35 0 -55 -18t-20 -51q0 -71 75 -71zM216 493
q43 0 68 22.5t25 61.5q0 42 -24.5 65.5t-68.5 23.5t-69 -23t-25 -66q0 -39 25 -61.5t69 -22.5z" />
    <glyph glyph-name="nine.superior" horiz-adv-x="427" 
d="M209 681q38 0 61.5 25t23.5 68q0 40 -24 65.5t-61 25.5q-38 0 -63 -24.5t-25 -67.5q0 -42 25 -67t63 -25zM199 427q-61 0 -100 35t-44 92h76q4 -26 23 -40.5t47 -14.5q101 0 103 169h-5q-28 -55 -105 -55q-71 0 -113 44t-42 114q0 73 46 117.5t122 44.5q81 0 128 -55.5
t47 -165.5q0 -285 -183 -285z" />
    <glyph glyph-name="zero.frame" horiz-adv-x="931" 
d="M209 0q-53 0 -81 28t-28 81v532q0 53 28 81t81 28h513q53 0 81 -28t28 -81v-532q0 -53 -28 -81t-81 -28h-513zM238 70h455q35 0 50 15t15 50v480q0 35 -15 50t-50 15h-455q-35 0 -50 -15t-15 -50v-480q0 -35 15 -50t50 -15zM465 125q-174 0 -174 250q0 256 174 256
q175 0 175 -256q0 -250 -175 -250zM465 198q93 0 93 177q0 184 -93 184q-92 0 -92 -184q0 -177 92 -177z" />
    <glyph glyph-name="one.frame" horiz-adv-x="931" 
d="M209 0q-53 0 -81 28t-28 81v532q0 53 28 81t81 28h513q53 0 81 -28t28 -81v-532q0 -53 -28 -81t-81 -28h-513zM238 70h455q35 0 50 15t15 50v480q0 35 -15 50t-50 15h-455q-35 0 -50 -15t-15 -50v-480q0 -35 15 -50t50 -15zM606 130h-239v69h82v345l-90 -39v69l124 57h45
v-432h78v-69z" />
    <glyph glyph-name="two.frame" horiz-adv-x="931" 
d="M209 0q-53 0 -81 28t-28 81v532q0 53 28 81t81 28h513q53 0 81 -28t28 -81v-532q0 -53 -28 -81t-81 -28h-513zM238 70h455q35 0 50 15t15 50v480q0 35 -15 50t-50 15h-455q-35 0 -50 -15t-15 -50v-480q0 -35 15 -50t50 -15zM628 130h-301v53l140 167q61 72 61 138
q0 33 -19.5 51.5t-55.5 18.5q-28 0 -47 -5v-78h-63v123q43 33 123 33q70 0 107 -36t37 -96q0 -47 -20 -88t-63 -91l-100 -121h201v-69z" />
    <glyph glyph-name="three.frame" horiz-adv-x="931" 
d="M209 0q-53 0 -81 28t-28 81v532q0 53 28 81t81 28h513q53 0 81 -28t28 -81v-532q0 -53 -28 -81t-81 -28h-513zM238 70h455q35 0 50 15t15 50v480q0 35 -15 50t-50 15h-455q-35 0 -50 -15t-15 -50v-480q0 -35 15 -50t50 -15zM477 125q-65 0 -108 34t-47 104h72
q2 -31 22.5 -49.5t58.5 -18.5q32 0 54.5 23t22.5 61q0 37 -23.5 57.5t-67.5 20.5q-33 0 -48 -4v67q60 6 90.5 28t30.5 56q0 28 -19 43t-52 15q-35 0 -62 -12v-58h-58v105q46 34 128 34q71 0 108 -31.5t37 -82.5q0 -45 -27.5 -74.5t-67.5 -39.5v-3q53 -5 83.5 -38t30.5 -83
q0 -66 -40 -110t-118 -44z" />
    <glyph glyph-name="four.frame" horiz-adv-x="931" 
d="M209 0q-53 0 -81 28t-28 81v532q0 53 28 81t81 28h513q53 0 81 -28t28 -81v-532q0 -53 -28 -81t-81 -28h-513zM238 70h455q35 0 50 15t15 50v480q0 35 -15 50t-50 15h-455q-35 0 -50 -15t-15 -50v-480q0 -35 15 -50t50 -15zM471 125v112h-199v55l238 339h41v-330h58v-64
h-58v-112h-80zM469 469l-118 -168h120v168h-2z" />
    <glyph glyph-name="five.frame" horiz-adv-x="931" 
d="M209 750h513q53 0 81 -28t28 -81v-532q0 -53 -28 -81t-81 -28h-513q-53 0 -81 28t-28 81v532q0 53 28 81t81 28zM693 680h-455q-35 0 -50 -15t-15 -50v-480q0 -35 15 -50t50 -15h455q35 0 50 15t15 50v480q0 35 -15 50t-50 15zM471 125q-65 0 -109 34.5t-48 107.5h73
q2 -32 23 -51.5t60 -19.5q35 0 59 25t24 65q0 45 -30.5 70t-86.5 25q-20 0 -43.5 -2t-36.5 -4l-14 -2l17 253h258v-70h-188l-9 -108q11 1 36 1q84 0 132 -44t48 -117q0 -69 -42.5 -116t-122.5 -47z" />
    <glyph glyph-name="six.frame" horiz-adv-x="931" 
d="M209 0q-53 0 -81 28t-28 81v532q0 53 28 81t81 28h513q53 0 81 -28t28 -81v-532q0 -53 -28 -81t-81 -28h-513zM238 70h455q35 0 50 15t15 50v480q0 35 -15 50t-50 15h-455q-35 0 -50 -15t-15 -50v-480q0 -35 15 -50t50 -15zM461 125q-80 0 -127 55.5t-47 165.5
q0 136 42 210.5t141 74.5q61 0 100 -35t43 -92h-76q-9 56 -70 56q-99 0 -103 -170h5q30 55 105 55q71 0 113.5 -44t42.5 -117q0 -71 -46.5 -115t-122.5 -44zM459 193q38 0 63 24.5t25 66.5q0 44 -25 69t-63 25t-61.5 -25.5t-23.5 -68.5q0 -39 24 -65t61 -26z" />
    <glyph glyph-name="seven.frame" horiz-adv-x="931" 
d="M209 0q-53 0 -81 28t-28 81v532q0 53 28 81t81 28h513q53 0 81 -28t28 -81v-532q0 -53 -28 -81t-81 -28h-513zM238 70h455q35 0 50 15t15 50v480q0 35 -15 50t-50 15h-455q-35 0 -50 -15t-15 -50v-480q0 -35 15 -50t50 -15zM543 130h-184v69h54q10 53 40 135l84 222h-154
v-59h-59v128h295v-53l-96 -253q-26 -71 -36 -120h56v-69z" />
    <glyph glyph-name="eight.frame" horiz-adv-x="931" 
d="M209 0q-53 0 -81 28t-28 81v532q0 53 28 81t81 28h513q53 0 81 -28t28 -81v-532q0 -53 -28 -81t-81 -28h-513zM238 70h455q35 0 50 15t15 50v480q0 35 -15 50t-50 15h-455q-35 0 -50 -15t-15 -50v-480q0 -35 15 -50t50 -15zM472 125q-81 0 -128.5 39t-47.5 105
q0 98 91 126v5q-72 26 -72 106q0 55 42 90t115 35t114 -35t41 -89q0 -77 -72 -107v-5q91 -27 91 -126q0 -67 -46 -105.5t-128 -38.5zM472 425q73 0 73 71q0 33 -20 51t-53 18q-35 0 -55 -18t-20 -51q0 -71 75 -71zM472 191q43 0 68 22.5t25 61.5q0 42 -24.5 65.5t-68.5 23.5
t-69 -23t-25 -66q0 -39 25 -61.5t69 -22.5z" />
    <glyph glyph-name="nine.frame" horiz-adv-x="931" 
d="M209 0q-53 0 -81 28t-28 81v532q0 53 28 81t81 28h513q53 0 81 -28t28 -81v-532q0 -53 -28 -81t-81 -28h-513zM238 70h455q35 0 50 15t15 50v480q0 35 -15 50t-50 15h-455q-35 0 -50 -15t-15 -50v-480q0 -35 15 -50t50 -15zM462 379q38 0 61.5 25t23.5 68q0 40 -24 65.5
t-61 25.5q-38 0 -63 -24.5t-25 -67.5q0 -42 25 -67t63 -25zM452 125q-61 0 -100 35t-44 92h76q4 -26 23 -40.5t47 -14.5q101 0 103 169h-5q-28 -55 -105 -55q-71 0 -113 44t-42 114q0 73 46 117.5t122 44.5q81 0 128 -55.5t47 -165.5q0 -285 -183 -285z" />
    <glyph glyph-name="numbersign.frame" horiz-adv-x="931" 
d="M516 325l24 88h-93l-24 -88h93zM472 164l27 99h-92l-27 -99h-71l27 99h-97l16 62h97l24 88h-97l15 63h99l30 113h72l-31 -113h92l30 113h71l-30 -113h97l-16 -63h-97l-24 -88h98l-15 -62h-100l-26 -99h-72zM209 0q-53 0 -81 28t-28 81v532q0 53 28 81t81 28h513
q53 0 81 -28t28 -81v-532q0 -53 -28 -81t-81 -28h-513zM238 70h455q35 0 50 15t15 50v480q0 35 -15 50t-50 15h-455q-35 0 -50 -15t-15 -50v-480q0 -35 15 -50t50 -15z" />
    <glyph glyph-name="asterisk.frame" horiz-adv-x="931" 
d="M209 0q-53 0 -81 28t-28 81v532q0 53 28 81t81 28h513q53 0 81 -28t28 -81v-532q0 -53 -28 -81t-81 -28h-513zM238 70h455q35 0 50 15t15 50v480q0 35 -15 50t-50 15h-455q-35 0 -50 -15t-15 -50v-480q0 -35 15 -50t50 -15zM705 307l-45 -88l-131 95l19 -171h-115l26 171
l-139 -94l-48 87l159 64l-155 62l48 86l135 -95l-24 171h113l-19 -171l130 95l47 -86l-156 -63z" />
    <glyph glyph-name="empty.frame" horiz-adv-x="931" 
d="M209 0q-53 0 -81 28t-28 81v532q0 53 28 81t81 28h513q53 0 81 -28t28 -81v-532q0 -53 -28 -81t-81 -28h-513zM238 70h455q35 0 50 15t15 50v480q0 35 -15 50t-50 15h-455q-35 0 -50 -15t-15 -50v-480q0 -35 15 -50t50 -15z" />
    <glyph glyph-name="phone.frame" horiz-adv-x="931" 
d="M397 478q49 42 103 69.5t85 21.5q20 -5 46 -26t42 -39l16 -18l-132 -68l-25 55q-28 -15 -87 -71t-74 -83l52 -28l-75 -132q-70 65 -78 110q-4 32 25.5 84.5t72.5 98.5q28 25 29 26zM209 0q-53 0 -81 28t-28 81v532q0 53 28 81t81 28h513q53 0 81 -28t28 -81v-532
q0 -53 -28 -81t-81 -28h-513zM238 70h455q35 0 50 15t15 50v480q0 35 -15 50t-50 15h-455q-35 0 -50 -15t-15 -50v-480q0 -35 15 -50t50 -15z" />
    </font>
</defs>
</svg>
