<?xml version="1.0" standalone="no"?>
<!DOCTYPE svg PUBLIC "-//W3C//DTD SVG 20010904//EN"
 "http://www.w3.org/TR/2001/REC-SVG-20010904/DTD/svg10.dtd">
<svg version="1.0" xmlns="http://www.w3.org/2000/svg"
 width="280.000000pt" height="280.000000pt" viewBox="0 0 280.000000 280.000000"
 preserveAspectRatio="xMidYMid meet">
<metadata>
Created by potrace 1.11, written by Peter Selinger 2001-2013
</metadata>
<g transform="translate(0.000000,280.000000) scale(0.100000,-0.100000)"
fill="#000000" stroke="none">
<path d="M1230 2657 c-30 -29 -77 -70 -105 -92 -60 -48 -106 -96 -143 -150
-15 -22 -31 -45 -37 -51 -5 -6 -26 -43 -45 -82 -19 -39 -40 -72 -46 -72 -27 0
-70 231 -54 288 11 39 -13 82 -48 84 -50 2 -76 -3 -89 -20 -24 -32 -7 -194 32
-306 12 -35 14 -51 6 -59 -8 -8 -11 -7 -11 3 0 7 -3 11 -6 7 -3 -3 -16 -2 -28
3 -13 4 -38 11 -57 14 -19 3 -64 12 -102 19 -37 8 -69 11 -72 7 -6 -10 5 -40
15 -40 22 0 103 -100 126 -156 18 -42 16 -45 -81 -94 -117 -59 -191 -157 -264
-350 -18 -48 -30 -170 -16 -170 2 0 17 12 33 28 99 94 142 132 185 161 43 29
47 30 47 12 0 -11 -4 -23 -10 -26 -5 -3 -10 -14 -10 -23 0 -9 -6 -28 -13 -42
-16 -30 -53 -175 -62 -240 -6 -52 -7 -255 -1 -285 11 -51 49 -162 61 -175 6
-8 23 -34 35 -57 13 -24 27 -43 32 -43 4 0 8 -5 8 -12 0 -20 127 -130 195
-168 104 -59 270 -133 325 -145 78 -17 447 -142 675 -228 223 -84 243 -90 355
-93 118 -3 155 6 248 62 144 85 241 216 272 366 12 60 17 238 7 254 -3 5 -8
30 -12 54 -11 79 -24 128 -54 202 -28 74 -43 121 -46 148 -1 8 -5 24 -8 35
-12 37 -28 178 -33 290 -7 152 -20 234 -55 349 -27 87 -44 131 -96 243 -22 47
-109 140 -172 182 -67 46 -161 94 -161 84 0 -5 -4 -3 -8 3 -7 10 -94 43 -137
52 -11 2 -40 5 -65 5 -25 1 -48 6 -51 11 -4 4 6 29 22 55 16 26 32 58 34 71 8
39 8 117 1 129 -13 21 -45 11 -79 -24 -19 -19 -37 -35 -41 -35 -4 0 -26 -8
-49 -19 -23 -10 -82 -33 -132 -52 -49 -18 -114 -46 -143 -62 -30 -16 -55 -27
-57 -25 -6 6 19 78 27 78 5 0 8 6 8 13 0 6 14 39 30 71 17 32 30 60 30 62 0 2
-12 4 -27 4 -20 0 -44 -16 -83 -53z"/>
</g>
</svg>
